<svg width="112" height="112" viewBox="0 0 112 112" fill="none" xmlns="http://www.w3.org/2000/svg">
<g id="Diplom&#195;&#169;s">
<path id="Vector" d="M25.8997 13.9499H2C2 13.9499 2 2 13.9499 2C25.8997 2 25.8997 13.9499 25.8997 13.9499ZM25.8997 13.9499V97.599C25.8997 97.599 25.8997 109.549 37.8496 109.549C49.7995 109.549 49.7995 97.599 49.7995 97.599H109.549C109.549 97.599 109.549 109.549 97.599 109.549C85.6491 109.549 37.8496 109.549 37.8496 109.549" stroke="#00326E" stroke-opacity="0.3" stroke-width="4" stroke-miterlimit="10" stroke-linecap="round" stroke-linejoin="round"/>
<path id="Vector_2" d="M85.6487 77.2354C85.6487 88.9874 85.6487 97.5993 85.6487 97.5993" stroke="#00326E" stroke-opacity="0.3" stroke-width="4" stroke-miterlimit="10" stroke-linecap="round" stroke-linejoin="round"/>
<path id="Vector_3" d="M13.9495 2H73.6988C73.6988 2 85.6487 2 85.6487 13.9499C85.6487 16.1048 85.6487 20.2023 85.6487 25.4722" stroke="#00326E" stroke-opacity="0.3" stroke-width="4" stroke-miterlimit="10" stroke-linecap="round" stroke-linejoin="round"/>
<path id="Vector_4" d="M69.6301 42.5803C69.6301 42.5803 69.6301 26.5635 85.6483 26.5635C101.666 26.5635 101.666 42.5803 101.666 42.5803C101.666 42.5803 101.666 58.5984 85.6483 58.5984C69.6301 58.5984 69.6301 42.5803 69.6301 42.5803Z" stroke="#00326E" stroke-opacity="0.3" stroke-width="4" stroke-miterlimit="10" stroke-linecap="round" stroke-linejoin="round"/>
<path id="Vector_5" d="M75.5635 57.4128V82.3296L86.2427 71.6504L96.9205 82.3296V57.4128" stroke="#00326E" stroke-opacity="0.3" stroke-width="4" stroke-miterlimit="10" stroke-linecap="round" stroke-linejoin="round"/>
<path id="Vector_6" d="M85.6483 47.9191C88.5969 47.9191 90.9872 45.5288 90.9872 42.5802C90.9872 39.6315 88.5969 37.2412 85.6483 37.2412C82.6997 37.2412 80.3093 39.6315 80.3093 42.5802C80.3093 45.5288 82.6997 47.9191 85.6483 47.9191Z" stroke="#00326E" stroke-opacity="0.3" stroke-width="4" stroke-miterlimit="10" stroke-linecap="round" stroke-linejoin="round"/>
<path id="Vector_7" d="M38.7354 28.1082H59.5361" stroke="#00326E" stroke-opacity="0.3" stroke-width="4" stroke-miterlimit="10" stroke-linecap="round" stroke-linejoin="round"/>
<path id="Vector_8" d="M38.7354 41.7522H59.5361" stroke="#00326E" stroke-opacity="0.3" stroke-width="4" stroke-miterlimit="10" stroke-linecap="round" stroke-linejoin="round"/>
<path id="Vector_9" d="M38.7354 55.397H59.5361" stroke="#00326E" stroke-opacity="0.3" stroke-width="4" stroke-miterlimit="10" stroke-linecap="round" stroke-linejoin="round"/>
<path id="Vector_10" d="M38.7354 69.0415H59.5361" stroke="#00326E" stroke-opacity="0.3" stroke-width="4" stroke-miterlimit="10" stroke-linecap="round" stroke-linejoin="round"/>
</g>
</svg>
