<svg width="83" height="112" viewBox="0 0 83 112" fill="none" xmlns="http://www.w3.org/2000/svg">
<g id="Doctorants">
<path id="Vector" d="M76.5814 95.8503L39.6563 109.363L4.39355 96.1039" stroke="#00326E" stroke-opacity="0.3" stroke-width="4" stroke-miterlimit="10" stroke-linecap="round" stroke-linejoin="round"/>
<path id="Vector_2" d="M33.0065 72.8945C10.0721 76.3919 5.35585 90.4635 4.38525 96.1038" stroke="#00326E" stroke-opacity="0.3" stroke-width="4" stroke-miterlimit="10" stroke-linecap="round" stroke-linejoin="round"/>
<path id="Vector_3" d="M48.0081 72.8945C70.6026 76.3401 75.5153 90.0506 76.5828 95.8476" stroke="#00326E" stroke-opacity="0.3" stroke-width="4" stroke-miterlimit="10" stroke-linecap="round" stroke-linejoin="round"/>
<path id="Vector_4" d="M60.1363 46.7234C60.1363 58.9003 51.3651 68.7696 40.5438 68.7696C29.7225 68.7696 20.9526 58.899 20.9526 46.7234" stroke="#00326E" stroke-opacity="0.3" stroke-width="4" stroke-miterlimit="10" stroke-linecap="round" stroke-linejoin="round"/>
<path id="Vector_5" d="M80.9289 16.5854L40.9313 31.2227L2 16.5854" stroke="#00326E" stroke-opacity="0.3" stroke-width="4" stroke-miterlimit="10" stroke-linecap="round" stroke-linejoin="round"/>
<path id="Vector_6" d="M2 16.6386L41.9989 2L80.9289 16.6386" stroke="#00326E" stroke-opacity="0.3" stroke-width="4" stroke-miterlimit="10" stroke-linecap="round" stroke-linejoin="round"/>
<path id="Vector_7" d="M20.9517 46.7231V25.3833" stroke="#00326E" stroke-opacity="0.3" stroke-width="4" stroke-miterlimit="10" stroke-linecap="round" stroke-linejoin="round"/>
<path id="Vector_8" d="M60.1362 46.7231V25.3833" stroke="#00326E" stroke-opacity="0.3" stroke-width="4" stroke-miterlimit="10" stroke-linecap="round" stroke-linejoin="round"/>
<path id="Vector_9" d="M33.2102 76.0862V68.595" stroke="#00326E" stroke-opacity="0.3" stroke-width="4" stroke-miterlimit="10" stroke-linecap="round" stroke-linejoin="round"/>
<path id="Vector_10" d="M48.0081 76.0862V68.595" stroke="#00326E" stroke-opacity="0.3" stroke-width="4" stroke-miterlimit="10" stroke-linecap="round" stroke-linejoin="round"/>
<path id="Vector_11" d="M20.9517 39.1255H60.0649" stroke="#00326E" stroke-opacity="0.3" stroke-width="4" stroke-miterlimit="10" stroke-linecap="round" stroke-linejoin="round"/>
<path id="Vector_12" d="M40.6079 16.6387H78.1624" stroke="#00326E" stroke-opacity="0.3" stroke-width="4" stroke-miterlimit="10" stroke-linecap="round" stroke-linejoin="round"/>
<path id="Vector_13" d="M80.9294 16.5193V39.1258" stroke="#00326E" stroke-opacity="0.3" stroke-width="4" stroke-miterlimit="10" stroke-linecap="round" stroke-linejoin="round"/>
<path id="Vector_14" d="M48.0068 75.6973C48.0068 79.7828 44.694 81.8037 40.6085 81.8037C36.5217 81.8037 33.2102 79.7841 33.2102 75.6973" stroke="#00326E" stroke-opacity="0.3" stroke-width="4" stroke-miterlimit="10" stroke-linecap="round" stroke-linejoin="round"/>
</g>
</svg>
