<svg width="126" height="112" viewBox="0 0 126 112" fill="none" xmlns="http://www.w3.org/2000/svg">
<g id="Etudiants">
<path id="Vector" d="M2.00317 85.812V84.058C2.00317 84.058 2.00317 57.1111 28.9488 57.1111C35.7244 57.1111 40.7964 58.8159 44.5912 61.3679" stroke="#00326E" stroke-opacity="0.3" stroke-width="4" stroke-miterlimit="10" stroke-linecap="round" stroke-linejoin="round"/>
<path id="Vector_2" d="M45.0748 39.5966C41.7939 43.5905 36.9741 46.3164 31.42 46.8117C20.4341 47.7903 10.7375 39.6829 9.75626 28.697C8.77637 17.7111 16.885 8.01313 27.8709 7.03324C33.6387 6.51939 39.052 8.50838 43.0353 12.1079" stroke="#00326E" stroke-opacity="0.3" stroke-width="4" stroke-miterlimit="10" stroke-linecap="round" stroke-linejoin="round"/>
<path id="Vector_3" d="M79.6377 40.2292C82.8974 43.8766 87.4941 46.3422 92.7507 46.8109C103.735 47.7895 113.433 39.6822 114.413 28.6963C115.394 17.7104 107.286 8.01237 96.2998 7.03248C90.8812 6.55051 85.7733 8.27792 81.8723 11.4725" stroke="#00326E" stroke-opacity="0.3" stroke-width="4" stroke-miterlimit="10" stroke-linecap="round" stroke-linejoin="round"/>
<path id="Vector_4" d="M123.429 85.812V84.058C123.429 84.058 123.429 57.1111 96.4832 57.1111C89.1659 57.1111 83.8376 59.0987 79.9539 61.9946" stroke="#00326E" stroke-opacity="0.3" stroke-width="4" stroke-miterlimit="10" stroke-linecap="round" stroke-linejoin="round"/>
<path id="Vector_5" d="M88.5811 99.7044V84.058C88.5811 84.058 88.5811 57.1111 61.6368 57.1111C34.6912 57.1111 34.6912 84.058 34.6912 84.058V99.7044" stroke="#00326E" stroke-opacity="0.3" stroke-width="4" stroke-miterlimit="10" stroke-linecap="round" stroke-linejoin="round"/>
<path id="Vector_6" d="M61.8389 47.0722C74.2852 47.0722 84.375 36.9825 84.375 24.5361C84.375 12.0898 74.2852 2 61.8389 2C49.3925 2 39.3027 12.0898 39.3027 24.5361C39.3027 36.9825 49.3925 47.0722 61.8389 47.0722Z" stroke="#00326E" stroke-opacity="0.3" stroke-width="4" stroke-miterlimit="10" stroke-linecap="round" stroke-linejoin="round"/>
<path id="Vector_7" d="M123.429 87.2717L61.8396 109.809L2 87.3089" stroke="#00326E" stroke-opacity="0.3" stroke-width="4" stroke-miterlimit="10" stroke-linecap="round" stroke-linejoin="round"/>
</g>
</svg>
