<?xml version="1.0" encoding="utf-8"?>
<!-- Generator: Adobe Illustrator 22.0.1, SVG Export Plug-In . SVG Version: 6.00 Build 0)  -->
<svg version="1.1" id="Calque_1" xmlns="http://www.w3.org/2000/svg" xmlns:xlink="http://www.w3.org/1999/xlink" x="0px" y="0px"
	 viewBox="0 0 40 40" style="enable-background:new 0 0 40 40;" xml:space="preserve">
<style type="text/css">
	.st0{fill:#00326E;}
</style>
<title>boutons</title>
<path class="st0" d="M20,0C9,0,0,9,0,20s9,20,20,20s20-9,20-20S31,0,20,0z M26.9,20.7l-9.5,9.5c-0.4,0.4-1,0.4-1.3,0
	c-0.4-0.4-0.4-1,0-1.3l8.9-8.9L16,11.1c-0.4-0.4-0.4-1,0-1.3s1-0.4,1.3,0l9.5,9.5C27.2,19.7,27.2,20.3,26.9,20.7
	C26.9,20.7,26.9,20.7,26.9,20.7z"/>
</svg>
