<?xml version="1.0" encoding="utf-8"?>
<!-- Generator: Adobe Illustrator 23.0.1, SVG Export Plug-In . SVG Version: 6.00 Build 0)  -->
<svg version="1.1" xmlns="http://www.w3.org/2000/svg" xmlns:xlink="http://www.w3.org/1999/xlink" x="0px" y="0px"
	 viewBox="0 0 1920 100" style="enable-background:new 0 0 1920 100;" xml:space="preserve">
<style type="text/css">
	.st0{display:none;clip-path:url(#SVGID_2_);fill:#2779A9;}
	.st1{clip-path:url(#SVGID_2_);fill:#2779A9;}
	.st2{clip-path:url(#SVGID_2_);fill:#FFFFFF;}
	.st3{fill:#FFFFFF;}
	.st4{clip-path:url(#SVGID_4_);fill:#2779A9;}
	.st5{fill:#2779A9;}
	.st6{clip-path:url(#SVGID_6_);fill:#2779A9;}
	.st7{filter:url(#Adobe_OpacityMaskFilter);}
	.st8{fill:url(#SVGID_8_);}
	.st9{mask:url(#SVGID_7_);}
	.st10{clip-path:url(#SVGID_10_);fill:#2D79A9;}
	.st11{clip-path:url(#SVGID_12_);fill:#E75015;}
	.st12{clip-path:url(#SVGID_12_);fill:#E55403;}
	.st13{fill:#E55403;}
	.st14{clip-path:url(#SVGID_14_);fill:#E55403;}
	.st15{clip-path:url(#SVGID_14_);fill:#E75015;}
	.st16{fill:#E75015;}
	.st17{clip-path:url(#SVGID_16_);fill:#E75015;}
	.st18{clip-path:url(#SVGID_16_);fill:#E55403;}
	.st19{clip-path:url(#SVGID_18_);fill:#E75015;}
	.st20{clip-path:url(#SVGID_20_);fill:#094371;}
	.st21{filter:url(#Adobe_OpacityMaskFilter_1_);}
	.st22{clip-path:url(#SVGID_20_);fill:url(#SVGID_22_);}
	.st23{clip-path:url(#SVGID_20_);mask:url(#SVGID_21_);}
	.st24{clip-path:url(#SVGID_24_);}
	.st25{clip-path:url(#SVGID_26_);fill:url(#SVGID_27_);}
	.st26{filter:url(#Adobe_OpacityMaskFilter_2_);}
	.st27{clip-path:url(#SVGID_20_);fill:url(#SVGID_29_);}
	.st28{clip-path:url(#SVGID_20_);mask:url(#SVGID_28_);}
	.st29{clip-path:url(#SVGID_31_);}
	.st30{clip-path:url(#SVGID_33_);fill:url(#SVGID_34_);}
	.st31{fill:none;stroke:#E75015;stroke-width:2.276;stroke-miterlimit:10;}
	.st32{display:none;}
	.st33{display:inline;fill:#FFFFFF;}
	.st34{display:none;clip-path:url(#SVGID_36_);fill:none;stroke:#FFFFFF;stroke-width:3;}
	.st35{clip-path:url(#SVGID_36_);fill:#2779A9;}
	.st36{display:none;clip-path:url(#SVGID_36_);fill:#E75015;}
	.st37{display:inline;}
	.st38{display:inline;clip-path:url(#SVGID_38_);fill:#2779A9;}
	.st39{display:inline;clip-path:url(#SVGID_38_);fill:#FFFFFF;}
	.st40{clip-path:url(#SVGID_40_);fill:#2779A9;}
	.st41{display:inline;fill:#2779A9;}
	.st42{display:inline;filter:url(#Adobe_OpacityMaskFilter_3_);}
	.st43{fill:url(#SVGID_42_);}
	.st44{display:inline;mask:url(#SVGID_41_);}
	.st45{clip-path:url(#SVGID_44_);fill:#2D79A9;}
	.st46{clip-path:url(#SVGID_46_);fill:#2779A9;}
	.st47{clip-path:url(#SVGID_48_);fill:#E75015;}
	.st48{clip-path:url(#SVGID_48_);fill:#2779A9;}
	.st49{clip-path:url(#SVGID_50_);fill:#2779A9;}
	.st50{clip-path:url(#SVGID_50_);fill:#E75015;}
	.st51{display:inline;fill:#E75015;}
	.st52{clip-path:url(#SVGID_52_);fill:#E75015;}
	.st53{clip-path:url(#SVGID_52_);fill:#2779A9;}
	.st54{clip-path:url(#SVGID_54_);fill:#E75015;}
	.st55{clip-path:url(#SVGID_56_);fill:#094371;}
	.st56{filter:url(#Adobe_OpacityMaskFilter_4_);}
	.st57{clip-path:url(#SVGID_56_);fill:url(#SVGID_58_);}
	.st58{clip-path:url(#SVGID_56_);mask:url(#SVGID_57_);}
	.st59{clip-path:url(#SVGID_60_);}
	.st60{fill:url(#SVGID_61_);}
	.st61{filter:url(#Adobe_OpacityMaskFilter_5_);}
	.st62{clip-path:url(#SVGID_56_);fill:url(#SVGID_63_);}
	.st63{clip-path:url(#SVGID_56_);mask:url(#SVGID_62_);}
	.st64{clip-path:url(#SVGID_65_);}
	.st65{clip-path:url(#SVGID_67_);fill:url(#SVGID_68_);}
	.st66{clip-path:url(#SVGID_56_);fill:#E75015;}
	.st67{display:inline;fill:none;stroke:#E75015;stroke-width:2.276;stroke-miterlimit:10;}
	.st68{clip-path:url(#SVGID_70_);fill:#FFFFFF;}
	.st69{clip-path:url(#SVGID_70_);fill:none;stroke:#FFFFFF;stroke-width:3;}
	.st70{clip-path:url(#SVGID_70_);fill:#2779A9;}
	.st71{clip-path:url(#SVGID_72_);}
	.st72{fill:#094371;}
</style>
<g id="ON">
	<g>
		<defs>
			<rect id="SVGID_1_" x="38" y="-0.59" width="1882.56" height="103.59"/>
		</defs>
		<clipPath id="SVGID_2_">
			<use xlink:href="#SVGID_1_"  style="overflow:visible;"/>
		</clipPath>
		<path class="st0" d="M952.71,64.73c0,1.33,1.09,2.42,2.42,2.42c1.36,0,2.45-1.09,2.45-2.42c0-1.37-1.09-2.45-2.45-2.45
			C953.79,62.28,952.71,63.37,952.71,64.73 M940,58.26c0.21-1.75,1.68-3.11,3.57-3.11c1.71,0,3.11,1.43,3.22,3.11H940z M936.61,59.8
			c0,4.03,2.8,7.35,7.04,7.35c2.34,0,4.16-0.88,5.18-1.75c0.42-0.35,0.32-0.63,0.07-0.91l-0.98-1.33c-0.28-0.35-0.52-0.21-0.95,0.03
			c-0.7,0.46-1.85,1.01-3.11,1.01c-2.27,0-3.92-1.85-4.02-3.74h9.52c0.32,0,0.6-0.24,0.63-0.6c0.04-0.24,0.07-0.7,0.07-0.94
			c0-3.74-2.8-6.47-6.44-6.47C939.41,52.45,936.61,55.84,936.61,59.8 M919.84,66.13c0,0.35,0.32,0.66,0.67,0.66h1.82
			c0.59,0,0.8-0.21,0.8-0.66v-8.54c0.17-0.49,1.68-2.1,3.89-2.1c1.82,0,2.9,1.23,2.9,3.47v7.18c0,0.35,0.28,0.66,0.66,0.66h1.99
			c0.35,0,0.67-0.31,0.67-0.66V59.1c0-3.64-1.58-6.65-5.85-6.65c-2.8,0-4.65,1.68-4.9,1.96l-0.42-1.19
			c-0.07-0.25-0.28-0.42-0.56-0.42h-1.01c-0.35,0-0.67,0.31-0.67,0.67V66.13z M902.06,66.13c0,0.35,0.32,0.66,0.66,0.66h1.82
			c0.6,0,0.8-0.21,0.8-0.66v-8.54c0.17-0.49,1.68-2.1,3.89-2.1c1.82,0,2.91,1.23,2.91,3.47v7.18c0,0.35,0.28,0.66,0.66,0.66h1.99
			c0.35,0,0.66-0.31,0.66-0.66V59.1c0-3.64-1.57-6.65-5.84-6.65c-2.8,0-4.66,1.68-4.9,1.96l-0.42-1.19
			c-0.07-0.25-0.28-0.42-0.56-0.42h-1.02c-0.35,0-0.66,0.31-0.66,0.67V66.13z M887.54,59.76c0-2.35,1.75-4.27,3.96-4.27
			s3.96,1.92,3.96,4.27c0,2.42-1.75,4.38-3.96,4.38S887.54,62.18,887.54,59.76 M884.42,59.76c0,4.03,3.15,7.39,7.07,7.39
			s7.07-3.36,7.07-7.39c0-3.95-3.15-7.31-7.07-7.31S884.42,55.81,884.42,59.76 M871.65,62.04V56.3c0,0,1.22-0.81,3.04-0.81
			c2.35,0,3.99,1.92,3.99,4.31c0,2.35-1.47,4.34-3.71,4.34C872.84,64.14,871.82,62.42,871.65,62.04 M868.32,66.13
			c0,0.35,0.32,0.66,0.66,0.66h1.05c0.32,0,0.52-0.24,0.63-0.59l0.28-1.02c0,0,1.68,1.96,4.45,1.96c3.71,0,6.54-3.33,6.54-7.35
			c0-4.1-3.01-7.35-6.89-7.35c-1.79,0-3.05,0.66-3.36,0.77V42.96c0-0.35-0.32-0.67-0.66-0.67h-2.03c-0.35,0-0.66,0.31-0.66,0.67
			V66.13z M856.56,66.13c0,0.35,0.32,0.66,0.67,0.66h1.68c0.56,0,0.95-0.07,0.95-0.66v-8.89c0.14-0.24,1.12-1.72,3.15-1.72
			c0.46,0,0.98,0.14,1.19,0.25c0.32,0.14,0.66,0.07,0.84-0.32l0.84-1.72c0.39-0.94-1.22-1.29-2.55-1.29c-2.55,0-3.85,1.68-4.09,2.03
			l-0.39-1.19c-0.07-0.28-0.35-0.49-0.6-0.49h-1.01c-0.35,0-0.67,0.31-0.67,0.67V66.13z M842.04,59.76c0-2.35,1.75-4.27,3.95-4.27
			c2.21,0,3.96,1.92,3.96,4.27c0,2.42-1.75,4.38-3.96,4.38C843.79,64.14,842.04,62.18,842.04,59.76 M838.92,59.76
			c0,4.03,3.15,7.39,7.07,7.39c3.92,0,7.07-3.36,7.07-7.39c0-3.95-3.15-7.31-7.07-7.31C842.07,52.45,838.92,55.81,838.92,59.76
			 M820.93,64.38c0.56,0.52,3.26,2.76,7.53,2.76c4.55,0,7.8-2.98,7.8-6.62c0-4.27-3.47-6.19-7.53-7.84
			c-2.9-1.19-4.44-2.42-4.44-4.41c0-1.3,1.01-3.15,3.95-3.15c2.03,0,4.48,1.61,4.73,1.75c0.49,0.32,0.95,0.1,1.22-0.35
			c0.28-0.42,0.6-0.91,0.88-1.33c0.35-0.52,0.07-1.01-0.21-1.19c-0.35-0.24-2.97-2.06-6.47-2.06c-5.57,0-7.66,3.74-7.66,6.47
			c0,4.06,2.8,5.92,6.37,7.42c3.46,1.43,5.28,2.76,5.28,4.86c0,1.78-1.54,3.26-3.96,3.26c-2.69,0-5.39-2.24-5.6-2.42
			c-0.39-0.31-0.88-0.17-1.19,0.28c-0.32,0.45-0.59,0.98-0.91,1.43C820.37,63.86,820.62,64.1,820.93,64.38 M809.35,59.59h7.56
			c0.39,0,0.66-0.28,0.66-0.63v-1.51c0-0.38-0.28-0.66-0.66-0.66h-7.56c-0.39,0-0.67,0.28-0.67,0.66v1.51
			C808.68,59.31,808.96,59.59,809.35,59.59 M790.8,66.13c0,0.35,0.32,0.66,0.67,0.66h1.82c0.59,0,0.8-0.21,0.8-0.66v-8.54
			c0.17-0.49,1.68-2.1,3.89-2.1c1.82,0,2.9,1.23,2.9,3.47v7.18c0,0.35,0.28,0.66,0.67,0.66h1.99c0.35,0,0.66-0.31,0.66-0.66V59.1
			c0-3.64-1.58-6.65-5.85-6.65c-2.8,0-4.65,1.68-4.9,1.96l-0.42-1.19c-0.07-0.25-0.28-0.42-0.56-0.42h-1.02
			c-0.35,0-0.67,0.31-0.67,0.67V66.13z M776.27,59.76c0-2.35,1.75-4.27,3.96-4.27c2.2,0,3.95,1.92,3.95,4.27
			c0,2.42-1.75,4.38-3.95,4.38C778.02,64.14,776.27,62.18,776.27,59.76 M773.16,59.76c0,4.03,3.15,7.39,7.07,7.39
			c3.92,0,7.07-3.36,7.07-7.39c0-3.95-3.15-7.31-7.07-7.31C776.31,52.45,773.16,55.81,773.16,59.76 M761.92,47.79l5.88-2.52
			c0.28-0.14,0.39-0.49,0.21-0.84l-0.8-1.54c-0.17-0.32-0.7-0.25-0.91-0.1l-5.49,3.18c-0.21,0.1-0.35,0.39-0.21,0.67l0.49,1.01
			C761.22,47.93,761.43,48.04,761.92,47.79 M760.8,58.26c0.21-1.75,1.68-3.11,3.57-3.11c1.71,0,3.11,1.43,3.22,3.11H760.8z
			 M757.41,59.8c0,4.03,2.8,7.35,7.03,7.35c2.35,0,4.17-0.88,5.18-1.75c0.42-0.35,0.32-0.63,0.07-0.91l-0.98-1.33
			c-0.28-0.35-0.52-0.21-0.95,0.03c-0.7,0.46-1.85,1.01-3.11,1.01c-2.27,0-3.92-1.85-4.02-3.74h9.52c0.32,0,0.6-0.24,0.63-0.6
			c0.04-0.24,0.07-0.7,0.07-0.94c0-3.74-2.8-6.47-6.44-6.47C760.21,52.45,757.41,55.84,757.41,59.8 M740.64,66.13
			c0,0.35,0.32,0.66,0.67,0.66h1.99c0.45,0,0.7-0.28,0.7-0.66V57.7c0.17-0.6,1.64-2.21,3.78-2.21c1.82,0,2.97,1.26,2.97,3.53v7.11
			c0,0.35,0.28,0.66,0.67,0.66h1.96c0.35,0,0.67-0.31,0.67-0.66V59.1c0-3.81-1.89-6.65-5.85-6.65c-2.24,0-3.85,1.26-4.2,1.5V42.96
			c0-0.35-0.32-0.67-0.67-0.67h-2.03c-0.35,0-0.67,0.31-0.67,0.67V66.13z M729.44,62.98c0,2.49,0.81,4.17,3.57,4.17
			c1.68,0,3.74-0.84,4.1-1.05c0.35-0.18,0.49-0.46,0.32-0.84l-0.63-1.54c-0.14-0.32-0.35-0.53-0.8-0.32
			c-0.42,0.21-1.4,0.63-2.14,0.63c-0.66,0-1.12-0.21-1.12-1.4V55.7h3.57c0.39,0,0.66-0.31,0.66-0.66v-1.58
			c0-0.39-0.28-0.67-0.66-0.67h-3.57v-3.92c0-0.35-0.28-0.67-0.63-0.67l-1.99,0.03c-0.35,0-0.67,0.31-0.67,0.67v3.88h-1.47
			c-0.39,0-0.66,0.28-0.66,0.67v1.58c0,0.35,0.28,0.66,0.66,0.66h1.47V62.98z M710.86,66.13c0,0.35,0.32,0.66,0.66,0.66h1.82
			c0.6,0,0.8-0.21,0.8-0.66v-8.54c0.17-0.49,1.68-2.1,3.89-2.1c1.82,0,2.91,1.23,2.91,3.47v7.18c0,0.35,0.28,0.66,0.66,0.66h1.99
			c0.35,0,0.66-0.31,0.66-0.66V59.1c0-3.64-1.57-6.65-5.84-6.65c-2.8,0-4.66,1.68-4.9,1.96l-0.42-1.19
			c-0.07-0.25-0.28-0.42-0.56-0.42h-1.02c-0.35,0-0.66,0.31-0.66,0.67V66.13z M698.08,62.42c0-1.43,1.16-2.31,2.84-2.31
			c1.26,0,2.24,0.42,2.45,0.56v2.24c-0.42,0.7-1.75,1.75-3.15,1.75C698.92,64.66,698.08,63.68,698.08,62.42 M695.04,62.46
			c0,2.9,1.89,4.69,4.52,4.69c2.17,0,3.53-1.05,4.3-1.79l0.35,0.95c0.14,0.35,0.28,0.49,0.6,0.49h0.98c0.35,0,0.66-0.31,0.66-0.66
			v-7.46c0-3.5-0.42-6.23-4.9-6.23c-2.59,0-4.59,0.7-4.83,0.81c-0.32,0.1-0.56,0.35-0.46,0.81l0.28,1.29
			c0.1,0.38,0.35,0.67,0.77,0.56c0.73-0.21,2.31-0.63,3.92-0.63c1.78,0,2.21,0.88,2.17,3.08c0,0-1.29-0.42-2.77-0.42
			C697.07,57.94,695.04,59.9,695.04,62.46 M681,54.48V45.8h4.83c2.42,0,4.45,1.82,4.45,4.2c0,2.52-2.03,4.48-4.45,4.48H681z
			 M677.4,66.13c0,0.35,0.28,0.66,0.67,0.66h2.27c0.35,0,0.67-0.31,0.67-0.66v-8.23h5.07c4.27,0,7.8-3.53,7.8-7.88
			c0-4.24-3.53-7.74-7.84-7.74h-7.98c-0.39,0-0.67,0.31-0.67,0.67V66.13z M659.41,66.13c0,0.35,0.28,0.66,0.67,0.66h2.14
			c0.35,0,0.63-0.31,0.63-0.66V43.66c0-0.35-0.28-0.67-0.63-0.67h-1.72l-4.97,4.51c-0.14,0.14-0.21,0.42-0.11,0.7l0.42,1.22
			c0.1,0.32,0.45,0.39,0.77,0.24l2.8-1.33V66.13z M639.04,65.71c0.73,0.6,2.27,1.43,4.62,1.43c3.11,0,5.18-1.93,5.18-4.1
			c0-2.63-2.1-3.71-4.66-4.83c-1.36-0.59-2.24-0.98-2.24-1.89c0-0.52,0.39-1.05,1.58-1.05c1.33,0,2.87,0.74,2.87,0.74
			c0.28,0.14,0.73,0.03,0.91-0.28l0.63-1.19c0.21-0.35,0.03-0.81-0.28-1.01c-0.7-0.46-2.17-1.08-4.13-1.08
			c-3.36,0-4.79,2.1-4.79,3.85c0,2.31,1.82,3.64,3.99,4.58c1.92,0.88,2.7,1.33,2.7,2.28c0,0.77-0.67,1.19-1.72,1.19
			c-1.71,0-3.26-0.91-3.26-0.91c-0.35-0.21-0.73-0.1-0.88,0.18l-0.73,1.37C638.69,65.26,638.83,65.57,639.04,65.71 M631.8,66.13
			c0,0.35,0.32,0.66,0.66,0.66h1.99c0.35,0,0.66-0.31,0.66-0.66V53.46c0-0.35-0.31-0.67-0.66-0.67h-1.99
			c-0.35,0-0.66,0.31-0.66,0.67V66.13z M633.41,47.09c1.15,0,2.07-0.91,2.07-2.03c0-1.15-0.91-2.06-2.07-2.06
			c-1.12,0-1.99,0.91-1.99,2.06C631.41,46.18,632.29,47.09,633.41,47.09 M620.04,66.13c0,0.35,0.32,0.66,0.66,0.66h1.68
			c0.56,0,0.95-0.07,0.95-0.66v-8.89c0.14-0.24,1.12-1.72,3.15-1.72c0.46,0,0.98,0.14,1.19,0.25c0.32,0.14,0.66,0.07,0.84-0.32
			l0.84-1.72c0.39-0.94-1.23-1.29-2.55-1.29c-2.55,0-3.85,1.68-4.1,2.03l-0.39-1.19c-0.07-0.28-0.35-0.49-0.59-0.49h-1.02
			c-0.35,0-0.66,0.31-0.66,0.67V66.13z M607.26,62.42c0-1.43,1.15-2.31,2.83-2.31c1.26,0,2.24,0.42,2.45,0.56v2.24
			c-0.42,0.7-1.75,1.75-3.15,1.75C608.1,64.66,607.26,63.68,607.26,62.42 M604.22,62.46c0,2.9,1.89,4.69,4.52,4.69
			c2.17,0,3.54-1.05,4.3-1.79l0.35,0.95c0.14,0.35,0.28,0.49,0.59,0.49h0.98c0.35,0,0.67-0.31,0.67-0.66v-7.46
			c0-3.5-0.42-6.23-4.9-6.23c-2.59,0-4.58,0.7-4.83,0.81c-0.32,0.1-0.56,0.35-0.45,0.81l0.28,1.29c0.11,0.38,0.35,0.67,0.77,0.56
			c0.73-0.21,2.31-0.63,3.92-0.63c1.79,0,2.21,0.88,2.17,3.08c0,0-1.29-0.42-2.76-0.42C606.25,57.94,604.22,59.9,604.22,62.46
			 M590.18,54.48V45.8h4.83c2.41,0,4.44,1.82,4.44,4.2c0,2.52-2.03,4.48-4.44,4.48H590.18z M586.58,66.13
			c0,0.35,0.28,0.66,0.66,0.66h2.28c0.35,0,0.66-0.31,0.66-0.66v-8.23h5.08c4.27,0,7.8-3.53,7.8-7.88c0-4.24-3.54-7.74-7.84-7.74
			h-7.98c-0.39,0-0.66,0.31-0.66,0.67V66.13z M564.35,58.26c0.21-1.75,1.68-3.11,3.57-3.11c1.72,0,3.11,1.43,3.22,3.11H564.35z
			 M560.96,59.8c0,4.03,2.8,7.35,7.04,7.35c2.34,0,4.16-0.88,5.18-1.75c0.42-0.35,0.32-0.63,0.07-0.91l-0.98-1.33
			c-0.28-0.35-0.53-0.21-0.95,0.03c-0.7,0.46-1.86,1.01-3.11,1.01c-2.28,0-3.92-1.85-4.03-3.74h9.52c0.32,0,0.59-0.24,0.63-0.6
			c0.03-0.24,0.07-0.7,0.07-0.94c0-3.74-2.8-6.47-6.44-6.47C563.76,52.45,560.96,55.84,560.96,59.8 M547.06,59.8
			c0-2.38,1.65-4.31,3.99-4.31c1.82,0,3.05,0.84,3.05,0.84v5.71c-0.18,0.38-1.19,2.1-3.33,2.1
			C548.53,64.14,547.06,62.14,547.06,59.8 M543.81,59.8c0,4.03,2.84,7.35,6.55,7.35c2.76,0,4.44-1.96,4.44-1.96l0.28,1.02
			c0.1,0.35,0.32,0.59,0.63,0.59h1.05c0.35,0,0.66-0.31,0.66-0.66V42.96c0-0.35-0.32-0.67-0.66-0.67h-2.03
			c-0.35,0-0.67,0.31-0.67,0.67v10.26c-0.32-0.11-1.58-0.77-3.36-0.77C546.82,52.45,543.81,55.7,543.81,59.8 M523.72,58.26
			c0.21-1.75,1.68-3.11,3.57-3.11c1.72,0,3.11,1.43,3.22,3.11H523.72z M520.32,59.8c0,4.03,2.8,7.35,7.04,7.35
			c2.34,0,4.16-0.88,5.18-1.75c0.42-0.35,0.32-0.63,0.07-0.91l-0.98-1.33c-0.28-0.35-0.53-0.21-0.95,0.03
			c-0.7,0.46-1.85,1.01-3.11,1.01c-2.27,0-3.92-1.85-4.02-3.74h9.52c0.32,0,0.6-0.24,0.63-0.6c0.04-0.24,0.07-0.7,0.07-0.94
			c0-3.74-2.8-6.47-6.44-6.47C523.12,52.45,520.32,55.84,520.32,59.8 M503.56,66.13c0,0.35,0.32,0.66,0.67,0.66h1.99
			c0.46,0,0.7-0.28,0.7-0.66V57.7c0.17-0.6,1.64-2.21,3.78-2.21c1.82,0,2.98,1.26,2.98,3.53v7.11c0,0.35,0.28,0.66,0.66,0.66h1.96
			c0.35,0,0.66-0.31,0.66-0.66V59.1c0-3.81-1.89-6.65-5.85-6.65c-2.24,0-3.85,1.26-4.2,1.5V42.96c0-0.35-0.32-0.67-0.67-0.67h-2.03
			c-0.35,0-0.67,0.31-0.67,0.67V66.13z M487.32,59.83c0,4.2,3.39,7.32,7.32,7.32c2.42,0,4.3-1.15,5.42-2.94
			c0.24-0.35,0.11-0.7-0.24-0.98l-0.95-0.77c-0.32-0.24-0.63-0.24-0.94,0.07c-0.74,0.7-1.47,1.61-3.26,1.61
			c-2.27,0-4.02-1.92-4.02-4.34c0-2.38,1.78-4.31,4.06-4.31c1.15,0,2.17,0.63,2.8,1.33c0.28,0.24,0.52,0.52,0.95,0.14l1.15-1.05
			c0.32-0.25,0.39-0.67,0.14-0.98c-1.29-1.61-2.94-2.49-5.07-2.49C490.78,52.45,487.32,55.7,487.32,59.83 M476.75,66.13
			c0,0.35,0.32,0.66,0.67,0.66h1.68c0.56,0,0.95-0.07,0.95-0.66v-8.89c0.14-0.24,1.12-1.72,3.15-1.72c0.46,0,0.98,0.14,1.19,0.25
			c0.32,0.14,0.67,0.07,0.84-0.32l0.84-1.72c0.39-0.94-1.22-1.29-2.55-1.29c-2.55,0-3.85,1.68-4.1,2.03l-0.39-1.19
			c-0.07-0.28-0.35-0.49-0.6-0.49h-1.01c-0.35,0-0.67,0.31-0.67,0.67V66.13z M463.34,58.26c0.21-1.75,1.68-3.11,3.57-3.11
			c1.71,0,3.11,1.43,3.22,3.11H463.34z M459.95,59.8c0,4.03,2.8,7.35,7.04,7.35c2.35,0,4.16-0.88,5.18-1.75
			c0.42-0.35,0.32-0.63,0.07-0.91l-0.98-1.33c-0.28-0.35-0.52-0.21-0.95,0.03c-0.7,0.46-1.85,1.01-3.11,1.01
			c-2.27,0-3.92-1.85-4.02-3.74h9.52c0.32,0,0.6-0.24,0.63-0.6c0.04-0.24,0.07-0.7,0.07-0.94c0-3.74-2.8-6.47-6.44-6.47
			C462.75,52.45,459.95,55.84,459.95,59.8 M443.18,66.13c0,0.35,0.32,0.66,0.67,0.66h1.99c0.45,0,0.7-0.28,0.7-0.66V57.7
			c0.17-0.6,1.64-2.21,3.78-2.21c1.82,0,2.97,1.26,2.97,3.53v7.11c0,0.35,0.28,0.66,0.67,0.66h1.96c0.35,0,0.67-0.31,0.67-0.66V59.1
			c0-3.81-1.89-6.65-5.85-6.65c-2.24,0-3.85,1.26-4.2,1.5V42.96c0-0.35-0.32-0.67-0.67-0.67h-2.03c-0.35,0-0.67,0.31-0.67,0.67
			V66.13z M426.95,59.83c0,4.2,3.39,7.32,7.32,7.32c2.41,0,4.3-1.15,5.42-2.94c0.24-0.35,0.11-0.7-0.24-0.98l-0.95-0.77
			c-0.32-0.24-0.63-0.24-0.95,0.07c-0.73,0.7-1.47,1.61-3.25,1.61c-2.28,0-4.03-1.92-4.03-4.34c0-2.38,1.79-4.31,4.06-4.31
			c1.15,0,2.17,0.63,2.8,1.33c0.28,0.24,0.52,0.52,0.95,0.14l1.15-1.05c0.32-0.25,0.38-0.67,0.14-0.98
			c-1.29-1.61-2.94-2.49-5.07-2.49C430.41,52.45,426.95,55.7,426.95,59.83 M414.59,58.26c0.21-1.75,1.68-3.11,3.57-3.11
			c1.71,0,3.11,1.43,3.22,3.11H414.59z M411.2,59.8c0,4.03,2.8,7.35,7.04,7.35c2.35,0,4.16-0.88,5.18-1.75
			c0.42-0.35,0.32-0.63,0.07-0.91l-0.98-1.33c-0.28-0.35-0.52-0.21-0.95,0.03c-0.7,0.46-1.85,1.01-3.11,1.01
			c-2.27,0-3.92-1.85-4.02-3.74h9.52c0.32,0,0.6-0.24,0.63-0.6c0.04-0.24,0.07-0.7,0.07-0.94c0-3.74-2.8-6.47-6.44-6.47
			C413.99,52.45,411.2,55.84,411.2,59.8 M400.55,66.13c0,0.35,0.32,0.66,0.67,0.66h1.68c0.56,0,0.95-0.07,0.95-0.66v-8.89
			c0.14-0.24,1.12-1.72,3.15-1.72c0.46,0,0.98,0.14,1.19,0.25c0.32,0.14,0.67,0.07,0.84-0.32l0.84-1.72
			c0.39-0.94-1.22-1.29-2.55-1.29c-2.55,0-3.85,1.68-4.1,2.03l-0.39-1.19c-0.07-0.28-0.35-0.49-0.6-0.49h-1.01
			c-0.35,0-0.67,0.31-0.67,0.67V66.13z M380.08,62.42c0-1.43,1.15-2.31,2.83-2.31c1.26,0,2.24,0.42,2.45,0.56v2.24
			c-0.42,0.7-1.75,1.75-3.15,1.75C380.92,64.66,380.08,63.68,380.08,62.42 M377.04,62.46c0,2.9,1.89,4.69,4.51,4.69
			c2.17,0,3.54-1.05,4.3-1.79l0.35,0.95c0.14,0.35,0.28,0.49,0.6,0.49h0.98c0.35,0,0.67-0.31,0.67-0.66v-7.46
			c0-3.5-0.42-6.23-4.9-6.23c-2.59,0-4.58,0.7-4.83,0.81c-0.32,0.1-0.56,0.35-0.46,0.81l0.28,1.29c0.11,0.38,0.35,0.67,0.77,0.56
			c0.73-0.21,2.31-0.63,3.92-0.63c1.79,0,2.21,0.88,2.17,3.08c0,0-1.3-0.42-2.77-0.42C379.07,57.94,377.04,59.9,377.04,62.46
			 M370.18,66.13c0,0.35,0.32,0.66,0.67,0.66h1.99c0.35,0,0.67-0.31,0.67-0.66V42.96c0-0.35-0.32-0.67-0.67-0.67h-1.99
			c-0.35,0-0.67,0.31-0.67,0.67V66.13z M349.07,58.26c0.21-1.75,1.68-3.11,3.57-3.11c1.71,0,3.11,1.43,3.22,3.11H349.07z
			 M345.68,59.8c0,4.03,2.8,7.35,7.04,7.35c2.35,0,4.17-0.88,5.18-1.75c0.42-0.35,0.32-0.63,0.07-0.91l-0.98-1.33
			c-0.28-0.35-0.52-0.21-0.95,0.03c-0.7,0.46-1.85,1.01-3.11,1.01c-2.27,0-3.92-1.85-4.02-3.74h9.52c0.32,0,0.6-0.24,0.63-0.6
			c0.04-0.24,0.07-0.7,0.07-0.94c0-3.74-2.8-6.47-6.44-6.47C348.48,52.45,345.68,55.84,345.68,59.8 M331.78,59.8
			c0-2.38,1.64-4.31,3.99-4.31c1.82,0,3.04,0.84,3.04,0.84v5.71c-0.17,0.38-1.19,2.1-3.33,2.1
			C333.25,64.14,331.78,62.14,331.78,59.8 M328.53,59.8c0,4.03,2.83,7.35,6.54,7.35c2.77,0,4.45-1.96,4.45-1.96l0.28,1.02
			c0.11,0.35,0.32,0.59,0.63,0.59h1.05c0.35,0,0.67-0.31,0.67-0.66V42.96c0-0.35-0.32-0.67-0.67-0.67h-2.03
			c-0.35,0-0.67,0.31-0.67,0.67v10.26c-0.32-0.11-1.57-0.77-3.36-0.77C331.54,52.45,328.53,55.7,328.53,59.8 M308.68,65.71
			c0.73,0.6,2.27,1.43,4.62,1.43c3.11,0,5.18-1.93,5.18-4.1c0-2.63-2.1-3.71-4.65-4.83c-1.36-0.59-2.24-0.98-2.24-1.89
			c0-0.52,0.38-1.05,1.57-1.05c1.33,0,2.87,0.74,2.87,0.74c0.28,0.14,0.74,0.03,0.91-0.28l0.63-1.19c0.21-0.35,0.04-0.81-0.28-1.01
			c-0.7-0.46-2.17-1.08-4.13-1.08c-3.36,0-4.79,2.1-4.79,3.85c0,2.31,1.82,3.64,3.99,4.58c1.92,0.88,2.7,1.33,2.7,2.28
			c0,0.77-0.67,1.19-1.71,1.19c-1.72,0-3.26-0.91-3.26-0.91c-0.35-0.21-0.74-0.1-0.88,0.18l-0.74,1.37
			C308.33,65.26,308.47,65.57,308.68,65.71 M295.91,58.26c0.21-1.75,1.68-3.11,3.57-3.11c1.71,0,3.11,1.43,3.22,3.11H295.91z
			 M292.51,59.8c0,4.03,2.8,7.35,7.04,7.35c2.35,0,4.16-0.88,5.18-1.75c0.42-0.35,0.32-0.63,0.07-0.91l-0.98-1.33
			c-0.28-0.35-0.52-0.21-0.95,0.03c-0.7,0.46-1.85,1.01-3.11,1.01c-2.27,0-3.92-1.85-4.02-3.74h9.52c0.32,0,0.6-0.24,0.63-0.6
			c0.04-0.24,0.07-0.7,0.07-0.94c0-3.74-2.8-6.47-6.44-6.47C295.31,52.45,292.51,55.84,292.51,59.8 M280.37,65.71
			c0.73,0.6,2.27,1.43,4.62,1.43c3.11,0,5.18-1.93,5.18-4.1c0-2.63-2.1-3.71-4.65-4.83c-1.37-0.59-2.24-0.98-2.24-1.89
			c0-0.52,0.39-1.05,1.58-1.05c1.33,0,2.87,0.74,2.87,0.74c0.28,0.14,0.73,0.03,0.91-0.28l0.63-1.19c0.21-0.35,0.04-0.81-0.28-1.01
			c-0.7-0.46-2.17-1.08-4.13-1.08c-3.36,0-4.79,2.1-4.79,3.85c0,2.31,1.82,3.64,3.99,4.58c1.92,0.88,2.7,1.33,2.7,2.28
			c0,0.77-0.67,1.19-1.72,1.19c-1.71,0-3.26-0.91-3.26-0.91c-0.35-0.21-0.73-0.1-0.88,0.18l-0.73,1.37
			C280.02,65.26,280.16,65.57,280.37,65.71 M273.13,66.13c0,0.35,0.32,0.66,0.66,0.66h2c0.35,0,0.67-0.31,0.67-0.66V53.46
			c0-0.35-0.32-0.67-0.67-0.67h-2c-0.35,0-0.66,0.31-0.66,0.67V66.13z M274.73,47.09c1.16,0,2.07-0.91,2.07-2.03
			c0-1.15-0.91-2.06-2.07-2.06c-1.12,0-1.99,0.91-1.99,2.06C272.74,46.18,273.61,47.09,274.73,47.09 M259.96,65.71
			c0.74,0.6,2.27,1.43,4.62,1.43c3.11,0,5.18-1.93,5.18-4.1c0-2.63-2.1-3.71-4.66-4.83c-1.36-0.59-2.24-0.98-2.24-1.89
			c0-0.52,0.39-1.05,1.58-1.05c1.33,0,2.87,0.74,2.87,0.74c0.28,0.14,0.73,0.03,0.91-0.28l0.63-1.19c0.21-0.35,0.04-0.81-0.28-1.01
			c-0.7-0.46-2.17-1.08-4.13-1.08c-3.36,0-4.8,2.1-4.8,3.85c0,2.31,1.82,3.64,3.99,4.58c1.92,0.88,2.7,1.33,2.7,2.28
			c0,0.77-0.67,1.19-1.72,1.19c-1.71,0-3.26-0.91-3.26-0.91c-0.35-0.21-0.73-0.1-0.88,0.18l-0.73,1.37
			C259.61,65.26,259.76,65.57,259.96,65.71 M247.44,65.71c0.74,0.6,2.27,1.43,4.62,1.43c3.12,0,5.18-1.93,5.18-4.1
			c0-2.63-2.1-3.71-4.65-4.83c-1.36-0.59-2.24-0.98-2.24-1.89c0-0.52,0.38-1.05,1.57-1.05c1.33,0,2.87,0.74,2.87,0.74
			c0.28,0.14,0.74,0.03,0.91-0.28l0.63-1.19c0.21-0.35,0.04-0.81-0.28-1.01c-0.7-0.46-2.17-1.08-4.13-1.08
			c-3.36,0-4.79,2.1-4.79,3.85c0,2.31,1.82,3.64,3.99,4.58c1.93,0.88,2.7,1.33,2.7,2.28c0,0.77-0.66,1.19-1.71,1.19
			c-1.71,0-3.26-0.91-3.26-0.91c-0.35-0.21-0.74-0.1-0.88,0.18l-0.74,1.37C247.09,65.26,247.23,65.57,247.44,65.71 M235.29,62.42
			c0-1.43,1.15-2.31,2.84-2.31c1.26,0,2.24,0.42,2.45,0.56v2.24c-0.42,0.7-1.75,1.75-3.15,1.75
			C236.13,64.66,235.29,63.68,235.29,62.42 M232.25,62.46c0,2.9,1.89,4.69,4.51,4.69c2.17,0,3.54-1.05,4.3-1.79l0.35,0.95
			c0.14,0.35,0.28,0.49,0.6,0.49h0.98c0.35,0,0.67-0.31,0.67-0.66v-7.46c0-3.5-0.42-6.23-4.9-6.23c-2.59,0-4.58,0.7-4.83,0.81
			c-0.32,0.1-0.56,0.35-0.46,0.81l0.28,1.29c0.1,0.38,0.35,0.67,0.77,0.56c0.74-0.21,2.31-0.63,3.92-0.63
			c1.79,0,2.21,0.88,2.17,3.08c0,0-1.29-0.42-2.76-0.42C234.28,57.94,232.25,59.9,232.25,62.46 M212.4,65.71
			c0.74,0.6,2.28,1.43,4.62,1.43c3.11,0,5.18-1.93,5.18-4.1c0-2.63-2.1-3.71-4.65-4.83c-1.36-0.59-2.24-0.98-2.24-1.89
			c0-0.52,0.38-1.05,1.57-1.05c1.33,0,2.87,0.74,2.87,0.74c0.28,0.14,0.74,0.03,0.91-0.28l0.63-1.19c0.21-0.35,0.03-0.81-0.28-1.01
			c-0.7-0.46-2.17-1.08-4.13-1.08c-3.36,0-4.79,2.1-4.79,3.85c0,2.31,1.82,3.64,3.99,4.58c1.93,0.88,2.7,1.33,2.7,2.28
			c0,0.77-0.67,1.19-1.71,1.19c-1.72,0-3.26-0.91-3.26-0.91c-0.35-0.21-0.74-0.1-0.88,0.18l-0.74,1.37
			C212.05,65.26,212.19,65.57,212.4,65.71 M199.63,58.26c0.21-1.75,1.68-3.11,3.57-3.11c1.71,0,3.11,1.43,3.22,3.11H199.63z
			 M196.23,59.8c0,4.03,2.8,7.35,7.04,7.35c2.35,0,4.17-0.88,5.18-1.75c0.42-0.35,0.31-0.63,0.07-0.91l-0.98-1.33
			c-0.28-0.35-0.53-0.21-0.95,0.03c-0.7,0.46-1.85,1.01-3.11,1.01c-2.28,0-3.92-1.85-4.03-3.74h9.52c0.32,0,0.6-0.24,0.63-0.6
			c0.03-0.24,0.07-0.7,0.07-0.94c0-3.74-2.8-6.47-6.44-6.47C199.03,52.45,196.23,55.84,196.23,59.8 M185.59,66.13
			c0,0.35,0.32,0.66,0.67,0.66h1.68c0.56,0,0.95-0.07,0.95-0.66v-8.89c0.14-0.24,1.12-1.72,3.15-1.72c0.46,0,0.98,0.14,1.19,0.25
			c0.32,0.14,0.66,0.07,0.84-0.32l0.84-1.72c0.39-0.94-1.22-1.29-2.55-1.29c-2.55,0-3.85,1.68-4.1,2.03l-0.38-1.19
			c-0.07-0.28-0.35-0.49-0.6-0.49h-1.01c-0.35,0-0.67,0.31-0.67,0.67V66.13z M178.14,47.79c0.49,0.25,0.7,0.14,0.84-0.14l0.49-1.01
			c0.14-0.28,0-0.56-0.21-0.67l-5.5-3.18c-0.21-0.14-0.74-0.21-0.91,0.1l-0.81,1.54c-0.18,0.35-0.07,0.7,0.21,0.84L178.14,47.79z
			 M172.19,58.26c0.21-1.75,1.68-3.11,3.57-3.11c1.71,0,3.11,1.43,3.22,3.11H172.19z M168.79,59.8c0,4.03,2.8,7.35,7.03,7.35
			c2.35,0,4.17-0.88,5.18-1.75c0.42-0.35,0.32-0.63,0.07-0.91l-0.98-1.33c-0.28-0.35-0.52-0.21-0.95,0.03
			c-0.7,0.46-1.85,1.01-3.11,1.01c-2.28,0-3.92-1.85-4.03-3.74h9.52c0.32,0,0.6-0.24,0.63-0.6c0.04-0.24,0.07-0.7,0.07-0.94
			c0-3.74-2.8-6.47-6.44-6.47C171.59,52.45,168.79,55.84,168.79,59.8 M161.93,66.13c0,0.35,0.32,0.66,0.66,0.66h2
			c0.35,0,0.66-0.31,0.66-0.66V53.46c0-0.35-0.32-0.67-0.66-0.67h-2c-0.35,0-0.66,0.31-0.66,0.67V66.13z M163.54,47.09
			c1.15,0,2.07-0.91,2.07-2.03c0-1.15-0.91-2.06-2.07-2.06c-1.12,0-1.99,0.91-1.99,2.06C161.55,46.18,162.42,47.09,163.54,47.09
			 M134.95,66.13c0,0.35,0.32,0.66,0.67,0.66h1.96c0.35,0,0.67-0.31,0.67-0.66v-8.54c0.17-0.46,1.36-2.1,3.46-2.1
			c1.96,0,2.98,1.23,2.98,3.47v7.18c0,0.35,0.28,0.66,0.66,0.66h1.85c0.35,0,0.67-0.31,0.67-0.66v-7.25c0-0.7-0.04-1.36-0.11-1.68
			c0.24-0.21,1.47-1.72,3.61-1.72c1.89,0,2.9,1.26,2.9,3.47v7.18c0,0.35,0.28,0.66,0.66,0.66h1.96c0.38,0,0.66-0.31,0.66-0.66V59.1
			c0-3.64-1.5-6.65-5.78-6.65c-2.66,0-4.69,1.85-5.07,2.24c-1.02-1.43-2.49-2.24-4.52-2.24c-2.69,0-4.3,1.65-4.62,1.96l-0.38-1.19
			c-0.1-0.25-0.28-0.42-0.6-0.42h-0.98c-0.35,0-0.67,0.31-0.67,0.67V66.13z M121.54,58.26c0.21-1.75,1.68-3.11,3.57-3.11
			c1.72,0,3.11,1.43,3.22,3.11H121.54z M118.15,59.8c0,4.03,2.8,7.35,7.03,7.35c2.35,0,4.16-0.88,5.18-1.75
			c0.42-0.35,0.32-0.63,0.07-0.91l-0.98-1.33c-0.28-0.35-0.52-0.21-0.95,0.03c-0.7,0.46-1.85,1.01-3.11,1.01
			c-2.28,0-3.92-1.85-4.03-3.74h9.52c0.32,0,0.6-0.24,0.63-0.6c0.04-0.24,0.07-0.7,0.07-0.94c0-3.74-2.8-6.47-6.44-6.47
			C120.95,52.45,118.15,55.84,118.15,59.8 M107.51,66.13c0,0.35,0.31,0.66,0.66,0.66h1.68c0.56,0,0.94-0.07,0.94-0.66v-8.89
			c0.14-0.24,1.12-1.72,3.15-1.72c0.46,0,0.98,0.14,1.19,0.25c0.32,0.14,0.67,0.07,0.84-0.32l0.84-1.72
			c0.39-0.94-1.22-1.29-2.56-1.29c-2.56,0-3.85,1.68-4.1,2.03l-0.39-1.19c-0.07-0.28-0.35-0.49-0.59-0.49h-1.02
			c-0.35,0-0.66,0.31-0.66,0.67V66.13z M93.65,63.12v-5.6c0.14-0.42,1.19-2.03,3.22-2.03c2.38,0,3.85,1.99,3.85,4.34
			c0,2.38-1.68,4.31-3.99,4.31C94.87,64.14,93.65,63.12,93.65,63.12 M93.72,66.2c0.24,0.14,1.61,0.94,3.43,0.94
			c3.82,0,6.83-3.22,6.83-7.32c0-4.02-2.83-7.38-6.69-7.38c-2.59,0-4.02,1.47-4.27,1.72l-0.35-0.91c-0.14-0.32-0.32-0.46-0.6-0.46
			h-1.05c-0.35,0-0.66,0.31-0.66,0.67v23.17c0,0.35,0.32,0.66,0.66,0.66h1.96c0.49,0,0.74-0.28,0.74-0.66V66.2z M69.5,65.71
			c0.74,0.6,2.28,1.43,4.62,1.43c3.11,0,5.18-1.93,5.18-4.1c0-2.63-2.1-3.71-4.65-4.83c-1.36-0.59-2.24-0.98-2.24-1.89
			c0-0.52,0.39-1.05,1.58-1.05c1.33,0,2.87,0.74,2.87,0.74c0.28,0.14,0.74,0.03,0.91-0.28l0.63-1.19c0.21-0.35,0.03-0.81-0.28-1.01
			c-0.7-0.46-2.17-1.08-4.13-1.08c-3.36,0-4.8,2.1-4.8,3.85c0,2.31,1.82,3.64,3.99,4.58c1.93,0.88,2.7,1.33,2.7,2.28
			c0,0.77-0.67,1.19-1.72,1.19c-1.72,0-3.25-0.91-3.25-0.91c-0.35-0.21-0.74-0.1-0.88,0.18l-0.74,1.37
			C69.15,65.26,69.29,65.57,69.5,65.71 M56.72,58.26c0.21-1.75,1.68-3.11,3.57-3.11c1.72,0,3.12,1.43,3.22,3.11H56.72z M53.33,59.8
			c0,4.03,2.8,7.35,7.03,7.35c2.35,0,4.17-0.88,5.18-1.75c0.42-0.35,0.32-0.63,0.07-0.91l-0.98-1.33c-0.28-0.35-0.53-0.21-0.94,0.03
			c-0.7,0.46-1.86,1.01-3.12,1.01c-2.28,0-3.92-1.85-4.03-3.74h9.52c0.32,0,0.6-0.24,0.63-0.6c0.04-0.24,0.07-0.7,0.07-0.94
			c0-3.74-2.8-6.47-6.44-6.47C56.13,52.45,53.33,55.84,53.33,59.8 M38,66.13c0,0.35,0.28,0.66,0.67,0.66h12.46
			c0.39,0,0.67-0.31,0.67-0.66v-1.93c0-0.35-0.28-0.66-0.67-0.66h-9.49V42.96c0-0.35-0.31-0.67-0.67-0.67h-2.31
			c-0.39,0-0.67,0.31-0.67,0.67V66.13z"/>
		<path class="st1" d="M1466.53,19.87c0.04,0,0.11,8.35,0.11,11.83c0,0-11.48-7.69-14.47-11.83"/>
		<path class="st2" d="M1526.7,90.67l-0.22,0.42l0.24-0.41L1526.7,90.67l-0.22,0.42l0.24-0.41l-0.1,0.17l0.1-0.17l0,0l-0.1,0.17
			l0.1-0.17l0,0l0,0l0,0l0,0c-0.01,0-0.13-0.09-0.31-0.26c-0.17-0.16-0.38-0.39-0.63-0.69c-0.45-0.55-0.99-1.31-1.56-2.2
			c-0.5-0.78-1.03-1.66-1.57-2.61c-0.94-1.66-1.93-3.52-2.92-5.41c-0.74-1.42-1.49-2.85-2.23-4.24c-0.56-1.04-1.11-2.05-1.66-3.02
			c-0.41-0.72-0.82-1.42-1.24-2.09c-0.31-0.5-0.62-0.97-0.93-1.43c-0.47-0.69-0.95-1.33-1.48-1.92c-0.26-0.3-0.54-0.59-0.83-0.87
			c-0.3-0.28-0.62-0.55-0.99-0.81c-0.31-0.21-0.65-0.5-1.06-0.87l-0.04-0.04l-0.05-0.04c-0.47-0.4-0.9-0.69-1.23-0.92
			c-0.33-0.23-0.57-0.4-0.75-0.54l-0.1-0.08l-0.1-0.07c-0.43-0.29-0.83-0.55-1.21-0.79c-0.38-0.24-0.73-0.46-1.08-0.67l-0.02-0.01
			l-0.02-0.01c-0.71-0.43-1.4-0.82-2.08-1.18c-0.68-0.36-1.34-0.7-1.99-1.03l0.01,0.01c-2.38-1.2-4.76-2.27-7.06-3.33
			c-1.73-0.79-3.41-1.57-5.03-2.38c-2.43-1.22-4.71-2.5-6.78-3.98c-1.03-0.74-2.02-1.53-2.94-2.38c-0.93-0.85-1.8-1.77-2.62-2.78
			l0.02,0.03c-0.17-0.22-0.31-0.4-0.43-0.56c-0.12-0.16-0.22-0.3-0.32-0.46l-0.02-0.04l-0.02-0.03l-2.76,1.84l2.87-1.67
			c-0.03-0.05-0.06-0.1-0.11-0.17l-2.76,1.84l2.87-1.67l-2.21,1.28l2.29-1.12c-0.02-0.03-0.04-0.08-0.09-0.16l-2.21,1.28l2.29-1.12
			l-1.18,0.58l1.19-0.55c0,0-0.01-0.01-0.01-0.03l-1.18,0.58l1.19-0.55l-0.48,0.22l0.48-0.22l0,0l-0.48,0.22l0.48-0.22l-0.1,0.05
			l0.1-0.04v0l-0.1,0.05l0.1-0.04c0,0-0.02-0.05-0.05-0.12c-0.05-0.13-0.13-0.35-0.22-0.6c-0.16-0.45-0.34-1.02-0.53-1.62
			c-0.28-0.9-0.57-1.84-0.78-2.56c-0.11-0.36-0.2-0.66-0.26-0.88c-0.03-0.1-0.06-0.19-0.07-0.25c-0.01-0.03-0.02-0.05-0.02-0.06
			l-0.01-0.02l0,0l-0.02-0.05l-0.02-0.06c-0.23-0.71-0.52-1.37-0.85-2c-0.63-1.18-1.41-2.22-2.27-3.2
			c-0.75-0.86-1.57-1.66-2.43-2.44c-1.5-1.35-3.13-2.63-4.77-3.86c-1.23-0.92-2.46-1.82-3.64-2.7c-0.88-0.66-1.74-1.3-2.54-1.93
			c-1.19-0.94-2.26-1.86-3.1-2.69c-0.42-0.42-0.78-0.82-1.08-1.18c-0.3-0.37-0.52-0.69-0.68-0.97l-6.98,3.99
			c0.34,0.6,0.73,1.16,1.14,1.7c0.78,1.01,1.65,1.92,2.59,2.81c0.82,0.77,1.69,1.51,2.58,2.23c1.57,1.27,3.22,2.48,4.84,3.67
			c1.21,0.89,2.4,1.77,3.51,2.64c0.83,0.64,1.61,1.28,2.32,1.9c0.53,0.46,1.02,0.92,1.45,1.35c0.65,0.65,1.18,1.27,1.55,1.82
			c0.19,0.27,0.34,0.52,0.45,0.74c0.11,0.22,0.19,0.42,0.25,0.58l3.83-1.22l-3.86,1.11c0,0.01,0.11,0.4,0.29,1
			c0.13,0.45,0.3,1.02,0.49,1.63c0.14,0.46,0.28,0.93,0.43,1.41c0.11,0.35,0.22,0.7,0.33,1.04c0.08,0.25,0.16,0.5,0.24,0.73
			c0.06,0.17,0.12,0.34,0.18,0.5c0.05,0.12,0.09,0.24,0.13,0.36c0.07,0.18,0.14,0.35,0.22,0.54c0.04,0.1,0.09,0.2,0.15,0.32
			c0.03,0.06,0.07,0.13,0.11,0.2c0.04,0.07,0.09,0.16,0.16,0.26l3.35-2.23l-3.39,2.16c0.22,0.34,0.44,0.66,0.65,0.94
			c0.21,0.28,0.41,0.54,0.61,0.78l0.01,0.01l0.01,0.01c1.91,2.35,4.05,4.32,6.29,6.01c1.68,1.26,3.41,2.37,5.17,3.37
			c2.63,1.5,5.31,2.77,7.94,3.98c2.63,1.21,5.21,2.36,7.65,3.59l0.01,0.01c0.62,0.31,1.21,0.61,1.79,0.92
			c0.58,0.31,1.14,0.63,1.71,0.97l2.09-3.44l-2.13,3.41c0.38,0.24,0.73,0.46,1.06,0.66c0.33,0.21,0.63,0.4,0.93,0.61l2.28-3.31
			l-2.48,3.16c0.46,0.36,0.86,0.63,1.15,0.83c0.3,0.2,0.49,0.34,0.6,0.44l2.6-3.07l-2.69,2.99c0.5,0.45,1.1,0.98,1.86,1.5l0.14-0.21
			l-0.15,0.21l0.01,0l0.14-0.21l-0.15,0.21c0,0,0.01,0,0.02,0.02c0.06,0.05,0.21,0.19,0.4,0.42c0.18,0.21,0.4,0.49,0.64,0.83
			c0.45,0.63,0.98,1.45,1.53,2.39c0.49,0.82,1,1.74,1.53,2.72c0.93,1.7,1.9,3.59,2.89,5.48c0.74,1.42,1.5,2.85,2.27,4.23
			c0.57,1.04,1.15,2.04,1.73,3c0.44,0.72,0.88,1.4,1.32,2.06c0.33,0.49,0.67,0.96,1.02,1.41c0.52,0.68,1.06,1.31,1.67,1.89
			c0.3,0.29,0.62,0.57,0.97,0.84c0.35,0.27,0.73,0.52,1.15,0.75L1526.7,90.67z"/>
	</g>
	<polyline class="st3" points="1467.58,79.23 1392.68,78.78 1392.66,82.8 1467.56,83.25 	"/>
	<g>
		<defs>
			<rect id="SVGID_3_" x="38" y="-0.59" width="1882.56" height="103.59"/>
		</defs>
		<clipPath id="SVGID_4_">
			<use xlink:href="#SVGID_3_"  style="overflow:visible;"/>
		</clipPath>
		<path class="st4" d="M1676.98,84.53c0.06,0-9.15-18.48-9.15-18.48l16.94-0.21c-0.03-8.95-0.06-18.26-0.06-25.07
			c-10.45,10.38-20.96,20.82-31.5,31.28c0.07,0.08,0.24,0.25,0.41,0.43c3.46,3.55,8.26,8.44,11.73,11.97L1676.98,84.53z"/>
		<path class="st4" d="M1622.2,18.81c0,6.12-0.01,13.57,0.01,19.68c0,0.3,0.12,0.67,0.32,0.88c9.13,9.77,18.27,19.52,27.4,29.27
			c0.11,0.12,0.23,0.23,0.37,0.37c6.47-6.71,20.39-21.03,20.39-21.03l-28.34-29.17H1622.2z"/>
		<path class="st4" d="M1660.52,86.6c-12.78-13.8-25.48-27.49-38.32-41.36V86.6H1660.52z"/>
		<path class="st4" d="M1752.02,18.57c0.15,0,0.18,31.33,0.18,46.19c-10.97-10.9-21.99-21.86-33.06-32.85
			c0.08-0.08,0.25-0.27,0.43-0.45c3.63-3.73,8.67-8.86,12.31-12.58"/>
		<path class="st4" d="M1686.69,65.56c9.58-9.94,19.17-19.87,28.76-29.79c0.12-0.12,0.24-0.23,0.39-0.38
			c6.79,6.83,21.4,21.41,21.4,21.41l-9.07,8.98"/>
		<path class="st4" d="M1730.83,66.12c7.78-7.76,0.71-0.71,8.47-8.45c0.12,0.11,9.98,8.61,9.97,8.76"/>
		<path class="st4" d="M1725.41,18.57c-12.65,13.84-25.2,27.59-37.91,41.5v-41.5H1725.41z"/>
	</g>
	<rect x="1716.72" y="68.7" class="st5" width="35.56" height="16.07"/>
	<polygon class="st5" points="1681.16,84.54 1713.48,84.54 1713.48,68.93 1673.98,68.93 	"/>
	<g>
		<defs>
			<rect id="SVGID_5_" x="38" y="-0.59" width="1882.56" height="103.59"/>
		</defs>
		<clipPath id="SVGID_6_">
			<use xlink:href="#SVGID_5_"  style="overflow:visible;"/>
		</clipPath>
		<path class="st6" d="M1884.75,83.03c0.14,0,0.18-30.5,0.18-44.97c-10.57,10.61-21.19,21.28-31.85,31.98
			c0.07,0.08,0.24,0.26,0.41,0.44c3.5,3.63,8.35,8.63,11.86,12.24"/>
		<path class="st6" d="M1821.81,37.28c9.23,9.68,18.47,19.35,27.71,29.01c0.11,0.12,0.23,0.23,0.38,0.36
			c6.55-6.65,20.62-20.84,20.62-20.84l-8.74-8.75"/>
		<path class="st6" d="M1864.34,36.77c8.61,8.65,0.79,0.79,9.38,9.42c0.13-0.12,11.04-9.59,11.03-9.76"/>
		<path class="st6" d="M1860.48,83.03c-12.93-13.48-25.76-26.86-38.75-40.4v40.4"/>
		<path class="st6" d="M1810.55,18.81c0.06,0-9.15,18.61-9.15,18.61l16.94,0.21c-0.03,9.01-0.06,18.38-0.06,25.24
			c-10.45-10.45-20.96-20.95-31.5-31.49c0.07-0.08,0.24-0.26,0.41-0.43c3.46-3.57,8.26-8.49,11.73-12.05"/>
		<path class="st6" d="M1755.77,83.41c0-5.97-0.01-13.24,0.01-19.2c0-0.29,0.12-0.65,0.32-0.86c9.13-9.53,18.27-19.05,27.4-28.56
			c0.11-0.12,0.23-0.22,0.37-0.36c6.47,6.54,20.39,20.52,20.39,20.52l-28.34,28.46"/>
		<path class="st6" d="M1781.44,83.14c8.51-8.51,16.98-16.98,25.48-25.48c0.13,0.12,0.29,0.26,0.43,0.4
			c3.95,3.95,6.86,6.83,10.8,10.79c0.22,0.22,0.01,14.08,0,14.24"/>
		<path class="st6" d="M1794.09,18.58c-12.78,13.27-25.48,26.44-38.32,39.78V18.58"/>
	</g>
	<rect x="1849.4" y="18.81" class="st5" width="35.61" height="16.02"/>
	<polygon class="st5" points="1813.8,18.81 1846.16,18.81 1846.16,34.6 1806.6,34.6 	"/>
	<defs>
		<filter id="Adobe_OpacityMaskFilter" filterUnits="userSpaceOnUse" x="1790.85" y="17.81" width="138.71" height="72.34">
			<feFlood  style="flood-color:white;flood-opacity:1" result="back"/>
			<feBlend  in="SourceGraphic" in2="back" mode="normal"/>
		</filter>
	</defs>
	<mask maskUnits="userSpaceOnUse" x="1790.85" y="17.81" width="138.71" height="72.34" id="SVGID_7_">
		<g class="st7">
			
				<linearGradient id="SVGID_8_" gradientUnits="userSpaceOnUse" x1="0.6935" y1="101.285" x2="1.6935" y2="101.285" gradientTransform="matrix(-120.7113 0 0 120.7113 2004.2723 -12175.0293)">
				<stop  offset="0" style="stop-color:#FFFFFF"/>
				<stop  offset="0.43" style="stop-color:#FFFFFF"/>
				<stop  offset="1" style="stop-color:#000000"/>
			</linearGradient>
			<rect x="38" y="-0.59" class="st8" width="1882.56" height="103.59"/>
		</g>
	</mask>
	<g class="st9">
		<g>
			<defs>
				<rect id="SVGID_9_" x="1790.85" y="17.81" width="138.71" height="72.34"/>
			</defs>
			<clipPath id="SVGID_10_">
				<use xlink:href="#SVGID_9_"  style="overflow:visible;"/>
			</clipPath>
			<rect x="1799.85" y="18.81" class="st10" width="120.71" height="64.33"/>
		</g>
	</g>
	<g>
		<defs>
			<rect id="SVGID_11_" x="38" y="-0.59" width="1882.56" height="103.59"/>
		</defs>
		<clipPath id="SVGID_12_">
			<use xlink:href="#SVGID_11_"  style="overflow:visible;"/>
		</clipPath>
		<path class="st11" d="M1450.25,66.38c9.16-9.15,0.84-0.84,9.99-9.97c0.14,0.13,11.76,10.15,11.75,10.33"/>
		<path class="st11" d="M1519.94,85.88l-0.02-10.25c-3.89-8.51-14.2-12.61-14.2-12.61h-7.16l-0.04,22.86"/>
		<path class="st11" d="M1362,17.33c9.06,9.01,18.08,17.96,27.12,26.95c0.14-0.13,0.31-0.27,0.46-0.43
			c4.21-4.17,7.31-7.22,11.5-11.41c0.23-0.23,0.01-14.89,0-15.07"/>
		<path class="st11" d="M1308.6,36.83c9.16,9.21,0.84,0.84,9.99,10.03c0.14-0.13,11.76-10.21,11.75-10.39"/>
		<path class="st12" d="M1565.15,17.97c-0.01,0.02,0,36.64,0,36.64l-37.23-37.27"/>
	</g>
	<polyline class="st13" points="1475.83,18.18 1475.74,40.94 1494.93,40.94 1494.92,18 	"/>
	<g>
		<defs>
			<rect id="SVGID_13_" x="38" y="-0.59" width="1882.56" height="103.59"/>
		</defs>
		<clipPath id="SVGID_14_">
			<use xlink:href="#SVGID_13_"  style="overflow:visible;"/>
		</clipPath>
		<path class="st14" d="M1519.94,71.58l-0.05-8.56h-10.66C1511.21,64.22,1515.67,66.11,1519.94,71.58"/>
		<path class="st14" d="M1483.08,49.62c1.68,1.47,16.59,8.81,18.55,9.76h37.17l-11.64-14.9h-47.04
			C1480.63,45.97,1481.84,48.54,1483.08,49.62"/>
		<path class="st15" d="M1476.14,44.78l-0.4,14.6h21.96C1496.98,58.9,1476.14,44.78,1476.14,44.78"/>
	</g>
	<path class="st16" d="M1618.59,17.71c0.14,0-0.04,26.56-0.04,39.25c-10.45-9.31-20.96-18.67-31.5-28.06
		c0.07-0.07,0.24-0.23,0.41-0.39c3.46-3.18,8.26-7.57,11.73-10.74L1618.59,17.71z"/>
	<polyline class="st13" points="1559.66,85.66 1540.75,63.01 1523.21,63.01 1523.5,78.27 1527.06,85.88 	"/>
	<polyline class="st13" points="1522.82,18 1522.78,23.43 1498.56,30.78 1498.56,40.75 1528.93,40.75 1543.27,59.29 1564.6,59.29 	
		"/>
	<polyline class="st13" points="1564.6,63.01 1546.16,63.01 1564.6,85.66 	"/>
	<polyline class="st13" points="1498.52,18 1498.56,27.06 1519.15,20.82 1519.22,18 	"/>
	<polyline class="st16" points="1494.92,85.88 1494.93,63.01 1475.74,63.01 1475.83,78.14 1475.83,85.88 	"/>
	<g>
		<defs>
			<rect id="SVGID_15_" x="38" y="-0.59" width="1882.56" height="103.59"/>
		</defs>
		<clipPath id="SVGID_16_">
			<use xlink:href="#SVGID_15_"  style="overflow:visible;"/>
		</clipPath>
		<path class="st17" d="M1471.98,18c0-1.92,0.19,31.72,0.19,47.03c-11.25-11.22-22.56-22.51-33.91-33.83
			c0.08-0.08,0.26-0.28,0.44-0.47c3.72-3.84,8.89-9.13,12.63-12.95"/>
		<path class="st17" d="M1404.97,65.85c9.82-10.24,19.66-20.46,29.5-30.69c0.12-0.13,0.25-0.24,0.4-0.38
			c6.97,7.03,21.95,22.05,21.95,22.05l-9.31,9.25"/>
		<path class="st17" d="M1446.14,17.46c-13.76,14.25-27.42,28.41-41.25,42.74V17.46"/>
		<path class="st18" d="M1567.5,85.5c0-6.34-0.01-12.68,0.01-19.02c0-0.31,0.13-0.7,0.34-0.92c9.62-10.13,19.26-20.24,28.89-30.35
			c0.12-0.12,0.24-0.24,0.4-0.38c6.82,6.95,21.5,21.8,21.5,21.8l-29.1,29.2L1567.5,85.5z"/>
		<path class="st18" d="M1594.83,86.6c9.06-9.05,18.08-18.04,27.13-27.07c0.14,0.13,0.31,0.27,0.46,0.43
			c4.21,4.19,7.31,7.25,11.5,11.46c0.23,0.24,0.01,14.96,0,15.14L1594.83,86.6z"/>
		<path class="st18" d="M1608.3,18c-13.61,14.1-27.12,28.1-40.8,42.26V18H1608.3z"/>
		<path class="st17" d="M1392.98,85.38c0.07,0-9.74-19.68-9.74-19.68l18.03-0.22c-0.03-9.53-0.07-19.44-0.07-26.69
			c-11.13,11.05-22.31,22.16-33.53,33.3c0.08,0.08,0.25,0.27,0.43,0.46c3.68,3.78,8.79,8.98,12.49,12.75"/>
		<path class="st17" d="M1334.67,17.05c0,6.31-0.01,14,0.02,20.31c0,0.31,0.13,0.69,0.34,0.91c9.71,10.08,19.45,20.14,29.17,30.21
			c0.12,0.13,0.25,0.24,0.4,0.38c6.89-6.92,21.71-21.71,21.71-21.71l-30.17-30.11"/>
		<path class="st17" d="M1375.46,85.62c-13.61-14.03-27.12-27.97-40.8-42.07v42.07"/>
	</g>
	<rect x="1434.34" y="68.44" class="st16" width="37.91" height="17.19"/>
	<polygon class="st16" points="1396.44,85.38 1430.9,85.38 1430.9,68.68 1388.78,68.68 	"/>
	<g>
		<defs>
			<rect id="SVGID_17_" x="38" y="-0.59" width="1882.56" height="103.59"/>
		</defs>
		<clipPath id="SVGID_18_">
			<use xlink:href="#SVGID_17_"  style="overflow:visible;"/>
		</clipPath>
		<path class="st19" d="M1330.33,86.07c0.15,0,0.19-32.48,0.19-47.88c-11.25,11.3-22.56,22.66-33.91,34.05
			c0.08,0.09,0.26,0.28,0.44,0.47c3.72,3.86,8.89,9.19,12.63,13.03"/>
		<path class="st19" d="M1263.32,37.37c9.82,10.31,19.66,20.6,29.5,30.89c0.12,0.13,0.25,0.24,0.4,0.39
			c6.97-7.07,21.95-22.19,21.95-22.19l-9.31-9.31"/>
		<path class="st19" d="M1304.49,86.07c-13.76-14.35-27.43-28.6-41.25-43.01v43.01"/>
		<path class="st19" d="M1251.33,17.71c0.07,0-9.74,19.81-9.74,19.81l18.03,0.22c-0.03,9.59-0.07,19.57-0.07,26.87
			c-11.13-11.12-22.31-22.3-33.53-33.52c0.08-0.08,0.25-0.27,0.43-0.46c3.68-3.8,8.79-9.04,12.49-12.83"/>
		<path class="st19" d="M1193.02,86.49c0-6.35-0.01-14.09,0.02-20.44c0-0.31,0.13-0.7,0.34-0.92c9.71-10.15,19.45-20.28,29.17-30.41
			c0.12-0.12,0.25-0.24,0.4-0.38c6.89,6.96,21.71,21.84,21.71,21.84l-30.17,30.3"/>
		<path class="st19" d="M1220.35,86.2c9.06-9.06,18.08-18.07,27.12-27.12c0.14,0.13,0.31,0.27,0.46,0.43
			c4.21,4.2,7.31,7.27,11.5,11.49c0.23,0.23,0.01,14.99,0,15.16"/>
		<path class="st19" d="M1233.81,17.47c-13.61,14.13-27.12,28.15-40.8,42.35V17.47"/>
	</g>
	<rect x="1292.69" y="17.46" class="st16" width="37.91" height="17.31"/>
	<polygon class="st16" points="1254.8,17.71 1289.25,17.71 1289.25,34.52 1247.13,34.52 	"/>
	<g>
		<defs>
			<rect id="SVGID_19_" x="38" y="-0.59" width="1882.56" height="103.59"/>
		</defs>
		<clipPath id="SVGID_20_">
			<use xlink:href="#SVGID_19_"  style="overflow:visible;"/>
		</clipPath>
		<path class="st20" d="M1533.93,91.2c-0.73-0.86-1.39-1.72-1.97-2.56l-2.15-3.08l-6.16,4.31l2.15,3.08
			c0.7,1.01,1.51,2.07,2.43,3.14l2.44,2.85l5.71-4.89L1533.93,91.2z M1526.56,78.01c-0.53-1.13-1.09-2.26-1.68-3.38l-1.75-3.32
			l-6.65,3.51l1.75,3.32c0.53,1,1.04,2.03,1.53,3.07l1.6,3.4l6.8-3.2L1526.56,78.01z M1515.84,63.77c-1.07-0.77-2.16-1.48-3.27-2.15
			l-3.22-1.94l-3.88,6.44l3.22,1.94c0.95,0.57,1.87,1.17,2.74,1.8l3.05,2.2l4.4-6.09L1515.84,63.77z M1500.96,55.78
			c-1.08-0.5-2.15-0.99-3.21-1.5l-3.39-1.62l-3.24,6.78l3.39,1.62c1.11,0.53,2.21,1.04,3.31,1.55l3.41,1.57l3.14-6.83L1500.96,55.78
			z M1487.32,48.35c-0.94-0.64-1.88-1.32-2.67-1.95l-2.93-2.35l-4.7,5.87l2.93,2.35c1,0.8,2.08,1.58,3.14,2.3l3.11,2.11l4.23-6.22
			L1487.32,48.35z M1479.4,38.34c-0.17-0.81-0.43-1.59-0.74-2.33c-0.32-0.75-0.69-1.46-1.11-2.15l-1.96-3.21l-6.41,3.92l1.96,3.21
			c0.26,0.42,0.46,0.81,0.61,1.16c0.15,0.35,0.25,0.67,0.31,0.95l0.77,3.68l7.36-1.55L1479.4,38.34z M1467.91,23.92
			c-0.96-0.77-1.94-1.52-2.93-2.27l-3-2.26l-4.52,6l3,2.26c0.94,0.71,1.87,1.42,2.76,2.14l2.94,2.34l4.69-5.87L1467.91,23.92z
			 M1456.63,13.98c-0.62-0.88-1.26-1.84-1.88-2.83l-2-3.18l-6.36,4l2,3.18c0.69,1.09,1.39,2.15,2.11,3.16l2.17,3.07l6.14-4.34
			L1456.63,13.98z"/>
		<path class="st20" d="M1444.91,3.86c-0.12-0.31-0.22-0.57-0.27-0.75c-0.03-0.09-0.05-0.16-0.06-0.2
			c-0.01-0.02-0.01-0.03-0.01-0.04l-0.02,0l0.02,0v0l-0.02,0l0.02,0L1443.91,3l0.66-0.11c0-0.02-0.01-0.02-0.01-0.02L1443.91,3
			l0.1-3.59l-6.97,1.12c0.6,3.72,0.65,3.93,0.7,4.13c0.08,0.3,0.17,0.59,0.27,0.88c0.1,0.29,0.21,0.6,0.34,0.92l1.3,3.28l6.56-2.6
			L1444.91,3.86z"/>
		<defs>
			<filter id="Adobe_OpacityMaskFilter_1_" filterUnits="userSpaceOnUse" x="1201.92" y="10.11" width="372.23" height="77.48">
				<feFlood  style="flood-color:white;flood-opacity:1" result="back"/>
				<feBlend  in="SourceGraphic" in2="back" mode="normal"/>
			</filter>
		</defs>
		<mask maskUnits="userSpaceOnUse" x="1201.92" y="10.11" width="372.23" height="77.48" id="SVGID_21_">
			<g class="st21">
				
					<linearGradient id="SVGID_22_" gradientUnits="userSpaceOnUse" x1="1.1045" y1="101.0943" x2="2.1045" y2="101.0943" gradientTransform="matrix(354.2332 0 0 -354.2332 819.6829 35862.1445)">
					<stop  offset="0" style="stop-color:#FFFFFF"/>
					<stop  offset="0.43" style="stop-color:#FFFFFF"/>
					<stop  offset="1" style="stop-color:#000000"/>
				</linearGradient>
				<rect x="38" y="-0.59" class="st22" width="1882.56" height="103.59"/>
			</g>
		</mask>
		<g class="st23">
			<g>
				<defs>
					<rect id="SVGID_23_" x="1201.92" y="10.11" width="372.23" height="77.48"/>
				</defs>
				<clipPath id="SVGID_24_">
					<use xlink:href="#SVGID_23_"  style="overflow:visible;"/>
				</clipPath>
				<g class="st24">
					<defs>
						<rect id="SVGID_25_" x="1210.92" y="17.11" width="354.23" height="69.48"/>
					</defs>
					<clipPath id="SVGID_26_">
						<use xlink:href="#SVGID_25_"  style="overflow:visible;"/>
					</clipPath>
					
						<linearGradient id="SVGID_27_" gradientUnits="userSpaceOnUse" x1="1.1045" y1="101.0924" x2="2.104" y2="101.0924" gradientTransform="matrix(354.2332 0 0 -354.2332 819.6829 35862.1445)">
						<stop  offset="0" style="stop-color:#2779AA"/>
						<stop  offset="0.0955" style="stop-color:#2779AA"/>
						<stop  offset="1" style="stop-color:#FFFFFF"/>
					</linearGradient>
					<rect x="1210.92" y="17.11" class="st25" width="354.08" height="69.48"/>
				</g>
			</g>
		</g>
		<defs>
			<filter id="Adobe_OpacityMaskFilter_2_" filterUnits="userSpaceOnUse" x="1096.54" y="16.05" width="138.48" height="77.55">
				<feFlood  style="flood-color:white;flood-opacity:1" result="back"/>
				<feBlend  in="SourceGraphic" in2="back" mode="normal"/>
			</filter>
		</defs>
		<mask maskUnits="userSpaceOnUse" x="1096.54" y="16.05" width="138.48" height="77.55" id="SVGID_28_">
			<g class="st26">
				
					<linearGradient id="SVGID_29_" gradientUnits="userSpaceOnUse" x1="0.6929" y1="101.3001" x2="1.6929" y2="101.3001" gradientTransform="matrix(-120.486 0 0 120.486 1309.507 -12154.0361)">
					<stop  offset="0" style="stop-color:#FFFFFF"/>
					<stop  offset="0.43" style="stop-color:#FFFFFF"/>
					<stop  offset="1" style="stop-color:#000000"/>
				</linearGradient>
				<rect x="38" y="-0.59" class="st27" width="1882.56" height="103.59"/>
			</g>
		</mask>
		<g class="st28">
			<g>
				<defs>
					<rect id="SVGID_30_" x="1096.54" y="16.05" width="138.48" height="77.55"/>
				</defs>
				<clipPath id="SVGID_31_">
					<use xlink:href="#SVGID_30_"  style="overflow:visible;"/>
				</clipPath>
				<g class="st29">
					<defs>
						<rect id="SVGID_32_" x="1105.54" y="17.05" width="120.49" height="69.55"/>
					</defs>
					<clipPath id="SVGID_33_">
						<use xlink:href="#SVGID_32_"  style="overflow:visible;"/>
					</clipPath>
					
						<linearGradient id="SVGID_34_" gradientUnits="userSpaceOnUse" x1="0.6929" y1="101.3052" x2="1.6929" y2="101.3052" gradientTransform="matrix(-120.486 0 0 120.486 1309.507 -12154.0361)">
						<stop  offset="0" style="stop-color:#2779AA"/>
						<stop  offset="0.0955" style="stop-color:#2779AA"/>
						<stop  offset="1" style="stop-color:#FFFFFF"/>
					</linearGradient>
					<rect x="1105.53" y="17.05" class="st30" width="120.49" height="69.55"/>
				</g>
			</g>
		</g>
	</g>
	<line class="st31" x1="982.79" y1="17.46" x2="982.79" y2="86.6"/>
	<g class="st32">
		<path class="st33" d="M1179.51,53.19h-4.5c-0.3,0-0.57-0.27-0.57-0.57v-1.68c0-0.3,0.27-0.57,0.57-0.57h4.5v-4.53
			c0-0.3,0.27-0.54,0.57-0.54h1.68c0.3,0,0.57,0.24,0.57,0.54v4.53h4.53c0.3,0,0.54,0.27,0.54,0.57v1.68c0,0.3-0.24,0.57-0.54,0.57
			h-4.53v4.47c0,0.3-0.27,0.54-0.57,0.54h-1.68c-0.3,0-0.57-0.24-0.57-0.54V53.19z"/>
		<path class="st33" d="M1211.94,41.73c0-0.3,0.24-0.57,0.54-0.57h7.11c5.79,0,10.53,4.71,10.53,10.47
			c0,5.82-4.74,10.53-10.53,10.53h-7.11c-0.3,0-0.54-0.27-0.54-0.57V41.73z M1219.23,58.5c3.9,0,6.75-2.94,6.75-6.87
			c0-3.9-2.85-6.84-6.75-6.84h-3.42V58.5H1219.23z"/>
		<path class="st33" d="M1232.79,49.05c-0.21-0.21-0.15-0.51,0.06-0.69c0.3-0.21,2.04-1.56,2.04-3.66c-0.03,0-0.42,0.15-0.9,0.15
			c-1.11,0-2.01-0.87-2.01-1.98c0-1.11,0.9-2.01,2.13-2.01c1.08,0,2.49,0.75,2.49,3.21c0,2.94-1.92,4.74-2.7,5.43
			c-0.24,0.18-0.45,0.21-0.69-0.03L1232.79,49.05z"/>
		<path class="st33" d="M1239.96,41.73c0-0.3,0.27-0.57,0.57-0.57h2.79c0.3,0,0.57,0.27,0.57,0.57v19.86c0,0.3-0.27,0.57-0.57,0.57
			h-2.79c-0.3,0-0.57-0.27-0.57-0.57V41.73z"/>
		<path class="st33" d="M1249.35,41.4c0-0.3,0.27-0.54,0.57-0.54h0.75l12.48,13.26h0.03V41.73c0-0.3,0.24-0.57,0.57-0.57h2.76
			c0.3,0,0.57,0.27,0.57,0.57v20.19c0,0.3-0.27,0.54-0.57,0.54h-0.72l-12.54-13.77h-0.03v12.9c0,0.3-0.24,0.57-0.57,0.57h-2.73
			c-0.3,0-0.57-0.27-0.57-0.57V41.4z"/>
		<path class="st33" d="M1272.54,41.73c0-0.3,0.24-0.57,0.57-0.57h12.21c0.33,0,0.57,0.27,0.57,0.57v2.46c0,0.3-0.24,0.57-0.57,0.57
			h-8.88v5.64h7.41c0.3,0,0.57,0.27,0.57,0.57v2.46c0,0.3-0.27,0.57-0.57,0.57h-7.41v7.59c0,0.3-0.27,0.57-0.57,0.57h-2.76
			c-0.33,0-0.57-0.27-0.57-0.57V41.73z"/>
		<path class="st33" d="M1298.73,40.86c6,0,10.8,4.83,10.8,10.83c0,6-4.8,10.77-10.8,10.77c-6,0-10.77-4.77-10.77-10.77
			C1287.96,45.69,1292.73,40.86,1298.73,40.86z M1298.73,58.56c3.78,0,6.9-3.09,6.9-6.87c0-3.78-3.12-6.93-6.9-6.93
			c-3.78,0-6.87,3.15-6.87,6.93C1291.86,55.47,1294.95,58.56,1298.73,58.56z"/>
		<path class="st33" d="M1312.23,59.22l1.08-1.86c0.24-0.42,0.75-0.42,1.02-0.21c0.15,0.09,2.58,1.86,4.53,1.86
			c1.56,0,2.73-1.02,2.73-2.31c0-1.53-1.29-2.58-3.81-3.6c-2.82-1.14-5.64-2.94-5.64-6.48c0-2.67,1.98-5.76,6.75-5.76
			c3.06,0,5.4,1.56,6,2.01c0.3,0.18,0.39,0.69,0.18,0.99l-1.14,1.71c-0.24,0.36-0.69,0.6-1.05,0.36c-0.24-0.15-2.52-1.65-4.17-1.65
			c-1.71,0-2.64,1.14-2.64,2.1c0,1.41,1.11,2.37,3.54,3.36c2.91,1.17,6.27,2.91,6.27,6.78c0,3.09-2.67,5.94-6.9,5.94
			c-3.78,0-6-1.77-6.6-2.34C1312.11,59.85,1311.96,59.7,1312.23,59.22z"/>
	</g>
	<g>
		<defs>
			<rect id="SVGID_35_" x="38" y="-0.59" width="1882.56" height="103.59"/>
		</defs>
		<clipPath id="SVGID_36_">
			<use xlink:href="#SVGID_35_"  style="overflow:visible;"/>
		</clipPath>
		<path class="st34" d="M1180.39,67.93c8.88,0,16.09-7.2,16.09-16.09c0-8.89-7.2-16.09-16.09-16.09c-8.89,0-16.09,7.2-16.09,16.09
			C1164.3,60.73,1171.51,67.93,1180.39,67.93z"/>
		<path class="st35" d="M1647.87,18.81c8.51,9.06,16.98,18.07,25.48,27.12c0.13-0.13,0.29-0.27,0.43-0.43
			c3.95-4.2,6.86-7.26,10.8-11.48c0.22-0.23,0.01-14.99,0-15.16L1647.87,18.81z"/>
		<path class="st36" d="M1095.25,80.91c0,2.05,1.73,3.79,3.79,3.79c2.09,0,3.87-1.73,3.87-3.79c0-2.09-1.77-3.87-3.87-3.87
			C1096.98,77.04,1095.25,78.82,1095.25,80.91 M1059.04,70.24c0,8.06,6.48,14.46,14.54,14.46c3.59,0,7.05-1.25,9.79-3.91
			c0.28-0.28,0.32-0.8,0.04-1.09l-3.14-3.34c-0.24-0.28-0.77-0.28-1.05-0.04c-1.45,1.25-3.5,1.93-5.4,1.93
			c-4.55,0-7.94-3.71-7.94-8.18c0-4.51,3.34-8.3,7.89-8.3c1.97,0,3.95,0.73,5.44,2.05c0.28,0.28,0.72,0.28,1.01,0l3.14-3.26
			c0.32-0.32,0.32-0.81-0.04-1.13c-2.74-2.5-5.72-3.75-9.75-3.75C1065.53,55.7,1059.04,62.18,1059.04,70.24 M1043.13,53.6l7.33-3.3
			c0.32-0.2,0.56-0.6,0.24-1.21l-1.37-2.38c-0.2-0.36-0.81-0.28-1.05-0.12l-6.85,4.19c-0.2,0.16-0.4,0.44-0.24,0.76l0.84,1.69
			C1042.25,53.64,1042.61,53.93,1043.13,53.6 M1036.69,83.53c0,0.4,0.32,0.77,0.77,0.77h16.67c0.44,0,0.77-0.36,0.77-0.77v-4.39
			c0-0.4-0.32-0.76-0.77-0.76h-11.16v-5.44h9.18c0.4,0,0.76-0.32,0.76-0.76v-4.39c0-0.4-0.36-0.77-0.76-0.77h-9.18v-4.99h11.16
			c0.44,0,0.77-0.36,0.77-0.76v-4.39c0-0.4-0.32-0.77-0.77-0.77h-16.67c-0.44,0-0.77,0.36-0.77,0.77V83.53z M1013.09,78.33V62.02
			h3.87c4.55,0,7.85,3.58,7.85,8.14c0,4.59-3.3,8.18-7.85,8.18H1013.09z M1006.8,83.53c0,0.4,0.32,0.77,0.72,0.77h9.83
			c7.77,0,14.14-6.32,14.14-14.14c0-7.73-6.36-14.06-14.14-14.06h-9.83c-0.4,0-0.72,0.36-0.72,0.77V83.53z"/>
		<path class="st36" d="M1082.68,46.5c1.12,1.35,4.22,3.72,8.89,3.72c6.28,0,11.08-4.67,11.08-10.28c0-5.88-4.04-10.23-10.23-10.23
			h-3.19v-4.8h9.24c0.49,0,0.85-0.4,0.85-0.85v-3.95c0-0.45-0.36-0.85-0.85-0.85h-14.45c-0.49,0-0.85,0.4-0.85,0.85v13.91
			c0,0.72,0.49,1.57,1.39,1.57h6.91c2.92,0,4.62,1.93,4.62,4.35c0,2.47-1.84,4.26-4.26,4.26c-2.15,0-5.34-2.15-5.34-2.15
			c-0.36-0.22-0.81-0.13-1.08,0.13l-2.83,2.78C1082.05,45.51,1082.09,45.82,1082.68,46.5 M1069.8,48.92c0,0.45,0.36,0.85,0.85,0.85
			h4.98c0.45,0,0.81-0.4,0.81-0.85V20.11c0-0.45-0.36-0.85-0.81-0.85h-4.13l-6.55,5.12c-0.13,0.13-0.27,0.49-0.27,0.67v2.83
			c0,0.45,0.36,0.85,0.81,0.85h4.31V48.92z M1052.07,41.78h10.28c0.49,0,0.85-0.36,0.85-0.81v-4.08c0-0.49-0.36-0.85-0.85-0.85
			h-10.28c-0.49,0-0.85,0.36-0.85,0.85v4.08C1051.22,41.42,1051.58,41.78,1052.07,41.78 M1035.16,43.71c-2.74,0-4.26-3.28-4.26-9.2
			c0-5.88,1.53-9.2,4.26-9.2c2.74,0,4.26,3.32,4.26,9.2C1039.42,40.44,1037.89,43.71,1035.16,43.71 M1035.16,50.22
			c7.32,0,11.49-5.88,11.49-15.7c0-9.83-4.17-15.71-11.49-15.71c-7.31,0-11.49,5.88-11.49,15.71
			C1023.67,44.34,1027.84,50.22,1035.16,50.22 M1010.74,48.92c0,0.45,0.36,0.85,0.85,0.85h4.98c0.45,0,0.81-0.4,0.81-0.85V20.11
			c0-0.45-0.36-0.85-0.81-0.85h-4.13l-6.55,5.12c-0.14,0.13-0.27,0.49-0.27,0.67v2.83c0,0.45,0.36,0.85,0.81,0.85h4.31V48.92z"/>
	</g>
</g>
<g id="OFF" class="st32">
	<g>
		<defs>
			<rect id="SVGID_37_" x="38" y="-0.59" width="1882.56" height="103.59"/>
		</defs>
		<clipPath id="SVGID_38_" class="st37">
			<use xlink:href="#SVGID_37_"  style="overflow:visible;"/>
		</clipPath>
		<path class="st38" d="M952.71,64.73c0,1.33,1.09,2.42,2.42,2.42c1.36,0,2.45-1.09,2.45-2.42c0-1.37-1.09-2.45-2.45-2.45
			C953.79,62.28,952.71,63.37,952.71,64.73 M940,58.26c0.21-1.75,1.68-3.11,3.57-3.11c1.71,0,3.11,1.43,3.22,3.11H940z M936.61,59.8
			c0,4.03,2.8,7.35,7.04,7.35c2.34,0,4.16-0.88,5.18-1.75c0.42-0.35,0.32-0.63,0.07-0.91l-0.98-1.33c-0.28-0.35-0.52-0.21-0.95,0.03
			c-0.7,0.46-1.85,1.01-3.11,1.01c-2.27,0-3.92-1.85-4.02-3.74h9.52c0.32,0,0.6-0.24,0.63-0.6c0.04-0.24,0.07-0.7,0.07-0.94
			c0-3.74-2.8-6.47-6.44-6.47C939.41,52.45,936.61,55.84,936.61,59.8 M919.84,66.13c0,0.35,0.32,0.66,0.67,0.66h1.82
			c0.59,0,0.8-0.21,0.8-0.66v-8.54c0.17-0.49,1.68-2.1,3.89-2.1c1.82,0,2.9,1.23,2.9,3.47v7.18c0,0.35,0.28,0.66,0.66,0.66h1.99
			c0.35,0,0.67-0.31,0.67-0.66V59.1c0-3.64-1.58-6.65-5.85-6.65c-2.8,0-4.65,1.68-4.9,1.96l-0.42-1.19
			c-0.07-0.25-0.28-0.42-0.56-0.42h-1.01c-0.35,0-0.67,0.31-0.67,0.67V66.13z M902.06,66.13c0,0.35,0.32,0.66,0.66,0.66h1.82
			c0.6,0,0.8-0.21,0.8-0.66v-8.54c0.17-0.49,1.68-2.1,3.89-2.1c1.82,0,2.91,1.23,2.91,3.47v7.18c0,0.35,0.28,0.66,0.66,0.66h1.99
			c0.35,0,0.66-0.31,0.66-0.66V59.1c0-3.64-1.57-6.65-5.84-6.65c-2.8,0-4.66,1.68-4.9,1.96l-0.42-1.19
			c-0.07-0.25-0.28-0.42-0.56-0.42h-1.02c-0.35,0-0.66,0.31-0.66,0.67V66.13z M887.54,59.76c0-2.35,1.75-4.27,3.96-4.27
			s3.96,1.92,3.96,4.27c0,2.42-1.75,4.38-3.96,4.38S887.54,62.18,887.54,59.76 M884.42,59.76c0,4.03,3.15,7.39,7.07,7.39
			s7.07-3.36,7.07-7.39c0-3.95-3.15-7.31-7.07-7.31S884.42,55.81,884.42,59.76 M871.65,62.04V56.3c0,0,1.22-0.81,3.04-0.81
			c2.35,0,3.99,1.92,3.99,4.31c0,2.35-1.47,4.34-3.71,4.34C872.84,64.14,871.82,62.42,871.65,62.04 M868.32,66.13
			c0,0.35,0.32,0.66,0.66,0.66h1.05c0.32,0,0.52-0.24,0.63-0.59l0.28-1.02c0,0,1.68,1.96,4.45,1.96c3.71,0,6.54-3.33,6.54-7.35
			c0-4.1-3.01-7.35-6.89-7.35c-1.79,0-3.05,0.66-3.36,0.77V42.96c0-0.35-0.32-0.67-0.66-0.67h-2.03c-0.35,0-0.66,0.31-0.66,0.67
			V66.13z M856.56,66.13c0,0.35,0.32,0.66,0.67,0.66h1.68c0.56,0,0.95-0.07,0.95-0.66v-8.89c0.14-0.24,1.12-1.72,3.15-1.72
			c0.46,0,0.98,0.14,1.19,0.25c0.32,0.14,0.66,0.07,0.84-0.32l0.84-1.72c0.39-0.94-1.22-1.29-2.55-1.29c-2.55,0-3.85,1.68-4.09,2.03
			l-0.39-1.19c-0.07-0.28-0.35-0.49-0.6-0.49h-1.01c-0.35,0-0.67,0.31-0.67,0.67V66.13z M842.04,59.76c0-2.35,1.75-4.27,3.95-4.27
			c2.21,0,3.96,1.92,3.96,4.27c0,2.42-1.75,4.38-3.96,4.38C843.79,64.14,842.04,62.18,842.04,59.76 M838.92,59.76
			c0,4.03,3.15,7.39,7.07,7.39c3.92,0,7.07-3.36,7.07-7.39c0-3.95-3.15-7.31-7.07-7.31C842.07,52.45,838.92,55.81,838.92,59.76
			 M820.93,64.38c0.56,0.52,3.26,2.76,7.53,2.76c4.55,0,7.8-2.98,7.8-6.62c0-4.27-3.47-6.19-7.53-7.84
			c-2.9-1.19-4.44-2.42-4.44-4.41c0-1.3,1.01-3.15,3.95-3.15c2.03,0,4.48,1.61,4.73,1.75c0.49,0.32,0.95,0.1,1.22-0.35
			c0.28-0.42,0.6-0.91,0.88-1.33c0.35-0.52,0.07-1.01-0.21-1.19c-0.35-0.24-2.97-2.06-6.47-2.06c-5.57,0-7.66,3.74-7.66,6.47
			c0,4.06,2.8,5.92,6.37,7.42c3.46,1.43,5.28,2.76,5.28,4.86c0,1.78-1.54,3.26-3.96,3.26c-2.69,0-5.39-2.24-5.6-2.42
			c-0.39-0.31-0.88-0.17-1.19,0.28c-0.32,0.45-0.59,0.98-0.91,1.43C820.37,63.86,820.62,64.1,820.93,64.38 M809.35,59.59h7.56
			c0.39,0,0.66-0.28,0.66-0.63v-1.51c0-0.38-0.28-0.66-0.66-0.66h-7.56c-0.39,0-0.67,0.28-0.67,0.66v1.51
			C808.68,59.31,808.96,59.59,809.35,59.59 M790.8,66.13c0,0.35,0.32,0.66,0.67,0.66h1.82c0.59,0,0.8-0.21,0.8-0.66v-8.54
			c0.17-0.49,1.68-2.1,3.89-2.1c1.82,0,2.9,1.23,2.9,3.47v7.18c0,0.35,0.28,0.66,0.67,0.66h1.99c0.35,0,0.66-0.31,0.66-0.66V59.1
			c0-3.64-1.58-6.65-5.85-6.65c-2.8,0-4.65,1.68-4.9,1.96l-0.42-1.19c-0.07-0.25-0.28-0.42-0.56-0.42h-1.02
			c-0.35,0-0.67,0.31-0.67,0.67V66.13z M776.27,59.76c0-2.35,1.75-4.27,3.96-4.27c2.2,0,3.95,1.92,3.95,4.27
			c0,2.42-1.75,4.38-3.95,4.38C778.02,64.14,776.27,62.18,776.27,59.76 M773.16,59.76c0,4.03,3.15,7.39,7.07,7.39
			c3.92,0,7.07-3.36,7.07-7.39c0-3.95-3.15-7.31-7.07-7.31C776.31,52.45,773.16,55.81,773.16,59.76 M761.92,47.79l5.88-2.52
			c0.28-0.14,0.39-0.49,0.21-0.84l-0.8-1.54c-0.17-0.32-0.7-0.25-0.91-0.1l-5.49,3.18c-0.21,0.1-0.35,0.39-0.21,0.67l0.49,1.01
			C761.22,47.93,761.43,48.04,761.92,47.79 M760.8,58.26c0.21-1.75,1.68-3.11,3.57-3.11c1.71,0,3.11,1.43,3.22,3.11H760.8z
			 M757.41,59.8c0,4.03,2.8,7.35,7.03,7.35c2.35,0,4.17-0.88,5.18-1.75c0.42-0.35,0.32-0.63,0.07-0.91l-0.98-1.33
			c-0.28-0.35-0.52-0.21-0.95,0.03c-0.7,0.46-1.85,1.01-3.11,1.01c-2.27,0-3.92-1.85-4.02-3.74h9.52c0.32,0,0.6-0.24,0.63-0.6
			c0.04-0.24,0.07-0.7,0.07-0.94c0-3.74-2.8-6.47-6.44-6.47C760.21,52.45,757.41,55.84,757.41,59.8 M740.64,66.13
			c0,0.35,0.32,0.66,0.67,0.66h1.99c0.45,0,0.7-0.28,0.7-0.66V57.7c0.17-0.6,1.64-2.21,3.78-2.21c1.82,0,2.97,1.26,2.97,3.53v7.11
			c0,0.35,0.28,0.66,0.67,0.66h1.96c0.35,0,0.67-0.31,0.67-0.66V59.1c0-3.81-1.89-6.65-5.85-6.65c-2.24,0-3.85,1.26-4.2,1.5V42.96
			c0-0.35-0.32-0.67-0.67-0.67h-2.03c-0.35,0-0.67,0.31-0.67,0.67V66.13z M729.44,62.98c0,2.49,0.81,4.17,3.57,4.17
			c1.68,0,3.74-0.84,4.1-1.05c0.35-0.18,0.49-0.46,0.32-0.84l-0.63-1.54c-0.14-0.32-0.35-0.53-0.8-0.32
			c-0.42,0.21-1.4,0.63-2.14,0.63c-0.66,0-1.12-0.21-1.12-1.4V55.7h3.57c0.39,0,0.66-0.31,0.66-0.66v-1.58
			c0-0.39-0.28-0.67-0.66-0.67h-3.57v-3.92c0-0.35-0.28-0.67-0.63-0.67l-1.99,0.03c-0.35,0-0.67,0.31-0.67,0.67v3.88h-1.47
			c-0.39,0-0.66,0.28-0.66,0.67v1.58c0,0.35,0.28,0.66,0.66,0.66h1.47V62.98z M710.86,66.13c0,0.35,0.32,0.66,0.66,0.66h1.82
			c0.6,0,0.8-0.21,0.8-0.66v-8.54c0.17-0.49,1.68-2.1,3.89-2.1c1.82,0,2.91,1.23,2.91,3.47v7.18c0,0.35,0.28,0.66,0.66,0.66h1.99
			c0.35,0,0.66-0.31,0.66-0.66V59.1c0-3.64-1.57-6.65-5.84-6.65c-2.8,0-4.66,1.68-4.9,1.96l-0.42-1.19
			c-0.07-0.25-0.28-0.42-0.56-0.42h-1.02c-0.35,0-0.66,0.31-0.66,0.67V66.13z M698.08,62.42c0-1.43,1.16-2.31,2.84-2.31
			c1.26,0,2.24,0.42,2.45,0.56v2.24c-0.42,0.7-1.75,1.75-3.15,1.75C698.92,64.66,698.08,63.68,698.08,62.42 M695.04,62.46
			c0,2.9,1.89,4.69,4.52,4.69c2.17,0,3.53-1.05,4.3-1.79l0.35,0.95c0.14,0.35,0.28,0.49,0.6,0.49h0.98c0.35,0,0.66-0.31,0.66-0.66
			v-7.46c0-3.5-0.42-6.23-4.9-6.23c-2.59,0-4.59,0.7-4.83,0.81c-0.32,0.1-0.56,0.35-0.46,0.81l0.28,1.29
			c0.1,0.38,0.35,0.67,0.77,0.56c0.73-0.21,2.31-0.63,3.92-0.63c1.78,0,2.21,0.88,2.17,3.08c0,0-1.29-0.42-2.77-0.42
			C697.07,57.94,695.04,59.9,695.04,62.46 M681,54.48V45.8h4.83c2.42,0,4.45,1.82,4.45,4.2c0,2.52-2.03,4.48-4.45,4.48H681z
			 M677.4,66.13c0,0.35,0.28,0.66,0.67,0.66h2.27c0.35,0,0.67-0.31,0.67-0.66v-8.23h5.07c4.27,0,7.8-3.53,7.8-7.88
			c0-4.24-3.53-7.74-7.84-7.74h-7.98c-0.39,0-0.67,0.31-0.67,0.67V66.13z M659.41,66.13c0,0.35,0.28,0.66,0.67,0.66h2.14
			c0.35,0,0.63-0.31,0.63-0.66V43.66c0-0.35-0.28-0.67-0.63-0.67h-1.72l-4.97,4.51c-0.14,0.14-0.21,0.42-0.11,0.7l0.42,1.22
			c0.1,0.32,0.45,0.39,0.77,0.24l2.8-1.33V66.13z M639.04,65.71c0.73,0.6,2.27,1.43,4.62,1.43c3.11,0,5.18-1.93,5.18-4.1
			c0-2.63-2.1-3.71-4.66-4.83c-1.36-0.59-2.24-0.98-2.24-1.89c0-0.52,0.39-1.05,1.58-1.05c1.33,0,2.87,0.74,2.87,0.74
			c0.28,0.14,0.73,0.03,0.91-0.28l0.63-1.19c0.21-0.35,0.03-0.81-0.28-1.01c-0.7-0.46-2.17-1.08-4.13-1.08
			c-3.36,0-4.79,2.1-4.79,3.85c0,2.31,1.82,3.64,3.99,4.58c1.92,0.88,2.7,1.33,2.7,2.28c0,0.77-0.67,1.19-1.72,1.19
			c-1.71,0-3.26-0.91-3.26-0.91c-0.35-0.21-0.73-0.1-0.88,0.18l-0.73,1.37C638.69,65.26,638.83,65.57,639.04,65.71 M631.8,66.13
			c0,0.35,0.32,0.66,0.66,0.66h1.99c0.35,0,0.66-0.31,0.66-0.66V53.46c0-0.35-0.31-0.67-0.66-0.67h-1.99
			c-0.35,0-0.66,0.31-0.66,0.67V66.13z M633.41,47.09c1.15,0,2.07-0.91,2.07-2.03c0-1.15-0.91-2.06-2.07-2.06
			c-1.12,0-1.99,0.91-1.99,2.06C631.41,46.18,632.29,47.09,633.41,47.09 M620.04,66.13c0,0.35,0.32,0.66,0.66,0.66h1.68
			c0.56,0,0.95-0.07,0.95-0.66v-8.89c0.14-0.24,1.12-1.72,3.15-1.72c0.46,0,0.98,0.14,1.19,0.25c0.32,0.14,0.66,0.07,0.84-0.32
			l0.84-1.72c0.39-0.94-1.23-1.29-2.55-1.29c-2.55,0-3.85,1.68-4.1,2.03l-0.39-1.19c-0.07-0.28-0.35-0.49-0.59-0.49h-1.02
			c-0.35,0-0.66,0.31-0.66,0.67V66.13z M607.26,62.42c0-1.43,1.15-2.31,2.83-2.31c1.26,0,2.24,0.42,2.45,0.56v2.24
			c-0.42,0.7-1.75,1.75-3.15,1.75C608.1,64.66,607.26,63.68,607.26,62.42 M604.22,62.46c0,2.9,1.89,4.69,4.52,4.69
			c2.17,0,3.54-1.05,4.3-1.79l0.35,0.95c0.14,0.35,0.28,0.49,0.59,0.49h0.98c0.35,0,0.67-0.31,0.67-0.66v-7.46
			c0-3.5-0.42-6.23-4.9-6.23c-2.59,0-4.58,0.7-4.83,0.81c-0.32,0.1-0.56,0.35-0.45,0.81l0.28,1.29c0.11,0.38,0.35,0.67,0.77,0.56
			c0.73-0.21,2.31-0.63,3.92-0.63c1.79,0,2.21,0.88,2.17,3.08c0,0-1.29-0.42-2.76-0.42C606.25,57.94,604.22,59.9,604.22,62.46
			 M590.18,54.48V45.8h4.83c2.41,0,4.44,1.82,4.44,4.2c0,2.52-2.03,4.48-4.44,4.48H590.18z M586.58,66.13
			c0,0.35,0.28,0.66,0.66,0.66h2.28c0.35,0,0.66-0.31,0.66-0.66v-8.23h5.08c4.27,0,7.8-3.53,7.8-7.88c0-4.24-3.54-7.74-7.84-7.74
			h-7.98c-0.39,0-0.66,0.31-0.66,0.67V66.13z M564.35,58.26c0.21-1.75,1.68-3.11,3.57-3.11c1.72,0,3.11,1.43,3.22,3.11H564.35z
			 M560.96,59.8c0,4.03,2.8,7.35,7.04,7.35c2.34,0,4.16-0.88,5.18-1.75c0.42-0.35,0.32-0.63,0.07-0.91l-0.98-1.33
			c-0.28-0.35-0.53-0.21-0.95,0.03c-0.7,0.46-1.86,1.01-3.11,1.01c-2.28,0-3.92-1.85-4.03-3.74h9.52c0.32,0,0.59-0.24,0.63-0.6
			c0.03-0.24,0.07-0.7,0.07-0.94c0-3.74-2.8-6.47-6.44-6.47C563.76,52.45,560.96,55.84,560.96,59.8 M547.06,59.8
			c0-2.38,1.65-4.31,3.99-4.31c1.82,0,3.05,0.84,3.05,0.84v5.71c-0.18,0.38-1.19,2.1-3.33,2.1
			C548.53,64.14,547.06,62.14,547.06,59.8 M543.81,59.8c0,4.03,2.84,7.35,6.55,7.35c2.76,0,4.44-1.96,4.44-1.96l0.28,1.02
			c0.1,0.35,0.32,0.59,0.63,0.59h1.05c0.35,0,0.66-0.31,0.66-0.66V42.96c0-0.35-0.32-0.67-0.66-0.67h-2.03
			c-0.35,0-0.67,0.31-0.67,0.67v10.26c-0.32-0.11-1.58-0.77-3.36-0.77C546.82,52.45,543.81,55.7,543.81,59.8 M523.72,58.26
			c0.21-1.75,1.68-3.11,3.57-3.11c1.72,0,3.11,1.43,3.22,3.11H523.72z M520.32,59.8c0,4.03,2.8,7.35,7.04,7.35
			c2.34,0,4.16-0.88,5.18-1.75c0.42-0.35,0.32-0.63,0.07-0.91l-0.98-1.33c-0.28-0.35-0.53-0.21-0.95,0.03
			c-0.7,0.46-1.85,1.01-3.11,1.01c-2.27,0-3.92-1.85-4.02-3.74h9.52c0.32,0,0.6-0.24,0.63-0.6c0.04-0.24,0.07-0.7,0.07-0.94
			c0-3.74-2.8-6.47-6.44-6.47C523.12,52.45,520.32,55.84,520.32,59.8 M503.56,66.13c0,0.35,0.32,0.66,0.67,0.66h1.99
			c0.46,0,0.7-0.28,0.7-0.66V57.7c0.17-0.6,1.64-2.21,3.78-2.21c1.82,0,2.98,1.26,2.98,3.53v7.11c0,0.35,0.28,0.66,0.66,0.66h1.96
			c0.35,0,0.66-0.31,0.66-0.66V59.1c0-3.81-1.89-6.65-5.85-6.65c-2.24,0-3.85,1.26-4.2,1.5V42.96c0-0.35-0.32-0.67-0.67-0.67h-2.03
			c-0.35,0-0.67,0.31-0.67,0.67V66.13z M487.32,59.83c0,4.2,3.39,7.32,7.32,7.32c2.42,0,4.3-1.15,5.42-2.94
			c0.24-0.35,0.11-0.7-0.24-0.98l-0.95-0.77c-0.32-0.24-0.63-0.24-0.94,0.07c-0.74,0.7-1.47,1.61-3.26,1.61
			c-2.27,0-4.02-1.92-4.02-4.34c0-2.38,1.78-4.31,4.06-4.31c1.15,0,2.17,0.63,2.8,1.33c0.28,0.24,0.52,0.52,0.95,0.14l1.15-1.05
			c0.32-0.25,0.39-0.67,0.14-0.98c-1.29-1.61-2.94-2.49-5.07-2.49C490.78,52.45,487.32,55.7,487.32,59.83 M476.75,66.13
			c0,0.35,0.32,0.66,0.67,0.66h1.68c0.56,0,0.95-0.07,0.95-0.66v-8.89c0.14-0.24,1.12-1.72,3.15-1.72c0.46,0,0.98,0.14,1.19,0.25
			c0.32,0.14,0.67,0.07,0.84-0.32l0.84-1.72c0.39-0.94-1.22-1.29-2.55-1.29c-2.55,0-3.85,1.68-4.1,2.03l-0.39-1.19
			c-0.07-0.28-0.35-0.49-0.6-0.49h-1.01c-0.35,0-0.67,0.31-0.67,0.67V66.13z M463.34,58.26c0.21-1.75,1.68-3.11,3.57-3.11
			c1.71,0,3.11,1.43,3.22,3.11H463.34z M459.95,59.8c0,4.03,2.8,7.35,7.04,7.35c2.35,0,4.16-0.88,5.18-1.75
			c0.42-0.35,0.32-0.63,0.07-0.91l-0.98-1.33c-0.28-0.35-0.52-0.21-0.95,0.03c-0.7,0.46-1.85,1.01-3.11,1.01
			c-2.27,0-3.92-1.85-4.02-3.74h9.52c0.32,0,0.6-0.24,0.63-0.6c0.04-0.24,0.07-0.7,0.07-0.94c0-3.74-2.8-6.47-6.44-6.47
			C462.75,52.45,459.95,55.84,459.95,59.8 M443.18,66.13c0,0.35,0.32,0.66,0.67,0.66h1.99c0.45,0,0.7-0.28,0.7-0.66V57.7
			c0.17-0.6,1.64-2.21,3.78-2.21c1.82,0,2.97,1.26,2.97,3.53v7.11c0,0.35,0.28,0.66,0.67,0.66h1.96c0.35,0,0.67-0.31,0.67-0.66V59.1
			c0-3.81-1.89-6.65-5.85-6.65c-2.24,0-3.85,1.26-4.2,1.5V42.96c0-0.35-0.32-0.67-0.67-0.67h-2.03c-0.35,0-0.67,0.31-0.67,0.67
			V66.13z M426.95,59.83c0,4.2,3.39,7.32,7.32,7.32c2.41,0,4.3-1.15,5.42-2.94c0.24-0.35,0.11-0.7-0.24-0.98l-0.95-0.77
			c-0.32-0.24-0.63-0.24-0.95,0.07c-0.73,0.7-1.47,1.61-3.25,1.61c-2.28,0-4.03-1.92-4.03-4.34c0-2.38,1.79-4.31,4.06-4.31
			c1.15,0,2.17,0.63,2.8,1.33c0.28,0.24,0.52,0.52,0.95,0.14l1.15-1.05c0.32-0.25,0.38-0.67,0.14-0.98
			c-1.29-1.61-2.94-2.49-5.07-2.49C430.41,52.45,426.95,55.7,426.95,59.83 M414.59,58.26c0.21-1.75,1.68-3.11,3.57-3.11
			c1.71,0,3.11,1.43,3.22,3.11H414.59z M411.2,59.8c0,4.03,2.8,7.35,7.04,7.35c2.35,0,4.16-0.88,5.18-1.75
			c0.42-0.35,0.32-0.63,0.07-0.91l-0.98-1.33c-0.28-0.35-0.52-0.21-0.95,0.03c-0.7,0.46-1.85,1.01-3.11,1.01
			c-2.27,0-3.92-1.85-4.02-3.74h9.52c0.32,0,0.6-0.24,0.63-0.6c0.04-0.24,0.07-0.7,0.07-0.94c0-3.74-2.8-6.47-6.44-6.47
			C413.99,52.45,411.2,55.84,411.2,59.8 M400.55,66.13c0,0.35,0.32,0.66,0.67,0.66h1.68c0.56,0,0.95-0.07,0.95-0.66v-8.89
			c0.14-0.24,1.12-1.72,3.15-1.72c0.46,0,0.98,0.14,1.19,0.25c0.32,0.14,0.67,0.07,0.84-0.32l0.84-1.72
			c0.39-0.94-1.22-1.29-2.55-1.29c-2.55,0-3.85,1.68-4.1,2.03l-0.39-1.19c-0.07-0.28-0.35-0.49-0.6-0.49h-1.01
			c-0.35,0-0.67,0.31-0.67,0.67V66.13z M380.08,62.42c0-1.43,1.15-2.31,2.83-2.31c1.26,0,2.24,0.42,2.45,0.56v2.24
			c-0.42,0.7-1.75,1.75-3.15,1.75C380.92,64.66,380.08,63.68,380.08,62.42 M377.04,62.46c0,2.9,1.89,4.69,4.51,4.69
			c2.17,0,3.54-1.05,4.3-1.79l0.35,0.95c0.14,0.35,0.28,0.49,0.6,0.49h0.98c0.35,0,0.67-0.31,0.67-0.66v-7.46
			c0-3.5-0.42-6.23-4.9-6.23c-2.59,0-4.58,0.7-4.83,0.81c-0.32,0.1-0.56,0.35-0.46,0.81l0.28,1.29c0.11,0.38,0.35,0.67,0.77,0.56
			c0.73-0.21,2.31-0.63,3.92-0.63c1.79,0,2.21,0.88,2.17,3.08c0,0-1.3-0.42-2.77-0.42C379.07,57.94,377.04,59.9,377.04,62.46
			 M370.18,66.13c0,0.35,0.32,0.66,0.67,0.66h1.99c0.35,0,0.67-0.31,0.67-0.66V42.96c0-0.35-0.32-0.67-0.67-0.67h-1.99
			c-0.35,0-0.67,0.31-0.67,0.67V66.13z M349.07,58.26c0.21-1.75,1.68-3.11,3.57-3.11c1.71,0,3.11,1.43,3.22,3.11H349.07z
			 M345.68,59.8c0,4.03,2.8,7.35,7.04,7.35c2.35,0,4.17-0.88,5.18-1.75c0.42-0.35,0.32-0.63,0.07-0.91l-0.98-1.33
			c-0.28-0.35-0.52-0.21-0.95,0.03c-0.7,0.46-1.85,1.01-3.11,1.01c-2.27,0-3.92-1.85-4.02-3.74h9.52c0.32,0,0.6-0.24,0.63-0.6
			c0.04-0.24,0.07-0.7,0.07-0.94c0-3.74-2.8-6.47-6.44-6.47C348.48,52.45,345.68,55.84,345.68,59.8 M331.78,59.8
			c0-2.38,1.64-4.31,3.99-4.31c1.82,0,3.04,0.84,3.04,0.84v5.71c-0.17,0.38-1.19,2.1-3.33,2.1
			C333.25,64.14,331.78,62.14,331.78,59.8 M328.53,59.8c0,4.03,2.83,7.35,6.54,7.35c2.77,0,4.45-1.96,4.45-1.96l0.28,1.02
			c0.11,0.35,0.32,0.59,0.63,0.59h1.05c0.35,0,0.67-0.31,0.67-0.66V42.96c0-0.35-0.32-0.67-0.67-0.67h-2.03
			c-0.35,0-0.67,0.31-0.67,0.67v10.26c-0.32-0.11-1.57-0.77-3.36-0.77C331.54,52.45,328.53,55.7,328.53,59.8 M308.68,65.71
			c0.73,0.6,2.27,1.43,4.62,1.43c3.11,0,5.18-1.93,5.18-4.1c0-2.63-2.1-3.71-4.65-4.83c-1.36-0.59-2.24-0.98-2.24-1.89
			c0-0.52,0.38-1.05,1.57-1.05c1.33,0,2.87,0.74,2.87,0.74c0.28,0.14,0.74,0.03,0.91-0.28l0.63-1.19c0.21-0.35,0.04-0.81-0.28-1.01
			c-0.7-0.46-2.17-1.08-4.13-1.08c-3.36,0-4.79,2.1-4.79,3.85c0,2.31,1.82,3.64,3.99,4.58c1.92,0.88,2.7,1.33,2.7,2.28
			c0,0.77-0.67,1.19-1.71,1.19c-1.72,0-3.26-0.91-3.26-0.91c-0.35-0.21-0.74-0.1-0.88,0.18l-0.74,1.37
			C308.33,65.26,308.47,65.57,308.68,65.71 M295.91,58.26c0.21-1.75,1.68-3.11,3.57-3.11c1.71,0,3.11,1.43,3.22,3.11H295.91z
			 M292.51,59.8c0,4.03,2.8,7.35,7.04,7.35c2.35,0,4.16-0.88,5.18-1.75c0.42-0.35,0.32-0.63,0.07-0.91l-0.98-1.33
			c-0.28-0.35-0.52-0.21-0.95,0.03c-0.7,0.46-1.85,1.01-3.11,1.01c-2.27,0-3.92-1.85-4.02-3.74h9.52c0.32,0,0.6-0.24,0.63-0.6
			c0.04-0.24,0.07-0.7,0.07-0.94c0-3.74-2.8-6.47-6.44-6.47C295.31,52.45,292.51,55.84,292.51,59.8 M280.37,65.71
			c0.73,0.6,2.27,1.43,4.62,1.43c3.11,0,5.18-1.93,5.18-4.1c0-2.63-2.1-3.71-4.65-4.83c-1.37-0.59-2.24-0.98-2.24-1.89
			c0-0.52,0.39-1.05,1.58-1.05c1.33,0,2.87,0.74,2.87,0.74c0.28,0.14,0.73,0.03,0.91-0.28l0.63-1.19c0.21-0.35,0.04-0.81-0.28-1.01
			c-0.7-0.46-2.17-1.08-4.13-1.08c-3.36,0-4.79,2.1-4.79,3.85c0,2.31,1.82,3.64,3.99,4.58c1.92,0.88,2.7,1.33,2.7,2.28
			c0,0.77-0.67,1.19-1.72,1.19c-1.71,0-3.26-0.91-3.26-0.91c-0.35-0.21-0.73-0.1-0.88,0.18l-0.73,1.37
			C280.02,65.26,280.16,65.57,280.37,65.71 M273.13,66.13c0,0.35,0.32,0.66,0.66,0.66h2c0.35,0,0.67-0.31,0.67-0.66V53.46
			c0-0.35-0.32-0.67-0.67-0.67h-2c-0.35,0-0.66,0.31-0.66,0.67V66.13z M274.73,47.09c1.16,0,2.07-0.91,2.07-2.03
			c0-1.15-0.91-2.06-2.07-2.06c-1.12,0-1.99,0.91-1.99,2.06C272.74,46.18,273.61,47.09,274.73,47.09 M259.96,65.71
			c0.74,0.6,2.27,1.43,4.62,1.43c3.11,0,5.18-1.93,5.18-4.1c0-2.63-2.1-3.71-4.66-4.83c-1.36-0.59-2.24-0.98-2.24-1.89
			c0-0.52,0.39-1.05,1.58-1.05c1.33,0,2.87,0.74,2.87,0.74c0.28,0.14,0.73,0.03,0.91-0.28l0.63-1.19c0.21-0.35,0.04-0.81-0.28-1.01
			c-0.7-0.46-2.17-1.08-4.13-1.08c-3.36,0-4.8,2.1-4.8,3.85c0,2.31,1.82,3.64,3.99,4.58c1.92,0.88,2.7,1.33,2.7,2.28
			c0,0.77-0.67,1.19-1.72,1.19c-1.71,0-3.26-0.91-3.26-0.91c-0.35-0.21-0.73-0.1-0.88,0.18l-0.73,1.37
			C259.61,65.26,259.76,65.57,259.96,65.71 M247.44,65.71c0.74,0.6,2.27,1.43,4.62,1.43c3.12,0,5.18-1.93,5.18-4.1
			c0-2.63-2.1-3.71-4.65-4.83c-1.36-0.59-2.24-0.98-2.24-1.89c0-0.52,0.38-1.05,1.57-1.05c1.33,0,2.87,0.74,2.87,0.74
			c0.28,0.14,0.74,0.03,0.91-0.28l0.63-1.19c0.21-0.35,0.04-0.81-0.28-1.01c-0.7-0.46-2.17-1.08-4.13-1.08
			c-3.36,0-4.79,2.1-4.79,3.85c0,2.31,1.82,3.64,3.99,4.58c1.93,0.88,2.7,1.33,2.7,2.28c0,0.77-0.66,1.19-1.71,1.19
			c-1.71,0-3.26-0.91-3.26-0.91c-0.35-0.21-0.74-0.1-0.88,0.18l-0.74,1.37C247.09,65.26,247.23,65.57,247.44,65.71 M235.29,62.42
			c0-1.43,1.15-2.31,2.84-2.31c1.26,0,2.24,0.42,2.45,0.56v2.24c-0.42,0.7-1.75,1.75-3.15,1.75
			C236.13,64.66,235.29,63.68,235.29,62.42 M232.25,62.46c0,2.9,1.89,4.69,4.51,4.69c2.17,0,3.54-1.05,4.3-1.79l0.35,0.95
			c0.14,0.35,0.28,0.49,0.6,0.49h0.98c0.35,0,0.67-0.31,0.67-0.66v-7.46c0-3.5-0.42-6.23-4.9-6.23c-2.59,0-4.58,0.7-4.83,0.81
			c-0.32,0.1-0.56,0.35-0.46,0.81l0.28,1.29c0.1,0.38,0.35,0.67,0.77,0.56c0.74-0.21,2.31-0.63,3.92-0.63
			c1.79,0,2.21,0.88,2.17,3.08c0,0-1.29-0.42-2.76-0.42C234.28,57.94,232.25,59.9,232.25,62.46 M212.4,65.71
			c0.74,0.6,2.28,1.43,4.62,1.43c3.11,0,5.18-1.93,5.18-4.1c0-2.63-2.1-3.71-4.65-4.83c-1.36-0.59-2.24-0.98-2.24-1.89
			c0-0.52,0.38-1.05,1.57-1.05c1.33,0,2.87,0.74,2.87,0.74c0.28,0.14,0.74,0.03,0.91-0.28l0.63-1.19c0.21-0.35,0.03-0.81-0.28-1.01
			c-0.7-0.46-2.17-1.08-4.13-1.08c-3.36,0-4.79,2.1-4.79,3.85c0,2.31,1.82,3.64,3.99,4.58c1.93,0.88,2.7,1.33,2.7,2.28
			c0,0.77-0.67,1.19-1.71,1.19c-1.72,0-3.26-0.91-3.26-0.91c-0.35-0.21-0.74-0.1-0.88,0.18l-0.74,1.37
			C212.05,65.26,212.19,65.57,212.4,65.71 M199.63,58.26c0.21-1.75,1.68-3.11,3.57-3.11c1.71,0,3.11,1.43,3.22,3.11H199.63z
			 M196.23,59.8c0,4.03,2.8,7.35,7.04,7.35c2.35,0,4.17-0.88,5.18-1.75c0.42-0.35,0.31-0.63,0.07-0.91l-0.98-1.33
			c-0.28-0.35-0.53-0.21-0.95,0.03c-0.7,0.46-1.85,1.01-3.11,1.01c-2.28,0-3.92-1.85-4.03-3.74h9.52c0.32,0,0.6-0.24,0.63-0.6
			c0.03-0.24,0.07-0.7,0.07-0.94c0-3.74-2.8-6.47-6.44-6.47C199.03,52.45,196.23,55.84,196.23,59.8 M185.59,66.13
			c0,0.35,0.32,0.66,0.67,0.66h1.68c0.56,0,0.95-0.07,0.95-0.66v-8.89c0.14-0.24,1.12-1.72,3.15-1.72c0.46,0,0.98,0.14,1.19,0.25
			c0.32,0.14,0.66,0.07,0.84-0.32l0.84-1.72c0.39-0.94-1.22-1.29-2.55-1.29c-2.55,0-3.85,1.68-4.1,2.03l-0.38-1.19
			c-0.07-0.28-0.35-0.49-0.6-0.49h-1.01c-0.35,0-0.67,0.31-0.67,0.67V66.13z M178.14,47.79c0.49,0.25,0.7,0.14,0.84-0.14l0.49-1.01
			c0.14-0.28,0-0.56-0.21-0.67l-5.5-3.18c-0.21-0.14-0.74-0.21-0.91,0.1l-0.81,1.54c-0.18,0.35-0.07,0.7,0.21,0.84L178.14,47.79z
			 M172.19,58.26c0.21-1.75,1.68-3.11,3.57-3.11c1.71,0,3.11,1.43,3.22,3.11H172.19z M168.79,59.8c0,4.03,2.8,7.35,7.03,7.35
			c2.35,0,4.17-0.88,5.18-1.75c0.42-0.35,0.32-0.63,0.07-0.91l-0.98-1.33c-0.28-0.35-0.52-0.21-0.95,0.03
			c-0.7,0.46-1.85,1.01-3.11,1.01c-2.28,0-3.92-1.85-4.03-3.74h9.52c0.32,0,0.6-0.24,0.63-0.6c0.04-0.24,0.07-0.7,0.07-0.94
			c0-3.74-2.8-6.47-6.44-6.47C171.59,52.45,168.79,55.84,168.79,59.8 M161.93,66.13c0,0.35,0.32,0.66,0.66,0.66h2
			c0.35,0,0.66-0.31,0.66-0.66V53.46c0-0.35-0.32-0.67-0.66-0.67h-2c-0.35,0-0.66,0.31-0.66,0.67V66.13z M163.54,47.09
			c1.15,0,2.07-0.91,2.07-2.03c0-1.15-0.91-2.06-2.07-2.06c-1.12,0-1.99,0.91-1.99,2.06C161.55,46.18,162.42,47.09,163.54,47.09
			 M134.95,66.13c0,0.35,0.32,0.66,0.67,0.66h1.96c0.35,0,0.67-0.31,0.67-0.66v-8.54c0.17-0.46,1.36-2.1,3.46-2.1
			c1.96,0,2.98,1.23,2.98,3.47v7.18c0,0.35,0.28,0.66,0.66,0.66h1.85c0.35,0,0.67-0.31,0.67-0.66v-7.25c0-0.7-0.04-1.36-0.11-1.68
			c0.24-0.21,1.47-1.72,3.61-1.72c1.89,0,2.9,1.26,2.9,3.47v7.18c0,0.35,0.28,0.66,0.66,0.66h1.96c0.38,0,0.66-0.31,0.66-0.66V59.1
			c0-3.64-1.5-6.65-5.78-6.65c-2.66,0-4.69,1.85-5.07,2.24c-1.02-1.43-2.49-2.24-4.52-2.24c-2.69,0-4.3,1.65-4.62,1.96l-0.38-1.19
			c-0.1-0.25-0.28-0.42-0.6-0.42h-0.98c-0.35,0-0.67,0.31-0.67,0.67V66.13z M121.54,58.26c0.21-1.75,1.68-3.11,3.57-3.11
			c1.72,0,3.11,1.43,3.22,3.11H121.54z M118.15,59.8c0,4.03,2.8,7.35,7.03,7.35c2.35,0,4.16-0.88,5.18-1.75
			c0.42-0.35,0.32-0.63,0.07-0.91l-0.98-1.33c-0.28-0.35-0.52-0.21-0.95,0.03c-0.7,0.46-1.85,1.01-3.11,1.01
			c-2.28,0-3.92-1.85-4.03-3.74h9.52c0.32,0,0.6-0.24,0.63-0.6c0.04-0.24,0.07-0.7,0.07-0.94c0-3.74-2.8-6.47-6.44-6.47
			C120.95,52.45,118.15,55.84,118.15,59.8 M107.51,66.13c0,0.35,0.31,0.66,0.66,0.66h1.68c0.56,0,0.94-0.07,0.94-0.66v-8.89
			c0.14-0.24,1.12-1.72,3.15-1.72c0.46,0,0.98,0.14,1.19,0.25c0.32,0.14,0.67,0.07,0.84-0.32l0.84-1.72
			c0.39-0.94-1.22-1.29-2.56-1.29c-2.56,0-3.85,1.68-4.1,2.03l-0.39-1.19c-0.07-0.28-0.35-0.49-0.59-0.49h-1.02
			c-0.35,0-0.66,0.31-0.66,0.67V66.13z M93.65,63.12v-5.6c0.14-0.42,1.19-2.03,3.22-2.03c2.38,0,3.85,1.99,3.85,4.34
			c0,2.38-1.68,4.31-3.99,4.31C94.87,64.14,93.65,63.12,93.65,63.12 M93.72,66.2c0.24,0.14,1.61,0.94,3.43,0.94
			c3.82,0,6.83-3.22,6.83-7.32c0-4.02-2.83-7.38-6.69-7.38c-2.59,0-4.02,1.47-4.27,1.72l-0.35-0.91c-0.14-0.32-0.32-0.46-0.6-0.46
			h-1.05c-0.35,0-0.66,0.31-0.66,0.67v23.17c0,0.35,0.32,0.66,0.66,0.66h1.96c0.49,0,0.74-0.28,0.74-0.66V66.2z M69.5,65.71
			c0.74,0.6,2.28,1.43,4.62,1.43c3.11,0,5.18-1.93,5.18-4.1c0-2.63-2.1-3.71-4.65-4.83c-1.36-0.59-2.24-0.98-2.24-1.89
			c0-0.52,0.39-1.05,1.58-1.05c1.33,0,2.87,0.74,2.87,0.74c0.28,0.14,0.74,0.03,0.91-0.28l0.63-1.19c0.21-0.35,0.03-0.81-0.28-1.01
			c-0.7-0.46-2.17-1.08-4.13-1.08c-3.36,0-4.8,2.1-4.8,3.85c0,2.31,1.82,3.64,3.99,4.58c1.93,0.88,2.7,1.33,2.7,2.28
			c0,0.77-0.67,1.19-1.72,1.19c-1.72,0-3.25-0.91-3.25-0.91c-0.35-0.21-0.74-0.1-0.88,0.18l-0.74,1.37
			C69.15,65.26,69.29,65.57,69.5,65.71 M56.72,58.26c0.21-1.75,1.68-3.11,3.57-3.11c1.72,0,3.12,1.43,3.22,3.11H56.72z M53.33,59.8
			c0,4.03,2.8,7.35,7.03,7.35c2.35,0,4.17-0.88,5.18-1.75c0.42-0.35,0.32-0.63,0.07-0.91l-0.98-1.33c-0.28-0.35-0.53-0.21-0.94,0.03
			c-0.7,0.46-1.86,1.01-3.12,1.01c-2.28,0-3.92-1.85-4.03-3.74h9.52c0.32,0,0.6-0.24,0.63-0.6c0.04-0.24,0.07-0.7,0.07-0.94
			c0-3.74-2.8-6.47-6.44-6.47C56.13,52.45,53.33,55.84,53.33,59.8 M38,66.13c0,0.35,0.28,0.66,0.67,0.66h12.46
			c0.39,0,0.67-0.31,0.67-0.66v-1.93c0-0.35-0.28-0.66-0.67-0.66h-9.49V42.96c0-0.35-0.31-0.67-0.67-0.67h-2.31
			c-0.39,0-0.67,0.31-0.67,0.67V66.13z"/>
		<path class="st38" d="M1466.53,19.87c0.04,0,0.11,8.35,0.11,11.83c0,0-11.48-7.69-14.47-11.83"/>
		<path class="st39" d="M1526.7,90.67l-0.22,0.42l0.24-0.41L1526.7,90.67l-0.22,0.42l0.24-0.41l-0.1,0.17l0.1-0.17l0,0l-0.1,0.17
			l0.1-0.17l0,0l0,0l0,0l0,0c-0.01,0-0.13-0.09-0.31-0.26c-0.17-0.16-0.38-0.39-0.63-0.69c-0.45-0.55-0.99-1.31-1.56-2.2
			c-0.5-0.78-1.03-1.66-1.57-2.61c-0.94-1.66-1.93-3.52-2.92-5.41c-0.74-1.42-1.49-2.85-2.23-4.24c-0.56-1.04-1.11-2.05-1.66-3.02
			c-0.41-0.72-0.82-1.42-1.24-2.09c-0.31-0.5-0.62-0.97-0.93-1.43c-0.47-0.69-0.95-1.33-1.48-1.92c-0.26-0.3-0.54-0.59-0.83-0.87
			c-0.3-0.28-0.62-0.55-0.99-0.81c-0.31-0.21-0.65-0.5-1.06-0.87l-0.04-0.04l-0.05-0.04c-0.47-0.4-0.9-0.69-1.23-0.92
			c-0.33-0.23-0.57-0.4-0.75-0.54l-0.1-0.08l-0.1-0.07c-0.43-0.29-0.83-0.55-1.21-0.79c-0.38-0.24-0.73-0.46-1.08-0.67l-0.02-0.01
			l-0.02-0.01c-0.71-0.43-1.4-0.82-2.08-1.18c-0.68-0.36-1.34-0.7-1.99-1.03l0.01,0.01c-2.38-1.2-4.76-2.27-7.06-3.33
			c-1.73-0.79-3.41-1.57-5.03-2.38c-2.43-1.22-4.71-2.5-6.78-3.98c-1.03-0.74-2.02-1.53-2.94-2.38c-0.93-0.85-1.8-1.77-2.62-2.78
			l0.02,0.03c-0.17-0.22-0.31-0.4-0.43-0.56c-0.12-0.16-0.22-0.3-0.32-0.46l-0.02-0.04l-0.02-0.03l-2.76,1.84l2.87-1.67
			c-0.03-0.05-0.06-0.1-0.11-0.17l-2.76,1.84l2.87-1.67l-2.21,1.28l2.29-1.12c-0.02-0.03-0.04-0.08-0.09-0.16l-2.21,1.28l2.29-1.12
			l-1.18,0.58l1.19-0.55c0,0-0.01-0.01-0.01-0.03l-1.18,0.58l1.19-0.55l-0.48,0.22l0.48-0.22l0,0l-0.48,0.22l0.48-0.22l-0.1,0.05
			l0.1-0.04v0l-0.1,0.05l0.1-0.04c0,0-0.02-0.05-0.05-0.12c-0.05-0.13-0.13-0.35-0.22-0.6c-0.16-0.45-0.34-1.02-0.53-1.62
			c-0.28-0.9-0.57-1.84-0.78-2.56c-0.11-0.36-0.2-0.66-0.26-0.88c-0.03-0.1-0.06-0.19-0.07-0.25c-0.01-0.03-0.02-0.05-0.02-0.06
			l-0.01-0.02l0,0l-0.02-0.05l-0.02-0.06c-0.23-0.71-0.52-1.37-0.85-2c-0.63-1.18-1.41-2.22-2.27-3.2
			c-0.75-0.86-1.57-1.66-2.43-2.44c-1.5-1.35-3.13-2.63-4.77-3.86c-1.23-0.92-2.46-1.82-3.64-2.7c-0.88-0.66-1.74-1.3-2.54-1.93
			c-1.19-0.94-2.26-1.86-3.1-2.69c-0.42-0.42-0.78-0.82-1.08-1.18c-0.3-0.37-0.52-0.69-0.68-0.97l-6.98,3.99
			c0.34,0.6,0.73,1.16,1.14,1.7c0.78,1.01,1.65,1.92,2.59,2.81c0.82,0.77,1.69,1.51,2.58,2.23c1.57,1.27,3.22,2.48,4.84,3.67
			c1.21,0.89,2.4,1.77,3.51,2.64c0.83,0.64,1.61,1.28,2.32,1.9c0.53,0.46,1.02,0.92,1.45,1.35c0.65,0.65,1.18,1.27,1.55,1.82
			c0.19,0.27,0.34,0.52,0.45,0.74c0.11,0.22,0.19,0.42,0.25,0.58l3.83-1.22l-3.86,1.11c0,0.01,0.11,0.4,0.29,1
			c0.13,0.45,0.3,1.02,0.49,1.63c0.14,0.46,0.28,0.93,0.43,1.41c0.11,0.35,0.22,0.7,0.33,1.04c0.08,0.25,0.16,0.5,0.24,0.73
			c0.06,0.17,0.12,0.34,0.18,0.5c0.05,0.12,0.09,0.24,0.13,0.36c0.07,0.18,0.14,0.35,0.22,0.54c0.04,0.1,0.09,0.2,0.15,0.32
			c0.03,0.06,0.07,0.13,0.11,0.2c0.04,0.07,0.09,0.16,0.16,0.26l3.35-2.23l-3.39,2.16c0.22,0.34,0.44,0.66,0.65,0.94
			c0.21,0.28,0.41,0.54,0.61,0.78l0.01,0.01l0.01,0.01c1.91,2.35,4.05,4.32,6.29,6.01c1.68,1.26,3.41,2.37,5.17,3.37
			c2.63,1.5,5.31,2.77,7.94,3.98c2.63,1.21,5.21,2.36,7.65,3.59l0.01,0.01c0.62,0.31,1.21,0.61,1.79,0.92
			c0.58,0.31,1.14,0.63,1.71,0.97l2.09-3.44l-2.13,3.41c0.38,0.24,0.73,0.46,1.06,0.66c0.33,0.21,0.63,0.4,0.93,0.61l2.28-3.31
			l-2.48,3.16c0.46,0.36,0.86,0.63,1.15,0.83c0.3,0.2,0.49,0.34,0.6,0.44l2.6-3.07l-2.69,2.99c0.5,0.45,1.1,0.98,1.86,1.5l0.14-0.21
			l-0.15,0.21l0.01,0l0.14-0.21l-0.15,0.21c0,0,0.01,0,0.02,0.02c0.06,0.05,0.21,0.19,0.4,0.42c0.18,0.21,0.4,0.49,0.64,0.83
			c0.45,0.63,0.98,1.45,1.53,2.39c0.49,0.82,1,1.74,1.53,2.72c0.93,1.7,1.9,3.59,2.89,5.48c0.74,1.42,1.5,2.85,2.27,4.23
			c0.57,1.04,1.15,2.04,1.73,3c0.44,0.72,0.88,1.4,1.32,2.06c0.33,0.49,0.67,0.96,1.02,1.41c0.52,0.68,1.06,1.31,1.67,1.89
			c0.3,0.29,0.62,0.57,0.97,0.84c0.35,0.27,0.73,0.52,1.15,0.75L1526.7,90.67z"/>
	</g>
	<polyline class="st33" points="1467.58,79.23 1392.68,78.78 1392.66,82.8 1467.56,83.25 	"/>
	<g class="st37">
		<defs>
			<rect id="SVGID_39_" x="38" y="-0.59" width="1882.56" height="103.59"/>
		</defs>
		<clipPath id="SVGID_40_">
			<use xlink:href="#SVGID_39_"  style="overflow:visible;"/>
		</clipPath>
		<path class="st40" d="M1676.98,84.53c0.06,0-9.15-18.48-9.15-18.48l16.94-0.21c-0.03-8.95-0.06-18.26-0.06-25.07
			c-10.45,10.38-20.96,20.82-31.5,31.28c0.07,0.08,0.24,0.25,0.41,0.43c3.46,3.55,8.26,8.44,11.73,11.97L1676.98,84.53z"/>
		<path class="st40" d="M1660.52,86.6c-12.78-13.8-25.48-27.49-38.32-41.36V86.6H1660.52z"/>
		<path class="st40" d="M1752.02,18.57c0.15,0,0.18,31.33,0.18,46.19c-10.97-10.9-21.99-21.86-33.06-32.85
			c0.08-0.08,0.25-0.27,0.43-0.45c3.63-3.73,8.67-8.86,12.31-12.58"/>
		<path class="st40" d="M1686.69,65.56c9.58-9.94,19.17-19.87,28.76-29.79c0.12-0.12,0.24-0.23,0.39-0.38
			c6.79,6.83,21.4,21.41,21.4,21.41l-9.07,8.98"/>
		<path class="st40" d="M1730.83,66.12c7.78-7.76,0.71-0.71,8.47-8.45c0.12,0.11,9.98,8.61,9.97,8.76"/>
		<path class="st40" d="M1725.41,18.57c-12.65,13.84-25.2,27.59-37.91,41.5v-41.5H1725.41z"/>
	</g>
	<rect x="1716.72" y="68.7" class="st41" width="35.56" height="16.07"/>
	<path class="st41" d="M1618.59,17.71c0.14,0-0.04,26.56-0.04,39.25c-10.45-9.31-20.96-18.67-31.5-28.06
		c0.07-0.07,0.24-0.23,0.41-0.39c3.46-3.18,8.26-7.57,11.73-10.74L1618.59,17.71z"/>
	<polygon class="st41" points="1681.16,84.54 1713.48,84.54 1713.48,68.93 1673.98,68.93 	"/>
	<defs>
		<filter id="Adobe_OpacityMaskFilter_3_" filterUnits="userSpaceOnUse" x="1790.85" y="17.81" width="138.71" height="72.34">
			<feFlood  style="flood-color:white;flood-opacity:1" result="back"/>
			<feBlend  in="SourceGraphic" in2="back" mode="normal"/>
		</filter>
	</defs>
	<mask maskUnits="userSpaceOnUse" x="1790.85" y="17.81" width="138.71" height="72.34" id="SVGID_41_" class="st37">
		<g style="filter:url(#Adobe_OpacityMaskFilter_3_);">
			
				<linearGradient id="SVGID_42_" gradientUnits="userSpaceOnUse" x1="0.6935" y1="101.285" x2="1.6935" y2="101.285" gradientTransform="matrix(-120.7113 0 0 120.7113 2004.2723 -12175.0293)">
				<stop  offset="0" style="stop-color:#FFFFFF"/>
				<stop  offset="0.43" style="stop-color:#FFFFFF"/>
				<stop  offset="1" style="stop-color:#000000"/>
			</linearGradient>
			<rect x="38" y="-0.59" class="st43" width="1882.56" height="103.59"/>
		</g>
	</mask>
	<g class="st44">
		<g>
			<defs>
				<rect id="SVGID_43_" x="1790.85" y="17.81" width="138.71" height="72.34"/>
			</defs>
			<clipPath id="SVGID_44_">
				<use xlink:href="#SVGID_43_"  style="overflow:visible;"/>
			</clipPath>
			<rect x="1799.85" y="18.81" class="st45" width="120.71" height="64.33"/>
		</g>
	</g>
	<g class="st37">
		<defs>
			<rect id="SVGID_45_" x="38" y="-0.59" width="1882.56" height="103.59"/>
		</defs>
		<clipPath id="SVGID_46_">
			<use xlink:href="#SVGID_45_"  style="overflow:visible;"/>
		</clipPath>
		<path class="st46" d="M1884.75,83.03c0.14,0,0.18-30.5,0.18-44.97c-10.57,10.61-21.19,21.28-31.85,31.98
			c0.07,0.08,0.24,0.26,0.41,0.44c3.5,3.63,8.35,8.63,11.86,12.24"/>
		<path class="st46" d="M1821.81,37.28c9.23,9.68,18.47,19.35,27.71,29.01c0.11,0.12,0.23,0.23,0.38,0.36
			c6.55-6.65,20.62-20.84,20.62-20.84l-8.74-8.75"/>
		<path class="st46" d="M1864.34,36.77c8.61,8.65,0.79,0.79,9.38,9.42c0.13-0.12,11.04-9.59,11.03-9.76"/>
		<path class="st46" d="M1860.48,83.03c-12.93-13.48-25.76-26.86-38.75-40.4v40.4"/>
		<path class="st46" d="M1810.55,18.81c0.06,0-9.15,18.61-9.15,18.61l16.94,0.21c-0.03,9.01-0.06,18.38-0.06,25.24
			c-10.45-10.45-20.96-20.95-31.5-31.49c0.07-0.08,0.24-0.26,0.41-0.43c3.46-3.57,8.26-8.49,11.73-12.05"/>
		<path class="st46" d="M1755.77,83.41c0-5.97-0.01-13.24,0.01-19.2c0-0.29,0.12-0.65,0.32-0.86c9.13-9.53,18.27-19.05,27.4-28.56
			c0.11-0.12,0.23-0.22,0.37-0.36c6.47,6.54,20.39,20.52,20.39,20.52l-28.34,28.46"/>
		<path class="st46" d="M1781.44,83.14c8.51-8.51,16.98-16.98,25.48-25.48c0.13,0.12,0.29,0.26,0.43,0.4
			c3.95,3.95,6.86,6.83,10.8,10.79c0.22,0.22,0.01,14.08,0,14.24"/>
		<path class="st46" d="M1794.09,18.58c-12.78,13.27-25.48,26.44-38.32,39.78V18.58"/>
	</g>
	<rect x="1849.4" y="18.81" class="st41" width="35.61" height="16.02"/>
	<polygon class="st41" points="1813.8,18.81 1846.16,18.81 1846.16,34.6 1806.6,34.6 	"/>
	<g class="st37">
		<defs>
			<rect id="SVGID_47_" x="38" y="-0.59" width="1882.56" height="103.59"/>
		</defs>
		<clipPath id="SVGID_48_">
			<use xlink:href="#SVGID_47_"  style="overflow:visible;"/>
		</clipPath>
		<path class="st47" d="M1450.25,66.38c9.16-9.15,0.84-0.84,9.99-9.97c0.14,0.13,11.76,10.15,11.75,10.33"/>
		<path class="st47" d="M1519.94,85.88l-0.02-10.25c-3.89-8.51-14.2-12.61-14.2-12.61h-7.16l-0.04,22.86"/>
		<path class="st47" d="M1362,17.33c9.06,9.01,18.08,17.96,27.12,26.95c0.14-0.13,0.31-0.27,0.46-0.43
			c4.21-4.17,7.31-7.22,11.5-11.41c0.23-0.23,0.01-14.89,0-15.07"/>
		<path class="st47" d="M1308.6,36.83c9.16,9.21,0.84,0.84,9.99,10.03c0.14-0.13,11.76-10.21,11.75-10.39"/>
		<path class="st48" d="M1565.15,17.97c-0.01,0.02,0,36.64,0,36.64l-37.23-37.27"/>
	</g>
	<polyline class="st41" points="1475.83,18.18 1475.74,40.94 1494.93,40.94 1494.92,18 	"/>
	<g class="st37">
		<defs>
			<rect id="SVGID_49_" x="38" y="-0.59" width="1882.56" height="103.59"/>
		</defs>
		<clipPath id="SVGID_50_">
			<use xlink:href="#SVGID_49_"  style="overflow:visible;"/>
		</clipPath>
		<path class="st49" d="M1519.94,71.58l-0.05-8.56h-10.66C1511.21,64.22,1515.67,66.11,1519.94,71.58"/>
		<path class="st49" d="M1483.08,49.62c1.68,1.47,16.59,8.81,18.55,9.76h37.17l-11.64-14.9h-47.04
			C1480.63,45.97,1481.84,48.54,1483.08,49.62"/>
		<path class="st50" d="M1476.14,44.78l-0.4,14.6h21.96C1496.98,58.9,1476.14,44.78,1476.14,44.78"/>
	</g>
	<polyline class="st41" points="1559.66,85.66 1540.75,63.01 1523.21,63.01 1523.5,78.27 1527.06,85.88 	"/>
	<polyline class="st41" points="1522.82,18 1522.78,23.43 1498.56,30.78 1498.56,40.75 1528.93,40.75 1543.27,59.29 1564.6,59.29 	
		"/>
	<polyline class="st41" points="1564.6,63.01 1546.16,63.01 1564.6,85.66 	"/>
	<polyline class="st41" points="1498.52,18 1498.56,27.06 1519.15,20.82 1519.22,18 	"/>
	<polyline class="st51" points="1494.92,85.88 1494.93,63.01 1475.74,63.01 1475.83,78.14 1475.83,85.88 	"/>
	<g class="st37">
		<defs>
			<rect id="SVGID_51_" x="38" y="-0.59" width="1882.56" height="103.59"/>
		</defs>
		<clipPath id="SVGID_52_">
			<use xlink:href="#SVGID_51_"  style="overflow:visible;"/>
		</clipPath>
		<path class="st52" d="M1471.98,18c0-1.92,0.19,31.72,0.19,47.03c-11.25-11.22-22.56-22.51-33.91-33.83
			c0.08-0.08,0.26-0.28,0.44-0.47c3.72-3.84,8.89-9.13,12.63-12.95"/>
		<path class="st52" d="M1404.97,65.85c9.82-10.24,19.66-20.46,29.5-30.69c0.12-0.13,0.25-0.24,0.4-0.38
			c6.97,7.03,21.95,22.05,21.95,22.05l-9.31,9.25"/>
		<path class="st52" d="M1446.14,17.46c-13.76,14.25-27.42,28.41-41.25,42.74V17.46"/>
		<path class="st53" d="M1567.5,85.5c0-6.34-0.01-12.68,0.01-19.02c0-0.31,0.13-0.7,0.34-0.92c9.62-10.13,19.26-20.24,28.89-30.35
			c0.12-0.12,0.24-0.24,0.4-0.38c6.82,6.95,21.5,21.8,21.5,21.8l-29.1,29.2L1567.5,85.5z"/>
		<path class="st53" d="M1594.83,86.6c9.06-9.05,18.08-18.04,27.13-27.07c0.14,0.13,0.31,0.27,0.46,0.43
			c4.21,4.19,7.31,7.25,11.5,11.46c0.23,0.24,0.01,14.96,0,15.14L1594.83,86.6z"/>
		<path class="st53" d="M1608.3,18c-13.61,14.1-27.12,28.1-40.8,42.26V18H1608.3z"/>
		<path class="st52" d="M1392.98,85.38c0.07,0-9.74-19.68-9.74-19.68l18.03-0.22c-0.03-9.53-0.07-19.44-0.07-26.69
			c-11.13,11.05-22.31,22.16-33.53,33.3c0.08,0.08,0.25,0.27,0.43,0.46c3.68,3.78,8.79,8.98,12.49,12.75"/>
		<path class="st52" d="M1334.67,17.05c0,6.31-0.01,14,0.02,20.31c0,0.31,0.13,0.69,0.34,0.91c9.71,10.08,19.45,20.14,29.17,30.21
			c0.12,0.13,0.25,0.24,0.4,0.38c6.89-6.92,21.71-21.71,21.71-21.71l-30.17-30.11"/>
		<path class="st52" d="M1375.46,85.62c-13.61-14.03-27.12-27.97-40.8-42.07v42.07"/>
	</g>
	<rect x="1434.34" y="68.44" class="st51" width="37.91" height="17.19"/>
	<polygon class="st51" points="1396.44,85.38 1430.9,85.38 1430.9,68.68 1388.78,68.68 	"/>
	<g class="st37">
		<defs>
			<rect id="SVGID_53_" x="38" y="-0.59" width="1882.56" height="103.59"/>
		</defs>
		<clipPath id="SVGID_54_">
			<use xlink:href="#SVGID_53_"  style="overflow:visible;"/>
		</clipPath>
		<path class="st54" d="M1330.33,86.07c0.15,0,0.19-32.48,0.19-47.88c-11.25,11.3-22.56,22.66-33.91,34.05
			c0.08,0.09,0.26,0.28,0.44,0.47c3.72,3.86,8.89,9.19,12.63,13.03"/>
		<path class="st54" d="M1263.32,37.37c9.82,10.31,19.66,20.6,29.5,30.89c0.12,0.13,0.25,0.24,0.4,0.39
			c6.97-7.07,21.95-22.19,21.95-22.19l-9.31-9.31"/>
		<path class="st54" d="M1304.49,86.07c-13.76-14.35-27.43-28.6-41.25-43.01v43.01"/>
		<path class="st54" d="M1251.33,17.71c0.07,0-9.74,19.81-9.74,19.81l18.03,0.22c-0.03,9.59-0.07,19.57-0.07,26.87
			c-11.13-11.12-22.31-22.3-33.53-33.52c0.08-0.08,0.25-0.27,0.43-0.46c3.68-3.8,8.79-9.04,12.49-12.83"/>
		<path class="st54" d="M1193.02,86.49c0-6.35-0.01-14.09,0.02-20.44c0-0.31,0.13-0.7,0.34-0.92c9.71-10.15,19.45-20.28,29.17-30.41
			c0.12-0.12,0.25-0.24,0.4-0.38c6.89,6.96,21.71,21.84,21.71,21.84l-30.17,30.3"/>
		<path class="st54" d="M1220.35,86.2c9.06-9.06,18.08-18.07,27.12-27.12c0.14,0.13,0.31,0.27,0.46,0.43
			c4.21,4.2,7.31,7.27,11.5,11.49c0.23,0.23,0.01,14.99,0,15.16"/>
		<path class="st54" d="M1233.81,17.47c-13.61,14.13-27.12,28.15-40.8,42.35V17.47"/>
	</g>
	<rect x="1292.69" y="17.46" class="st51" width="37.91" height="17.31"/>
	<polygon class="st51" points="1254.8,17.71 1289.25,17.71 1289.25,34.52 1247.13,34.52 	"/>
	<g class="st37">
		<defs>
			<rect id="SVGID_55_" x="38" y="-0.59" width="1882.56" height="103.59"/>
		</defs>
		<clipPath id="SVGID_56_">
			<use xlink:href="#SVGID_55_"  style="overflow:visible;"/>
		</clipPath>
		<path class="st55" d="M1533.93,91.2c-0.73-0.86-1.39-1.72-1.97-2.56l-2.15-3.08l-6.16,4.31l2.15,3.08
			c0.7,1.01,1.51,2.07,2.43,3.14l2.44,2.85l5.71-4.89L1533.93,91.2z M1526.56,78.01c-0.53-1.13-1.09-2.26-1.68-3.38l-1.75-3.32
			l-6.65,3.51l1.75,3.32c0.53,1,1.04,2.03,1.53,3.07l1.6,3.4l6.8-3.2L1526.56,78.01z M1515.84,63.77c-1.07-0.77-2.16-1.48-3.27-2.15
			l-3.22-1.94l-3.88,6.44l3.22,1.94c0.95,0.57,1.87,1.17,2.74,1.8l3.05,2.2l4.4-6.09L1515.84,63.77z M1500.96,55.78
			c-1.08-0.5-2.15-0.99-3.21-1.5l-3.39-1.62l-3.24,6.78l3.39,1.62c1.11,0.53,2.21,1.04,3.31,1.55l3.41,1.57l3.14-6.83L1500.96,55.78
			z M1487.32,48.35c-0.94-0.64-1.88-1.32-2.67-1.95l-2.93-2.35l-4.7,5.87l2.93,2.35c1,0.8,2.08,1.58,3.14,2.3l3.11,2.11l4.23-6.22
			L1487.32,48.35z M1479.4,38.34c-0.17-0.81-0.43-1.59-0.74-2.33c-0.32-0.75-0.69-1.46-1.11-2.15l-1.96-3.21l-6.41,3.92l1.96,3.21
			c0.26,0.42,0.46,0.81,0.61,1.16c0.15,0.35,0.25,0.67,0.31,0.95l0.77,3.68l7.36-1.55L1479.4,38.34z M1467.91,23.92
			c-0.96-0.77-1.94-1.52-2.93-2.27l-3-2.26l-4.52,6l3,2.26c0.94,0.71,1.87,1.42,2.76,2.14l2.94,2.34l4.69-5.87L1467.91,23.92z
			 M1456.63,13.98c-0.62-0.88-1.26-1.84-1.88-2.83l-2-3.18l-6.36,4l2,3.18c0.69,1.09,1.39,2.15,2.11,3.16l2.17,3.07l6.14-4.34
			L1456.63,13.98z"/>
		<path class="st55" d="M1444.91,3.86c-0.12-0.31-0.22-0.57-0.27-0.75c-0.03-0.09-0.05-0.16-0.06-0.2
			c-0.01-0.02-0.01-0.03-0.01-0.04l-0.02,0l0.02,0v0l-0.02,0l0.02,0L1443.91,3l0.66-0.11c0-0.02-0.01-0.02-0.01-0.02L1443.91,3
			l0.1-3.59l-6.97,1.12c0.6,3.72,0.65,3.93,0.7,4.13c0.08,0.3,0.17,0.59,0.27,0.88c0.1,0.29,0.21,0.6,0.34,0.92l1.3,3.28l6.56-2.6
			L1444.91,3.86z"/>
		<defs>
			<filter id="Adobe_OpacityMaskFilter_4_" filterUnits="userSpaceOnUse" x="1201.92" y="10.11" width="350.89" height="77.48">
				<feFlood  style="flood-color:white;flood-opacity:1" result="back"/>
				<feBlend  in="SourceGraphic" in2="back" mode="normal"/>
			</filter>
		</defs>
		<mask maskUnits="userSpaceOnUse" x="1201.92" y="10.11" width="350.89" height="77.48" id="SVGID_57_">
			<g class="st56">
				
					<linearGradient id="SVGID_58_" gradientUnits="userSpaceOnUse" x1="1.1111" y1="101.1003" x2="2.1111" y2="101.1003" gradientTransform="matrix(332.8912 0 0 -332.8912 841.0248 33706.6055)">
					<stop  offset="0" style="stop-color:#FFFFFF"/>
					<stop  offset="0.43" style="stop-color:#FFFFFF"/>
					<stop  offset="1" style="stop-color:#000000"/>
				</linearGradient>
				<rect x="38" y="-0.59" class="st57" width="1882.56" height="103.59"/>
			</g>
		</mask>
		<g class="st58">
			<g>
				<defs>
					<rect id="SVGID_59_" x="1201.92" y="10.11" width="350.89" height="77.48"/>
				</defs>
				<clipPath id="SVGID_60_">
					<use xlink:href="#SVGID_59_"  style="overflow:visible;"/>
				</clipPath>
				<g class="st59">
					
						<linearGradient id="SVGID_61_" gradientUnits="userSpaceOnUse" x1="1.1111" y1="101.0985" x2="2.0516" y2="101.0985" gradientTransform="matrix(332.8912 0 0 -332.8912 841.0248 33706.6055)">
						<stop  offset="0" style="stop-color:#E65118"/>
						<stop  offset="0.0955" style="stop-color:#E65118"/>
						<stop  offset="1" style="stop-color:#FFFFFF"/>
					</linearGradient>
					<polygon class="st60" points="1210.92,17.11 1472,17 1472,33 1479,47 1513,64 1524,86.6 1210.92,86.6 					"/>
				</g>
			</g>
		</g>
		<defs>
			<filter id="Adobe_OpacityMaskFilter_5_" filterUnits="userSpaceOnUse" x="1096.54" y="16.05" width="138.48" height="77.55">
				<feFlood  style="flood-color:white;flood-opacity:1" result="back"/>
				<feBlend  in="SourceGraphic" in2="back" mode="normal"/>
			</filter>
		</defs>
		<mask maskUnits="userSpaceOnUse" x="1096.54" y="16.05" width="138.48" height="77.55" id="SVGID_62_">
			<g class="st61">
				
					<linearGradient id="SVGID_63_" gradientUnits="userSpaceOnUse" x1="0.6929" y1="101.3001" x2="1.6929" y2="101.3001" gradientTransform="matrix(-120.486 0 0 120.486 1309.507 -12154.0361)">
					<stop  offset="0" style="stop-color:#FFFFFF"/>
					<stop  offset="0.43" style="stop-color:#FFFFFF"/>
					<stop  offset="1" style="stop-color:#000000"/>
				</linearGradient>
				<rect x="38" y="-0.59" class="st62" width="1882.56" height="103.59"/>
			</g>
		</mask>
		<g class="st63">
			<g>
				<defs>
					<rect id="SVGID_64_" x="1096.54" y="16.05" width="138.48" height="77.55"/>
				</defs>
				<clipPath id="SVGID_65_">
					<use xlink:href="#SVGID_64_"  style="overflow:visible;"/>
				</clipPath>
				<g class="st64">
					<defs>
						<rect id="SVGID_66_" x="1105.54" y="17.05" width="120.49" height="69.55"/>
					</defs>
					<clipPath id="SVGID_67_">
						<use xlink:href="#SVGID_66_"  style="overflow:visible;"/>
					</clipPath>
					
						<linearGradient id="SVGID_68_" gradientUnits="userSpaceOnUse" x1="0.6929" y1="101.3052" x2="1.6929" y2="101.3052" gradientTransform="matrix(-120.486 0 0 120.486 1309.507 -12154.0361)">
						<stop  offset="0" style="stop-color:#E65118"/>
						<stop  offset="0.0955" style="stop-color:#E65118"/>
						<stop  offset="1" style="stop-color:#FFFFFF"/>
					</linearGradient>
					<rect x="1105.53" y="17.05" class="st65" width="120.49" height="69.55"/>
				</g>
			</g>
		</g>
		<path class="st66" d="M1095.25,80.91c0,2.05,1.73,3.79,3.79,3.79c2.09,0,3.87-1.73,3.87-3.79c0-2.09-1.77-3.87-3.87-3.87
			C1096.98,77.04,1095.25,78.82,1095.25,80.91 M1059.04,70.24c0,8.06,6.48,14.46,14.54,14.46c3.59,0,7.05-1.25,9.79-3.91
			c0.28-0.28,0.32-0.8,0.04-1.09l-3.14-3.34c-0.24-0.28-0.77-0.28-1.05-0.04c-1.45,1.25-3.5,1.93-5.4,1.93
			c-4.55,0-7.94-3.71-7.94-8.18c0-4.51,3.34-8.3,7.89-8.3c1.97,0,3.95,0.73,5.44,2.05c0.28,0.28,0.72,0.28,1.01,0l3.14-3.26
			c0.32-0.32,0.32-0.81-0.04-1.13c-2.74-2.5-5.72-3.75-9.75-3.75C1065.53,55.7,1059.04,62.18,1059.04,70.24 M1043.13,53.6l7.33-3.3
			c0.32-0.2,0.56-0.6,0.24-1.21l-1.37-2.38c-0.2-0.36-0.81-0.28-1.05-0.12l-6.85,4.19c-0.2,0.16-0.4,0.44-0.24,0.76l0.85,1.69
			C1042.25,53.64,1042.61,53.93,1043.13,53.6 M1036.69,83.53c0,0.4,0.32,0.77,0.77,0.77h16.68c0.44,0,0.76-0.36,0.76-0.77v-4.39
			c0-0.4-0.32-0.76-0.76-0.76h-11.16v-5.44h9.18c0.4,0,0.77-0.32,0.77-0.76v-4.39c0-0.4-0.36-0.77-0.77-0.77h-9.18v-4.99h11.16
			c0.44,0,0.76-0.36,0.76-0.76v-4.39c0-0.4-0.32-0.77-0.76-0.77h-16.68c-0.44,0-0.77,0.36-0.77,0.77V83.53z M1013.09,78.33V62.02
			h3.87c4.55,0,7.85,3.58,7.85,8.14c0,4.59-3.3,8.18-7.85,8.18H1013.09z M1006.8,83.53c0,0.4,0.32,0.77,0.72,0.77h9.83
			c7.77,0,14.14-6.32,14.14-14.14c0-7.73-6.36-14.06-14.14-14.06h-9.83c-0.4,0-0.72,0.36-0.72,0.77V83.53z"/>
		<path class="st66" d="M1082.68,46.5c1.12,1.35,4.22,3.72,8.89,3.72c6.28,0,11.08-4.67,11.08-10.28c0-5.88-4.04-10.23-10.23-10.23
			h-3.19v-4.8h9.24c0.49,0,0.85-0.4,0.85-0.85v-3.95c0-0.45-0.36-0.85-0.85-0.85h-14.45c-0.49,0-0.85,0.4-0.85,0.85v13.91
			c0,0.72,0.49,1.57,1.39,1.57h6.91c2.92,0,4.62,1.93,4.62,4.35c0,2.47-1.84,4.26-4.26,4.26c-2.15,0-5.34-2.15-5.34-2.15
			c-0.36-0.22-0.81-0.13-1.08,0.13l-2.83,2.78C1082.05,45.51,1082.09,45.82,1082.68,46.5 M1069.8,48.92c0,0.45,0.36,0.85,0.85,0.85
			h4.98c0.45,0,0.81-0.4,0.81-0.85V20.11c0-0.45-0.36-0.85-0.81-0.85h-4.13l-6.55,5.12c-0.13,0.13-0.27,0.49-0.27,0.67v2.83
			c0,0.45,0.36,0.85,0.81,0.85h4.31V48.92z M1052.07,41.78h10.28c0.49,0,0.85-0.36,0.85-0.81v-4.08c0-0.49-0.36-0.85-0.85-0.85
			h-10.28c-0.49,0-0.85,0.36-0.85,0.85v4.08C1051.22,41.42,1051.58,41.78,1052.07,41.78 M1035.16,43.71c-2.74,0-4.26-3.28-4.26-9.2
			c0-5.88,1.53-9.2,4.26-9.2c2.74,0,4.26,3.32,4.26,9.2C1039.42,40.44,1037.89,43.71,1035.16,43.71 M1035.16,50.22
			c7.31,0,11.49-5.88,11.49-15.7c0-9.83-4.17-15.71-11.49-15.71c-7.31,0-11.49,5.88-11.49,15.71
			C1023.67,44.34,1027.84,50.22,1035.16,50.22 M1010.74,48.92c0,0.45,0.36,0.85,0.85,0.85h4.98c0.45,0,0.81-0.4,0.81-0.85V20.11
			c0-0.45-0.36-0.85-0.81-0.85h-4.13l-6.55,5.12c-0.14,0.13-0.27,0.49-0.27,0.67v2.83c0,0.45,0.36,0.85,0.81,0.85h4.31V48.92z"/>
	</g>
	<line class="st67" x1="982.79" y1="17.46" x2="982.79" y2="86.6"/>
	<g class="st37">
		<defs>
			<rect id="SVGID_69_" x="38" y="-0.59" width="1882.56" height="103.59"/>
		</defs>
		<clipPath id="SVGID_70_">
			<use xlink:href="#SVGID_69_"  style="overflow:visible;"/>
		</clipPath>
		<path class="st68" d="M1312.38,60.12c0.6,0.57,2.82,2.34,6.6,2.34c4.23,0,6.9-2.85,6.9-5.94c0-3.87-3.36-5.61-6.27-6.78
			c-2.43-0.99-3.54-1.95-3.54-3.36c0-0.96,0.93-2.1,2.64-2.1c1.65,0,3.93,1.5,4.17,1.65c0.36,0.24,0.81,0,1.05-0.36l1.14-1.71
			c0.21-0.3,0.12-0.81-0.18-0.99c-0.6-0.45-2.94-2.01-6-2.01c-4.77,0-6.75,3.09-6.75,5.76c0,3.54,2.82,5.34,5.64,6.48
			c2.52,1.02,3.81,2.07,3.81,3.6c0,1.29-1.17,2.31-2.73,2.31c-1.95,0-4.38-1.77-4.53-1.86c-0.27-0.21-0.78-0.21-1.02,0.21
			l-1.08,1.86C1311.96,59.7,1312.11,59.85,1312.38,60.12 M1291.86,51.69c0-3.78,3.09-6.93,6.87-6.93c3.78,0,6.9,3.15,6.9,6.93
			c0,3.78-3.12,6.87-6.9,6.87C1294.95,58.56,1291.86,55.47,1291.86,51.69 M1287.96,51.69c0,6,4.77,10.77,10.77,10.77
			s10.8-4.77,10.8-10.77s-4.8-10.83-10.8-10.83S1287.96,45.69,1287.96,51.69 M1272.54,61.59c0,0.3,0.24,0.57,0.57,0.57h2.76
			c0.3,0,0.57-0.27,0.57-0.57V54h7.41c0.3,0,0.57-0.27,0.57-0.57v-2.46c0-0.3-0.27-0.57-0.57-0.57h-7.41v-5.64h8.88
			c0.33,0,0.57-0.27,0.57-0.57v-2.46c0-0.3-0.24-0.57-0.57-0.57h-12.21c-0.33,0-0.57,0.27-0.57,0.57V61.59z M1249.35,61.59
			c0,0.3,0.27,0.57,0.57,0.57h2.73c0.33,0,0.57-0.27,0.57-0.57v-12.9h0.03l12.54,13.77h0.72c0.3,0,0.57-0.24,0.57-0.54V41.73
			c0-0.3-0.27-0.57-0.57-0.57h-2.76c-0.33,0-0.57,0.27-0.57,0.57v12.39h-0.03l-12.48-13.26h-0.75c-0.3,0-0.57,0.24-0.57,0.54V61.59z
			 M1239.96,61.59c0,0.3,0.27,0.57,0.57,0.57h2.79c0.3,0,0.57-0.27,0.57-0.57V41.73c0-0.3-0.27-0.57-0.57-0.57h-2.79
			c-0.3,0-0.57,0.27-0.57,0.57V61.59z M1233.21,49.47c0.24,0.24,0.45,0.21,0.69,0.03c0.78-0.69,2.7-2.49,2.7-5.43
			c0-2.46-1.41-3.21-2.49-3.21c-1.23,0-2.13,0.9-2.13,2.01c0,1.11,0.9,1.98,2.01,1.98c0.48,0,0.87-0.15,0.9-0.15
			c0,2.1-1.74,3.45-2.04,3.66c-0.21,0.18-0.27,0.48-0.06,0.69L1233.21,49.47z M1215.81,58.5V44.79h3.42c3.9,0,6.75,2.94,6.75,6.84
			c0,3.93-2.85,6.87-6.75,6.87H1215.81z M1211.94,61.59c0,0.3,0.24,0.57,0.54,0.57h7.11c5.79,0,10.53-4.71,10.53-10.53
			c0-5.76-4.74-10.47-10.53-10.47h-7.11c-0.3,0-0.54,0.27-0.54,0.57V61.59z M1179.51,57.66c0,0.3,0.27,0.54,0.57,0.54h1.68
			c0.3,0,0.57-0.24,0.57-0.54v-4.47h4.53c0.3,0,0.54-0.27,0.54-0.57v-1.68c0-0.3-0.24-0.57-0.54-0.57h-4.53v-4.53
			c0-0.3-0.27-0.54-0.57-0.54h-1.68c-0.3,0-0.57,0.24-0.57,0.54v4.53h-4.5c-0.3,0-0.57,0.27-0.57,0.57v1.68
			c0,0.3,0.27,0.57,0.57,0.57h4.5V57.66z"/>
		<path class="st69" d="M1180.39,67.93c8.88,0,16.09-7.2,16.09-16.09c0-8.89-7.2-16.09-16.09-16.09c-8.89,0-16.09,7.2-16.09,16.09
			C1164.3,60.73,1171.51,67.93,1180.39,67.93z"/>
		<path class="st70" d="M1622.2,18.81c0,6.12-0.01,13.57,0.01,19.68c0,0.3,0.12,0.67,0.32,0.88c9.13,9.77,18.27,19.52,27.4,29.27
			c0.11,0.12,0.23,0.23,0.37,0.37c6.47-6.71,20.39-21.03,20.39-21.03l-28.34-29.17H1622.2z"/>
		<path class="st70" d="M1647.87,18.81c8.51,9.06,16.98,18.07,25.48,27.12c0.13-0.13,0.29-0.27,0.43-0.43
			c3.95-4.2,6.86-7.26,10.8-11.48c0.22-0.23,0.01-14.99,0-15.16L1647.87,18.81z"/>
	</g>
</g>
<g id="Calque_3">
	<g>
		<defs>
			<rect id="SVGID_71_" x="1446" y="8.03" width="89.99" height="90.97"/>
		</defs>
		<clipPath id="SVGID_72_">
			<use xlink:href="#SVGID_71_"  style="overflow:visible;"/>
		</clipPath>
		<g class="st71">
			<path class="st72" d="M1533.54,91.26c-0.73-0.86-1.39-1.72-1.97-2.56l-2.15-3.08l-6.16,4.31l2.15,3.08
				c0.7,1.01,1.51,2.07,2.43,3.14l2.44,2.85l5.71-4.89L1533.54,91.26z M1526.18,78.06c-0.53-1.13-1.09-2.26-1.68-3.38l-1.75-3.32
				l-6.65,3.51l1.75,3.32c0.53,1,1.04,2.03,1.53,3.07l1.6,3.4l6.8-3.2L1526.18,78.06z M1515.46,63.82
				c-1.07-0.77-2.16-1.48-3.27-2.15l-3.22-1.94l-3.88,6.44l3.22,1.94c0.95,0.57,1.87,1.17,2.74,1.81l3.05,2.2l4.4-6.09
				L1515.46,63.82z M1500.57,55.83c-1.08-0.5-2.15-0.99-3.21-1.5l-3.39-1.62l-3.24,6.78l3.39,1.62c1.11,0.53,2.21,1.04,3.31,1.55
				l3.41,1.57l3.14-6.83L1500.57,55.83z M1486.94,48.41c-0.94-0.64-1.88-1.32-2.67-1.95l-2.93-2.35l-4.7,5.87l2.93,2.35
				c1,0.8,2.08,1.58,3.14,2.3l3.11,2.11l4.23-6.22L1486.94,48.41z M1479.02,38.39c-0.17-0.81-0.43-1.59-0.74-2.33
				c-0.32-0.75-0.69-1.46-1.11-2.15l-1.96-3.21l-6.41,3.92l1.96,3.2c0.26,0.42,0.46,0.81,0.61,1.16c0.15,0.35,0.25,0.67,0.31,0.95
				l0.77,3.68l7.36-1.55L1479.02,38.39z M1467.53,23.97c-0.96-0.77-1.94-1.52-2.93-2.27l-3-2.26l-4.52,6l3,2.26
				c0.94,0.71,1.87,1.42,2.76,2.14l2.94,2.34l4.69-5.87L1467.53,23.97z M1456.24,14.03c-0.62-0.88-1.26-1.84-1.88-2.83l-2-3.18
				l-6.36,4l2,3.18c0.69,1.09,1.39,2.15,2.11,3.16l2.17,3.07l6.13-4.34L1456.24,14.03z"/>
		</g>
	</g>
</g>
</svg>
