<?xml version="1.0" encoding="utf-8"?>
<!-- Generator: Adobe Illustrator 23.0.1, SVG Export Plug-In . SVG Version: 6.00 Build 0)  -->
<svg version="1.1" id="Calque_1" xmlns="http://www.w3.org/2000/svg" xmlns:xlink="http://www.w3.org/1999/xlink" x="0px" y="0px"
	 viewBox="0 0 414 100" style="enable-background:new 0 0 414 100;" xml:space="preserve">
<style type="text/css">
	.st0{fill:url(#SVGID_1_);}
	.st1{filter:url(#Adobe_OpacityMaskFilter);}
	.st2{fill:url(#SVGID_3_);}
	.st3{mask:url(#SVGID_2_);}
	.st4{fill:#2D79A9;}
	.st5{display:none;fill:#FFFFFF;stroke:#FFFFFF;stroke-width:0.4674;}
	.st6{display:none;fill:#FFFFFF;}
	.st7{display:none;}
	.st8{display:inline;fill:#FFFFFF;}
	.st9{display:none;fill:none;stroke:#FFFFFF;stroke-width:1.9;stroke-miterlimit:10;}
	.st10{fill:#FFFFFF;}
	.st11{fill:#004272;stroke:#FFFFFF;stroke-width:2.4569;stroke-miterlimit:10;}
	.st12{fill:none;stroke:#FFFFFF;stroke-width:1.469;stroke-miterlimit:10;}
</style>
<linearGradient id="SVGID_1_" gradientUnits="userSpaceOnUse" x1="0" y1="50" x2="207" y2="50">
	<stop  offset="0" style="stop-color:#E65118"/>
	<stop  offset="0.0955" style="stop-color:#E65118"/>
	<stop  offset="1" style="stop-color:#FFFFFF"/>
</linearGradient>
<rect class="st0" width="207" height="100"/>
<defs>
	<filter id="Adobe_OpacityMaskFilter" filterUnits="userSpaceOnUse" x="206" y="0" width="208" height="100">
		<feFlood  style="flood-color:white;flood-opacity:1" result="back"/>
		<feBlend  in="SourceGraphic" in2="back" mode="normal"/>
	</filter>
</defs>
<mask maskUnits="userSpaceOnUse" x="206" y="0" width="208" height="100" id="SVGID_2_">
	<g class="st1">
		
			<linearGradient id="SVGID_3_" gradientUnits="userSpaceOnUse" x1="-746.0638" y1="101.2779" x2="-744.3407" y2="101.2779" gradientTransform="matrix(-120.7113 0 0 120.7113 -89644.3125 -12175.0293)">
			<stop  offset="0" style="stop-color:#FFFFFF"/>
			<stop  offset="0.43" style="stop-color:#FFFFFF"/>
			<stop  offset="1" style="stop-color:#000000"/>
		</linearGradient>
		<rect x="-2829.89" y="-30.15" class="st2" width="3243.89" height="161.02"/>
	</g>
</mask>
<g class="st3">
	<g>
		<rect x="206" y="0" class="st4" width="208" height="100"/>
	</g>
</g>
<path class="st5" d="M287.87,52.69c0,0.17,0.16,0.31,0.33,0.31h0.97c0.17,0,0.33-0.14,0.33-0.31v-2.58h2.61
	c0.17,0,0.31-0.16,0.31-0.33v-0.97c0-0.17-0.14-0.33-0.31-0.33h-2.61v-2.61c0-0.17-0.16-0.31-0.33-0.31h-0.97
	c-0.17,0-0.33,0.14-0.33,0.31v2.61h-2.6c-0.17,0-0.33,0.16-0.33,0.33v0.97c0,0.17,0.16,0.33,0.33,0.33h2.6V52.69z"/>
<path class="st6" d="M359.37,40.08c-5.22,0-9.37,4.2-9.37,9.43s4.15,9.37,9.37,9.37c5.22,0,9.4-4.15,9.4-9.37
	S364.59,40.08,359.37,40.08z M359.37,55.49c-3.29,0-5.98-2.69-5.98-5.98c0-3.29,2.69-6.03,5.98-6.03s6.01,2.74,6.01,6.03
	C365.38,52.8,362.66,55.49,359.37,55.49z"/>
<path class="st6" d="M371.25,56.85c0.52,0.5,2.45,2.04,5.74,2.04c3.68,0,6.01-2.48,6.01-5.17c0-3.37-2.92-4.88-5.46-5.9
	c-2.11-0.86-3.08-1.7-3.08-2.92c0-0.84,0.81-1.83,2.3-1.83c1.44,0,3.42,1.31,3.63,1.44c0.31,0.21,0.71,0,0.91-0.31l0.99-1.49
	c0.18-0.26,0.1-0.7-0.16-0.86c-0.52-0.39-2.56-1.75-5.22-1.75c-4.15,0-5.87,2.69-5.87,5.01c0,3.08,2.45,4.65,4.91,5.64
	c2.19,0.89,3.32,1.8,3.32,3.13c0,1.12-1.02,2.01-2.38,2.01c-1.7,0-3.81-1.54-3.94-1.62c-0.24-0.18-0.68-0.18-0.89,0.18l-0.94,1.62
	C370.88,56.48,371.02,56.61,371.25,56.85"/>
<path class="st6" d="M336.58,58.13c0,0.26,0.21,0.5,0.5,0.5h2.4c0.26,0,0.5-0.23,0.5-0.5v-6.61h6.45c0.26,0,0.5-0.23,0.5-0.5v-2.14
	c0-0.26-0.24-0.5-0.5-0.5h-6.45v-4.91h7.73c0.29,0,0.5-0.23,0.5-0.5v-2.14c0-0.26-0.21-0.5-0.5-0.5h-10.63c-0.29,0-0.5,0.23-0.5,0.5
	V58.13z"/>
<path class="st6" d="M316.39,58.13c0,0.26,0.23,0.5,0.5,0.5h2.38c0.29,0,0.5-0.23,0.5-0.5V46.9h0.03l10.91,11.98h0.63
	c0.26,0,0.5-0.21,0.5-0.47V40.84c0-0.26-0.23-0.5-0.5-0.5h-2.4c-0.29,0-0.5,0.23-0.5,0.5v10.78h-0.03l-10.86-11.54h-0.65
	c-0.26,0-0.5,0.21-0.5,0.47V58.13z"/>
<path class="st6" d="M308.22,58.13c0,0.26,0.24,0.5,0.5,0.5h2.43c0.26,0,0.5-0.23,0.5-0.5V40.84c0-0.26-0.24-0.5-0.5-0.5h-2.43
	c-0.26,0-0.5,0.23-0.5,0.5V58.13z"/>
<g class="st7">
	<path class="st8" d="M119.52,76.97c0,1.92,1.62,3.53,3.54,3.53c1.95,0,3.61-1.62,3.61-3.53c0-1.95-1.65-3.61-3.61-3.61
		C121.14,73.36,119.52,75.02,119.52,76.97 M85.73,67.01c0,7.52,6.05,13.5,13.57,13.5c3.35,0,6.58-1.17,9.14-3.65
		c0.26-0.26,0.3-0.75,0.04-1.01l-2.93-3.12c-0.23-0.26-0.71-0.26-0.98-0.04c-1.35,1.17-3.27,1.81-5.04,1.81
		c-4.25,0-7.41-3.46-7.41-7.63c0-4.21,3.12-7.75,7.37-7.75c1.84,0,3.69,0.68,5.08,1.92c0.26,0.26,0.68,0.26,0.94,0l2.93-3.05
		c0.3-0.3,0.3-0.75-0.04-1.05c-2.56-2.33-5.34-3.5-9.1-3.5C91.78,53.43,85.73,59.49,85.73,67.01 M70.87,51.48l6.84-3.08
		c0.3-0.19,0.53-0.56,0.23-1.13l-1.28-2.22c-0.19-0.34-0.75-0.26-0.98-0.11l-6.39,3.91c-0.19,0.15-0.38,0.41-0.22,0.71l0.79,1.58
		C70.05,51.52,70.39,51.78,70.87,51.48 M64.86,79.42c0,0.38,0.3,0.71,0.71,0.71h15.57c0.41,0,0.71-0.34,0.71-0.71v-4.1
		c0-0.38-0.3-0.71-0.71-0.71H70.72v-5.08h8.57c0.38,0,0.71-0.3,0.71-0.71v-4.1c0-0.38-0.34-0.72-0.71-0.72h-8.57v-4.66h10.41
		c0.41,0,0.71-0.34,0.71-0.71v-4.1c0-0.38-0.3-0.71-0.71-0.71H65.57c-0.41,0-0.71,0.34-0.71,0.71V79.42z M42.83,74.57V59.34h3.61
		c4.25,0,7.33,3.35,7.33,7.59c0,4.29-3.08,7.63-7.33,7.63H42.83z M36.96,79.42c0,0.38,0.3,0.71,0.68,0.71h9.17
		c7.26,0,13.2-5.9,13.2-13.2c0-7.22-5.94-13.12-13.2-13.12h-9.17c-0.38,0-0.68,0.34-0.68,0.71V79.42z"/>
	<path class="st8" d="M107.79,44.85c1.05,1.26,3.94,3.48,8.29,3.48c5.86,0,10.35-4.36,10.35-9.59c0-5.49-3.77-9.55-9.55-9.55h-2.97
		V24.7h8.63c0.46,0,0.8-0.38,0.8-0.8v-3.69c0-0.42-0.34-0.8-0.8-0.8h-13.49c-0.46,0-0.8,0.38-0.8,0.8V33.2
		c0,0.67,0.46,1.47,1.3,1.47H116c2.72,0,4.31,1.8,4.31,4.06c0,2.3-1.72,3.98-3.98,3.98c-2.01,0-4.98-2.01-4.98-2.01
		c-0.34-0.21-0.75-0.13-1.01,0.13l-2.64,2.6C107.2,43.92,107.24,44.22,107.79,44.85 M95.77,47.11c0,0.42,0.34,0.8,0.8,0.8h4.65
		c0.42,0,0.75-0.38,0.75-0.8V20.21c0-0.42-0.34-0.8-0.75-0.8h-3.85l-6.12,4.78c-0.13,0.13-0.25,0.46-0.25,0.63v2.64
		c0,0.42,0.34,0.8,0.75,0.8h4.02V47.11z M79.22,40.45h9.59c0.46,0,0.8-0.34,0.8-0.75v-3.81c0-0.46-0.34-0.8-0.8-0.8h-9.59
		c-0.46,0-0.8,0.34-0.8,0.8v3.81C78.42,40.11,78.76,40.45,79.22,40.45 M63.43,42.25c-2.55,0-3.98-3.06-3.98-8.59
		c0-5.49,1.42-8.59,3.98-8.59c2.56,0,3.98,3.1,3.98,8.59C67.41,39.19,65.98,42.25,63.43,42.25 M63.43,48.32
		c6.83,0,10.72-5.49,10.72-14.66c0-9.17-3.9-14.66-10.72-14.66C56.6,19,52.7,24.49,52.7,33.66C52.7,42.83,56.6,48.32,63.43,48.32
		 M40.64,47.11c0,0.42,0.34,0.8,0.8,0.8h4.65c0.42,0,0.75-0.38,0.75-0.8V20.21c0-0.42-0.34-0.8-0.75-0.8h-3.85l-6.12,4.78
		c-0.13,0.13-0.25,0.46-0.25,0.63v2.64c0,0.42,0.34,0.8,0.75,0.8h4.02V47.11z"/>
</g>
<circle class="st9" cx="288.5" cy="49.5" r="9.5"/>
<g>
	<circle class="st10" cx="207" cy="50" r="50"/>
	<g>
		<circle class="st11" cx="206.59" cy="49.87" r="46.23"/>
		<circle class="st12" cx="206.59" cy="49.87" r="27.64"/>
		<path class="st10" d="M206.59,29.95c0.36,0,0.66-0.3,0.66-0.66c0-0.36-0.3-0.66-0.66-0.66c-0.36,0-0.66,0.3-0.66,0.66
			C205.93,29.66,206.23,29.95,206.59,29.95"/>
		<g>
			<path class="st10" d="M192.86,66.71c0.86-1.04,2.5-3.18,3.37-4.34c0.4-0.5,0.66-1,0.66-1.45c0-0.59-0.44-1.19-1.38-1.19
				c-0.63,0-1.16,0.44-1.46,0.77c-0.1,0.1-0.25,0.1-0.35,0l-0.63-0.63c-0.08-0.08-0.1-0.23-0.01-0.34c0,0,1.02-1.28,2.57-1.28
				c1.86,0,2.91,1.19,2.91,2.59c0,0.85-0.36,1.38-0.87,2.11c-0.56,0.79-1.55,2.02-2.24,2.89h2.81c0.13,0,0.25,0.12,0.25,0.25v0.9
				c0,0.13-0.12,0.25-0.25,0.25h-5.13c-0.14,0-0.25-0.12-0.25-0.25V66.71z"/>
			<path class="st10" d="M200.66,62.82c0-2.85,1.2-4.56,3.28-4.56c2.08,0,3.28,1.71,3.28,4.56c0,2.85-1.2,4.56-3.28,4.56
				C201.85,67.38,200.66,65.68,200.66,62.82z M205.52,62.82c0-1.93-0.57-3.02-1.58-3.02c-1,0-1.58,1.09-1.58,3.02
				c0,1.94,0.57,3.02,1.58,3.02C204.94,65.85,205.52,64.77,205.52,62.82z"/>
			<path class="st10" d="M210.51,60.77l-1.15,0.25c-0.12,0.03-0.25-0.05-0.26-0.17l-0.08-0.64c-0.01-0.1,0.01-0.18,0.06-0.23
				l1.88-1.58h0.91c0.13,0,0.23,0.12,0.23,0.25v8.37c0,0.13-0.1,0.25-0.23,0.25h-1.12c-0.14,0-0.25-0.12-0.25-0.25V60.77z"/>
			<path class="st10" d="M216.16,62.71v-0.04c-0.53-0.29-1.34-1-1.34-2.02c0-1.45,1.25-2.38,2.83-2.38c1.63,0,2.88,0.94,2.88,2.38
				c0,0.99-0.81,1.69-1.34,2.01v0.05c0.59,0.3,1.58,1.06,1.58,2.18c0,1.42-1.2,2.5-3.11,2.5c-1.86,0-3.06-1.08-3.06-2.5
				C214.59,63.75,215.8,62.89,216.16,62.71z M217.67,66.06c0.72,0,1.35-0.48,1.35-1.2c0-0.59-0.48-1.19-1.35-1.38
				c-0.87,0.2-1.36,0.8-1.36,1.38C216.32,65.57,216.97,66.06,217.67,66.06z M218.86,60.71c0-0.63-0.53-1.11-1.21-1.11
				c-0.63,0-1.16,0.48-1.16,1.11c0,0.59,0.36,1.04,1.19,1.24C218.48,61.77,218.86,61.27,218.86,60.71z"/>
			<polygon class="st10" points="206.59,49.61 189.97,56.54 223.21,56.54 			"/>
			<path class="st10" d="M204.67,36.9c0-0.19,0.07-0.46,0.41-0.46c0.34,0,0.41,0.27,0.41,0.46v2.84c-0.28,0.03-0.55,0.06-0.82,0.1
				V36.9z M206.04,36.71c0-0.27,0.09-0.64,0.57-0.64c0.48,0,0.57,0.38,0.57,0.64v2.99c-0.19-0.01-0.38-0.01-0.57-0.01
				c-0.19,0-0.38,0.01-0.57,0.01V36.71z M207.7,36.9c0-0.19,0.07-0.46,0.41-0.46c0.34,0,0.41,0.27,0.41,0.46v2.94
				c-0.27-0.04-0.54-0.08-0.82-0.1V36.9z M210.33,43.22V40.3l-1.03-1.01v-3.57l0.51-0.51c-0.07-0.08-1.77-1.96-2.35-4.53h-1.75
				c-0.55,2.46-2.14,4.3-2.33,4.52l0,0.01l0.52,0.51v3.57l-1.03,1.01v2.92c-4.36,1.45-7.59,5.36-8.04,10.09l11.35-4.73l0.43-0.18
				l0.43,0.18l11.35,4.73C217.92,48.58,214.68,44.67,210.33,43.22"/>
		</g>
		<path class="st10" d="M236.32,22.92c0.1-0.08,0.25-0.06,0.32,0.03l1.83,2.38c1.45,1.89,1.1,4.61-0.77,6.05
			c-1.9,1.46-4.62,1.09-6.07-0.79l-1.83-2.38c-0.08-0.1-0.05-0.24,0.05-0.32L236.32,22.92z M233,29.39c0.85,1.1,2.34,1.24,3.45,0.38
			c1.1-0.85,1.36-2.32,0.51-3.42l-0.72-0.94l-3.96,3.04L233,29.39z"/>
		<path class="st10" d="M176.17,36.46l-4.58-7.92c-0.04-0.07-0.04-0.18,0.01-0.25l0.07-0.1c0.05-0.07,0.15-0.11,0.23-0.09l9.01,1.6
			c0.17,0.03,0.25,0.2,0.14,0.36l-0.78,1.12c-0.13,0.18-0.24,0.22-0.5,0.18l-1.05-0.19l-1.92,2.75l0.55,0.93
			c0.09,0.14,0.13,0.33-0.01,0.53l-0.78,1.11C176.45,36.62,176.26,36.61,176.17,36.46z M176.91,30.79l-2.2-0.4l-0.01,0.01l1.14,1.92
			L176.91,30.79z"/>
		<path class="st10" d="M182.35,26.99l-0.21-1.16c-0.03-0.19,0.17-0.32,0.27-0.33c0.05-0.01,1.15-0.08,1.78-0.6
			c0.38-0.32,0.46-0.78,0.18-1.11c-0.33-0.4-0.92-0.42-1.77-0.14c-1.08,0.36-2.63,0.58-3.58-0.56c-0.78-0.94-0.84-2.49,0.62-3.71
			c0.98-0.82,2.16-0.95,2.62-0.98c0.17-0.03,0.29,0.16,0.31,0.26l0.12,1.13c0.02,0.16-0.08,0.39-0.22,0.39
			c-0.12,0.02-1.25,0.08-1.83,0.56c-0.34,0.28-0.41,0.72-0.19,0.98c0.29,0.35,0.8,0.38,1.8,0.06c0.98-0.32,2.64-0.72,3.71,0.56
			c0.81,0.98,0.79,2.66-0.6,3.82c-1.23,1.03-2.34,1.08-2.74,1.05C182.44,27.2,182.38,27.18,182.35,26.99z"/>
		<path class="st10" d="M189.84,21.45l0.07-1.17c0.02-0.19,0.24-0.27,0.34-0.25c0.06,0,1.14,0.2,1.87-0.15
			c0.44-0.22,0.63-0.65,0.44-1.04c-0.23-0.47-0.79-0.63-1.69-0.57c-1.14,0.09-2.7-0.08-3.34-1.41c-0.53-1.1-0.22-2.62,1.49-3.45
			c1.15-0.56,2.33-0.4,2.78-0.32c0.17,0.01,0.25,0.22,0.24,0.32l-0.15,1.13c-0.02,0.16-0.17,0.36-0.31,0.33
			c-0.13-0.01-1.23-0.22-1.91,0.1c-0.4,0.19-0.57,0.61-0.42,0.9c0.2,0.41,0.68,0.56,1.73,0.49c1.03-0.08,2.74-0.07,3.47,1.44
			c0.55,1.14,0.13,2.78-1.5,3.57c-1.44,0.7-2.53,0.49-2.91,0.36C189.88,21.67,189.83,21.64,189.84,21.45z"/>
		<path class="st10" d="M197.06,11.25c-0.03-0.12,0.05-0.25,0.17-0.28l1.43-0.36c0.12-0.03,0.25,0.05,0.28,0.17l2.01,7.91
			c0.03,0.12-0.05,0.25-0.17,0.28l-1.43,0.36c-0.12,0.03-0.25-0.05-0.28-0.17L197.06,11.25z"/>
		<path class="st10" d="M203.57,17.53l0.53-1.05c0.09-0.16,0.33-0.15,0.42-0.09c0.05,0.02,0.97,0.64,1.78,0.6
			c0.49-0.02,0.84-0.35,0.82-0.78c-0.02-0.52-0.47-0.89-1.32-1.19c-1.08-0.37-2.44-1.14-2.51-2.62c-0.05-1.22,0.84-2.49,2.74-2.58
			c1.28-0.06,2.3,0.55,2.68,0.81c0.15,0.08,0.14,0.3,0.09,0.39L208.2,12c-0.08,0.14-0.3,0.26-0.41,0.18
			c-0.11-0.06-1.04-0.69-1.79-0.66c-0.44,0.02-0.76,0.33-0.75,0.66c0.02,0.46,0.41,0.78,1.4,1.14c0.98,0.34,2.54,1.02,2.61,2.7
			c0.06,1.27-0.98,2.6-2.79,2.68c-1.6,0.07-2.52-0.55-2.81-0.83C203.52,17.75,203.48,17.7,203.57,17.53z"/>
		<path class="st10" d="M213.55,10.1c0.03-0.12,0.14-0.21,0.28-0.18l4.99,1.05c0.13,0.03,0.21,0.16,0.18,0.28l-0.28,1.31
			c-0.03,0.12-0.14,0.21-0.28,0.18l-3.34-0.7l-0.31,1.5l2.75,0.58c0.12,0.03,0.21,0.16,0.18,0.28l-0.28,1.32
			c-0.03,0.13-0.16,0.21-0.28,0.18l-2.75-0.58l-0.34,1.63l3.34,0.7c0.13,0.03,0.21,0.16,0.18,0.28l-0.28,1.31
			c-0.03,0.12-0.14,0.21-0.28,0.18l-4.99-1.05c-0.13-0.03-0.21-0.16-0.18-0.28L213.55,10.1z"/>
		<path class="st10" d="M220.08,19.87l0.98-0.65c0.16-0.1,0.36,0.03,0.41,0.12c0.03,0.04,0.53,1.03,1.26,1.39
			c0.44,0.22,0.9,0.11,1.09-0.28c0.23-0.46,0.02-1.01-0.58-1.68c-0.76-0.85-1.58-2.19-0.92-3.51c0.55-1.09,1.95-1.77,3.65-0.92
			c1.15,0.58,1.73,1.6,1.94,2.01c0.09,0.14-0.03,0.33-0.11,0.39l-0.99,0.57c-0.14,0.08-0.39,0.08-0.45-0.05
			c-0.07-0.1-0.57-1.11-1.24-1.45c-0.4-0.2-0.83-0.08-0.98,0.21c-0.2,0.41-0.03,0.88,0.66,1.67c0.69,0.77,1.72,2.13,0.96,3.63
			c-0.57,1.13-2.13,1.79-3.75,0.98c-1.43-0.72-1.93-1.71-2.05-2.09C219.92,20.04,219.91,19.98,220.08,19.87z"/>
		<path class="st10" d="M243.07,33.14c0.11-0.05,0.25,0.01,0.3,0.13l1.86,4.75c0.05,0.13-0.02,0.26-0.13,0.3l-1.25,0.49
			c-0.11,0.04-0.25-0.01-0.3-0.13l-1.24-3.18l-1.42,0.56l1.02,2.62c0.05,0.11-0.02,0.26-0.13,0.3l-1.25,0.49
			c-0.13,0.05-0.26-0.02-0.3-0.13l-1.02-2.62l-1.55,0.61l1.24,3.18c0.05,0.13-0.02,0.26-0.13,0.3l-1.25,0.49
			c-0.11,0.04-0.25-0.01-0.3-0.13l-1.86-4.75c-0.05-0.13,0.02-0.26,0.13-0.3L243.07,33.14z"/>
		<path class="st10" d="M174.45,47.32c0.12,0,0.23,0.1,0.23,0.23l-0.01,1.46c0,0.12-0.11,0.23-0.23,0.23l-6.54-0.05l-0.02,2.92
			c0,0.13-0.11,0.23-0.23,0.23l-1.34-0.01c-0.12,0-0.23-0.1-0.23-0.23l0.03-4.61c0-0.13,0.11-0.23,0.23-0.23L174.45,47.32z"/>
		<path class="st10" d="M166.13,55.34l9.04,0.99c0.08,0.01,0.17,0.07,0.19,0.15l0.04,0.12c0.03,0.08,0,0.18-0.06,0.24l-6.58,6.27
			c-0.13,0.12-0.31,0.08-0.37-0.1l-0.44-1.29c-0.07-0.21-0.03-0.33,0.15-0.5l0.78-0.73l-1.07-3.16l-1.07-0.1
			c-0.16-0.01-0.34-0.09-0.42-0.32l-0.43-1.28C165.83,55.46,165.95,55.32,166.13,55.34z M170.22,59.27l1.62-1.53l0-0.01l-2.21-0.22
			L170.22,59.27z"/>
		<path class="st10" d="M178.21,65.62c0.1-0.07,0.25-0.05,0.32,0.06l2.08,3.02c0.83,1.21,0.54,2.87-0.67,3.7
			c-0.93,0.64-2.1,0.54-3.06-0.1l-1.61,3.15c-0.08,0.16-0.29,0.2-0.41,0.03l-0.92-1.34c-0.06-0.08-0.05-0.18-0.02-0.22l1.75-3.18
			l-0.48-0.7l-2.57,1.77c-0.1,0.07-0.25,0.04-0.32-0.06l-0.83-1.2c-0.08-0.11-0.04-0.25,0.06-0.32L178.21,65.62z M177.5,70.64
			c0.28,0.41,0.91,0.5,1.34,0.21c0.42-0.29,0.52-0.88,0.24-1.3l-1.03-1.49l-1.57,1.08L177.5,70.64z"/>
		<path class="st10" d="M183.05,72.7c0.07-0.1,0.22-0.13,0.33-0.05l4.05,3.06c0.11,0.08,0.12,0.23,0.05,0.33l-0.81,1.07
			c-0.07,0.1-0.22,0.13-0.33,0.05l-2.71-2.05l-0.92,1.21l2.23,1.69c0.1,0.07,0.12,0.23,0.05,0.33l-0.81,1.07
			c-0.08,0.11-0.23,0.12-0.33,0.05l-2.23-1.69l-1,1.32l2.71,2.05c0.11,0.08,0.12,0.23,0.05,0.33l-0.81,1.07
			c-0.07,0.1-0.22,0.13-0.33,0.05l-4.05-3.06c-0.11-0.08-0.12-0.23-0.05-0.33L183.05,72.7z"/>
		<path class="st10" d="M192.82,79.12c1.08,0.57,1.71,1.33,2.09,2.39c0.05,0.14-0.02,0.27-0.15,0.31l-1.31,0.43
			c-0.12,0.04-0.24-0.03-0.27-0.14c-0.21-0.57-0.64-1.05-1.17-1.33c-1.22-0.65-2.66-0.11-3.3,1.11c-0.64,1.2-0.25,2.68,0.97,3.33
			c0.51,0.27,1.16,0.38,1.73,0.25c0.11-0.02,0.25,0.05,0.28,0.16l0.37,1.35c0.04,0.12-0.05,0.25-0.17,0.29
			c-1.11,0.33-2.22,0.17-3.19-0.34c-2.17-1.15-3-3.79-1.85-5.96S190.65,77.97,192.82,79.12z"/>
		<path class="st10" d="M198.46,81.68c0.01-0.12,0.13-0.22,0.26-0.21l1.45,0.16c0.13,0.01,0.22,0.13,0.21,0.26l-0.33,3.07l3.48,0.38
			l0.33-3.07c0.01-0.12,0.12-0.22,0.26-0.21l1.45,0.16c0.12,0.01,0.22,0.13,0.21,0.26l-0.88,8.06c-0.01,0.12-0.13,0.22-0.26,0.21
			l-1.45-0.16c-0.13-0.01-0.22-0.13-0.21-0.26l0.35-3.2l-3.48-0.38l-0.35,3.2c-0.01,0.12-0.12,0.22-0.26,0.21L197.79,90
			c-0.12-0.01-0.22-0.13-0.21-0.26L198.46,81.68z"/>
		<path class="st10" d="M210.25,82.2c-0.02-0.12,0.06-0.25,0.19-0.27l5.01-0.82c0.13-0.02,0.25,0.07,0.27,0.19l0.21,1.32
			c0.02,0.12-0.06,0.25-0.19,0.27l-3.35,0.55l0.24,1.5l2.76-0.45c0.12-0.02,0.25,0.07,0.27,0.19l0.21,1.32
			c0.02,0.13-0.07,0.25-0.19,0.27l-2.76,0.45l0.27,1.63l3.35-0.55c0.13-0.02,0.25,0.07,0.27,0.19l0.21,1.32
			c0.02,0.12-0.06,0.25-0.19,0.27l-5.01,0.82c-0.13,0.02-0.25-0.07-0.27-0.19L210.25,82.2z"/>
		<path class="st10" d="M219.36,79.95c-0.05-0.11-0.01-0.25,0.11-0.31l3.31-1.56c1.33-0.63,2.92-0.06,3.54,1.26
			c0.48,1.02,0.19,2.16-0.59,3l2.84,2.1c0.15,0.11,0.15,0.32-0.04,0.41l-1.47,0.69c-0.09,0.04-0.18,0.02-0.22-0.02l-2.86-2.24
			l-0.77,0.36l1.33,2.83c0.05,0.11,0,0.26-0.11,0.31l-1.32,0.62c-0.12,0.06-0.26,0-0.31-0.11L219.36,79.95z M224.2,81.47
			c0.45-0.21,0.64-0.82,0.42-1.28c-0.22-0.47-0.78-0.66-1.24-0.45l-1.64,0.77l0.81,1.73L224.2,81.47z"/>
		<path class="st10" d="M230.49,72.23c0.93-0.79,1.87-1.09,3-1.05c0.15,0,0.24,0.12,0.23,0.25l-0.09,1.38
			c-0.01,0.12-0.11,0.21-0.23,0.2c-0.61-0.02-1.21,0.2-1.67,0.59c-1.06,0.9-1.09,2.43-0.2,3.48c0.88,1.04,2.39,1.23,3.45,0.34
			c0.44-0.37,0.78-0.94,0.87-1.51c0.02-0.11,0.14-0.21,0.25-0.2l1.39,0.16c0.12,0.01,0.21,0.14,0.2,0.26
			c-0.11,1.16-0.67,2.13-1.5,2.83c-1.87,1.58-4.63,1.37-6.22-0.5C228.39,76.59,228.62,73.81,230.49,72.23z"/>
		<path class="st10" d="M234.26,68.95c-0.11-0.05-0.16-0.2-0.11-0.31l0.65-1.31c0.06-0.12,0.2-0.16,0.31-0.11l2.77,1.37l1.55-3.14
			l-2.77-1.37c-0.11-0.05-0.17-0.19-0.11-0.31l0.65-1.31c0.05-0.11,0.2-0.16,0.31-0.11l7.27,3.6c0.11,0.05,0.16,0.2,0.11,0.31
			l-0.65,1.31c-0.06,0.12-0.2,0.16-0.31,0.11l-2.89-1.43l-1.55,3.14l2.89,1.43c0.11,0.05,0.17,0.19,0.11,0.31l-0.65,1.31
			c-0.05,0.11-0.2,0.16-0.31,0.11L234.26,68.95z"/>
		<path class="st10" d="M238.75,58.87c-0.12-0.03-0.2-0.16-0.16-0.29l1.41-4.87c0.04-0.13,0.17-0.19,0.29-0.16l1.28,0.37
			c0.12,0.03,0.2,0.16,0.16,0.29l-0.95,3.26l1.46,0.42l0.78-2.68c0.03-0.12,0.17-0.19,0.29-0.16l1.28,0.37
			c0.13,0.04,0.19,0.17,0.16,0.29l-0.78,2.68l1.59,0.46l0.95-3.26c0.04-0.13,0.17-0.19,0.29-0.16l1.28,0.37
			c0.12,0.03,0.2,0.16,0.16,0.29l-1.41,4.87c-0.04,0.13-0.17,0.19-0.29,0.16L238.75,58.87z"/>
	</g>
</g>
</svg>
