<svg id="Calque_1" data-name="Calque 1" xmlns="http://www.w3.org/2000/svg" viewBox="0 0 12.81 16"><defs><style>.cls-1{fill:#fff;}</style></defs><title>cadenas</title><path class="cls-1" d="M14,5.66H2A.39.39,0,0,0,1.6,6v9.57A.39.39,0,0,0,2,16H14a.39.39,0,0,0,.39-.39V6A.39.39,0,0,0,14,5.66ZM9.13,10.27a1,1,0,0,0-.32.83c0,.85,0,1.7,0,2.54V14H7.19v-.31c0-.93,0-1.87,0-2.8A.53.53,0,0,0,7,10.39,1.57,1.57,0,0,1,6.82,8.1,1.61,1.61,0,0,1,9.1,8,1.56,1.56,0,0,1,9.13,10.27Z" transform="translate(-1.6)"/><path class="cls-1" d="M3.54,5.72a5.32,5.32,0,0,1,.9-4A4.3,4.3,0,0,1,9,.13,4.2,4.2,0,0,1,12.3,3.47a15.17,15.17,0,0,1,.19,2.26H10.83c0-.44,0-.86,0-1.28a2.85,2.85,0,0,0-5.69-.19c0,.48,0,1,0,1.47Z" transform="translate(-1.6)"/></svg>