<svg xmlns="http://www.w3.org/2000/svg" viewBox="0 0 480 290"><defs><style>.a,.b,.d{fill:none;stroke:#fff;}.a,.b{stroke-miterlimit:10;}.a{stroke-width:2px;}.b{stroke-width:1.5px;}.c{fill:#fff;}.d{stroke-linecap:round;stroke-linejoin:round;}</style></defs><title>fixe</title><rect class="a" x="149.68" y="119.67" width="27.69" height="70.36" rx="2.84" ry="2.84" transform="translate(69.06 -49.59) rotate(21.76)"/><circle class="a" cx="154.68" cy="177.02" r="7.11"/><rect class="a" x="161.36" y="125.64" width="16.32" height="28.41" rx="2.84" ry="2.84" transform="translate(63.93 -52.88) rotate(21.76)"/><rect class="a" x="120.62" y="192.32" width="216.54" height="5.65" rx="1.81" ry="1.81"/><line class="a" x1="215.14" y1="125.86" x2="299.39" y2="125.86"/><line class="a" x1="215.14" y1="117.27" x2="303.54" y2="117.27"/><line class="a" x1="215.14" y1="76.88" x2="310.08" y2="76.88"/><line class="a" x1="215.14" y1="84.28" x2="310.08" y2="84.28"/><polyline class="a" points="216.07 184.52 316.89 184.52 316.89 138.79"/><polyline class="a" points="316.89 109.91 316.89 32.11 299.68 32.11 299.68 39.94 226.06 39.94 226.06 32.11 208.96 32.11 208.96 120.2"/><rect class="a" x="189.37" y="120.2" width="26.7" height="72.11" rx="2.31" ry="2.31"/><rect class="a" x="194.54" y="125.86" width="16.37" height="28.07" rx="2.31" ry="2.31"/><circle class="a" cx="201.85" cy="180.53" r="7.11"/><polygon class="a" points="295.7 25.87 277.86 25.87 277.86 21 248.82 21 248.82 25.87 231.18 25.87 231.18 33.47 253.5 33.47 253.5 27.82 272.4 27.82 272.4 33.47 295.7 33.47 295.7 25.87"/><polygon class="b" points="291.14 140.55 297.88 146.53 331.14 108.25 324.19 102.49 291.14 140.55"/><polygon class="b" points="301.42 150.08 304.46 152.74 338.04 113.78 334.96 111.23 301.42 150.08"/><polygon class="b" points="288.61 144.94 287.69 159.12 301.23 155.71 288.61 144.94"/><path class="b" d="M326.92,98.62l4.43-6.23a2.48,2.48,0,0,1,2.51-1c3.07.62,8.47,4,12,10.12a1.7,1.7,0,0,1-.33,1.84l-5.34,6.41Z"/><path class="c" d="M263.44,45.38a.5.5,0,1,0,0-1,.5.5,0,1,0,0,1Z"/><polygon class="c" points="263.44 60.22 250.9 65.45 250.9 65.45 275.99 65.45 263.44 60.22"/><path class="c" d="M266.26,55.4V53.2l-.78-.76V49.75l.38-.38a8.51,8.51,0,0,1-1.77-3.43h-1.32A8.32,8.32,0,0,1,261,49.35h0l.39.39v2.69l-.78.76v2.2A8.93,8.93,0,0,0,254.55,63l8.57-3.56.32-.14.32.14L272.33,63A8.93,8.93,0,0,0,266.26,55.4Zm-2-4.77c0-.15.05-.35.31-.35s.31.21.31.35v2.22c-.21,0-.41-.06-.62-.08ZM263,50.49a.43.43,0,0,1,.44-.49c.36,0,.43.29.43.49v2.25H263Zm-1,.14c0-.15.05-.35.3-.35s.31.21.31.35v2.14l-.61.08Z"/><line class="a" x1="216.07" y1="164.85" x2="286.35" y2="164.85"/><line class="a" x1="216.07" y1="156.26" x2="285.17" y2="156.26"/><line class="d" x1="181.21" y1="132.86" x2="166.1" y2="126.67"/><line class="d" x1="180.26" y1="135.16" x2="165.15" y2="128.97"/><line class="d" x1="179.32" y1="137.46" x2="164.21" y2="131.28"/><line class="d" x1="178.38" y1="139.77" x2="163.27" y2="133.59"/><line class="d" x1="177.43" y1="142.08" x2="162.32" y2="135.89"/><line class="d" x1="176.49" y1="144.38" x2="161.38" y2="138.19"/><line class="d" x1="175.55" y1="146.68" x2="160.44" y2="140.5"/><line class="d" x1="174.6" y1="148.99" x2="159.49" y2="142.8"/><line class="d" x1="173.66" y1="151.29" x2="158.55" y2="145.11"/><line class="d" x1="172.72" y1="153.6" x2="157.61" y2="147.42"/><line class="d" x1="210.73" y1="128.57" x2="194.41" y2="128.8"/><line class="d" x1="210.76" y1="131.06" x2="194.44" y2="131.28"/><line class="d" x1="210.8" y1="133.55" x2="194.48" y2="133.78"/><line class="d" x1="210.84" y1="136.05" x2="194.51" y2="136.27"/><line class="d" x1="210.87" y1="138.53" x2="194.54" y2="138.76"/><line class="d" x1="210.9" y1="141.02" x2="194.58" y2="141.24"/><line class="d" x1="210.93" y1="143.51" x2="194.61" y2="143.74"/><line class="d" x1="210.97" y1="146" x2="194.65" y2="146.23"/><line class="d" x1="211.01" y1="148.49" x2="194.68" y2="148.71"/><line class="d" x1="211.04" y1="150.98" x2="194.71" y2="151.21"/></svg>