<?xml version="1.0" encoding="utf-8"?>
<!-- Generator: Adobe Illustrator 16.0.4, SVG Export Plug-In . SVG Version: 6.00 Build 0)  -->
<!DOCTYPE svg PUBLIC "-//W3C//DTD SVG 1.1//EN" "http://www.w3.org/Graphics/SVG/1.1/DTD/svg11.dtd">
<svg version="1.1" id="Calque_1" xmlns="http://www.w3.org/2000/svg" xmlns:xlink="http://www.w3.org/1999/xlink" x="0px" y="0px"
	 width="100px" height="85.333px" viewBox="0 0 100 85.333" enable-background="new 0 0 100 85.333" xml:space="preserve">
<g>
	<circle fill="#C8910F" cx="50" cy="4.533" r="1.876"/>
	<polygon fill="#C8910F" points="50,62.327 2.723,82.015 2.723,82.015 97.279,82.015 	"/>
	<path fill="#C8910F" d="M60.625,44.148v-8.297l-2.941-2.859V22.848l1.447-1.437c-0.199-0.217-5.035-5.582-6.672-12.893h-4.972
		c-1.569,7.01-6.082,12.232-6.626,12.843l-0.013,0.024l1.471,1.462v10.144l-2.943,2.859v8.297
		C26.981,48.271,17.786,59.399,16.5,72.843l32.282-13.443L50,58.893l1.221,0.507l32.281,13.443
		C82.215,59.399,73.02,48.271,60.625,44.148z M53.152,26.174c0-0.547,0.189-1.307,1.164-1.307s1.164,0.773,1.164,1.307v8.354
		c-0.768-0.124-1.545-0.224-2.328-0.295V26.174z M48.43,25.635c0-0.764,0.266-1.825,1.629-1.825c1.359,0,1.625,1.081,1.625,1.825
		v8.498c-0.539-0.025-1.082-0.042-1.627-0.042s-1.088,0.015-1.627,0.041V25.635z M44.551,26.174c0-0.547,0.19-1.307,1.166-1.307
		c0.974,0,1.163,0.773,1.163,1.307v8.068c-0.784,0.073-1.562,0.172-2.329,0.298V26.174z"/>
</g>
</svg>
