<?xml version="1.0" encoding="utf-8"?>
<!-- Generator: Adobe Illustrator 23.0.2, SVG Export Plug-In . SVG Version: 6.00 Build 0)  -->
<svg version="1.1" id="Calque_1_-_copie" xmlns="http://www.w3.org/2000/svg" xmlns:xlink="http://www.w3.org/1999/xlink" x="0px"
	 y="0px" viewBox="0 0 480 290" style="enable-background:new 0 0 480 290;" xml:space="preserve">
<style type="text/css">
	.st0{display:none;}
	.st1{display:inline;fill:none;stroke:#00326E;stroke-width:0.8452;stroke-linecap:round;stroke-miterlimit:10;}
	.st2{display:inline;fill:none;stroke:#00326E;stroke-width:1.2678;stroke-linecap:round;stroke-linejoin:round;}
	.st3{display:inline;fill:none;stroke:#00326E;stroke-width:0.6339;stroke-linecap:round;stroke-miterlimit:10;}
	.st4{display:inline;fill:none;stroke:#00326E;stroke-width:0.6339;stroke-miterlimit:10;}
	.st5{display:inline;fill:none;stroke:#00326E;stroke-width:1.6904;stroke-linecap:round;stroke-linejoin:round;}
	.st6{display:inline;fill:none;stroke:#00326E;stroke-width:1.6904;stroke-miterlimit:10;}
	.st7{display:inline;fill:#00326E;}
	.st8{display:inline;fill:none;stroke:#00326E;stroke-width:2.5356;stroke-miterlimit:10;}
	.st9{fill:#00326E;}
	.st10{fill:none;stroke:#FFFFFF;stroke-width:0.8452;stroke-linecap:round;stroke-miterlimit:10;}
	.st11{fill:none;stroke:#FFFFFF;stroke-width:1.2678;stroke-linecap:round;stroke-linejoin:round;}
	.st12{fill:none;stroke:#FFFFFF;stroke-width:0.6339;stroke-linecap:round;stroke-miterlimit:10;}
	.st13{fill:none;stroke:#FFFFFF;stroke-width:0.6339;stroke-miterlimit:10;}
	.st14{fill:none;stroke:#FFFFFF;stroke-width:1.6904;stroke-linecap:round;stroke-linejoin:round;}
	.st15{fill:none;stroke:#FFFFFF;stroke-width:1.6904;stroke-miterlimit:10;}
	.st16{fill:#FFFFFF;}
	.st17{fill:none;stroke:#FFFFFF;stroke-width:2.5356;stroke-miterlimit:10;}
</style>
<g class="st0">
	<title>fixe</title>
	<line class="st1" x1="317.1" y1="128.7" x2="317.1" y2="132.4"/>
	<line class="st1" x1="320.3" y1="128.7" x2="320.3" y2="132.4"/>
	<line class="st1" x1="323.5" y1="128.7" x2="323.5" y2="132.4"/>
	<line class="st1" x1="326.7" y1="128.7" x2="326.7" y2="132.4"/>
	<line class="st1" x1="329.9" y1="128.7" x2="329.9" y2="132.4"/>
	<line class="st1" x1="333.2" y1="128.7" x2="333.2" y2="132.4"/>
	<line class="st1" x1="336.4" y1="128.7" x2="336.4" y2="132.4"/>
	<line class="st1" x1="240.3" y1="128.7" x2="240.3" y2="132.4"/>
	<line class="st1" x1="243.5" y1="128.7" x2="243.5" y2="132.4"/>
	<line class="st1" x1="246.7" y1="128.7" x2="246.7" y2="132.4"/>
	<line class="st1" x1="249.9" y1="128.7" x2="249.9" y2="132.4"/>
	<line class="st1" x1="253.2" y1="128.7" x2="253.2" y2="132.4"/>
	<line class="st1" x1="256.4" y1="128.7" x2="256.4" y2="132.4"/>
	<line class="st1" x1="259.6" y1="128.7" x2="259.6" y2="132.4"/>
	<line class="st1" x1="262.8" y1="128.7" x2="262.8" y2="132.4"/>
	<line class="st1" x1="266" y1="128.7" x2="266" y2="132.4"/>
	<line class="st1" x1="269.2" y1="128.7" x2="269.2" y2="132.4"/>
	<line class="st1" x1="272.5" y1="128.7" x2="272.5" y2="132.4"/>
	<line class="st1" x1="275.7" y1="128.7" x2="275.7" y2="132.4"/>
	<line class="st1" x1="278.9" y1="128.7" x2="278.9" y2="132.4"/>
	<line class="st1" x1="282.1" y1="128.7" x2="282.1" y2="132.4"/>
	<line class="st1" x1="285.3" y1="128.7" x2="285.3" y2="132.4"/>
	<line class="st2" x1="246.7" y1="99.8" x2="321.7" y2="99.8"/>
	<line class="st2" x1="246.7" y1="94" x2="321.7" y2="94.4"/>
	<line class="st2" x1="246.7" y1="88.2" x2="321.7" y2="88.2"/>
	<line class="st2" x1="160.8" y1="76.6" x2="236.9" y2="76.6"/>
	<line class="st2" x1="160.8" y1="70.8" x2="236.9" y2="71.2"/>
	<line class="st2" x1="160.8" y1="65" x2="236.9" y2="65"/>
	<path class="st3" d="M285.7,41c-1.2-1.1-2-2.5-2.2-4.1c-0.7-4,2-7.8,6-8.4c4-0.7,7.8,2,8.4,6c0.7,4-2,7.8-6,8.4
		c-1.7,0.3-3.5-0.1-5-1"/>
	<circle class="st3" cx="291.3" cy="35.3" r="6.7"/>
	<path class="st3" d="M286.8,42.1l-4.7,6.6c-0.2,0.4-0.7,0.5-1.1,0.3l-0.1,0c-0.1-0.1-0.2-0.1-0.2-0.2c-0.1-0.3-0.1-0.6,0.1-0.8
		l4.7-6.6c0.2-0.2,0.4-0.4,0.7-0.4c0.2,0,0.3,0,0.4,0.1c0.1,0.1,0.2,0.2,0.3,0.4C287,41.6,287,41.9,286.8,42.1z"/>
	<path class="st4" d="M289.4,32.8c-1,0.7-1.6,2-1.3,3.3c0.1,0.5-0.3,1-0.8,1.1c-0.5,0.1-1-0.3-1.1-0.8c-0.4-2.1,0.6-4.2,2.4-5.3
		c0.5-0.2,1,0,1.3,0.5C290.1,32,289.8,32.6,289.4,32.8L289.4,32.8z"/>
	<polyline class="st5" points="237.8,111.3 237.8,132.7 288.2,132.7 315.5,182.8 315.5,132.7 338.9,132.7 338.9,120.6 	"/>
	<polyline class="st5" points="338.9,90.1 338.9,62.8 246.7,62.8 	"/>
	<path class="st6" d="M131.1,190.7h214.4c0.8,0,1.5,0.7,1.5,1.5v5.3c0,0.8-0.7,1.5-1.5,1.5H131.1c-0.8,0-1.5-0.7-1.5-1.5v-5.3
		C129.6,191.3,130.3,190.7,131.1,190.7z"/>
	<circle class="st5" cx="288.3" cy="38.7" r="15.5"/>
	<circle class="st5" cx="342.9" cy="105.1" r="15.5"/>
	<path class="st5" d="M133.9,126.5h17.8c3,0,5.4,2.4,5.4,5.4v17.8c0,3-2.4,5.4-5.4,5.4h-17.8c-3,0-5.4-2.4-5.4-5.4v-17.8
		C128.6,128.9,131,126.5,133.9,126.5z"/>
	<path class="st5" d="M248.6,153h13.6c3,0,5.4,2.4,5.4,5.4V172c0,3-2.4,5.4-5.4,5.4h-13.6c-3,0-5.4-2.4-5.4-5.4v-13.6
		C243.3,155.4,245.7,153,248.6,153z"/>
	<line class="st1" x1="165.4" y1="106.1" x2="165.4" y2="109.8"/>
	<line class="st1" x1="168.6" y1="106.1" x2="168.6" y2="109.8"/>
	<line class="st1" x1="149.3" y1="106.1" x2="149.3" y2="109.8"/>
	<line class="st1" x1="152.6" y1="106.1" x2="152.6" y2="109.8"/>
	<line class="st1" x1="155.8" y1="106.1" x2="155.8" y2="109.8"/>
	<line class="st1" x1="159" y1="106.1" x2="159" y2="109.8"/>
	<line class="st1" x1="162.2" y1="106.1" x2="162.2" y2="109.8"/>
	<line class="st1" x1="199.2" y1="106.1" x2="199.2" y2="109.8"/>
	<line class="st1" x1="202.4" y1="106.1" x2="202.4" y2="109.8"/>
	<line class="st1" x1="205.6" y1="106.1" x2="205.6" y2="109.8"/>
	<line class="st1" x1="208.9" y1="106.1" x2="208.9" y2="109.8"/>
	<line class="st1" x1="212.1" y1="106.1" x2="212.1" y2="109.8"/>
	<line class="st1" x1="215.3" y1="106.1" x2="215.3" y2="109.8"/>
	<line class="st1" x1="218.5" y1="106.1" x2="218.5" y2="109.8"/>
	<line class="st1" x1="221.7" y1="106.1" x2="221.7" y2="109.8"/>
	<line class="st1" x1="224.9" y1="106.1" x2="224.9" y2="109.8"/>
	<line class="st1" x1="228.2" y1="106.1" x2="228.2" y2="109.8"/>
	<line class="st1" x1="231.4" y1="106.1" x2="231.4" y2="109.8"/>
	<line class="st1" x1="234.6" y1="106.1" x2="234.6" y2="109.8"/>
	<line class="st1" x1="237.8" y1="106.1" x2="237.8" y2="109.8"/>
	<line class="st1" x1="241" y1="106.1" x2="241" y2="109.8"/>
	<line class="st1" x1="244.2" y1="106.1" x2="244.2" y2="109.8"/>
	<polyline class="st5" points="147.1,52.9 147.1,110.4 170.7,110.4 170.7,160.6 198.6,110.4 202.6,110.4 246.8,110.4 246.8,38.7 
		161.4,38.7 	"/>
	<circle class="st5" cx="145.9" cy="37.5" r="15.5"/>
	<path class="st7" d="M342.9,112.2c1.5,0,2.7,1.2,2.7,2.7c0,1.5-1.2,2.6-2.7,2.6c-1.5,0-2.6-1.2-2.6-2.7
		C340.3,113.4,341.5,112.3,342.9,112.2z M341.8,108l-1.3-9v-3.7c0-0.3,0.3-0.6,0.6-0.6h3.5c0.3,0,0.6,0.3,0.6,0.6v3.6l-1.3,9
		c-0.1,0.3-0.3,0.5-0.6,0.5h-1C342.1,108.4,341.9,108.2,341.8,108z"/>
	<path class="st7" d="M143.5,39.4V38c0-3,4.5-4.2,4.5-6.4c0-1.2-1-2.2-2.5-2.2c-2,0-2.8,1.3-3.5,1.7c-0.2,0.2-0.5,0.2-0.7,0
		l-1.6-1.5c-0.2-0.2-0.2-0.6,0-0.8c0,0,0,0,0,0c1.6-1.8,3.9-2.8,6.3-2.8c3.4,0,6.2,2.2,6.2,5.4c0,3.9-4.9,5-4.9,6.9v1.1
		c0,0.3-0.2,0.6-0.5,0.7c0,0-0.1,0-0.1,0h-2.6C143.8,39.9,143.5,39.7,143.5,39.4z M145.4,43.7c1.5-0.1,2.7,1,2.8,2.5
		c0.1,1.5-1,2.7-2.5,2.8c-0.1,0-0.2,0-0.3,0c-1.5-0.1-2.6-1.3-2.5-2.8C143,44.9,144.1,43.8,145.4,43.7z"/>
	<polyline class="st8" points="135.9,142.3 140.4,147.4 149.7,134 	"/>
	<line class="st8" x1="249" y1="159.4" x2="261.7" y2="172.2"/>
	<line class="st8" x1="249.7" y1="172.2" x2="261.4" y2="159.4"/>
	<title>fixe</title>
</g>
<g>
	<rect class="st9" width="480" height="290"/>
	<line class="st10" x1="317.1" y1="128.7" x2="317.1" y2="132.4"/>
	<line class="st10" x1="320.3" y1="128.7" x2="320.3" y2="132.4"/>
	<line class="st10" x1="323.5" y1="128.7" x2="323.5" y2="132.4"/>
	<line class="st10" x1="326.7" y1="128.7" x2="326.7" y2="132.4"/>
	<line class="st10" x1="329.9" y1="128.7" x2="329.9" y2="132.4"/>
	<line class="st10" x1="333.2" y1="128.7" x2="333.2" y2="132.4"/>
	<line class="st10" x1="336.4" y1="128.7" x2="336.4" y2="132.4"/>
	<line class="st10" x1="240.3" y1="128.7" x2="240.3" y2="132.4"/>
	<line class="st10" x1="243.5" y1="128.7" x2="243.5" y2="132.4"/>
	<line class="st10" x1="246.7" y1="128.7" x2="246.7" y2="132.4"/>
	<line class="st10" x1="249.9" y1="128.7" x2="249.9" y2="132.4"/>
	<line class="st10" x1="253.2" y1="128.7" x2="253.2" y2="132.4"/>
	<line class="st10" x1="256.4" y1="128.7" x2="256.4" y2="132.4"/>
	<line class="st10" x1="259.6" y1="128.7" x2="259.6" y2="132.4"/>
	<line class="st10" x1="262.8" y1="128.7" x2="262.8" y2="132.4"/>
	<line class="st10" x1="266" y1="128.7" x2="266" y2="132.4"/>
	<line class="st10" x1="269.2" y1="128.7" x2="269.2" y2="132.4"/>
	<line class="st10" x1="272.5" y1="128.7" x2="272.5" y2="132.4"/>
	<line class="st10" x1="275.7" y1="128.7" x2="275.7" y2="132.4"/>
	<line class="st10" x1="278.9" y1="128.7" x2="278.9" y2="132.4"/>
	<line class="st10" x1="282.1" y1="128.7" x2="282.1" y2="132.4"/>
	<line class="st10" x1="285.3" y1="128.7" x2="285.3" y2="132.4"/>
	<line class="st11" x1="246.7" y1="99.8" x2="321.7" y2="99.8"/>
	<line class="st11" x1="246.7" y1="94" x2="321.7" y2="94.4"/>
	<line class="st11" x1="246.7" y1="88.2" x2="321.7" y2="88.2"/>
	<line class="st11" x1="160.8" y1="76.6" x2="236.9" y2="76.6"/>
	<line class="st11" x1="160.8" y1="70.8" x2="236.9" y2="71.2"/>
	<line class="st11" x1="160.8" y1="65" x2="236.9" y2="65"/>
	<path class="st12" d="M285.7,41c-1.2-1.1-2-2.5-2.2-4.1c-0.7-4,2-7.8,6-8.4c4-0.7,7.8,2,8.4,6c0.7,4-2,7.8-6,8.4
		c-1.7,0.3-3.5-0.1-5-1"/>
	<circle class="st12" cx="291.3" cy="35.3" r="6.7"/>
	<path class="st12" d="M286.8,42.1l-4.7,6.6c-0.2,0.4-0.7,0.5-1.1,0.3l-0.1,0c-0.1-0.1-0.2-0.1-0.2-0.2c-0.1-0.3-0.1-0.6,0.1-0.8
		l4.7-6.6c0.2-0.2,0.4-0.4,0.7-0.4c0.2,0,0.3,0,0.4,0.1c0.1,0.1,0.2,0.2,0.3,0.4C287,41.6,287,41.9,286.8,42.1z"/>
	<path class="st13" d="M289.4,32.8c-1,0.7-1.6,2-1.3,3.3c0.1,0.5-0.3,1-0.8,1.1c-0.5,0.1-1-0.3-1.1-0.8c-0.4-2.1,0.6-4.2,2.4-5.3
		c0.5-0.2,1,0,1.3,0.5C290.1,32,289.8,32.6,289.4,32.8L289.4,32.8z"/>
	<polyline class="st14" points="237.8,111.3 237.8,132.7 288.2,132.7 315.5,182.8 315.5,132.7 338.9,132.7 338.9,120.6 	"/>
	<polyline class="st14" points="338.9,90.1 338.9,62.8 246.7,62.8 	"/>
	<path class="st15" d="M131.1,190.7h214.4c0.8,0,1.5,0.7,1.5,1.5v5.3c0,0.8-0.7,1.5-1.5,1.5H131.1c-0.8,0-1.5-0.7-1.5-1.5v-5.3
		C129.6,191.3,130.3,190.7,131.1,190.7z"/>
	<circle class="st14" cx="288.3" cy="38.7" r="15.5"/>
	<circle class="st14" cx="342.9" cy="105.1" r="15.5"/>
	<path class="st14" d="M133.9,126.5h17.8c3,0,5.4,2.4,5.4,5.4v17.8c0,3-2.4,5.4-5.4,5.4h-17.8c-3,0-5.4-2.4-5.4-5.4v-17.8
		C128.6,128.9,131,126.5,133.9,126.5z"/>
	<path class="st14" d="M248.6,153h13.6c3,0,5.4,2.4,5.4,5.4V172c0,3-2.4,5.4-5.4,5.4h-13.6c-3,0-5.4-2.4-5.4-5.4v-13.6
		C243.3,155.4,245.7,153,248.6,153z"/>
	<line class="st10" x1="165.4" y1="106.1" x2="165.4" y2="109.8"/>
	<line class="st10" x1="168.6" y1="106.1" x2="168.6" y2="109.8"/>
	<line class="st10" x1="149.3" y1="106.1" x2="149.3" y2="109.8"/>
	<line class="st10" x1="152.6" y1="106.1" x2="152.6" y2="109.8"/>
	<line class="st10" x1="155.8" y1="106.1" x2="155.8" y2="109.8"/>
	<line class="st10" x1="159" y1="106.1" x2="159" y2="109.8"/>
	<line class="st10" x1="162.2" y1="106.1" x2="162.2" y2="109.8"/>
	<line class="st10" x1="199.2" y1="106.1" x2="199.2" y2="109.8"/>
	<line class="st10" x1="202.4" y1="106.1" x2="202.4" y2="109.8"/>
	<line class="st10" x1="205.6" y1="106.1" x2="205.6" y2="109.8"/>
	<line class="st10" x1="208.9" y1="106.1" x2="208.9" y2="109.8"/>
	<line class="st10" x1="212.1" y1="106.1" x2="212.1" y2="109.8"/>
	<line class="st10" x1="215.3" y1="106.1" x2="215.3" y2="109.8"/>
	<line class="st10" x1="218.5" y1="106.1" x2="218.5" y2="109.8"/>
	<line class="st10" x1="221.7" y1="106.1" x2="221.7" y2="109.8"/>
	<line class="st10" x1="224.9" y1="106.1" x2="224.9" y2="109.8"/>
	<line class="st10" x1="228.2" y1="106.1" x2="228.2" y2="109.8"/>
	<line class="st10" x1="231.4" y1="106.1" x2="231.4" y2="109.8"/>
	<line class="st10" x1="234.6" y1="106.1" x2="234.6" y2="109.8"/>
	<line class="st10" x1="237.8" y1="106.1" x2="237.8" y2="109.8"/>
	<line class="st10" x1="241" y1="106.1" x2="241" y2="109.8"/>
	<line class="st10" x1="244.2" y1="106.1" x2="244.2" y2="109.8"/>
	<polyline class="st14" points="147.1,52.9 147.1,110.4 170.7,110.4 170.7,160.6 198.6,110.4 202.6,110.4 246.8,110.4 246.8,38.7 
		161.4,38.7 	"/>
	<circle class="st14" cx="145.9" cy="37.5" r="15.5"/>
	<path class="st16" d="M342.9,112.2c1.5,0,2.7,1.2,2.7,2.7c0,1.5-1.2,2.6-2.7,2.6c-1.5,0-2.6-1.2-2.6-2.7
		C340.3,113.4,341.5,112.3,342.9,112.2z M341.8,108l-1.3-9v-3.7c0-0.3,0.3-0.6,0.6-0.6h3.5c0.3,0,0.6,0.3,0.6,0.6v3.6l-1.3,9
		c-0.1,0.3-0.3,0.5-0.6,0.5h-1C342.1,108.4,341.9,108.2,341.8,108z"/>
	<path class="st16" d="M143.5,39.4V38c0-3,4.5-4.2,4.5-6.4c0-1.2-1-2.2-2.5-2.2c-2,0-2.8,1.3-3.5,1.7c-0.2,0.2-0.5,0.2-0.7,0
		l-1.6-1.5c-0.2-0.2-0.2-0.6,0-0.8c0,0,0,0,0,0c1.6-1.8,3.9-2.8,6.3-2.8c3.4,0,6.2,2.2,6.2,5.4c0,3.9-4.9,5-4.9,6.9v1.1
		c0,0.3-0.2,0.6-0.5,0.7c0,0-0.1,0-0.1,0h-2.6C143.8,39.9,143.5,39.7,143.5,39.4z M145.4,43.7c1.5-0.1,2.7,1,2.8,2.5
		c0.1,1.5-1,2.7-2.5,2.8c-0.1,0-0.2,0-0.3,0c-1.5-0.1-2.6-1.3-2.5-2.8C143,44.9,144.1,43.8,145.4,43.7z"/>
	<polyline class="st17" points="135.9,142.3 140.4,147.4 149.7,134 	"/>
	<line class="st17" x1="249" y1="159.4" x2="261.7" y2="172.2"/>
	<line class="st17" x1="249.7" y1="172.2" x2="261.4" y2="159.4"/>
</g>
</svg>
