<svg id="Calque_1" data-name="Calque 1" xmlns="http://www.w3.org/2000/svg" viewBox="0 0 40 40"><defs><style>.cls-1{fill:#fff;}.cls-2{fill:none;}</style></defs><title>Calendar</title><rect class="cls-1" x="0.76" y="11.56" width="34.34" height="1.75"/><rect class="cls-1" x="26.31" y="-0.04" width="1.75" height="6.79"/><rect class="cls-1" x="7.81" y="0.04" width="1.75" height="6.79"/><path class="cls-1" d="M9.28,29.37,10,28.8c.27-.2.47-.15.67.12a5,5,0,0,0,3.68,1.7c1.88,0,3.56-1.14,3.56-3.09,0-1.68-1.31-3.24-4.37-3.24H12.1c-.27,0-.47-.15-.47-.54v-.59c0-.39.12-.54.52-.54h1.36c2.64,0,3.93-1.36,3.93-3A3.07,3.07,0,0,0,14.2,16.5,4.22,4.22,0,0,0,11,18.11a.42.42,0,0,1-.64,0l-.59-.47a.44.44,0,0,1,0-.64,6.35,6.35,0,0,1,4.47-2.17c3,0,5.09,1.75,5.09,4.52a4.58,4.58,0,0,1-2.54,3.9v.07a4.66,4.66,0,0,1,3,4c0,2.69-2.07,4.79-5.48,4.79a6.09,6.09,0,0,1-5-2.2A.4.4,0,0,1,9.28,29.37Z"/><path class="cls-1" d="M24.92,18.18l-1.78,1.38a.38.38,0,0,1-.57,0L22.11,19a.38.38,0,0,1,0-.54l3.46-3.36h.67a.46.46,0,0,1,.44.47V31.44a.47.47,0,0,1-.44.47h-.89a.47.47,0,0,1-.47-.47Z"/><path class="cls-2" d="M35.63,33.19h1.09a.72.72,0,0,1,0,1.45h-2l-.16.15v2a.72.72,0,0,1-1.45,0V35.65a4,4,0,0,1-1.29.23H29.59a4.71,4.71,0,1,0,6.28-6.23v2.22A4,4,0,0,1,35.63,33.19Z"/><path class="cls-2" d="M30.3,33.91a.72.72,0,0,1,.72-.72h2.12V31.06a.72.72,0,0,1,.72-.72.71.71,0,0,1,.25.05V29.21l-.25,0a4.73,4.73,0,0,0-4.72,4.72c0,.08,0,.14,0,.22h1.17A.7.7,0,0,1,30.3,33.91Z"/><path class="cls-2" d="M33.87,27.78h.25V7.59a2.27,2.27,0,0,0-2.26-2.26H4A2.27,2.27,0,0,0,1.75,7.59V31.86A2.27,2.27,0,0,0,4,34.13H27.74c0-.07,0-.15,0-.22A6.14,6.14,0,0,1,33.87,27.78Z"/><path class="cls-1" d="M4,34.13a2.27,2.27,0,0,1-2.26-2.26V7.59A2.27,2.27,0,0,1,4,5.33H31.85a2.27,2.27,0,0,1,2.26,2.26V27.79a6.09,6.09,0,0,1,1.75.33V7.59a4,4,0,0,0-4-4H4a4,4,0,0,0-4,4V31.86a4,4,0,0,0,4,4h24a6.09,6.09,0,0,1-.32-1.75Z"/><path class="cls-1" d="M33.14,36.76a.72.72,0,0,0,1.45,0v-2a4,4,0,0,1-1.45.86Z"/><path class="cls-1" d="M33.14,31.06v2.12H31a.72.72,0,0,0-.72.72.7.7,0,0,0,0,.22h1.51a2.27,2.27,0,0,0,2.26-2.26V30.39a.71.71,0,0,0-.25-.05A.72.72,0,0,0,33.14,31.06Z"/><path class="cls-1" d="M36.71,34.63a.72.72,0,0,0,0-1.45H35.63a4,4,0,0,1-.88,1.45Z"/><path class="cls-1" d="M31.85,34.13H30.34a.72.72,0,0,0,.68.5h2.12v1a4,4,0,0,0,1.45-.86v-.15h.16a4,4,0,0,0,.88-1.45h-1V31.06a.72.72,0,0,0-.47-.67v1.48A2.27,2.27,0,0,1,31.85,34.13Z"/><path class="cls-1" d="M35.87,28.12v1.53a4.71,4.71,0,1,1-6.28,6.23H28.06a6.13,6.13,0,1,0,7.8-7.76Z"/><path class="cls-1" d="M33.87,29.19l.25,0V27.79h-.25a6.14,6.14,0,0,0-6.13,6.13c0,.07,0,.15,0,.22h1.42c0-.07,0-.14,0-.22A4.73,4.73,0,0,1,33.87,29.19Z"/><path class="cls-1" d="M29.17,34.13H27.74a6.09,6.09,0,0,0,.32,1.75h1.52A4.68,4.68,0,0,1,29.17,34.13Z"/><path class="cls-1" d="M34.11,29.21a4.67,4.67,0,0,1,1.75.44V28.12a6.09,6.09,0,0,0-1.75-.33Z"/></svg>