<svg xmlns="http://www.w3.org/2000/svg" viewBox="0 0 480 290"><defs><style>.a,.c{fill:none;stroke:#fff;stroke-miterlimit:10;}.a{stroke-width:2px;}.b{fill:#fff;}</style></defs><title>fixe</title><path class="a" d="M325.54,155m-22.83,12.81-.31-10.11c0-5.2,0-10.4,0-15.6a11.24,11.24,0,0,1,9.49-11.18l.67-.12h0a11.67,11.67,0,0,1,5.52.86,11.2,11.2,0,0,1,7,10.86l.45,14.65"/><rect class="a" x="124.1" y="67.14" width="158.78" height="104.55" rx="7.82" ry="7.82"/><line class="a" x1="124.1" y1="157.12" x2="282.88" y2="157.12"/><circle class="a" cx="203.23" cy="164.49" r="3.73"/><rect class="a" x="120.63" y="191.79" width="217.37" height="6.93" rx="2.06" ry="2.06"/><line class="a" x1="152.66" y1="96.18" x2="258.13" y2="96.18"/><line class="a" x1="153.09" y1="102.99" x2="258.56" y2="102.99"/><line class="a" x1="153.09" y1="126.33" x2="258.82" y2="126.33"/><line class="a" x1="153.41" y1="143.59" x2="260.27" y2="143.59"/><line class="a" x1="153.41" y1="149.46" x2="260.27" y2="149.46"/><line class="a" x1="153.09" y1="118.78" x2="258.82" y2="118.78"/><path class="b" d="M143.77,96.6l-1.55.33a.29.29,0,0,1-.35-.23l-.11-.84a.35.35,0,0,1,.09-.31l2.54-2.07h1.24a.32.32,0,0,1,.31.32v11a.32.32,0,0,1-.31.32h-1.52a.33.33,0,0,1-.34-.32Z"/><path class="b" d="M140.25,126.57c1.09-1.32,3.17-4,4.28-5.5a3.19,3.19,0,0,0,.84-1.84,1.56,1.56,0,0,0-1.75-1.5,2.72,2.72,0,0,0-1.85,1,.29.29,0,0,1-.45,0l-.79-.79a.33.33,0,0,1,0-.43,4.59,4.59,0,0,1,3.26-1.62c2.36,0,3.69,1.5,3.69,3.29a4.47,4.47,0,0,1-1.11,2.68c-.71,1-2,2.56-2.85,3.67h3.58a.33.33,0,0,1,.31.31V127a.33.33,0,0,1-.31.32h-6.52a.31.31,0,0,1-.31-.32Z"/><path class="b" d="M140.31,150.54l.84-.81a.27.27,0,0,1,.42,0,3.43,3.43,0,0,0,2,.89,1.67,1.67,0,0,0,1.74-1.54c0-.85-.79-1.62-2.27-1.62h-.91a.3.3,0,0,1-.31-.33v-1c0-.22.11-.33.31-.33h.91c1.35,0,2-.67,2-1.51a1.54,1.54,0,0,0-1.59-1.51,2.13,2.13,0,0,0-1.66.79.3.3,0,0,1-.44,0l-.8-.76a.28.28,0,0,1,0-.42,4.47,4.47,0,0,1,3.08-1.44c1.9,0,3.49,1.16,3.49,3a3,3,0,0,1-1.69,2.56v0a3.07,3.07,0,0,1,2,2.67c0,1.85-1.51,3.2-3.77,3.2a4.24,4.24,0,0,1-3.4-1.46A.32.32,0,0,1,140.31,150.54Z"/><path class="b" d="M200.71,72.6a.43.43,0,1,0,0-.85.43.43,0,0,0,0,.85Z"/><polygon class="b" points="200.71 85.34 189.94 89.83 189.94 89.83 211.48 89.83 200.71 85.34"/><path class="b" d="M203.13,81.2V79.31l-.67-.65V76.35l.33-.33a7.29,7.29,0,0,1-1.52-2.94h-1.13A7.24,7.24,0,0,1,198.63,76h0l.33.34v2.31l-.67.65V81.2a7.67,7.67,0,0,0-5.21,6.54l7.36-3.07.27-.11.28.11,7.35,3.07A7.65,7.65,0,0,0,203.13,81.2Zm-1.7-4.1a.25.25,0,0,1,.27-.29c.22,0,.26.17.26.29V79l-.53-.07ZM200.35,77a.37.37,0,0,1,.38-.41c.31,0,.37.24.37.41v1.94h-.75Zm-.88.12a.25.25,0,0,1,.27-.29c.22,0,.26.17.26.29v1.84l-.53.07Z"/><path class="a" d="M313.55,129.59c0-.22,0-4,0-4.4,0-3.42-2.07-5.22-5.15-5.16-5,.09-10,0-15.05,0a6.23,6.23,0,0,1-1.15-.09,2.32,2.32,0,0,1-.22-4.47,5.16,5.16,0,0,1,1.36-.15h32.27a11,11,0,0,0,1.15,0,4.45,4.45,0,0,0,4-3.82v0a2.75,2.75,0,0,0-2.74-3l-45.18-.39"/><line class="a" x1="313.72" y1="130.7" x2="313.72" y2="139.74"/><path class="a" d="M323,184.42a14,14,0,0,0,2-1.43,10.58,10.58,0,0,0,3-6.71V159.41s.06-2.45-2.13-2.32a2.29,2.29,0,0,0-2.58,1.73,2.6,2.6,0,0,0-.06.56l-.11,4.2a.26.26,0,0,1-.29.24h0a.24.24,0,0,1-.22-.25l.05-5.3a3.05,3.05,0,0,0-1.52-2.71,1.78,1.78,0,0,0-2.22.25,2.94,2.94,0,0,0-1,2.18l0,5.25a.26.26,0,0,1-.26.25h0a.25.25,0,0,1-.25-.25l-.11-7.89a2.7,2.7,0,0,0-1.2-2.25c-.74-.48-1.77-.63-3,.63a2.07,2.07,0,0,0-.55,1.39l-.05,8.12a.26.26,0,0,1-.26.25h-.12a.26.26,0,0,1-.26-.25l-.23-15.78a2.66,2.66,0,0,0-1.15-2.2,1.88,1.88,0,0,0-2.12,0,2.85,2.85,0,0,0-1.37,2.5l.23,21.85a.25.25,0,0,1-.42.19L305,168.17a4.26,4.26,0,0,0-4.3-.79,2.58,2.58,0,0,0-1.79,2.65,4.31,4.31,0,0,0,1.3,2.95l9.16,9,1.72,1.7,0,0a10.78,10.78,0,0,0,1.34.84"/><path class="a" d="M220.82,172l.05,5.26a10.13,10.13,0,0,0,2.22,6.33l5.49,6.88H177l6.71-7.51a10.17,10.17,0,0,0,2.22-6.34V172Z"/><line class="c" x1="186.5" y1="175.61" x2="220.7" y2="175.61"/><line class="c" x1="185.46" y1="178.87" x2="221" y2="178.87"/><line class="c" x1="181.8" y1="185.26" x2="224.93" y2="185.26"/><line class="c" x1="184.53" y1="182.16" x2="222.1" y2="182.16"/><line class="c" x1="179.13" y1="187.93" x2="226.47" y2="187.93"/></svg>