<svg xmlns="http://www.w3.org/2000/svg" viewBox="0 0 480 290"><defs><style>.a,.b{fill:none;}.a,.b,.d{stroke:#fff;stroke-width:2px;}.a,.d{stroke-miterlimit:10;}.b{stroke-linecap:round;stroke-linejoin:round;}.c,.d{fill:#fff;}</style></defs><title>fixe</title><polygon class="a" points="178.33 157.6 114.1 171.59 105.69 132.51 169.92 118.53 178.33 157.6"/><polygon class="a" points="176.82 129.91 180.11 145.12 191.77 152.55 184.35 117.24 176.82 129.91"/><path class="b" d="M139.47,177.67,156,174.22,171.09,191a.74.74,0,0,0,1.2-.81l-11.64-23.95-27,5.49-6.26,19.5a.43.43,0,0,0,.73.4Z"/><polyline class="a" points="304.44 170.6 225.05 150.96 224.47 41.71 346.32 55.28 346.32 180.97 328 176"/><polyline class="a" points="247 44 247.09 40.12 354.95 51.4 354.95 180.55 346.32 178.11"/><polyline class="a" points="254.4 40.49 254.39 38 363.65 49.31 363.65 178.82 354.95 176.39"/><polygon class="a" points="272.97 93.57 287.98 106.1 273.56 114.38 272.97 93.57"/><ellipse class="a" cx="278.26" cy="104.35" rx="18.59" ry="23.49" transform="translate(-17.72 131.12) rotate(-25.72)"/><line class="a" x1="190.01" y1="125.84" x2="206.66" y2="114"/><line class="a" x1="194.31" y1="141.84" x2="210.83" y2="148.27"/><line class="a" x1="201.58" y1="131.88" x2="192.76" y2="133.58"/><path class="c" d="M234.71,55.13a.36.36,0,0,1,.36-.37h.75a.38.38,0,0,1,.37.37V67h5.54a.37.37,0,0,1,.37.36v.56a.38.38,0,0,1-.37.37h-6.66a.37.37,0,0,1-.36-.37Z"/><path class="c" d="M245,57.53l-1.39,1.08a.29.29,0,0,1-.44,0l-.36-.4a.31.31,0,0,1,0-.43l2.7-2.61h.52a.35.35,0,0,1,.34.36V67.87a.36.36,0,0,1-.34.37h-.69a.37.37,0,0,1-.37-.37Z"/><path class="c" d="M310.08,67.55a.37.37,0,0,1,.38-.35l.75,0a.38.38,0,0,1,.34.39l-.62,11.8,5.54.29a.38.38,0,0,1,.35.39l0,.56a.37.37,0,0,1-.39.34l-6.65-.35a.36.36,0,0,1-.34-.38Z"/><path class="c" d="M317.67,80.13c1.66-1.61,3.31-3.24,5-4.84,1.38-1.36,2.07-2.48,2.12-3.38a2.42,2.42,0,0,0-2.56-2.58,3.91,3.91,0,0,0-2.81,1.29.35.35,0,0,1-.52,0l-.36-.39a.38.38,0,0,1,0-.5A4.92,4.92,0,0,1,322.28,68c2.74.14,4.06,2,4,3.93-.09,1.69-1.23,2.88-2.63,4.23l-3.9,3.75,5.65.3a.37.37,0,0,1,.35.38l0,.52a.38.38,0,0,1-.38.35L318,81.09a.36.36,0,0,1-.34-.38Z"/><path class="c" d="M268.4,140.83a.38.38,0,0,1,.39-.34l.75,0a.39.39,0,0,1,.34.39l-.81,11.8,5.53.38a.37.37,0,0,1,.34.39l0,.55a.36.36,0,0,1-.39.34l-6.64-.45a.36.36,0,0,1-.34-.39Z"/><path class="c" d="M276,152.51l.54-.41a.33.33,0,0,1,.52.13,3.86,3.86,0,0,0,2.77,1.53,2.53,2.53,0,0,0,2.93-2.21c.09-1.31-.85-2.59-3.23-2.75l-1.07-.08c-.22,0-.36-.14-.34-.45l0-.46c0-.3.13-.41.44-.39l1.05.07c2.06.14,3.13-.84,3.21-2.11a2.38,2.38,0,0,0-2.34-2.61,3.27,3.27,0,0,0-2.6,1.07.33.33,0,0,1-.51,0l-.43-.39a.34.34,0,0,1,0-.5,4.92,4.92,0,0,1,3.59-1.45c2.33.16,3.87,1.63,3.72,3.78a3.57,3.57,0,0,1-2.19,2.9v.06a3.66,3.66,0,0,1,2.09,3.27c-.15,2.09-1.87,3.62-4.52,3.43a4.74,4.74,0,0,1-3.75-2A.31.31,0,0,1,276,152.51Z"/><path class="a" d="M305,172l-7.57,14.45,4.64-.63.41,6.19L311,179A15,15,0,0,1,305,172Z"/><path class="a" d="M316.91,181l3.7,17.11,2.48-5.39,4.59,3.93-3.84-17.06A9,9,0,0,1,316.91,181Z"/><ellipse class="a" cx="316.89" cy="165.57" rx="13.13" ry="15.63" transform="translate(-32.77 90.94) rotate(-15.54)"/><ellipse class="a" cx="316.89" cy="165.57" rx="7.95" ry="9.46" transform="translate(-32.77 90.94) rotate(-15.54)"/><rect class="a" x="81" y="191.7" width="148" height="8.43" rx="1.81" ry="1.81"/><line class="d" x1="113" y1="165" x2="144" y2="165"/><line class="d" x1="111" y1="157.75" x2="178" y2="157.75"/><line class="d" x1="110" y1="151" x2="177" y2="151"/><line class="d" x1="108" y1="144" x2="175" y2="144"/><line class="d" x1="107" y1="136" x2="174" y2="136"/><line class="d" x1="121" y1="129.25" x2="171" y2="129.25"/><line class="d" x1="154" y1="122" x2="171" y2="122"/></svg>