<svg xmlns="http://www.w3.org/2000/svg" xmlns:xlink="http://www.w3.org/1999/xlink" viewBox="0 0 480 290"><defs><style>.a,.b,.e,.f{fill:none;}.b{stroke:#00326e;}.b,.d,.e,.f,.g{stroke-width:2px;}.c{clip-path:url(#a);}.d{stroke:#1f3766;fill:url(#b);}.d,.e,.g{stroke-miterlimit:10;}.e,.f,.g{stroke:#1f3767;}.f{stroke-linecap:round;stroke-linejoin:round;}.g{fill:#fff;}.h{fill:#1f3767;}</style><clipPath id="a"><rect class="a" width="72" height="72"/></clipPath><pattern id="b" width="72" height="72" patternUnits="userSpaceOnUse" viewBox="0 0 72 72"><rect class="a" width="72" height="72"/><line class="b" x1="71.75" y1="68.4" x2="144.25" y2="68.4"/><line class="b" x1="71.75" y1="54" x2="144.25" y2="54"/><line class="b" x1="71.75" y1="39.6" x2="144.25" y2="39.6"/><line class="b" x1="71.75" y1="25.2" x2="144.25" y2="25.2"/><line class="b" x1="71.75" y1="10.8" x2="144.25" y2="10.8"/><line class="b" x1="71.75" y1="61.2" x2="144.25" y2="61.2"/><line class="b" x1="71.75" y1="46.8" x2="144.25" y2="46.8"/><line class="b" x1="71.75" y1="32.4" x2="144.25" y2="32.4"/><line class="b" x1="71.75" y1="18" x2="144.25" y2="18"/><line class="b" x1="71.75" y1="3.6" x2="144.25" y2="3.6"/><line class="b" x1="71.75" y1="68.4" x2="144.25" y2="68.4"/><line class="b" x1="71.75" y1="54" x2="144.25" y2="54"/><line class="b" x1="71.75" y1="39.6" x2="144.25" y2="39.6"/><line class="b" x1="71.75" y1="25.2" x2="144.25" y2="25.2"/><line class="b" x1="71.75" y1="10.8" x2="144.25" y2="10.8"/><line class="b" x1="71.75" y1="61.2" x2="144.25" y2="61.2"/><line class="b" x1="71.75" y1="46.8" x2="144.25" y2="46.8"/><line class="b" x1="71.75" y1="32.4" x2="144.25" y2="32.4"/><line class="b" x1="71.75" y1="18" x2="144.25" y2="18"/><line class="b" x1="71.75" y1="3.6" x2="144.25" y2="3.6"/><line class="b" x1="-0.25" y1="68.4" x2="72.25" y2="68.4"/><line class="b" x1="-0.25" y1="54" x2="72.25" y2="54"/><line class="b" x1="-0.25" y1="39.6" x2="72.25" y2="39.6"/><line class="b" x1="-0.25" y1="25.2" x2="72.25" y2="25.2"/><line class="b" x1="-0.25" y1="10.8" x2="72.25" y2="10.8"/><line class="b" x1="-0.25" y1="61.2" x2="72.25" y2="61.2"/><line class="b" x1="-0.25" y1="46.8" x2="72.25" y2="46.8"/><line class="b" x1="-0.25" y1="32.4" x2="72.25" y2="32.4"/><line class="b" x1="-0.25" y1="18" x2="72.25" y2="18"/><line class="b" x1="-0.25" y1="3.6" x2="72.25" y2="3.6"/><g class="c"><line class="b" x1="-72.25" y1="68.4" x2="0.25" y2="68.4"/><line class="b" x1="-72.25" y1="54" x2="0.25" y2="54"/><line class="b" x1="-72.25" y1="39.6" x2="0.25" y2="39.6"/><line class="b" x1="-72.25" y1="25.2" x2="0.25" y2="25.2"/><line class="b" x1="-72.25" y1="10.8" x2="0.25" y2="10.8"/><line class="b" x1="-72.25" y1="61.2" x2="0.25" y2="61.2"/><line class="b" x1="-72.25" y1="46.8" x2="0.25" y2="46.8"/><line class="b" x1="-72.25" y1="32.4" x2="0.25" y2="32.4"/><line class="b" x1="-72.25" y1="18" x2="0.25" y2="18"/><line class="b" x1="-72.25" y1="3.6" x2="0.25" y2="3.6"/></g><line class="b" x1="-0.25" y1="68.4" x2="72.25" y2="68.4"/><line class="b" x1="-0.25" y1="54" x2="72.25" y2="54"/><line class="b" x1="-0.25" y1="39.6" x2="72.25" y2="39.6"/><line class="b" x1="-0.25" y1="25.2" x2="72.25" y2="25.2"/><line class="b" x1="-0.25" y1="10.8" x2="72.25" y2="10.8"/><line class="b" x1="-0.25" y1="61.2" x2="72.25" y2="61.2"/><line class="b" x1="-0.25" y1="46.8" x2="72.25" y2="46.8"/><line class="b" x1="-0.25" y1="32.4" x2="72.25" y2="32.4"/><line class="b" x1="-0.25" y1="18" x2="72.25" y2="18"/><line class="b" x1="-0.25" y1="3.6" x2="72.25" y2="3.6"/><line class="b" x1="-72.25" y1="68.4" x2="0.25" y2="68.4"/><line class="b" x1="-72.25" y1="54" x2="0.25" y2="54"/><line class="b" x1="-72.25" y1="39.6" x2="0.25" y2="39.6"/><line class="b" x1="-72.25" y1="25.2" x2="0.25" y2="25.2"/><line class="b" x1="-72.25" y1="10.8" x2="0.25" y2="10.8"/><line class="b" x1="-72.25" y1="61.2" x2="0.25" y2="61.2"/><line class="b" x1="-72.25" y1="46.8" x2="0.25" y2="46.8"/><line class="b" x1="-72.25" y1="32.4" x2="0.25" y2="32.4"/><line class="b" x1="-72.25" y1="18" x2="0.25" y2="18"/><line class="b" x1="-72.25" y1="3.6" x2="0.25" y2="3.6"/><line class="b" x1="-72.25" y1="68.4" x2="0.25" y2="68.4"/><line class="b" x1="-72.25" y1="54" x2="0.25" y2="54"/><line class="b" x1="-72.25" y1="39.6" x2="0.25" y2="39.6"/><line class="b" x1="-72.25" y1="25.2" x2="0.25" y2="25.2"/><line class="b" x1="-72.25" y1="10.8" x2="0.25" y2="10.8"/><line class="b" x1="-72.25" y1="61.2" x2="0.25" y2="61.2"/><line class="b" x1="-72.25" y1="46.8" x2="0.25" y2="46.8"/><line class="b" x1="-72.25" y1="32.4" x2="0.25" y2="32.4"/><line class="b" x1="-72.25" y1="18" x2="0.25" y2="18"/><line class="b" x1="-72.25" y1="3.6" x2="0.25" y2="3.6"/></pattern></defs><title>survol</title><polygon class="a" points="100.7 117.19 104.41 116.38 99.48 117.36 100.86 124.36 102.18 124.1 100.7 117.19"/><polygon class="a" points="102.18 124.1 100.86 124.36 102.25 131.36 103.69 131.08 102.18 124.1"/><polygon class="a" points="108.19 167.36 106.42 167.71 107.81 174.71 109.69 174.34 108.19 167.36"/><polygon class="a" points="106.69 145.03 105.03 145.36 106.42 152.36 108.19 152.01 106.69 145.03"/><polygon class="a" points="105.19 138.05 103.64 138.36 105.03 145.36 106.69 145.03 105.19 138.05"/><polygon class="a" points="103.69 131.08 102.25 131.36 103.64 138.36 105.19 138.05 103.69 131.08"/><polygon class="d" points="177.07 158.19 113.96 171.94 105.69 133.54 168.81 119.8 177.07 158.19"/><polygon class="e" points="175.58 130.98 178.82 145.93 190.28 153.23 182.98 118.54 175.58 130.98"/><path class="f" d="M138.88,177.92l16.29-3.4L170,191a.73.73,0,0,0,1.18-.8l-11.45-23.52-26.51,5.39L127,191.22a.42.42,0,0,0,.72.39Z"/><polygon class="e" points="346.32 180.97 225.05 150.96 224.47 41.71 346.32 55.28 346.32 180.97"/><polyline class="e" points="247.1 42.53 247.09 40.12 354.95 51.4 354.95 180.55 346.32 178.11"/><polyline class="e" points="254.4 40.49 254.39 38 363.65 49.31 363.65 178.82 354.95 176.39"/><polygon class="g" points="272.97 93.57 287.98 106.1 273.56 114.38 272.97 93.57"/><ellipse class="e" cx="278.26" cy="104.35" rx="18.59" ry="23.49" transform="translate(-17.72 131.12) rotate(-25.72)"/><line class="e" x1="188.55" y1="126.99" x2="204.91" y2="115.35"/><line class="e" x1="192.77" y1="142.71" x2="209" y2="149.03"/><line class="e" x1="199.91" y1="132.92" x2="191.24" y2="134.59"/><path class="h" d="M234.71,55.13a.36.36,0,0,1,.36-.37h.75a.38.38,0,0,1,.37.37V67h5.54a.37.37,0,0,1,.37.36v.56a.38.38,0,0,1-.37.37h-6.66a.37.37,0,0,1-.36-.37Z"/><path class="h" d="M245,57.53l-1.39,1.08a.29.29,0,0,1-.44,0l-.36-.4a.31.31,0,0,1,0-.43l2.7-2.61h.52a.35.35,0,0,1,.34.36V67.87a.36.36,0,0,1-.34.37h-.69a.37.37,0,0,1-.37-.37Z"/><path class="h" d="M310.08,67.55a.37.37,0,0,1,.38-.35l.75,0a.38.38,0,0,1,.34.39l-.62,11.8,5.54.29a.38.38,0,0,1,.35.39l0,.56a.37.37,0,0,1-.39.34l-6.65-.35a.36.36,0,0,1-.34-.38Z"/><path class="h" d="M317.67,80.13c1.66-1.61,3.31-3.24,5-4.84,1.38-1.36,2.07-2.48,2.12-3.38a2.42,2.42,0,0,0-2.56-2.58,3.91,3.91,0,0,0-2.81,1.29.35.35,0,0,1-.52,0l-.36-.39a.38.38,0,0,1,0-.5A4.92,4.92,0,0,1,322.28,68c2.74.14,4.06,2,4,3.93-.09,1.69-1.23,2.88-2.63,4.23l-3.9,3.75,5.65.3a.37.37,0,0,1,.35.38l0,.52a.38.38,0,0,1-.38.35L318,81.09a.36.36,0,0,1-.34-.38Z"/><path class="h" d="M268.4,140.83a.38.38,0,0,1,.39-.34l.75,0a.39.39,0,0,1,.34.39l-.81,11.8,5.53.38a.37.37,0,0,1,.34.39l0,.55a.36.36,0,0,1-.39.34l-6.64-.45a.36.36,0,0,1-.34-.39Z"/><path class="h" d="M276,152.51l.54-.41a.33.33,0,0,1,.52.13,3.86,3.86,0,0,0,2.77,1.53,2.53,2.53,0,0,0,2.93-2.21c.09-1.31-.85-2.59-3.23-2.75l-1.07-.08c-.22,0-.36-.14-.34-.45l0-.46c0-.3.13-.41.44-.39l1.05.07c2.06.14,3.13-.84,3.21-2.11a2.38,2.38,0,0,0-2.34-2.61,3.27,3.27,0,0,0-2.6,1.07.33.33,0,0,1-.51,0l-.43-.39a.34.34,0,0,1,0-.5,4.92,4.92,0,0,1,3.59-1.45c2.33.16,3.87,1.63,3.72,3.78a3.57,3.57,0,0,1-2.19,2.9v.06a3.66,3.66,0,0,1,2.09,3.27c-.15,2.09-1.87,3.62-4.52,3.43a4.74,4.74,0,0,1-3.75-2A.31.31,0,0,1,276,152.51Z"/><path class="e" d="M305.44,171.81l-7.93,13.8,5-.6.77,6.24,8.08-13.2A12.76,12.76,0,0,1,305.44,171.81Z"/><path class="e" d="M316.31,179.44l5,16.76,2-5.57,4.89,3.55-5.17-16.7A9,9,0,0,1,316.31,179.44Z"/><ellipse class="g" cx="316.89" cy="165.57" rx="13.13" ry="15.63" transform="translate(-32.77 90.94) rotate(-15.54)"/><ellipse class="g" cx="316.89" cy="165.57" rx="7.95" ry="9.46" transform="translate(-32.77 90.94) rotate(-15.54)"/><rect class="e" x="81" y="192.7" width="148" height="8.43" rx="1.81" ry="1.81"/></svg>