<?xml version="1.0" encoding="utf-8"?>
<!-- Generator: Adobe Illustrator 23.0.1, SVG Export Plug-In . SVG Version: 6.00 Build 0)  -->
<svg version="1.1" xmlns="http://www.w3.org/2000/svg" xmlns:xlink="http://www.w3.org/1999/xlink" x="0px" y="0px"
	 viewBox="0 0 176.82 169.87" style="enable-background:new 0 0 176.82 169.87;" xml:space="preserve">
<style type="text/css">
	.st0{display:none;}
	.st1{display:inline;}
	.st2{fill:#004272;}
	.st3{opacity:0.45;fill:#0A4270;}
	.st4{fill:#FFFFFF;stroke:#004272;stroke-width:2.3587;stroke-miterlimit:10;}
	.st5{fill:none;stroke:#004272;stroke-width:1.4102;stroke-miterlimit:10;}
	.st6{fill:#004272;stroke:#FFFFFF;stroke-width:3;stroke-miterlimit:10;}
	.st7{fill:#004272;stroke:#FFFFFF;stroke-width:2.3587;stroke-miterlimit:10;}
	.st8{fill:none;stroke:#FFFFFF;stroke-width:1.4102;stroke-miterlimit:10;}
	.st9{fill:#FFFFFF;}
</style>
<g id="Calque_1" class="st0">
	<g class="st1">
		<path class="st2" d="M90.2,25.48c16.69,0,29.98,13.63,29.98,29.98c0,16.69-13.29,29.98-29.98,29.98
			c-16.69,0-29.98-13.29-29.98-29.98C60.22,39.11,73.51,25.48,90.2,25.48z M42.85,79.3l43.94,86.18c1.02,1.7,2.38,2.04,3.07,2.04
			c0.34,0,1.02,0,1.36-0.34c0.68-0.34,1.36-0.68,1.7-1.7c0.34-0.68,35.77-69.83,43.94-86.18c7.49-15.33,7.49-32.02,0-47.35
			c-4.77-9.2-11.58-16.35-19.76-21.46C108.93,5.38,99.4,3,89.86,3c-7.83,0-16.01,1.7-23.5,5.45c-12.26,6.13-21.8,17.03-26.23,30.66
			C36.04,52.73,36.72,67.38,42.85,79.3z"/>
		<path class="st3" d="M80.69,30.25c15.9,0,28.55,12.98,28.55,28.55c0,15.9-12.65,28.55-28.55,28.55
			c-15.9,0-28.55-12.65-28.55-28.55C52.14,43.22,64.79,30.25,80.69,30.25z M35.6,81.5l41.85,82.08c0.97,1.62,2.27,1.95,2.92,1.95
			c0.32,0,0.97,0,1.3-0.32c0.65-0.32,1.3-0.65,1.62-1.62c0.32-0.65,34.06-66.5,41.85-82.08c7.14-14.6,7.14-30.49,0-45.09
			c-4.54-8.76-11.03-15.57-18.82-20.44c-7.79-4.87-16.87-7.14-25.95-7.14c-7.46,0-15.25,1.62-22.38,5.19
			C46.3,19.87,37.22,30.25,33,43.22C29.11,56.2,29.76,70.15,35.6,81.5z"/>
		<g>
			<circle class="st4" cx="90.61" cy="55.87" r="44.38"/>
			<circle class="st5" cx="90.61" cy="55.87" r="26.54"/>
			<path class="st2" d="M79.92,68.65c0.67-0.81,1.95-2.48,2.63-3.38c0.31-0.39,0.52-0.78,0.52-1.13c0-0.46-0.35-0.92-1.08-0.92
				c-0.49,0-0.9,0.35-1.14,0.6c-0.08,0.08-0.19,0.08-0.27,0l-0.49-0.49c-0.06-0.06-0.08-0.18-0.01-0.26c0,0,0.79-0.99,2-0.99
				c1.45,0,2.26,0.92,2.26,2.02c0,0.66-0.28,1.08-0.68,1.64c-0.44,0.62-1.21,1.57-1.75,2.25h2.19c0.1,0,0.19,0.09,0.19,0.19v0.7
				c0,0.1-0.09,0.19-0.19,0.19h-4c-0.11,0-0.19-0.09-0.19-0.19V68.65z"/>
			<path class="st2" d="M85.99,65.62c0-2.22,0.93-3.55,2.56-3.55c1.62,0,2.56,1.33,2.56,3.55c0,2.22-0.93,3.55-2.56,3.55
				C86.92,69.18,85.99,67.85,85.99,65.62z M89.77,65.62c0-1.5-0.45-2.35-1.23-2.35c-0.78,0-1.23,0.85-1.23,2.35
				c0,1.51,0.45,2.35,1.23,2.35C89.32,67.98,89.77,67.14,89.77,65.62z"/>
			<path class="st2" d="M93.66,64.02l-0.89,0.19c-0.09,0.02-0.19-0.04-0.2-0.13l-0.06-0.5c-0.01-0.08,0.01-0.14,0.05-0.18l1.46-1.23
				h0.71c0.1,0,0.18,0.09,0.18,0.19v6.51c0,0.1-0.08,0.19-0.18,0.19h-0.87c-0.11,0-0.19-0.09-0.19-0.19V64.02z"/>
			<path class="st2" d="M98.06,65.53V65.5c-0.42-0.22-1.04-0.78-1.04-1.57c0-1.13,0.97-1.86,2.2-1.86c1.27,0,2.24,0.73,2.24,1.86
				c0,0.77-0.63,1.32-1.05,1.56v0.04c0.46,0.23,1.23,0.82,1.23,1.69c0,1.11-0.93,1.95-2.42,1.95c-1.45,0-2.38-0.84-2.38-1.95
				C96.83,66.34,97.78,65.68,98.06,65.53z M99.24,68.14c0.56,0,1.06-0.38,1.06-0.93c0-0.46-0.38-0.92-1.06-1.08
				c-0.68,0.15-1.06,0.62-1.06,1.08C98.18,67.77,98.69,68.14,99.24,68.14z M100.16,63.98c0-0.49-0.42-0.86-0.94-0.86
				c-0.49,0-0.9,0.38-0.9,0.86c0,0.46,0.28,0.81,0.92,0.96C99.87,64.8,100.16,64.42,100.16,63.98z"/>
			<path class="st2" d="M90.61,40.03c0.28,0,0.51-0.23,0.51-0.51c0-0.28-0.23-0.51-0.51-0.51c-0.28,0-0.51,0.23-0.51,0.51
				C90.09,39.8,90.32,40.03,90.61,40.03"/>
			<polygon class="st2" points="90.61,55.34 77.66,60.73 103.55,60.73 			"/>
			<path class="st2" d="M89.11,45.44c0-0.15,0.05-0.36,0.32-0.36c0.27,0,0.32,0.21,0.32,0.36v2.21c-0.21,0.02-0.43,0.05-0.64,0.08
				V45.44z M90.18,45.29c0-0.21,0.07-0.5,0.45-0.5c0.37,0,0.44,0.3,0.44,0.5v2.33c-0.15-0.01-0.3-0.01-0.45-0.01
				c-0.15,0-0.3,0-0.45,0.01V45.29z M91.47,45.44c0-0.15,0.05-0.36,0.32-0.36c0.27,0,0.32,0.21,0.32,0.36v2.29
				c-0.21-0.03-0.42-0.06-0.64-0.08V45.44z M93.52,50.36v-2.27l-0.81-0.78v-2.78l0.4-0.39c-0.05-0.06-1.38-1.53-1.83-3.53h-1.36
				c-0.43,1.92-1.67,3.35-1.81,3.52l0,0.01l0.4,0.4v2.78l-0.81,0.78v2.27c-3.39,1.13-5.91,4.18-6.26,7.86l8.84-3.68l0.33-0.14
				l0.33,0.14l8.84,3.68C99.43,54.54,96.91,51.49,93.52,50.36"/>
			<path class="st2" d="M61.4,43L57,35.4c-0.04-0.07-0.04-0.17,0.01-0.24l0.07-0.1c0.05-0.07,0.14-0.1,0.22-0.09l8.65,1.53
				c0.17,0.03,0.24,0.2,0.14,0.34l-0.75,1.08c-0.12,0.17-0.23,0.21-0.48,0.17l-1.01-0.19L62,40.54l0.53,0.89
				c0.08,0.13,0.12,0.32-0.01,0.51l-0.75,1.07C61.67,43.15,61.49,43.14,61.4,43z M62.12,37.56L60,37.18l-0.01,0.01l1.09,1.85
				L62.12,37.56z"/>
			<path class="st2" d="M67.33,33.91l-0.2-1.11c-0.03-0.18,0.16-0.3,0.26-0.31c0.05-0.01,1.11-0.08,1.71-0.58
				c0.36-0.3,0.44-0.75,0.17-1.07c-0.32-0.38-0.88-0.41-1.7-0.14c-1.04,0.34-2.53,0.55-3.44-0.54c-0.75-0.9-0.81-2.39,0.59-3.56
				c0.95-0.79,2.07-0.91,2.51-0.94c0.16-0.03,0.28,0.15,0.3,0.25L67.66,27c0.02,0.15-0.08,0.37-0.21,0.38
				c-0.12,0.02-1.2,0.08-1.75,0.54c-0.33,0.27-0.39,0.7-0.19,0.94c0.28,0.34,0.77,0.36,1.73,0.06c0.94-0.31,2.53-0.69,3.56,0.54
				c0.78,0.94,0.76,2.56-0.58,3.67c-1.18,0.99-2.25,1.04-2.63,1.01C67.42,34.11,67.37,34.1,67.33,33.91z"/>
			<path class="st2" d="M74.53,28.59l0.07-1.13c0.02-0.18,0.23-0.26,0.33-0.24c0.05,0,1.09,0.19,1.8-0.15
				c0.43-0.21,0.61-0.62,0.42-1c-0.22-0.45-0.76-0.61-1.62-0.54c-1.09,0.08-2.59-0.07-3.21-1.35c-0.51-1.05-0.21-2.52,1.43-3.31
				c1.11-0.54,2.23-0.39,2.67-0.31c0.16,0.01,0.24,0.21,0.23,0.31l-0.15,1.08c-0.02,0.15-0.16,0.34-0.29,0.31
				c-0.12-0.01-1.18-0.21-1.83,0.1c-0.38,0.19-0.55,0.58-0.41,0.87c0.19,0.39,0.66,0.54,1.66,0.47c0.99-0.07,2.63-0.06,3.33,1.38
				c0.53,1.1,0.12,2.66-1.44,3.42c-1.38,0.67-2.43,0.47-2.79,0.34C74.57,28.81,74.51,28.78,74.53,28.59z"/>
			<path class="st2" d="M81.45,18.8c-0.03-0.11,0.05-0.24,0.16-0.27l1.38-0.35c0.11-0.03,0.24,0.05,0.27,0.16l1.93,7.59
				c0.03,0.11-0.05,0.24-0.16,0.27l-1.38,0.35c-0.11,0.03-0.24-0.05-0.27-0.16L81.45,18.8z"/>
			<path class="st2" d="M87.71,24.83l0.51-1.01c0.09-0.16,0.31-0.14,0.4-0.09c0.05,0.02,0.93,0.61,1.71,0.58
				c0.47-0.02,0.8-0.33,0.78-0.75c-0.02-0.5-0.45-0.86-1.27-1.14c-1.03-0.36-2.35-1.09-2.41-2.51c-0.05-1.17,0.81-2.39,2.63-2.47
				c1.23-0.05,2.2,0.53,2.57,0.77c0.15,0.08,0.13,0.29,0.09,0.38l-0.56,0.94c-0.08,0.13-0.29,0.25-0.4,0.17
				c-0.11-0.05-1-0.67-1.72-0.63c-0.43,0.02-0.73,0.32-0.72,0.64c0.02,0.44,0.39,0.75,1.34,1.09c0.94,0.33,2.44,0.98,2.51,2.59
				c0.05,1.22-0.94,2.49-2.68,2.57c-1.54,0.07-2.42-0.53-2.7-0.79C87.66,25.04,87.62,25,87.71,24.83z"/>
			<path class="st2" d="M97.29,17.7c0.02-0.12,0.14-0.2,0.27-0.17l4.79,1.01c0.13,0.03,0.2,0.15,0.17,0.27l-0.27,1.26
				c-0.02,0.12-0.14,0.2-0.27,0.17l-3.21-0.67L98.48,21l2.64,0.56c0.12,0.02,0.2,0.15,0.17,0.27l-0.27,1.26
				c-0.03,0.13-0.15,0.2-0.27,0.17l-2.64-0.56l-0.33,1.56l3.21,0.67c0.13,0.03,0.2,0.15,0.17,0.27l-0.27,1.26
				c-0.02,0.12-0.14,0.2-0.27,0.17l-4.79-1.01c-0.13-0.03-0.2-0.15-0.17-0.27L97.29,17.7z"/>
			<path class="st2" d="M103.56,27.07l0.94-0.63c0.15-0.1,0.34,0.03,0.39,0.12c0.03,0.04,0.51,0.99,1.21,1.34
				c0.42,0.21,0.86,0.1,1.05-0.27c0.22-0.44,0.02-0.97-0.55-1.62c-0.73-0.82-1.52-2.1-0.88-3.37c0.53-1.05,1.87-1.7,3.5-0.88
				c1.1,0.55,1.67,1.54,1.87,1.93c0.09,0.14-0.03,0.32-0.11,0.37l-0.95,0.54c-0.13,0.08-0.37,0.08-0.43-0.04
				c-0.07-0.1-0.55-1.07-1.19-1.39c-0.38-0.19-0.79-0.08-0.94,0.21c-0.2,0.39-0.03,0.85,0.64,1.6c0.66,0.74,1.65,2.05,0.93,3.48
				c-0.55,1.09-2.04,1.72-3.6,0.94c-1.38-0.69-1.85-1.64-1.97-2.01C103.41,27.24,103.4,27.18,103.56,27.07z"/>
			<path class="st2" d="M119.15,30c0.09-0.07,0.24-0.06,0.31,0.03l1.76,2.29c1.39,1.81,1.06,4.43-0.74,5.81
				c-1.82,1.4-4.43,1.05-5.83-0.76l-1.76-2.29c-0.07-0.09-0.05-0.23,0.05-0.31L119.15,30z M115.96,36.21
				c0.82,1.06,2.24,1.19,3.31,0.36c1.06-0.82,1.3-2.23,0.49-3.29l-0.69-0.9l-3.8,2.92L115.96,36.21z"/>
			<path class="st2" d="M125.62,39.81c0.11-0.04,0.24,0.01,0.29,0.13l1.79,4.56c0.05,0.12-0.02,0.25-0.13,0.29l-1.2,0.47
				c-0.11,0.04-0.24-0.01-0.29-0.13l-1.19-3.05l-1.37,0.53l0.98,2.51c0.04,0.11-0.02,0.25-0.13,0.29l-1.2,0.47
				c-0.12,0.05-0.25-0.02-0.29-0.13l-0.98-2.51l-1.49,0.58l1.19,3.05c0.05,0.12-0.02,0.25-0.13,0.29l-1.2,0.47
				c-0.11,0.04-0.24-0.01-0.29-0.13l-1.79-4.56c-0.05-0.12,0.02-0.25,0.13-0.29L125.62,39.81z"/>
			<g>
				<path class="st2" d="M68.82,51.34c-0.04-0.01-0.07-0.06-0.06-0.11l0.11-0.42c0.01-0.05,0.06-0.07,0.11-0.06l1.8,0.48
					c0.37,0.1,0.74-0.08,0.84-0.46c0.1-0.38-0.13-0.72-0.49-0.82l-1.81-0.48c-0.04-0.01-0.07-0.06-0.06-0.11l0.11-0.42
					c0.01-0.04,0.06-0.07,0.11-0.06l1.83,0.48c0.67,0.18,1.07,0.85,0.88,1.55c-0.18,0.69-0.87,1.08-1.53,0.91L68.82,51.34z"/>
				<path class="st2" d="M70.04,47.19c-0.04-0.02-0.06-0.07-0.03-0.11l0.05-0.1l2.64-0.81l0,0l-1.69-0.83
					c-0.04-0.02-0.06-0.07-0.04-0.12l0.19-0.38c0.02-0.04,0.07-0.06,0.12-0.04l2.75,1.36c0.04,0.02,0.06,0.07,0.04,0.11l-0.05,0.1
					l-2.72,0.79l0,0l1.76,0.87c0.04,0.02,0.06,0.07,0.04,0.12l-0.18,0.37c-0.02,0.04-0.08,0.06-0.12,0.04L70.04,47.19z"/>
				<path class="st2" d="M72.23,43.33c-0.04-0.03-0.05-0.08-0.02-0.12l0.24-0.35c0.03-0.04,0.08-0.05,0.12-0.02l2.47,1.73
					c0.04,0.03,0.05,0.08,0.02,0.12l-0.24,0.35c-0.03,0.04-0.08,0.05-0.12,0.02L72.23,43.33z"/>
				<path class="st2" d="M73.35,41.8c-0.06-0.02-0.08-0.09-0.03-0.14l0.32-0.34c0.03-0.03,0.07-0.03,0.09-0.02l2.03,0.69l0.02-0.02
					L74.94,40c-0.01-0.02-0.01-0.06,0.02-0.09l0.32-0.34c0.05-0.05,0.12-0.04,0.14,0.02l1.28,3.12c0.01,0.03,0.01,0.06-0.02,0.09
					l-0.03,0.03c-0.03,0.03-0.06,0.03-0.09,0.02L73.35,41.8z"/>
				<path class="st2" d="M76.44,38.69c-0.03-0.04-0.02-0.09,0.02-0.12l1.48-1.12c0.04-0.03,0.09-0.02,0.12,0.02l0.23,0.3
					c0.03,0.04,0.02,0.09-0.02,0.12l-1.08,0.82l0.45,0.59l0.9-0.68c0.04-0.03,0.09-0.02,0.12,0.02l0.23,0.3
					c0.03,0.04,0.02,0.09-0.02,0.12l-0.9,0.68l0.48,0.63l1.08-0.82c0.04-0.03,0.09-0.02,0.12,0.02l0.23,0.3
					c0.03,0.04,0.02,0.09-0.02,0.12l-1.48,1.12c-0.04,0.03-0.09,0.02-0.12-0.02L76.44,38.69z"/>
				<path class="st2" d="M79.41,36.6c-0.02-0.04-0.01-0.09,0.04-0.12l1.16-0.6c0.49-0.25,1.08-0.07,1.33,0.41
					c0.19,0.37,0.1,0.8-0.17,1.13l1.09,0.74c0.06,0.04,0.06,0.12-0.01,0.15l-0.42,0.22c-0.04,0.02-0.07,0.01-0.08,0l-1.1-0.79
					l-0.45,0.23L81.32,39c0.02,0.04,0,0.1-0.04,0.12l-0.37,0.19c-0.04,0.02-0.1,0-0.12-0.04L79.41,36.6z M81.22,37.19
					c0.21-0.11,0.3-0.39,0.19-0.62c-0.11-0.21-0.39-0.3-0.6-0.18l-0.66,0.34l0.42,0.8L81.22,37.19z"/>
				<path class="st2" d="M83.64,37.5l0.07-0.32c0.01-0.07,0.09-0.1,0.14-0.08c0.03,0.01,0.46,0.15,0.74,0.05
					c0.23-0.07,0.35-0.28,0.29-0.46c-0.07-0.22-0.31-0.31-0.72-0.34c-0.46-0.03-0.95-0.16-1.12-0.67c-0.13-0.39,0.02-0.93,0.71-1.15
					c0.44-0.14,0.85-0.03,0.96,0.01c0.05,0.01,0.09,0.08,0.07,0.13l-0.09,0.3c-0.02,0.06-0.07,0.12-0.14,0.1
					c-0.04-0.01-0.44-0.12-0.68-0.04c-0.25,0.08-0.33,0.29-0.28,0.43c0.07,0.2,0.27,0.29,0.67,0.32c0.48,0.03,1.04,0.13,1.22,0.68
					c0.14,0.45-0.11,0.98-0.72,1.18c-0.55,0.18-0.95,0.03-1.06-0.03C83.66,37.6,83.63,37.58,83.64,37.5z"/>
				<path class="st2" d="M86.22,34.03c-0.01-0.04,0.02-0.09,0.07-0.1l0.42-0.08c0.04-0.01,0.09,0.02,0.1,0.07l0.56,2.96
					c0.01,0.04-0.02,0.09-0.07,0.1l-0.42,0.08c-0.04,0.01-0.09-0.02-0.1-0.07L86.22,34.03z"/>
				<path class="st2" d="M88.93,34.11l-0.7,0.04c-0.05,0-0.09-0.04-0.09-0.08l-0.02-0.37c0-0.05,0.03-0.09,0.08-0.09l1.99-0.13
					c0.05,0,0.09,0.04,0.09,0.08l0.02,0.37c0,0.04-0.03,0.09-0.08,0.09l-0.7,0.04l0.16,2.55c0,0.05-0.04,0.09-0.08,0.09l-0.42,0.03
					c-0.05,0-0.09-0.04-0.09-0.08L88.93,34.11z"/>
				<path class="st2" d="M91.68,33.6c0-0.05,0.04-0.08,0.09-0.08l1.85,0.17c0.05,0,0.08,0.05,0.08,0.09l-0.03,0.37
					c0,0.05-0.04,0.08-0.09,0.08l-1.35-0.12l-0.07,0.74l1.12,0.1c0.04,0,0.08,0.05,0.08,0.09l-0.04,0.38c0,0.05-0.05,0.08-0.09,0.08
					l-1.12-0.1l-0.07,0.79l1.35,0.12c0.05,0,0.08,0.05,0.08,0.09l-0.03,0.37c0,0.05-0.04,0.08-0.09,0.08l-1.85-0.17
					c-0.05,0-0.08-0.05-0.08-0.09L91.68,33.6z M92.33,33.23l-0.07-0.17c-0.02-0.04,0.01-0.07,0.04-0.08l0.79-0.38
					c0.05-0.03,0.1-0.02,0.12,0.02l0.11,0.25c0.03,0.06,0,0.11-0.04,0.12l-0.83,0.28C92.37,33.29,92.34,33.27,92.33,33.23z"/>
				<path class="st2" d="M97.72,34.73c0.02-0.04,0.07-0.07,0.11-0.05l1,0.39c0.52,0.2,0.79,0.79,0.59,1.31
					c-0.2,0.53-0.8,0.79-1.32,0.59l-0.53-0.2l-0.39,1c-0.02,0.04-0.07,0.07-0.11,0.05l-0.39-0.15c-0.05-0.02-0.07-0.07-0.05-0.11
					L97.72,34.73z M98.26,36.43c0.24,0.09,0.51-0.02,0.61-0.27c0.09-0.23-0.04-0.49-0.28-0.58l-0.49-0.19l-0.33,0.86L98.26,36.43z"
					/>
				<path class="st2" d="M99.03,38.44l2.77-1.92c0.03-0.02,0.06-0.02,0.09,0l0.04,0.02c0.04,0.02,0.04,0.05,0.04,0.08l-0.34,3.35
					c-0.01,0.06-0.07,0.1-0.13,0.06l-0.34-0.2c-0.06-0.03-0.07-0.07-0.07-0.15l0.05-0.54l-1.18-0.69l-0.44,0.31
					c-0.04,0.03-0.1,0.05-0.16,0.01l-0.34-0.2C98.98,38.55,98.97,38.48,99.03,38.44z M101.22,38.6l0.11-1.09l-0.01-0.01l-0.89,0.64
					L101.22,38.6z"/>
				<path class="st2" d="M104.23,38.22c0.03-0.03,0.08-0.04,0.12-0.01l0.99,0.85c0.42,0.36,0.47,0.98,0.12,1.39
					c-0.27,0.32-0.71,0.39-1.11,0.26L104.07,42c-0.01,0.07-0.08,0.1-0.14,0.05l-0.36-0.31c-0.03-0.03-0.03-0.06-0.03-0.08l0.33-1.31
					l-0.38-0.33l-0.75,0.88c-0.03,0.04-0.09,0.04-0.12,0.01l-0.32-0.27c-0.04-0.03-0.04-0.09-0.01-0.12L104.23,38.22z M104.36,40.13
					c0.18,0.16,0.48,0.14,0.65-0.06c0.16-0.18,0.13-0.47-0.06-0.63l-0.56-0.48l-0.59,0.69L104.36,40.13z"/>
				<path class="st2" d="M107.1,40.92c0.03-0.03,0.09-0.03,0.12,0.01l0.28,0.32c0.03,0.03,0.03,0.09-0.01,0.12l-2.27,1.99
					c-0.03,0.03-0.09,0.03-0.12-0.01l-0.28-0.32c-0.03-0.03-0.03-0.09,0.01-0.12L107.1,40.92z"/>
				<path class="st2" d="M106.24,44.01l0.33-0.02c0.07-0.01,0.12,0.06,0.11,0.11c0,0.03-0.01,0.48,0.15,0.73
					c0.13,0.2,0.36,0.26,0.52,0.15c0.19-0.13,0.22-0.38,0.13-0.79c-0.1-0.45-0.11-0.96,0.34-1.26c0.34-0.23,0.89-0.24,1.3,0.36
					c0.26,0.39,0.26,0.81,0.26,0.93c0,0.05-0.05,0.11-0.11,0.11l-0.31,0c-0.07,0-0.13-0.04-0.13-0.1c0-0.04-0.01-0.46-0.15-0.67
					c-0.15-0.21-0.37-0.23-0.49-0.15c-0.18,0.12-0.2,0.34-0.12,0.73c0.1,0.47,0.17,1.04-0.32,1.37c-0.39,0.26-0.97,0.17-1.33-0.36
					c-0.32-0.48-0.29-0.91-0.27-1.03C106.15,44.05,106.16,44.02,106.24,44.01z"/>
				<path class="st2" d="M111.34,48.31l-0.28-0.45c-0.03-0.05-0.01-0.11,0.03-0.14l0.26-0.13c0.04-0.02,0.08-0.02,0.11-0.01
					l0.95,0.56l0.14,0.39c0.02,0.06-0.01,0.12-0.07,0.14l-3.56,1.25c-0.06,0.02-0.12-0.01-0.14-0.06l-0.17-0.48
					c-0.02-0.06,0.01-0.12,0.07-0.14L111.34,48.31z"/>
			</g>
			<path class="st2" d="M71.14,58.8c0.04-0.01,0.09,0.01,0.11,0.06l0.26,1.04c0.14,0.54-0.19,1.1-0.73,1.24
				c-0.55,0.14-1.11-0.2-1.24-0.74l-0.14-0.55l-1.04,0.26c-0.04,0.01-0.09-0.02-0.11-0.06l-0.1-0.41c-0.01-0.05,0.02-0.09,0.06-0.11
				L71.14,58.8z M70.06,60.22c0.06,0.25,0.31,0.41,0.57,0.34c0.24-0.06,0.38-0.32,0.31-0.56l-0.13-0.51l-0.89,0.22L70.06,60.22z"/>
			<path class="st2" d="M68.86,62.28l3.33,0.56c0.03,0.01,0.06,0.02,0.07,0.06l0.01,0.04c0.01,0.04-0.01,0.07-0.03,0.09l-2.59,2.16
				c-0.05,0.04-0.12,0.02-0.13-0.04l-0.1-0.38c-0.02-0.07,0-0.1,0.05-0.15l0.42-0.35l-0.36-1.32l-0.53-0.09
				c-0.05-0.01-0.1-0.03-0.12-0.1l-0.1-0.38C68.74,62.32,68.79,62.27,68.86,62.28z M70.31,63.93l0.85-0.7l0-0.01l-1.08-0.17
				L70.31,63.93z"/>
			<path class="st2" d="M72.6,64.86c0.04-0.02,0.09-0.01,0.12,0.03l0.06,0.1l-0.66,2.69l0,0l1.58-1.02
				c0.04-0.02,0.09-0.02,0.12,0.03l0.23,0.35c0.02,0.04,0.01,0.1-0.03,0.12l-2.57,1.67c-0.04,0.02-0.09,0.01-0.12-0.03l-0.06-0.09
				l0.72-2.74l0,0l-1.64,1.06c-0.04,0.02-0.09,0.02-0.12-0.03L70,66.64c-0.02-0.04-0.01-0.1,0.03-0.12L72.6,64.86z"/>
			<path class="st2" d="M74.41,68.91l-0.39-0.58c-0.03-0.04-0.01-0.09,0.02-0.12L74.36,68c0.04-0.03,0.09-0.02,0.12,0.02l1.1,1.66
				c0.03,0.04,0.01,0.09-0.02,0.12l-0.31,0.21c-0.04,0.03-0.09,0.02-0.12-0.02l-0.39-0.58l-2.13,1.41
				c-0.04,0.02-0.09,0.01-0.12-0.02l-0.23-0.35c-0.03-0.04-0.01-0.09,0.02-0.12L74.41,68.91z"/>
			<path class="st2" d="M76.36,70.43c0.03-0.04,0.09-0.04,0.12-0.01l0.33,0.27c0.04,0.03,0.04,0.09,0.01,0.12l-0.76,0.94l1.15,0.94
				l0.76-0.94c0.03-0.04,0.08-0.04,0.12-0.01L78.42,72c0.04,0.03,0.04,0.09,0.01,0.12l-1.9,2.34c-0.03,0.04-0.09,0.04-0.12,0.01
				l-0.33-0.26c-0.04-0.03-0.04-0.09-0.01-0.12l0.79-0.97l-1.15-0.94l-0.79,0.97c-0.03,0.04-0.08,0.04-0.12,0.01l-0.33-0.27
				c-0.04-0.03-0.04-0.09-0.01-0.12L76.36,70.43z"/>
			<path class="st2" d="M79.48,73.06c0.02-0.04,0.08-0.06,0.12-0.03l1.59,0.95c0.04,0.03,0.05,0.08,0.03,0.12l-0.19,0.32
				c-0.02,0.04-0.08,0.06-0.12,0.03l-1.16-0.69l-0.38,0.64l0.97,0.58c0.04,0.02,0.05,0.08,0.03,0.12l-0.19,0.32
				c-0.03,0.04-0.08,0.05-0.12,0.03l-0.97-0.58l-0.41,0.68l1.16,0.69c0.04,0.03,0.05,0.08,0.03,0.12l-0.19,0.32
				c-0.02,0.04-0.08,0.06-0.12,0.03l-1.59-0.95c-0.04-0.03-0.05-0.08-0.03-0.12L79.48,73.06z M80.23,73.01l0.01-0.18
				c0-0.04,0.04-0.06,0.07-0.06l0.87,0c0.06,0,0.1,0.03,0.09,0.07l-0.01,0.27c0,0.06-0.04,0.1-0.09,0.09l-0.86-0.11
				C80.24,73.08,80.22,73.05,80.23,73.01z"/>
			<path class="st2" d="M83.09,75c0.91,0.09,1.56,0.89,1.47,1.8c-0.09,0.91-0.89,1.55-1.79,1.46c-0.91-0.09-1.56-0.88-1.47-1.79
				C81.39,75.57,82.18,74.91,83.09,75z M82.83,77.67c0.57,0.06,1.09-0.36,1.15-0.93c0.06-0.57-0.37-1.09-0.94-1.15
				c-0.57-0.06-1.09,0.37-1.14,0.94C81.84,77.1,82.26,77.62,82.83,77.67z"/>
			<path class="st2" d="M85.92,76.2c0-0.05,0.05-0.08,0.09-0.08l0.11,0.01l1.74,2.15l0,0l0.14-1.88c0-0.05,0.04-0.08,0.09-0.08
				l0.42,0.03c0.05,0,0.08,0.05,0.08,0.09l-0.23,3.06c0,0.05-0.05,0.08-0.09,0.08l-0.11-0.01l-1.74-2.23l0,0l-0.15,1.95
				c0,0.05-0.04,0.08-0.09,0.08l-0.41-0.03c-0.05,0-0.08-0.05-0.08-0.09L85.92,76.2z"/>
			<path class="st2" d="M90.46,78.74l-0.05-0.43c-0.01-0.07,0.04-0.13,0.11-0.14L91.96,78c0.07-0.01,0.13,0.04,0.14,0.11l0.05,0.43
				c0.01,0.06-0.04,0.12-0.11,0.13l-1.44,0.17C90.52,78.85,90.46,78.8,90.46,78.74z"/>
			<path class="st2" d="M94.15,79.02l0.09-0.31c0.02-0.07,0.1-0.09,0.14-0.07c0.03,0.01,0.45,0.18,0.74,0.1
				c0.23-0.06,0.36-0.25,0.32-0.44c-0.06-0.23-0.29-0.33-0.7-0.39c-0.46-0.06-0.94-0.22-1.07-0.74c-0.1-0.39,0.08-0.92,0.78-1.1
				c0.45-0.11,0.85,0.03,0.96,0.07c0.05,0.02,0.08,0.09,0.06,0.14l-0.1,0.29c-0.02,0.06-0.08,0.11-0.14,0.09
				c-0.04-0.01-0.43-0.15-0.68-0.09c-0.25,0.06-0.35,0.27-0.31,0.41c0.05,0.21,0.25,0.31,0.65,0.36c0.47,0.06,1.03,0.19,1.18,0.76
				c0.12,0.45-0.17,0.97-0.8,1.13c-0.56,0.14-0.95-0.04-1.06-0.1C94.16,79.12,94.13,79.11,94.15,79.02z"/>
			<path class="st2" d="M98.46,74.73c0.91-0.06,1.69,0.62,1.75,1.53c0.06,0.91-0.62,1.68-1.53,1.74c-0.91,0.06-1.68-0.61-1.74-1.52
				C96.87,75.57,97.55,74.79,98.46,74.73z M98.64,77.41c0.57-0.04,1.02-0.54,0.98-1.11c-0.04-0.57-0.54-1.02-1.12-0.98
				c-0.57,0.04-1.01,0.55-0.97,1.12C97.56,77.01,98.06,77.45,98.64,77.41z"/>
			<path class="st2" d="M100.46,73.33c-0.02-0.04-0.01-0.09,0.03-0.12l1.12-0.66c0.47-0.28,1.08-0.13,1.35,0.34
				c0.21,0.36,0.15,0.8-0.12,1.14l1.12,0.68c0.06,0.03,0.07,0.11,0,0.15l-0.41,0.24c-0.04,0.02-0.07,0.01-0.08,0l-1.13-0.73
				l-0.44,0.26l0.59,1c0.02,0.04,0.01,0.1-0.03,0.12l-0.36,0.21c-0.04,0.03-0.1,0.01-0.12-0.03L100.46,73.33z M102.31,73.83
				c0.21-0.12,0.28-0.41,0.15-0.63c-0.12-0.21-0.4-0.27-0.61-0.15l-0.64,0.38l0.46,0.78L102.31,73.83z"/>
			<path class="st2" d="M103.3,71.41c-0.03-0.03-0.04-0.09,0-0.12l0.73-0.75c0.38-0.39,0.93-0.44,1.27-0.1
				c0.25,0.24,0.25,0.64,0.17,0.86c0.22-0.12,0.65-0.2,0.95,0.09c0.37,0.36,0.33,0.93-0.06,1.33l-0.77,0.79
				c-0.03,0.04-0.09,0.03-0.12,0L103.3,71.41z M104.95,71.51c0.16-0.17,0.14-0.41-0.02-0.57c-0.16-0.16-0.39-0.16-0.55,0.01
				l-0.34,0.35l0.57,0.56L104.95,71.51z M105.94,72.38c0.16-0.16,0.16-0.42-0.01-0.58c-0.16-0.16-0.44-0.11-0.61,0.06l-0.35,0.36
				l0.58,0.56L105.94,72.38z"/>
			<path class="st2" d="M106.47,68.22c0.31-0.86,1.24-1.3,2.1-0.99c0.86,0.31,1.3,1.24,0.99,2.1c-0.31,0.86-1.23,1.3-2.09,0.99
				C106.61,70.01,106.16,69.08,106.47,68.22z M109,69.12c0.19-0.54-0.09-1.15-0.63-1.34c-0.54-0.19-1.15,0.09-1.34,0.63
				s0.1,1.14,0.64,1.34C108.21,69.95,108.81,69.66,109,69.12z"/>
			<path class="st2" d="M108.3,65.85c-0.04-0.01-0.06-0.07-0.05-0.11l0.04-0.11l2.53-1.13l0,0l-1.78-0.62
				c-0.04-0.02-0.07-0.06-0.05-0.11l0.14-0.4c0.02-0.04,0.07-0.07,0.11-0.05l2.89,1.01c0.04,0.02,0.06,0.07,0.05,0.11l-0.04,0.1
				l-2.6,1.11l0,0l1.85,0.65c0.04,0.02,0.07,0.06,0.05,0.11l-0.14,0.39c-0.01,0.04-0.07,0.07-0.11,0.05L108.3,65.85z"/>
			<path class="st2" d="M109.85,62.02c-0.05,0-0.08-0.05-0.07-0.09l0.01-0.11l2.19-1.69l0,0l-1.87-0.19c-0.05,0-0.08-0.04-0.08-0.09
				l0.04-0.42c0-0.05,0.05-0.08,0.09-0.08l3.05,0.31c0.05,0,0.08,0.05,0.07,0.09l-0.01,0.11l-2.27,1.69l0,0l1.95,0.2
				c0.05,0,0.08,0.05,0.08,0.1l-0.04,0.41c0,0.05-0.05,0.08-0.09,0.08L109.85,62.02z"/>
			<path class="st2" d="M110.54,57.77c-0.05,0-0.09-0.03-0.09-0.08l-0.16-1.85c0-0.05,0.03-0.09,0.08-0.09l0.37-0.03
				c0.05,0,0.09,0.03,0.09,0.08l0.11,1.35l0.74-0.06l-0.1-1.12c0-0.05,0.03-0.09,0.08-0.09l0.38-0.03c0.05,0,0.09,0.03,0.09,0.08
				l0.1,1.12l0.79-0.07l-0.11-1.35c0-0.05,0.03-0.09,0.08-0.09l0.37-0.03c0.05,0,0.09,0.03,0.09,0.08l0.16,1.85
				c0,0.05-0.03,0.09-0.08,0.09L110.54,57.77z"/>
			<path class="st2" d="M59.75,53.43c0.12,0,0.22,0.1,0.22,0.23l-0.01,1.4c0,0.12-0.11,0.22-0.23,0.22l-6.28-0.04l-0.02,2.8
				c0,0.13-0.11,0.22-0.23,0.22l-1.28-0.01c-0.12,0-0.22-0.1-0.22-0.23l0.03-4.42c0-0.13,0.11-0.22,0.23-0.22L59.75,53.43z"/>
			<path class="st2" d="M51.76,61.13l8.68,0.95c0.08,0.01,0.16,0.07,0.19,0.15l0.04,0.11c0.03,0.08,0,0.17-0.06,0.23l-6.32,6.02
				c-0.12,0.12-0.3,0.08-0.35-0.09l-0.42-1.24c-0.07-0.2-0.03-0.31,0.15-0.48l0.74-0.7l-1.02-3.03l-1.03-0.1
				c-0.15-0.01-0.33-0.09-0.4-0.31l-0.41-1.23C51.48,61.25,51.59,61.11,51.76,61.13z M55.69,64.9l1.55-1.47l0-0.01l-2.12-0.21
				L55.69,64.9z"/>
			<path class="st2" d="M63.36,70.99c0.1-0.07,0.24-0.05,0.31,0.06l1.99,2.9c0.8,1.16,0.51,2.76-0.64,3.55
				c-0.89,0.61-2.02,0.52-2.93-0.09l-1.55,3.02c-0.08,0.15-0.28,0.19-0.39,0.03l-0.89-1.29c-0.05-0.08-0.04-0.17-0.02-0.22
				l1.68-3.06l-0.46-0.67l-2.47,1.7c-0.1,0.07-0.24,0.04-0.31-0.06l-0.79-1.15c-0.07-0.11-0.04-0.24,0.06-0.31L63.36,70.99z
				 M62.68,75.82c0.27,0.4,0.88,0.48,1.28,0.2c0.41-0.28,0.5-0.85,0.23-1.24l-0.99-1.43l-1.51,1.04L62.68,75.82z"/>
			<path class="st2" d="M68.01,77.79c0.07-0.09,0.21-0.12,0.31-0.04l3.88,2.94c0.1,0.08,0.11,0.22,0.04,0.31l-0.77,1.02
				c-0.07,0.09-0.21,0.12-0.31,0.04l-2.6-1.97l-0.88,1.16l2.14,1.62c0.09,0.07,0.11,0.22,0.04,0.31l-0.77,1.02
				c-0.08,0.1-0.22,0.11-0.31,0.04l-2.14-1.62l-0.96,1.27l2.6,1.97c0.1,0.08,0.11,0.22,0.04,0.31l-0.77,1.02
				c-0.07,0.09-0.21,0.12-0.31,0.04l-3.88-2.94c-0.1-0.08-0.11-0.22-0.04-0.31L68.01,77.79z"/>
			<path class="st2" d="M77.39,83.95c1.04,0.55,1.64,1.28,2,2.3c0.05,0.13-0.02,0.26-0.14,0.3l-1.26,0.41
				c-0.11,0.03-0.23-0.03-0.26-0.14c-0.2-0.55-0.61-1-1.12-1.27c-1.17-0.62-2.55-0.1-3.17,1.06c-0.61,1.15-0.24,2.57,0.93,3.19
				c0.49,0.26,1.11,0.36,1.66,0.24c0.11-0.02,0.24,0.05,0.26,0.15l0.35,1.29c0.03,0.11-0.05,0.24-0.16,0.28
				c-1.07,0.31-2.13,0.16-3.06-0.33c-2.08-1.1-2.88-3.64-1.78-5.72S75.31,82.85,77.39,83.95z"/>
			<path class="st2" d="M82.81,86.42c0.01-0.12,0.13-0.21,0.25-0.2l1.39,0.15c0.13,0.01,0.21,0.13,0.2,0.25l-0.32,2.95l3.34,0.36
				l0.32-2.95c0.01-0.12,0.12-0.21,0.25-0.2l1.39,0.15c0.12,0.01,0.21,0.13,0.2,0.25l-0.84,7.74c-0.01,0.12-0.13,0.21-0.25,0.2
				l-1.39-0.15c-0.13-0.01-0.21-0.13-0.2-0.25l0.33-3.08l-3.34-0.36l-0.33,3.08c-0.01,0.12-0.12,0.21-0.25,0.2l-1.39-0.15
				c-0.12-0.01-0.21-0.13-0.2-0.25L82.81,86.42z"/>
			<path class="st2" d="M94.12,86.91c-0.02-0.12,0.06-0.24,0.18-0.26l4.81-0.78c0.13-0.02,0.24,0.07,0.26,0.18l0.21,1.27
				c0.02,0.12-0.06,0.24-0.18,0.26l-3.22,0.52l0.23,1.44l2.65-0.43c0.12-0.02,0.24,0.07,0.26,0.18l0.21,1.27
				c0.02,0.13-0.07,0.24-0.18,0.26l-2.65,0.43l0.26,1.57l3.22-0.52c0.13-0.02,0.24,0.07,0.26,0.18l0.21,1.27
				c0.02,0.12-0.06,0.24-0.18,0.26l-4.81,0.78c-0.13,0.02-0.24-0.07-0.26-0.18L94.12,86.91z"/>
			<path class="st2" d="M102.87,84.76c-0.05-0.11-0.01-0.24,0.11-0.3l3.18-1.5c1.28-0.6,2.81-0.06,3.4,1.21
				c0.46,0.98,0.18,2.07-0.57,2.88l2.73,2.02c0.14,0.1,0.15,0.31-0.04,0.39l-1.42,0.67c-0.09,0.04-0.17,0.02-0.22-0.02l-2.74-2.15
				l-0.73,0.35l1.28,2.71c0.05,0.11,0,0.25-0.11,0.3l-1.27,0.6c-0.12,0.06-0.25,0-0.3-0.11L102.87,84.76z M107.52,86.21
				c0.44-0.21,0.62-0.79,0.41-1.23c-0.21-0.45-0.75-0.63-1.19-0.43l-1.58,0.74l0.78,1.66L107.52,86.21z"/>
			<path class="st2" d="M113.55,77.34c0.9-0.76,1.8-1.05,2.88-1.01c0.14,0,0.23,0.11,0.22,0.24l-0.08,1.32
				c-0.01,0.12-0.11,0.2-0.22,0.19c-0.58-0.01-1.16,0.2-1.6,0.57c-1.01,0.86-1.04,2.33-0.19,3.34c0.84,1,2.3,1.18,3.31,0.32
				c0.42-0.36,0.75-0.9,0.84-1.45c0.02-0.11,0.13-0.21,0.24-0.19l1.33,0.15c0.12,0.01,0.21,0.13,0.2,0.25
				c-0.11,1.11-0.64,2.04-1.44,2.72c-1.79,1.52-4.45,1.32-5.97-0.48C111.53,81.53,111.75,78.86,113.55,77.34z"/>
			<path class="st2" d="M117.17,74.19c-0.11-0.05-0.15-0.19-0.1-0.3l0.62-1.25c0.06-0.12,0.19-0.15,0.3-0.1l2.66,1.31l1.49-3.02
				l-2.66-1.31c-0.11-0.05-0.16-0.18-0.1-0.3l0.62-1.25c0.05-0.11,0.19-0.15,0.3-0.1l6.98,3.45c0.11,0.05,0.15,0.19,0.1,0.3
				l-0.62,1.25c-0.06,0.12-0.19,0.15-0.3,0.1l-2.77-1.37l-1.49,3.02l2.77,1.37c0.11,0.05,0.16,0.18,0.1,0.3l-0.62,1.25
				c-0.05,0.11-0.19,0.15-0.3,0.1L117.17,74.19z"/>
			<path class="st2" d="M121.48,64.52c-0.11-0.03-0.19-0.15-0.15-0.28l1.36-4.68c0.04-0.12,0.16-0.19,0.28-0.15l1.23,0.36
				c0.11,0.03,0.19,0.15,0.15,0.28l-0.91,3.13l1.4,0.41l0.75-2.58c0.03-0.11,0.16-0.19,0.28-0.15l1.23,0.36
				c0.12,0.04,0.19,0.16,0.15,0.28l-0.75,2.58l1.53,0.44l0.91-3.13c0.04-0.12,0.16-0.19,0.28-0.15l1.23,0.36
				c0.11,0.03,0.19,0.15,0.15,0.28l-1.36,4.68c-0.04,0.12-0.16,0.19-0.28,0.15L121.48,64.52z"/>
		</g>
	</g>
</g>
<g id="Calque_1_-_copie">
	<g>
		<path class="st3" d="M80.69,30.25c15.9,0,28.55,12.98,28.55,28.55c0,15.9-12.65,28.55-28.55,28.55
			c-15.9,0-28.55-12.65-28.55-28.55C52.14,43.22,64.79,30.25,80.69,30.25z M35.6,81.5l41.85,82.08c0.97,1.62,2.27,1.95,2.92,1.95
			c0.32,0,0.97,0,1.3-0.32c0.65-0.32,1.3-0.65,1.62-1.62c0.32-0.65,34.06-66.5,41.85-82.08c7.14-14.6,7.14-30.49,0-45.09
			c-4.54-8.76-11.03-15.57-18.82-20.44c-7.79-4.87-16.87-7.14-25.95-7.14c-7.46,0-15.25,1.62-22.38,5.19
			C46.3,19.87,37.22,30.25,33,43.22C29.11,56.2,29.76,70.15,35.6,81.5z"/>
		<path class="st6" d="M90.2,25.48c16.69,0,29.98,13.63,29.98,29.98c0,16.69-13.29,29.98-29.98,29.98
			c-16.69,0-29.98-13.29-29.98-29.98C60.22,39.11,73.51,25.48,90.2,25.48z M42.85,79.3l43.94,86.18c1.02,1.7,2.38,2.04,3.07,2.04
			c0.34,0,1.02,0,1.36-0.34c0.68-0.34,1.36-0.68,1.7-1.7c0.34-0.68,35.77-69.83,43.94-86.18c7.49-15.33,7.49-32.02,0-47.35
			c-4.77-9.2-11.58-16.35-19.76-21.46C108.93,5.38,99.4,3,89.86,3c-7.83,0-16.01,1.7-23.5,5.45c-12.26,6.13-21.8,17.03-26.23,30.66
			C36.04,52.73,36.72,67.38,42.85,79.3z"/>
		<circle class="st7" cx="90.61" cy="55.87" r="44.38"/>
		<circle class="st8" cx="90.61" cy="55.87" r="26.54"/>
		<g>
			<path class="st9" d="M90.61,36.75c0.35,0,0.63-0.28,0.63-0.63c0-0.35-0.28-0.63-0.63-0.63c-0.35,0-0.63,0.28-0.63,0.63
				C89.97,36.47,90.26,36.75,90.61,36.75"/>
			<g>
				<path class="st9" d="M77.43,72.04c0.83-1,2.4-3.05,3.24-4.17c0.39-0.48,0.64-0.96,0.64-1.39c0-0.56-0.43-1.14-1.33-1.14
					c-0.6,0-1.11,0.43-1.4,0.74c-0.1,0.1-0.24,0.1-0.34,0l-0.6-0.6c-0.08-0.08-0.1-0.23-0.01-0.33c0,0,0.98-1.23,2.46-1.23
					c1.79,0,2.79,1.14,2.79,2.49c0,0.81-0.35,1.33-0.84,2.03c-0.54,0.76-1.49,1.94-2.15,2.78h2.7c0.13,0,0.24,0.11,0.24,0.24v0.86
					c0,0.13-0.11,0.24-0.24,0.24h-4.93c-0.14,0-0.24-0.11-0.24-0.24V72.04z"/>
				<path class="st9" d="M84.91,68.31c0-2.74,1.15-4.38,3.15-4.38c2,0,3.15,1.64,3.15,4.38s-1.15,4.38-3.15,4.38
					C86.06,72.69,84.91,71.05,84.91,68.31z M89.57,68.31c0-1.85-0.55-2.9-1.51-2.9c-0.96,0-1.51,1.05-1.51,2.9
					c0,1.86,0.55,2.9,1.51,2.9C89.02,71.21,89.57,70.18,89.57,68.31z"/>
				<path class="st9" d="M94.37,66.33l-1.1,0.24c-0.11,0.02-0.24-0.05-0.25-0.16l-0.07-0.61c-0.01-0.1,0.01-0.17,0.06-0.22l1.8-1.51
					h0.88c0.13,0,0.22,0.11,0.22,0.24v8.03c0,0.13-0.1,0.24-0.22,0.24H94.6c-0.14,0-0.24-0.11-0.24-0.24V66.33z"/>
				<path class="st9" d="M99.8,68.2v-0.04c-0.51-0.28-1.29-0.96-1.29-1.94c0-1.39,1.2-2.29,2.71-2.29c1.56,0,2.77,0.9,2.77,2.29
					c0,0.95-0.78,1.63-1.29,1.93v0.05c0.56,0.29,1.51,1.01,1.51,2.09c0,1.36-1.15,2.4-2.99,2.4c-1.79,0-2.94-1.04-2.94-2.4
					C98.28,69.2,99.45,68.37,99.8,68.2z M101.25,71.41c0.69,0,1.3-0.46,1.3-1.15c0-0.56-0.46-1.14-1.3-1.33
					c-0.84,0.19-1.3,0.76-1.3,1.33C99.95,70.95,100.57,71.41,101.25,71.41z M102.39,66.28c0-0.6-0.51-1.06-1.16-1.06
					c-0.6,0-1.11,0.46-1.11,1.06c0,0.56,0.35,1,1.14,1.19C102.02,67.3,102.39,66.82,102.39,66.28z"/>
				<polygon class="st9" points="90.61,55.63 74.65,62.27 106.57,62.27 				"/>
				<path class="st9" d="M88.77,43.42c0-0.18,0.06-0.44,0.39-0.44c0.33,0,0.39,0.26,0.39,0.44v2.72c-0.26,0.02-0.53,0.06-0.79,0.1
					V43.42z M90.08,43.24c0-0.26,0.09-0.62,0.55-0.62c0.46,0,0.55,0.36,0.55,0.62v2.87c-0.18-0.01-0.36-0.01-0.55-0.01
					c-0.18,0-0.37,0.01-0.55,0.01V43.24z M91.67,43.42c0-0.18,0.06-0.44,0.39-0.44c0.33,0,0.39,0.26,0.39,0.44v2.82
					c-0.26-0.04-0.52-0.08-0.79-0.1V43.42z M94.19,49.49v-2.8l-0.99-0.97V42.3l0.49-0.48c-0.07-0.07-1.7-1.88-2.25-4.35h-1.68
					c-0.53,2.37-2.05,4.13-2.24,4.34l0,0.01l0.5,0.49v3.42l-0.99,0.97v2.8c-4.18,1.39-7.29,5.15-7.72,9.69l10.9-4.54l0.41-0.17
					l0.41,0.17l10.9,4.54C101.48,54.64,98.38,50.88,94.19,49.49"/>
			</g>
		</g>
		<path class="st9" d="M119.15,30c0.09-0.07,0.24-0.06,0.31,0.03l1.76,2.29c1.39,1.81,1.06,4.43-0.74,5.81
			c-1.82,1.4-4.43,1.05-5.83-0.76l-1.76-2.29c-0.07-0.09-0.05-0.23,0.05-0.31L119.15,30z M115.96,36.21
			c0.82,1.06,2.24,1.19,3.31,0.36c1.06-0.82,1.3-2.23,0.49-3.29l-0.69-0.9l-3.8,2.92L115.96,36.21z"/>
		<g>
			<path class="st9" d="M61.4,43L57,35.4c-0.04-0.07-0.04-0.17,0.01-0.24l0.07-0.1c0.05-0.07,0.14-0.1,0.22-0.09l8.65,1.53
				c0.17,0.03,0.24,0.2,0.14,0.34l-0.75,1.08c-0.12,0.17-0.23,0.21-0.48,0.17l-1.01-0.19L62,40.54l0.53,0.89
				c0.08,0.13,0.12,0.32-0.01,0.51l-0.75,1.07C61.67,43.15,61.49,43.14,61.4,43z M62.12,37.56L60,37.18l-0.01,0.01l1.09,1.85
				L62.12,37.56z"/>
			<path class="st9" d="M67.33,33.91l-0.2-1.11c-0.03-0.18,0.16-0.3,0.26-0.31c0.05-0.01,1.11-0.08,1.71-0.58
				c0.36-0.3,0.44-0.75,0.17-1.07c-0.32-0.38-0.88-0.41-1.7-0.14c-1.04,0.34-2.53,0.55-3.44-0.54c-0.75-0.9-0.81-2.39,0.59-3.56
				c0.95-0.79,2.07-0.91,2.51-0.94c0.16-0.03,0.28,0.15,0.3,0.25L67.66,27c0.02,0.15-0.08,0.37-0.21,0.38
				c-0.12,0.02-1.2,0.08-1.75,0.54c-0.33,0.27-0.39,0.7-0.19,0.94c0.28,0.34,0.77,0.36,1.73,0.06c0.94-0.31,2.53-0.69,3.56,0.54
				c0.78,0.94,0.76,2.56-0.58,3.67c-1.18,0.99-2.25,1.04-2.63,1.01C67.42,34.11,67.37,34.1,67.33,33.91z"/>
			<path class="st9" d="M74.53,28.59l0.07-1.13c0.02-0.18,0.23-0.26,0.33-0.24c0.05,0,1.09,0.19,1.8-0.15
				c0.43-0.21,0.61-0.62,0.42-1c-0.22-0.45-0.76-0.61-1.62-0.54c-1.09,0.08-2.59-0.07-3.21-1.35c-0.51-1.05-0.21-2.52,1.43-3.31
				c1.11-0.54,2.23-0.39,2.67-0.31c0.16,0.01,0.24,0.21,0.23,0.31l-0.15,1.08c-0.02,0.15-0.16,0.34-0.29,0.31
				c-0.12-0.01-1.18-0.21-1.83,0.1c-0.38,0.19-0.55,0.58-0.41,0.87c0.19,0.39,0.66,0.54,1.66,0.47c0.99-0.07,2.63-0.06,3.33,1.38
				c0.53,1.1,0.12,2.66-1.44,3.42c-1.38,0.67-2.43,0.47-2.79,0.34C74.57,28.81,74.51,28.78,74.53,28.59z"/>
			<path class="st9" d="M81.45,18.8c-0.03-0.11,0.05-0.24,0.16-0.27l1.38-0.35c0.11-0.03,0.24,0.05,0.27,0.16l1.93,7.59
				c0.03,0.11-0.05,0.24-0.16,0.27l-1.38,0.35c-0.11,0.03-0.24-0.05-0.27-0.16L81.45,18.8z"/>
			<path class="st9" d="M87.71,24.83l0.51-1.01c0.09-0.16,0.31-0.14,0.4-0.09c0.05,0.02,0.93,0.61,1.71,0.58
				c0.47-0.02,0.8-0.33,0.78-0.75c-0.02-0.5-0.45-0.86-1.27-1.14c-1.03-0.36-2.35-1.09-2.41-2.51c-0.05-1.17,0.81-2.39,2.63-2.47
				c1.23-0.05,2.2,0.53,2.57,0.77c0.15,0.08,0.13,0.29,0.09,0.38l-0.56,0.94c-0.08,0.13-0.29,0.25-0.4,0.17
				c-0.11-0.05-1-0.67-1.72-0.63c-0.43,0.02-0.73,0.32-0.72,0.64c0.02,0.44,0.39,0.75,1.34,1.09c0.94,0.33,2.44,0.98,2.51,2.59
				c0.05,1.22-0.94,2.49-2.68,2.57c-1.54,0.07-2.42-0.53-2.7-0.79C87.66,25.04,87.62,25,87.71,24.83z"/>
			<path class="st9" d="M97.29,17.7c0.02-0.12,0.14-0.2,0.27-0.17l4.79,1.01c0.13,0.03,0.2,0.15,0.17,0.27l-0.27,1.26
				c-0.02,0.12-0.14,0.2-0.27,0.17l-3.21-0.67L98.48,21l2.64,0.56c0.12,0.02,0.2,0.15,0.17,0.27l-0.27,1.26
				c-0.03,0.13-0.15,0.2-0.27,0.17l-2.64-0.56l-0.33,1.56l3.21,0.67c0.13,0.03,0.2,0.15,0.17,0.27l-0.27,1.26
				c-0.02,0.12-0.14,0.2-0.27,0.17l-4.79-1.01c-0.13-0.03-0.2-0.15-0.17-0.27L97.29,17.7z"/>
			<path class="st9" d="M103.56,27.07l0.94-0.63c0.15-0.1,0.34,0.03,0.39,0.12c0.03,0.04,0.51,0.99,1.21,1.34
				c0.42,0.21,0.86,0.1,1.05-0.27c0.22-0.44,0.02-0.97-0.55-1.62c-0.73-0.82-1.52-2.1-0.88-3.37c0.53-1.05,1.87-1.7,3.5-0.88
				c1.1,0.55,1.67,1.54,1.87,1.93c0.09,0.14-0.03,0.32-0.11,0.37l-0.95,0.54c-0.13,0.08-0.37,0.08-0.43-0.04
				c-0.07-0.1-0.55-1.07-1.19-1.39c-0.38-0.19-0.79-0.08-0.94,0.21c-0.2,0.39-0.03,0.85,0.64,1.6c0.66,0.74,1.65,2.05,0.93,3.48
				c-0.55,1.09-2.04,1.72-3.6,0.94c-1.38-0.69-1.85-1.64-1.97-2.01C103.41,27.24,103.4,27.18,103.56,27.07z"/>
			<path class="st9" d="M125.62,39.81c0.11-0.04,0.24,0.01,0.29,0.13l1.79,4.56c0.05,0.12-0.02,0.25-0.13,0.29l-1.2,0.47
				c-0.11,0.04-0.24-0.01-0.29-0.13l-1.19-3.05l-1.37,0.53l0.98,2.51c0.04,0.11-0.02,0.25-0.13,0.29l-1.2,0.47
				c-0.12,0.05-0.25-0.02-0.29-0.13l-0.98-2.51l-1.49,0.58l1.19,3.05c0.05,0.12-0.02,0.25-0.13,0.29l-1.2,0.47
				c-0.11,0.04-0.24-0.01-0.29-0.13l-1.79-4.56c-0.05-0.12,0.02-0.25,0.13-0.29L125.62,39.81z"/>
			<path class="st9" d="M59.75,53.43c0.12,0,0.22,0.1,0.22,0.23l-0.01,1.4c0,0.12-0.11,0.22-0.23,0.22l-6.28-0.04l-0.02,2.8
				c0,0.13-0.11,0.22-0.23,0.22l-1.28-0.01c-0.12,0-0.22-0.1-0.22-0.23l0.03-4.42c0-0.13,0.11-0.22,0.23-0.22L59.75,53.43z"/>
			<path class="st9" d="M51.76,61.13l8.68,0.95c0.08,0.01,0.16,0.07,0.19,0.15l0.04,0.11c0.03,0.08,0,0.17-0.06,0.23l-6.32,6.02
				c-0.12,0.12-0.3,0.08-0.35-0.09l-0.42-1.24c-0.07-0.2-0.03-0.31,0.15-0.48l0.74-0.7l-1.02-3.03l-1.03-0.1
				c-0.15-0.01-0.33-0.09-0.4-0.31l-0.41-1.23C51.48,61.25,51.59,61.11,51.76,61.13z M55.69,64.9l1.55-1.47l0-0.01l-2.12-0.21
				L55.69,64.9z"/>
			<path class="st9" d="M63.36,70.99c0.1-0.07,0.24-0.05,0.31,0.06l1.99,2.9c0.8,1.16,0.51,2.76-0.64,3.55
				c-0.89,0.61-2.02,0.52-2.93-0.09l-1.55,3.02c-0.08,0.15-0.28,0.19-0.39,0.03l-0.89-1.29c-0.05-0.08-0.04-0.17-0.02-0.22
				l1.68-3.06l-0.46-0.67l-2.47,1.7c-0.1,0.07-0.24,0.04-0.31-0.06l-0.79-1.15c-0.07-0.11-0.04-0.24,0.06-0.31L63.36,70.99z
				 M62.68,75.82c0.27,0.4,0.88,0.48,1.28,0.2c0.41-0.28,0.5-0.85,0.23-1.24l-0.99-1.43l-1.51,1.04L62.68,75.82z"/>
			<path class="st9" d="M68.01,77.79c0.07-0.09,0.21-0.12,0.31-0.04l3.88,2.94c0.1,0.08,0.11,0.22,0.04,0.31l-0.77,1.02
				c-0.07,0.09-0.21,0.12-0.31,0.04l-2.6-1.97l-0.88,1.16l2.14,1.62c0.09,0.07,0.11,0.22,0.04,0.31l-0.77,1.02
				c-0.08,0.1-0.22,0.11-0.31,0.04l-2.14-1.62l-0.96,1.27l2.6,1.97c0.1,0.08,0.11,0.22,0.04,0.31l-0.77,1.02
				c-0.07,0.09-0.21,0.12-0.31,0.04l-3.88-2.94c-0.1-0.08-0.11-0.22-0.04-0.31L68.01,77.79z"/>
			<path class="st9" d="M77.39,83.95c1.04,0.55,1.64,1.28,2,2.3c0.05,0.13-0.02,0.26-0.14,0.3l-1.26,0.41
				c-0.11,0.03-0.23-0.03-0.26-0.14c-0.2-0.55-0.61-1-1.12-1.27c-1.17-0.62-2.55-0.1-3.17,1.06c-0.61,1.15-0.24,2.57,0.93,3.19
				c0.49,0.26,1.11,0.36,1.66,0.24c0.11-0.02,0.24,0.05,0.26,0.15l0.35,1.29c0.03,0.11-0.05,0.24-0.16,0.28
				c-1.07,0.31-2.13,0.16-3.06-0.33c-2.08-1.1-2.88-3.64-1.78-5.72S75.31,82.85,77.39,83.95z"/>
			<path class="st9" d="M82.81,86.42c0.01-0.12,0.13-0.21,0.25-0.2l1.39,0.15c0.13,0.01,0.21,0.13,0.2,0.25l-0.32,2.95l3.34,0.36
				l0.32-2.95c0.01-0.12,0.12-0.21,0.25-0.2l1.39,0.15c0.12,0.01,0.21,0.13,0.2,0.25l-0.84,7.74c-0.01,0.12-0.13,0.21-0.25,0.2
				l-1.39-0.15c-0.13-0.01-0.21-0.13-0.2-0.25l0.33-3.08l-3.34-0.36l-0.33,3.08c-0.01,0.12-0.12,0.21-0.25,0.2l-1.39-0.15
				c-0.12-0.01-0.21-0.13-0.2-0.25L82.81,86.42z"/>
			<path class="st9" d="M94.12,86.91c-0.02-0.12,0.06-0.24,0.18-0.26l4.81-0.78c0.13-0.02,0.24,0.07,0.26,0.18l0.21,1.27
				c0.02,0.12-0.06,0.24-0.18,0.26l-3.22,0.52l0.23,1.44l2.65-0.43c0.12-0.02,0.24,0.07,0.26,0.18l0.21,1.27
				c0.02,0.13-0.07,0.24-0.18,0.26l-2.65,0.43l0.26,1.57l3.22-0.52c0.13-0.02,0.24,0.07,0.26,0.18l0.21,1.27
				c0.02,0.12-0.06,0.24-0.18,0.26l-4.81,0.78c-0.13,0.02-0.24-0.07-0.26-0.18L94.12,86.91z"/>
			<path class="st9" d="M102.87,84.76c-0.05-0.11-0.01-0.24,0.11-0.3l3.18-1.5c1.28-0.6,2.81-0.06,3.4,1.21
				c0.46,0.98,0.18,2.07-0.57,2.88l2.73,2.02c0.14,0.1,0.15,0.31-0.04,0.39l-1.42,0.67c-0.09,0.04-0.17,0.02-0.22-0.02l-2.74-2.15
				l-0.73,0.35l1.28,2.71c0.05,0.11,0,0.25-0.11,0.3l-1.27,0.6c-0.12,0.06-0.25,0-0.3-0.11L102.87,84.76z M107.52,86.21
				c0.44-0.21,0.62-0.79,0.41-1.23c-0.21-0.45-0.75-0.63-1.19-0.43l-1.58,0.74l0.78,1.66L107.52,86.21z"/>
			<path class="st9" d="M113.55,77.34c0.9-0.76,1.8-1.05,2.88-1.01c0.14,0,0.23,0.11,0.22,0.24l-0.08,1.32
				c-0.01,0.12-0.11,0.2-0.22,0.19c-0.58-0.01-1.16,0.2-1.6,0.57c-1.01,0.86-1.04,2.33-0.19,3.34c0.84,1,2.3,1.18,3.31,0.32
				c0.42-0.36,0.75-0.9,0.84-1.45c0.02-0.11,0.13-0.21,0.24-0.19l1.33,0.15c0.12,0.01,0.21,0.13,0.2,0.25
				c-0.11,1.11-0.64,2.04-1.44,2.72c-1.79,1.52-4.45,1.32-5.97-0.48C111.53,81.53,111.75,78.86,113.55,77.34z"/>
			<path class="st9" d="M117.17,74.19c-0.11-0.05-0.15-0.19-0.1-0.3l0.62-1.25c0.06-0.12,0.19-0.15,0.3-0.1l2.66,1.31l1.49-3.02
				l-2.66-1.31c-0.11-0.05-0.16-0.18-0.1-0.3l0.62-1.25c0.05-0.11,0.19-0.15,0.3-0.1l6.98,3.45c0.11,0.05,0.15,0.19,0.1,0.3
				l-0.62,1.25c-0.06,0.12-0.19,0.15-0.3,0.1l-2.77-1.37l-1.49,3.02l2.77,1.37c0.11,0.05,0.16,0.18,0.1,0.3l-0.62,1.25
				c-0.05,0.11-0.19,0.15-0.3,0.1L117.17,74.19z"/>
			<path class="st9" d="M121.48,64.52c-0.11-0.03-0.19-0.15-0.15-0.28l1.36-4.68c0.04-0.12,0.16-0.19,0.28-0.15l1.23,0.36
				c0.11,0.03,0.19,0.15,0.15,0.28l-0.91,3.13l1.4,0.41l0.75-2.58c0.03-0.11,0.16-0.19,0.28-0.15l1.23,0.36
				c0.12,0.04,0.19,0.16,0.15,0.28l-0.75,2.58l1.53,0.44l0.91-3.13c0.04-0.12,0.16-0.19,0.28-0.15l1.23,0.36
				c0.11,0.03,0.19,0.15,0.15,0.28l-1.36,4.68c-0.04,0.12-0.16,0.19-0.28,0.15L121.48,64.52z"/>
		</g>
	</g>
</g>
</svg>
