<svg width="20" height="13" viewBox="0 0 20 13" fill="none" xmlns="http://www.w3.org/2000/svg">
<path fill-rule="evenodd" clip-rule="evenodd" d="M5.77701 3.141C5.75801 3.022 5.69801 3.022 5.62001 3.022H3.88001L3.88101 3.021C3.76201 3.021 3.70401 3.061 3.64401 3.161C3.15051 3.996 2.65676 4.83601 2.16301 5.67601C1.66926 6.51601 1.17551 7.356 0.682013 8.191C0.652288 8.24088 0.617488 8.29075 0.582598 8.34076C0.548234 8.39001 0.513785 8.43938 0.484013 8.489V8.586C0.482468 8.77287 0.489142 8.95972 0.504013 9.146H1.76801C1.88601 9.146 1.92601 9.106 1.98501 9.006L2.57801 7.933C2.59701 7.893 2.67601 7.833 2.73601 7.833H4.84801C4.94701 7.833 4.96701 7.872 4.98701 7.972C5.00297 8.11031 5.01893 8.25196 5.03496 8.39423C5.0581 8.59963 5.08138 8.80631 5.10501 9.006C5.12501 9.106 5.16401 9.146 5.26301 9.146H6.64601C6.6543 9.146 6.66584 9.14257 6.67937 9.13855C6.69849 9.13286 6.72158 9.126 6.74501 9.126V9.086C6.40901 7.117 6.09301 5.129 5.77701 3.141ZM3.26901 6.68C3.70301 5.884 4.11801 5.109 4.53201 4.334H4.57201M4.58221 4.43422C4.65777 5.17676 4.73332 5.91922 4.82901 6.68H3.26901" fill="white"/>
<path fill-rule="evenodd" clip-rule="evenodd" d="M12.509 3.638C11.839 3.161 11.089 2.982 10.279 2.982H7.33601C7.21801 2.982 7.17901 3.041 7.17901 3.161V8.986C7.17901 9.105 7.19801 9.145 7.33601 9.145H10.239C11.009 9.145 11.72 8.986 12.372 8.588C14.209 7.455 14.189 4.791 12.509 3.638ZM9.60951 7.64063C9.49856 7.63734 9.38605 7.634 9.27201 7.634V4.493C9.43801 4.507 9.603 4.504 9.768 4.501C10.0717 4.49501 10.3713 4.48909 10.654 4.592C11.108 4.751 11.404 5.05 11.542 5.506C11.759 6.183 11.582 6.958 11.049 7.336C10.851 7.475 10.614 7.594 10.397 7.614C10.245 7.64 10.089 7.647 9.92901 7.647C9.82397 7.647 9.71747 7.64384 9.60951 7.64063Z" fill="white"/>
<path d="M14.011 0.0200962C13.9913 0.0150639 13.9716 0.0100641 13.952 0H13.891C13.9101 0.00980758 13.9295 0.0244246 13.949 0.0391342C13.9692 0.0544209 13.9896 0.0698076 14.01 0.08C14.7651 0.445417 15.4531 0.935633 16.045 1.53C18.019 3.459 18.552 6.441 17.348 8.867C16.637 10.278 15.531 11.292 14.149 12.027C14.1191 12.0473 14.0893 12.0624 14.0592 12.0776C14.03 12.0924 14.0006 12.1073 13.971 12.127C14.0035 12.1399 14.0381 12.1467 14.073 12.147H14.09C15.314 11.948 16.4 11.491 17.368 10.696C18.434 9.801 19.164 8.688 19.382 7.296C19.4016 7.16661 19.4164 7.03722 19.4311 6.90771C19.4459 6.77897 19.4606 6.65011 19.48 6.521V5.626C19.4611 5.50051 19.4469 5.37994 19.4327 5.25965C19.4177 5.13167 19.4026 5.00399 19.382 4.871C19.145 3.459 18.414 2.346 17.308 1.451C16.36 0.676 15.274 0.218 14.07 0.04C14.0501 0.0300641 14.0305 0.0250643 14.011 0.0200962Z" fill="white"/>
<path d="M13.536 1.709C13.0729 1.55088 12.5837 1.48332 12.095 1.51V1.511L12.115 1.531C12.826 1.849 13.418 2.306 13.951 2.862C14.6059 3.54084 15.0381 4.40329 15.19 5.3342C15.3419 6.26512 15.2062 7.22022 14.801 8.072C14.228 9.225 13.32 10.04 12.195 10.596C12.155 10.616 12.115 10.636 12.055 10.676C12.0584 10.6777 12.0615 10.6793 12.0644 10.6807C12.0845 10.6907 12.0921 10.6942 12.1001 10.6954C12.1043 10.696 12.1087 10.696 12.115 10.696C12.983 10.656 13.813 10.477 14.583 10.04C15.511 9.523 16.242 8.807 16.617 7.793C16.934 6.978 16.973 6.143 16.854 5.288C16.795 4.831 16.676 4.374 16.44 3.976C15.788 2.803 14.801 2.087 13.536 1.709Z" fill="white"/>
</svg>
