<svg width="16" height="16" viewBox="0 0 16 16" fill="none" xmlns="http://www.w3.org/2000/svg">
<g id="ear" clip-path="url(#clip0_3618_8779)">
<path id="Vector" d="M3.622 9.639C3.71 9.55 3.786 9.5 3.872 9.5C3.931 9.5 3.994 9.524 4.07 9.575C4.836 10.083 5.622 10.57 6.5 11.141C6.107 11.543 5.752 11.924 5.378 12.305C4.481 13.299 3.603 14.315 2.706 15.309C2.65 15.352 2.631 15.437 2.593 15.5H0.5V13.067C0.593 13.003 0.668 12.961 0.743 12.877C1.715 11.797 2.668 10.717 3.622 9.639ZM13.52 0.5H15.5V2.293C14.782 2.934 14.08 3.576 13.327 4.25C13.012 3.411 12.574 2.687 11.75 2.079C12.363 1.536 12.942 1.009 13.52 0.5V0.5ZM4.318 5.749C4.618 3.529 6.611 1.999 8.778 2C9.25173 2.00002 9.72262 2.07321 10.174 2.217C13.194 3.195 14.288 6.847 12.099 9.38C11.633 9.939 11.086 10.438 10.66 11.016C10.215 11.615 9.85 12.273 9.485 12.912C8.857 14.009 7.539 14.329 6.485 13.63C6.39916 13.5622 6.31798 13.4887 6.242 13.41C6.405 13.251 6.526 13.091 6.688 12.972C6.749 12.912 6.911 12.912 6.972 12.952C7.702 13.371 8.391 13.192 8.796 12.472C9.50234 11.1998 10.3821 10.032 11.41 9.002C12.484 7.924 12.788 6.387 12.2 4.991C11.633 3.634 10.275 2.736 8.776 2.736C6.79 2.736 5.108 4.312 5.026 6.267V6.926H4.946C4.156 6.487 4.196 6.686 4.318 5.749ZM5.995 5.109C6.584 4.058 7.488 3.5 8.642 3.5C8.741 3.5 8.841 3.504 8.942 3.512C10.221 3.616 11.128 4.3 11.56 5.545C11.932 6.602 11.746 7.577 11.107 8.49C10.942 8.739 10.757 8.863 10.489 8.614C10.406 8.531 10.282 8.49 10.097 8.407C10.86 7.743 11.087 6.934 10.901 6.042C10.777 5.379 10.365 4.882 9.788 4.57C9.087 4.176 8.365 4.197 7.665 4.528C6.985 4.86 6.552 5.441 6.407 6.208C6.345 6.188 6.304 6.167 6.263 6.146C5.645 5.794 5.624 5.752 5.995 5.109Z" fill="white"/>
</g>
<defs>
<clipPath id="clip0_3618_8779">
<rect width="15" height="15" fill="white" transform="translate(0.5 0.5)"/>
</clipPath>
</defs>
</svg>
