<svg width="24" height="23" viewBox="0 0 24 23" fill="none" xmlns="http://www.w3.org/2000/svg">
<path d="M7.75 12.75C7.75 13.3023 7.30228 13.75 6.75 13.75C6.19772 13.75 5.75 13.3023 5.75 12.75C5.75 12.1977 6.19772 11.75 6.75 11.75C7.30228 11.75 7.75 12.1977 7.75 12.75Z" fill="white"/>
<path d="M11.75 13.75C12.3023 13.75 12.75 13.3023 12.75 12.75C12.75 12.1977 12.3023 11.75 11.75 11.75C11.1977 11.75 10.75 12.1977 10.75 12.75C10.75 13.3023 11.1977 13.75 11.75 13.75Z" fill="white"/>
<path d="M17.75 12.75C17.75 13.3023 17.3023 13.75 16.75 13.75C16.1977 13.75 15.75 13.3023 15.75 12.75C15.75 12.1977 16.1977 11.75 16.75 11.75C17.3023 11.75 17.75 12.1977 17.75 12.75Z" fill="white"/>
<path d="M11.75 17.75C12.3023 17.75 12.75 17.3023 12.75 16.75C12.75 16.1977 12.3023 15.75 11.75 15.75C11.1977 15.75 10.75 16.1977 10.75 16.75C10.75 17.3023 11.1977 17.75 11.75 17.75Z" fill="white"/>
<path d="M7.75 16.75C7.75 17.3023 7.30228 17.75 6.75 17.75C6.19772 17.75 5.75 17.3023 5.75 16.75C5.75 16.1977 6.19772 15.75 6.75 15.75C7.30228 15.75 7.75 16.1977 7.75 16.75Z" fill="white"/>
<path fill-rule="evenodd" clip-rule="evenodd" d="M7.75 1C8.16421 1 8.5 1.33579 8.5 1.75V3H15V1.75C15 1.33579 15.3358 1 15.75 1C16.1642 1 16.5 1.33579 16.5 1.75V3H18.75C20.2692 3 21.5 4.23079 21.5 5.75V18.75C21.5 20.2692 20.2692 21.5 18.75 21.5H4.75C3.23079 21.5 2 20.2692 2 18.75V5.75C2 4.23079 3.23079 3 4.75 3H7V1.75C7 1.33579 7.33579 1 7.75 1ZM18.75 20C19.4408 20 20 19.4408 20 18.75V9.5H3.5V18.75C3.5 19.4408 4.05921 20 4.75 20H18.75ZM18.75 4.5C19.4408 4.5 20 5.05921 20 5.75V8H3.5V5.75C3.5 5.05921 4.05921 4.5 4.75 4.5H7V5.75C7 6.16421 7.33579 6.5 7.75 6.5C8.16421 6.5 8.5 6.16421 8.5 5.75V4.5H15V5.75C15 6.16421 15.3358 6.5 15.75 6.5C16.1642 6.5 16.5 6.16421 16.5 5.75V4.5H18.75Z" fill="white"/>
</svg>
