<?xml version="1.0" encoding="utf-8"?>
<!-- Generator: Adobe Illustrator 28.3.0, SVG Export Plug-In . SVG Version: 6.00 Build 0)  -->
<svg version="1.1" id="Calque_1" xmlns="http://www.w3.org/2000/svg" xmlns:xlink="http://www.w3.org/1999/xlink" x="0px" y="0px"
	 viewBox="0 0 102.3 99.3" style="enable-background:new 0 0 102.3 99.3;" xml:space="preserve">
<style type="text/css">
	.st0{fill:#C8910F;}
</style>
<g>
	<path class="st0" d="M51.3,18.4c1,0,1.9-0.8,1.9-1.9c0-1-0.8-1.9-1.9-1.9c-1,0-1.9,0.8-1.9,1.9C49.5,17.6,50.3,18.4,51.3,18.4z"/>
	<polygon class="st0" points="51.3,74.4 4.1,94 4.1,94 98.6,94 	"/>
	<path class="st0" d="M62,56.2v-8.3L59,45V34.9l1.4-1.4c-0.2-0.2-5-5.6-6.7-12.9h-5c-1.6,7-6.1,12.2-6.6,12.8l0,0l1.5,1.5V45
		l-2.9,2.9v8.3c-12.4,4.1-21.6,15.3-22.9,28.7l32.3-13.4l1.2-0.5l1.2,0.5l32.3,13.4C83.5,71.4,74.4,60.3,62,56.2z M54.5,38.2
		c0-0.5,0.2-1.3,1.2-1.3c1,0,1.2,0.8,1.2,1.3v8.4c-0.8-0.1-1.5-0.2-2.3-0.3V38.2z M49.8,37.7c0-0.8,0.3-1.8,1.6-1.8
		c1.4,0,1.6,1.1,1.6,1.8v8.5c-0.5,0-1.1,0-1.6,0c-0.5,0-1.1,0-1.6,0V37.7z M45.9,38.2c0-0.5,0.2-1.3,1.2-1.3c1,0,1.2,0.8,1.2,1.3
		v8.1c-0.8,0.1-1.6,0.2-2.3,0.3V38.2z"/>
</g>
</svg>
