<?xml version="1.0" encoding="UTF-8"?>
<svg width="128px" height="128px" viewBox="0 0 128 128" version="1.1" xmlns="http://www.w3.org/2000/svg" xmlns:xlink="http://www.w3.org/1999/xlink">
    <!-- Generator: Sketch 45.2 (43514) - http://www.bohemiancoding.com/sketch -->
    <title>Forme_2</title>
    <desc>Created with Sketch.</desc>
    <defs></defs>
    <g id="Page-1" stroke="none" stroke-width="1" fill="none" fill-rule="evenodd">
        <g id="Logotype-(vertical)" transform="translate(-192.000000, -136.000000)" fill="#03A9F4">
            <g id="Group" transform="translate(156.000000, 136.000000)">
                <path d="M100.003264,0 C74.1176347,-0.000941792187 50.7803914,15.5915845 40.873955,39.5066073 C30.9675185,63.42163 36.4428588,90.9493333 54.7467627,109.253237 C73.0506667,127.557141 100.57837,133.032482 124.493393,123.126045 C148.408415,113.219609 164.000942,89.8823653 164,63.9967362 C164,47.0237464 157.257506,30.7459262 145.25579,18.74421 C133.254074,6.74249392 116.976254,0 100.003264,0 Z M100.808928,110.154766 C78.9628582,110.154766 61.2638627,93.408131 61.2638627,72.7519293 C61.2638627,41.7827621 100.811256,17.8200779 100.811256,17.8200779 C100.811256,17.8200779 140.351665,40.0270665 140.351665,72.7519293 C140.351665,93.417445 122.641026,110.154766 100.808928,110.154766 Z M119.788603,81.5816347 C124.358744,81.5816349 128.063695,85.2862386 128.064123,89.8563791 C128.064552,94.4265196 124.360296,98.131818 119.790155,98.1326752 C115.220015,98.1335324 111.514369,94.4296239 111.513083,89.8594835 C111.520786,85.2937423 115.222856,81.5958387 119.788603,81.5932773 L119.788603,81.5816347 Z" id="Forme_2"></path>
            </g>
        </g>
    </g>
</svg>