<svg width="18" height="18" viewBox="0 0 18 18" fill="none" xmlns="http://www.w3.org/2000/svg">
<path d="M12.1366 4.8375H6.46885C5.98528 4.8375 5.59296 5.22983 5.59296 5.71339C5.59296 6.19696 5.98711 6.58929 6.46885 6.58929H10.0213L5.09443 11.5162C4.75228 11.8583 4.75228 12.4125 5.09443 12.7548C5.2645 12.9286 5.48712 13.0125 5.71339 13.0125C5.93966 13.0125 6.16156 12.927 6.33272 12.7559L11.2607 7.82648V11.379C11.2607 11.8625 11.653 12.2549 12.1366 12.2549C12.6202 12.2549 13.0125 11.8625 13.0125 11.379V5.71339C13.0125 5.23165 12.622 4.8375 12.1366 4.8375ZM14.7643 0.75H3.08571C1.7956 0.75 0.75 1.79596 0.75 3.08571V14.7643C0.75 16.054 1.7956 17.1 3.08571 17.1H14.7643C16.0544 17.1 17.1 16.054 17.1 14.7643V3.08571C17.1 1.79596 16.0526 0.75 14.7643 0.75ZM15.3482 14.7643C15.3482 15.0862 15.0862 15.3482 14.7643 15.3482H3.08571C2.76375 15.3482 2.50179 15.0862 2.50179 14.7643V3.08571C2.50179 2.76382 2.76375 2.50179 3.08571 2.50179H14.7643C15.0862 2.50179 15.3482 2.76382 15.3482 3.08571V14.7643Z" fill="white"/>
</svg>
