<?xml version="1.0" encoding="utf-8"?>
<!-- Generator: Adobe Illustrator 27.2.0, SVG Export Plug-In . SVG Version: 6.00 Build 0)  -->
<svg version="1.1" id="Calque_1" xmlns="http://www.w3.org/2000/svg" xmlns:xlink="http://www.w3.org/1999/xlink" x="0px" y="0px"
	 viewBox="0 0 18 18" style="enable-background:new 0 0 18 18;" xml:space="preserve">
<style type="text/css">
	.st0{fill:#00326E;}
</style>
<path class="st0" d="M12.1,4.8H6.5C6,4.8,5.6,5.2,5.6,5.7c0,0.5,0.4,0.9,0.9,0.9H10l-4.9,4.9c-0.3,0.3-0.3,0.9,0,1.2
	C5.3,12.9,5.5,13,5.7,13c0.2,0,0.4-0.1,0.6-0.3l4.9-4.9v3.6c0,0.5,0.4,0.9,0.9,0.9c0.5,0,0.9-0.4,0.9-0.9V5.7
	C13,5.2,12.6,4.8,12.1,4.8z M14.8,0.7H3.1c-1.3,0-2.3,1-2.3,2.3v11.7c0,1.3,1,2.3,2.3,2.3h11.7c1.3,0,2.3-1,2.3-2.3V3.1
	C17.1,1.8,16.1,0.7,14.8,0.7z M15.3,14.8c0,0.3-0.3,0.6-0.6,0.6H3.1c-0.3,0-0.6-0.3-0.6-0.6V3.1c0-0.3,0.3-0.6,0.6-0.6h11.7
	c0.3,0,0.6,0.3,0.6,0.6V14.8z"/>
</svg>
