<svg width="24" height="24" viewBox="0 0 24 24" fill="none" xmlns="http://www.w3.org/2000/svg">
<path d="M11.2143 12C11.6464 12 12 12.3375 12 12.75V17.25C12 17.6625 11.6464 18 11.2143 18H6.5C6.06786 18 5.71429 17.6625 5.71429 17.25V12.75C5.71429 12.3375 6.06786 12 6.5 12H11.2143ZM7.28571 0C7.93884 0 8.46429 0.503906 8.46429 1.125V3H15.5357V1.125C15.5357 0.503906 16.0612 0 16.7143 0C17.3674 0 17.8929 0.503906 17.8929 1.125V3H19.8571C21.5906 3 23 4.34297 23 6V21C23 22.6547 21.5906 24 19.8571 24H4.14286C2.40692 24 1 22.6547 1 21V6C1 4.34297 2.40692 3 4.14286 3H6.10714V1.125C6.10714 0.503906 6.63259 0 7.28571 0ZM20.6429 9H3.35714V21C3.35714 21.4125 3.70875 21.75 4.14286 21.75H19.8571C20.2893 21.75 20.6429 21.4125 20.6429 21V9Z" fill="#00214C"/>
</svg>
