<svg width="22" height="24" viewBox="0 0 22 24" fill="none" xmlns="http://www.w3.org/2000/svg">
<path d="M13.2357 14.25H8.56429C3.83446 14.25 0 17.9438 0 22.5C0 23.3283 0.697308 24 1.55714 24H20.2429C21.1027 24 21.8 23.3283 21.8 22.5C21.8 17.9438 17.9655 14.25 13.2357 14.25ZM2.38389 21.75C2.76831 18.7922 5.39161 16.5 8.56429 16.5H13.2357C16.4064 16.5 19.0312 18.7945 19.4156 21.75H2.38389ZM10.9 12C14.3398 12 17.1286 9.31359 17.1286 6C17.1286 2.68641 14.3398 0 10.9 0C7.46017 0 4.67143 2.68641 4.67143 6C4.67143 9.31406 7.45969 12 10.9 12ZM10.9 2.25C13.0464 2.25 14.7929 3.93234 14.7929 6C14.7929 8.06766 13.0464 9.75 10.9 9.75C8.75358 9.75 7.00714 8.06719 7.00714 6C7.00714 3.93234 8.75406 2.25 10.9 2.25Z" fill="#002C64"/>
</svg>
