<svg width="16" height="16" viewBox="0 0 16 16" fill="none" xmlns="http://www.w3.org/2000/svg">
<path d="M14.6556 13.5847C15.0948 14.0227 15.0948 14.7334 14.6556 15.1715C14.2164 15.6095 13.5038 15.6095 13.0645 15.1715L7.52518 9.60597L1.94648 15.1696C1.50726 15.6076 0.794638 15.6076 0.355374 15.1696C-0.0838901 14.7316 -0.0838432 14.0209 0.355374 13.5828L5.93595 8.02104L0.353827 2.41534C-0.0853903 1.97731 -0.0853903 1.26662 0.353827 0.82854C0.793044 0.390463 1.50567 0.39051 1.94493 0.82854L7.52518 6.43611L13.1039 0.872488C13.5431 0.434458 14.2557 0.434458 14.695 0.872488C15.1342 1.31052 15.1342 2.02121 14.695 2.45929L9.11441 8.02104L14.6556 13.5847Z" fill="white"/>
</svg>