<svg width="18" height="18" viewBox="0 0 18 18" fill="none" xmlns="http://www.w3.org/2000/svg">
<path d="M15.9856 10.1285C15.5363 9.99668 15.0695 10.2549 14.9397 10.7019C14.1786 13.3559 11.7353 15.1875 8.96846 15.1875C6.62951 15.1875 4.51064 13.8417 3.4665 11.8125H6.99619C7.46201 11.8125 7.83994 11.4346 7.83994 10.9688C7.83994 10.5029 7.49541 10.125 7.02783 10.125H1.40283C0.937012 10.125 0.559082 10.5029 0.559082 10.9688V16.5938C0.559082 17.0596 0.937012 17.4375 1.40283 17.4375C1.86865 17.4375 2.24658 17.0596 2.24658 16.5938V13.0043C3.6458 15.3422 6.19111 16.875 8.96846 16.875C12.4489 16.875 15.5567 14.5438 16.5306 11.2043C16.6923 10.7262 16.4321 10.2902 15.9856 10.1285ZM16.5938 0.5625C16.1298 0.5625 15.7501 0.94043 15.7501 1.40625V4.9957C14.3544 2.65605 11.8056 1.125 9.0001 1.125C5.51963 1.125 2.40936 3.45621 1.43834 6.7957C1.30756 7.24219 1.56455 7.70977 2.01174 7.83984C2.46314 7.97277 2.92896 7.7124 3.05764 7.26645C3.82158 4.64414 6.26494 2.8125 9.0001 2.8125C11.339 2.8125 13.4579 4.15828 14.5021 6.1875H10.9688C10.5048 6.1875 10.1251 6.56719 10.1251 7.03125C10.1251 7.49531 10.5048 7.875 10.9688 7.875H16.5938C17.0597 7.875 17.4376 7.49707 17.4376 7.03125V1.40625C17.4376 0.94043 17.0614 0.5625 16.5938 0.5625Z" fill="#ffffff"/>
</svg>