<svg width="48" height="48" viewBox="0 0 48 48" fill="none" xmlns="http://www.w3.org/2000/svg">
<circle cx="24" cy="24" r="23.5" stroke="#CFD6DF"/>
<g clip-path="url(#clip0_1952_5825)">
<path d="M23.4619 15.0376C23.7709 14.7655 24.2292 14.7655 24.5383 15.0376L33.705 23.0584C34.0557 23.3664 34.1008 23.9071 33.8022 24.2687C33.5036 24.6304 32.9793 24.6769 32.6286 24.369L31.7779 23.6242V30.3022C31.7779 31.8849 30.5348 33.1668 29.0001 33.1668H19C17.466 33.1668 16.2222 31.8849 16.2222 30.3022V23.6242L15.3726 24.369C15.0215 24.6769 14.4958 24.6304 14.1979 24.2687C13.9002 23.9071 13.9433 23.3664 14.2942 23.0584L23.4619 15.0376ZM17.8889 22.1668V30.3022C17.8889 30.936 18.3855 31.4481 19 31.4481H29.0001C29.6147 31.4481 30.1112 30.936 30.1112 30.3022V22.1668L24.0001 16.8197L17.8889 22.1668Z" fill="#00214C"/>
</g>
<defs>
<clipPath id="clip0_1952_5825">
<rect width="20" height="20" fill="white" transform="translate(14 14)"/>
</clipPath>
</defs>
</svg>