<svg width="15" height="20" viewBox="0 0 15 20" fill="none" xmlns="http://www.w3.org/2000/svg">
<path d="M10.625 7.51946C10.625 9.2505 9.22656 10.6526 7.5 10.6526C5.77344 10.6526 4.375 9.2505 4.375 7.51946C4.375 5.78842 5.77344 4.38635 7.5 4.38635C9.22656 4.38635 10.625 5.78842 10.625 7.51946ZM7.5 6.26622C6.80859 6.26622 6.25 6.82626 6.25 7.51946C6.25 8.21266 6.80859 8.7727 7.5 8.7727C8.19141 8.7727 8.75 8.21266 8.75 7.51946C8.75 6.82626 8.19141 6.26622 7.5 6.26622ZM15 7.51946C15 10.9424 10.4297 17.0363 8.42578 19.5506C7.94531 20.1498 7.05469 20.1498 6.57422 19.5506C4.53516 17.0363 0 10.9424 0 7.51946C0 3.36652 3.35781 0 7.5 0C11.6406 0 15 3.36652 15 7.51946ZM7.5 1.87986C4.39453 1.87986 1.875 4.40593 1.875 7.51946C1.875 8.00509 2.05039 8.75704 2.47266 9.75963C2.88203 10.7309 3.46328 11.804 4.13281 12.8888C5.24219 14.6982 6.53125 16.4136 7.5 17.6903C8.46875 16.4136 9.75781 14.6982 10.8672 12.8888C11.5352 11.804 12.1172 10.7309 12.5273 9.75963C12.9492 8.75704 13.125 8.00509 13.125 7.51946C13.125 4.40593 10.6055 1.87986 7.5 1.87986Z" fill="#00386e"/>
</svg>
