<?xml version="1.0" encoding="utf-8"?>
<!-- Generator: Adobe Illustrator 27.0.0, SVG Export Plug-In . SVG Version: 6.00 Build 0)  -->
<svg version="1.1" id="Layer_1" xmlns="http://www.w3.org/2000/svg" xmlns:xlink="http://www.w3.org/1999/xlink" x="0px" y="0px"
	 viewBox="0 0 512 512" style="enable-background:new 0 0 512 512;" xml:space="preserve">
<style type="text/css">
	.st0{display:none;}
	.st1{display:inline;}
</style>
<g>
	<g>
		<path d="M452.5,511H59.5c-4.3,0-7.7-3.5-7.7-7.7V8.7c0-4.3,3.5-7.7,7.7-7.7h307.7c1.9,0,3.7,0.7,5.1,2l85.2,76.3
			c1.6,1.5,2.6,3.6,2.6,5.8v418.2C460.2,507.5,456.7,511,452.5,511z M67.3,495.5h377.4v-407l-80.5-72.1h-297V495.5z"/>
	</g>
	<g>
		<path d="M452.5,92.8h-85.1c-4.3,0-7.7-3.4-7.7-7.7l-0.2-76.3c0-4.3,3.4-7.7,7.7-7.7c0,0,0,0,0,0c4.3,0,7.7,3.4,7.7,7.7l0.2,68.6
			h77.4c4.3,0,7.7,3.5,7.7,7.7C460.2,89.3,456.7,92.8,452.5,92.8z"/>
	</g>
	<g class="st0">
		<path class="st1" d="M101.5,37.2h16.8l17.7,42.7V37.2h11.7v68.7h-13.5l-20.9-49.7v49.7h-11.7V37.2z"/>
		<path class="st1" d="M159.9,37.2h41.8V49H175v15.9h20.7v11.8H175v16.9h26.7v12.3h-41.8V37.2z"/>
		<path class="st1" d="M202.1,37.2h15.4l7.2,47.5l9-47.5h13.8L256,85l8.4-47.8h12.7l-14.8,69h-13.5l-9.1-47.7l-9.4,47.7h-13.4
			L202.1,37.2z"/>
		<path class="st1" d="M325.2,52.1l-12.5,4.8c-1.8-5.7-5-8.5-9.8-8.5c-2.2,0-4,0.6-5.2,1.9c-1.3,1.3-1.9,2.7-1.9,4.4
			c0,2,0.8,3.5,2.3,4.7s4.7,2.7,9.6,4.5c4.4,1.6,7.9,3.3,10.4,4.9c2.5,1.6,4.6,3.8,6.1,6.6c1.6,2.8,2.3,6,2.3,9.6
			c0,6.4-2.2,11.7-6.6,15.8c-4.4,4.1-10.3,6.2-17.7,6.2c-12.4,0-20.4-6.3-23.9-18.9l13.2-3.8c1.6,6.9,5.3,10.4,11,10.4
			c2.6,0,4.7-0.7,6.4-2c1.6-1.4,2.4-3.2,2.4-5.4c0-1.7-0.6-3.2-1.7-4.5c-1.1-1.3-3.8-2.7-7.9-4.2c-5.3-1.9-9.2-3.6-11.8-5.1
			c-2.6-1.5-4.7-3.7-6.4-6.5c-1.7-2.8-2.5-6.1-2.5-9.7c0-6.2,2-11.2,6-15.2c4-4,9.2-5.9,15.8-5.9C314.8,36.1,322.3,41.5,325.2,52.1z
			"/>
	</g>
	<g>
		<g>
			<path d="M239.7,167h-136c-4.3,0-7.7-3.5-7.7-7.7c0-4.3,3.5-7.7,7.7-7.7h136c4.3,0,7.7,3.5,7.7,7.7C247.4,163.5,244,167,239.7,167
				z"/>
		</g>
		<g>
			<path d="M239.7,222.6h-136c-4.3,0-7.7-3.5-7.7-7.7c0-4.3,3.5-7.7,7.7-7.7h136c4.3,0,7.7,3.5,7.7,7.7S244,222.6,239.7,222.6z"/>
		</g>
		<g>
			<path d="M408.3,167h-136c-4.3,0-7.7-3.5-7.7-7.7c0-4.3,3.5-7.7,7.7-7.7h136c4.3,0,7.7,3.5,7.7,7.7C416,163.5,412.6,167,408.3,167
				z"/>
		</g>
		<g>
			<path d="M408.3,222.6h-136c-4.3,0-7.7-3.5-7.7-7.7c0-4.3,3.5-7.7,7.7-7.7h136c4.3,0,7.7,3.5,7.7,7.7
				C416,219.1,412.6,222.6,408.3,222.6z"/>
		</g>
	</g>
	<g>
		<g>
			<path d="M239.7,278.2h-136c-4.3,0-7.7-3.5-7.7-7.7c0-4.3,3.5-7.7,7.7-7.7h136c4.3,0,7.7,3.5,7.7,7.7S244,278.2,239.7,278.2z"/>
		</g>
		<g>
			<path d="M239.7,333.9h-136c-4.3,0-7.7-3.5-7.7-7.7c0-4.3,3.5-7.7,7.7-7.7h136c4.3,0,7.7,3.5,7.7,7.7S244,333.9,239.7,333.9z"/>
		</g>
		<g>
			<path d="M408.3,278.2h-136c-4.3,0-7.7-3.5-7.7-7.7c0-4.3,3.5-7.7,7.7-7.7h136c4.3,0,7.7,3.5,7.7,7.7
				C416,274.8,412.6,278.2,408.3,278.2z"/>
		</g>
		<g>
			<path d="M408.3,333.9h-136c-4.3,0-7.7-3.5-7.7-7.7c0-4.3,3.5-7.7,7.7-7.7h136c4.3,0,7.7,3.5,7.7,7.7
				C416,330.4,412.6,333.9,408.3,333.9z"/>
		</g>
	</g>
	<g>
		<g>
			<path d="M239.7,389.5h-136c-4.3,0-7.7-3.5-7.7-7.7c0-4.3,3.5-7.7,7.7-7.7h136c4.3,0,7.7,3.5,7.7,7.7
				C247.4,386.1,244,389.5,239.7,389.5z"/>
		</g>
		<g>
			<path d="M239.7,445.2h-136c-4.3,0-7.7-3.5-7.7-7.7c0-4.3,3.5-7.7,7.7-7.7h136c4.3,0,7.7,3.5,7.7,7.7S244,445.2,239.7,445.2z"/>
		</g>
		<g>
			<path d="M408.3,389.5h-136c-4.3,0-7.7-3.5-7.7-7.7c0-4.3,3.5-7.7,7.7-7.7h136c4.3,0,7.7,3.5,7.7,7.7
				C416,386.1,412.6,389.5,408.3,389.5z"/>
		</g>
		<g>
			<path d="M408.3,445.2h-136c-4.3,0-7.7-3.5-7.7-7.7c0-4.3,3.5-7.7,7.7-7.7h136c4.3,0,7.7,3.5,7.7,7.7
				C416,441.7,412.6,445.2,408.3,445.2z"/>
		</g>
	</g>
</g>
<g>
	<path d="M92.2,40.4c0-0.7,0.6-1.4,1.4-1.4h17.4c8.9,0,16.1,7.2,16.1,15.9c0,8.9-7.3,16.2-16.1,16.2h-7.6V88c0,0.7-0.6,1.4-1.4,1.4
		h-8.5c-0.8,0-1.4-0.6-1.4-1.4V40.4z M110.3,60.6c3.1,0,5.7-2.4,5.7-5.7c0-3-2.6-5.3-5.7-5.3h-6.8v11H110.3z"/>
	<path d="M134.4,40.4c0-0.7,0.6-1.4,1.4-1.4h21.5c8.6,0,15.7,7,15.7,15.6c0,6.6-4.4,12-10.7,14.5l9.9,18.3c0.5,0.9,0,2.1-1.2,2.1
		h-9.6c-0.6,0-1-0.4-1.2-0.6l-9.6-19.1h-5V88c0,0.7-0.6,1.4-1.4,1.4h-8.6c-0.8,0-1.4-0.6-1.4-1.4V40.4z M156.3,60.5
		c3,0,5.5-2.7,5.5-5.8c0-3-2.5-5.5-5.5-5.5h-10.7v11.2H156.3z"/>
	<path d="M182.6,40.4c0-0.7,0.6-1.4,1.4-1.4h29.8c0.8,0,1.4,0.6,1.4,1.4v7.8c0,0.7-0.6,1.4-1.4,1.4h-19.9v8.9h16.4
		c0.7,0,1.4,0.6,1.4,1.4v7.8c0,0.8-0.6,1.4-1.4,1.4h-16.4v9.7h19.9c0.8,0,1.4,0.6,1.4,1.4V88c0,0.7-0.6,1.4-1.4,1.4H184
		c-0.8,0-1.4-0.6-1.4-1.4V40.4z"/>
	<path d="M221.9,82.6l3.4-6c0.6-0.9,1.9-0.8,2.4-0.4c0.3,0.1,5.5,4,10.2,4c2.9,0,5-1.8,5-4.3c0-3-2.5-5.3-7.4-7.3
		c-6.2-2.4-14-7.3-14-15.9c0-7.1,5.5-14.3,16.6-14.3c7.5,0,13.2,3.8,15.4,5.4c0.9,0.5,0.7,1.8,0.4,2.3l-3.7,5.5
		c-0.5,0.8-1.8,1.4-2.4,0.9c-0.6-0.4-5.9-4.3-10.3-4.3c-2.6,0-4.5,1.7-4.5,3.7c0,2.7,2.2,4.7,7.8,7c5.6,2.2,14.5,6.6,14.5,16.4
		c0,7.4-6.4,14.9-17,14.9c-9.4,0-14.5-3.9-16.2-5.5C221.6,83.9,221.4,83.6,221.9,82.6z"/>
	<path d="M261.4,82.6l3.4-6c0.6-0.9,1.9-0.8,2.4-0.4c0.3,0.1,5.5,4,10.2,4c2.9,0,5-1.8,5-4.3c0-3-2.5-5.3-7.4-7.3
		c-6.2-2.4-14-7.3-14-15.9c0-7.1,5.5-14.3,16.6-14.3c7.5,0,13.2,3.8,15.4,5.4c0.9,0.5,0.7,1.8,0.4,2.3l-3.7,5.5
		c-0.5,0.8-1.8,1.4-2.4,0.9c-0.6-0.4-5.9-4.3-10.3-4.3c-2.6,0-4.5,1.7-4.5,3.7c0,2.7,2.2,4.7,7.8,7c5.6,2.2,14.5,6.6,14.5,16.4
		c0,7.4-6.4,14.9-17,14.9c-9.4,0-14.5-3.9-16.2-5.5C261,83.9,260.8,83.6,261.4,82.6z"/>
	<path d="M303.7,40.4c0-0.7,0.6-1.4,1.4-1.4h29.8c0.8,0,1.4,0.6,1.4,1.4v7.8c0,0.7-0.6,1.4-1.4,1.4H315v8.9h16.4
		c0.7,0,1.4,0.6,1.4,1.4v7.8c0,0.8-0.6,1.4-1.4,1.4H315v9.7h19.9c0.8,0,1.4,0.6,1.4,1.4V88c0,0.7-0.6,1.4-1.4,1.4h-29.8
		c-0.8,0-1.4-0.6-1.4-1.4V40.4z"/>
</g>
</svg>
