<svg width="24" height="16" viewBox="0 0 24 16" fill="none" xmlns="http://www.w3.org/2000/svg">
<path d="M15.7453 15.1718C15.4828 14.9515 15.3749 14.6656 15.3749 14.3749C15.3749 14.0843 15.4828 13.7984 15.7453 13.6203L20.159 9.12494L1.12494 9.12494C0.501504 9.12494 -5.66189e-05 8.61869 -5.65648e-05 7.99994C-5.65107e-05 7.38119 0.503848 6.87494 1.12494 6.87494L20.159 6.87494L15.7045 2.42041C15.265 1.98096 15.265 1.26916 15.7045 0.829472C16.1439 0.389784 16.8557 0.390019 17.2954 0.829472L23.6704 7.20447C24.1099 7.64393 24.1099 8.35572 23.6704 8.79541L17.2954 15.1704C16.8562 15.6096 16.1437 15.6096 15.7453 15.1718Z" fill="#00214C"/>
</svg>
