<svg width="24" height="16" viewBox="0 0 24 16" fill="none" xmlns="http://www.w3.org/2000/svg">
<path d="M8.29688 0.870287C8.51719 1.04841 8.625 1.33435 8.625 1.62497C8.625 1.9156 8.51513 2.2006 8.29542 2.42044L3.83906 6.87497L22.875 6.87498C23.4961 6.87498 24 7.38123 24 8.04216C24 8.62341 23.4961 9.12498 22.875 9.12498L3.83906 9.12497L8.29359 13.5795C8.73305 14.019 8.73305 14.7308 8.29359 15.1704C7.85414 15.6101 7.14234 15.6099 6.70266 15.1704L0.327656 8.79544C-0.111797 8.35599 -0.111797 7.64419 0.327657 7.2045L6.70266 0.829506C7.14375 0.392162 7.85625 0.392162 8.29688 0.870287Z" fill="#00214C"/>
</svg>
