<?xml version="1.0" ?><svg data-name="Layer 1" id="Layer_1" viewBox="0 0 512 512" xmlns="http://www.w3.org/2000/svg"><title/><path d="M186.6,346.5a5.24,5.24,0,0,0-5.24,5.25v34.12a5.24,5.24,0,0,0,10.48,0V351.75A5.24,5.24,0,0,0,186.6,346.5Z"/><path d="M139.86,346.5a5.25,5.25,0,0,0-5.24,5.25v34.12a5.25,5.25,0,0,0,10.49,0V351.75A5.25,5.25,0,0,0,139.86,346.5Z"/><path d="M279.36,346.5a5.25,5.25,0,0,0-5.25,5.25v34.12a5.25,5.25,0,0,0,10.49,0V351.75A5.25,5.25,0,0,0,279.36,346.5Z"/><path d="M232.62,346.5a5.24,5.24,0,0,0-5.24,5.25v34.12a5.25,5.25,0,0,0,10.49,0V351.75A5.25,5.25,0,0,0,232.62,346.5Z"/><path d="M373.19,325h-1.63a30.17,30.17,0,0,0,7.65-20A30.45,30.45,0,1,0,326,325h-1.62a26.78,26.78,0,0,0-21.95,11.49A26.78,26.78,0,0,0,280.43,325H278.8a30.17,30.17,0,0,0,7.65-20,30.45,30.45,0,0,0-60.9,0,30.17,30.17,0,0,0,7.65,20h-1.63a26.78,26.78,0,0,0-21.95,11.49,26.78,26.78,0,0,0-22-11.49h-1.62a30.46,30.46,0,1,0-45.61,0h-1.63A26.87,26.87,0,0,0,112,351.83v34a5.24,5.24,0,0,0,10.48,0v-34a16.38,16.38,0,0,1,16.35-16.35h48.86A16.37,16.37,0,0,1,204,351.83v34a5.24,5.24,0,0,0,5.25,5.24c.12,0,.23-.06.35-.07s.23.07.36.07a5.24,5.24,0,0,0,5.24-5.24v-34a16.38,16.38,0,0,1,16.35-16.35h48.86a16.38,16.38,0,0,1,16.35,16.35v34a5.24,5.24,0,0,0,5.24,5.24c.13,0,.23-.06.36-.07s.23.07.35.07a5.24,5.24,0,0,0,5.25-5.24v-34a16.37,16.37,0,0,1,16.35-16.35h48.86a16.38,16.38,0,0,1,16.35,16.35v34a5.24,5.24,0,0,0,10.48,0v-34A26.87,26.87,0,0,0,373.19,325ZM143.28,305a20,20,0,1,1,20,20A20,20,0,0,1,143.28,305ZM236,305a20,20,0,1,1,20,20A20,20,0,0,1,236,305Zm92.76,0a20,20,0,1,1,20,20A20,20,0,0,1,328.8,305Z"/><path d="M372.12,346.5a5.25,5.25,0,0,0-5.25,5.25v34.12a5.25,5.25,0,0,0,10.49,0V351.75A5.25,5.25,0,0,0,372.12,346.5Z"/><path d="M325.38,346.5a5.24,5.24,0,0,0-5.24,5.25v34.12a5.24,5.24,0,0,0,10.48,0V351.75A5.24,5.24,0,0,0,325.38,346.5Z"/><path d="M435.78,384.2l-45-133.76a5.25,5.25,0,0,0-5-3.58H311V204a28.63,28.63,0,0,0-28.59-28.59h-2.66a32.5,32.5,0,1,0-47.51,0h-2.65A28.63,28.63,0,0,0,201,204v42.89H126.15a5.25,5.25,0,0,0-5,3.58l-45,133.76a5.25,5.25,0,0,0,3.3,6.64,5.12,5.12,0,0,0,1.67.27,5.25,5.25,0,0,0,5-3.57l43.76-130.19H382.08l43.76,130.19a5.25,5.25,0,0,0,5,3.57,5.12,5.12,0,0,0,1.67-.27A5.25,5.25,0,0,0,435.78,384.2ZM234,153.38a22,22,0,1,1,22,22A22,22,0,0,1,234,153.38ZM211.49,204a18.12,18.12,0,0,1,18.1-18.1h52.82a18.12,18.12,0,0,1,18.1,18.1v42.89h-14v-43a5.24,5.24,0,0,0-10.48,0v43H236v-43a5.24,5.24,0,1,0-10.48,0v43h-14Z"/></svg>