<svg width="88" height="37" viewBox="0 0 88 37" fill="none" xmlns="http://www.w3.org/2000/svg">
<rect x="0.5" y="0.5" width="87" height="36" rx="18" stroke="#00326E"/>
<path d="M38.8977 23.715C38.8977 23.865 39.0177 24 39.1827 24H45.2877C45.4527 24 45.5727 23.865 45.5727 23.715V22.485C45.5727 22.335 45.4527 22.2 45.2877 22.2H40.8477V19.575H44.5527C44.7027 19.575 44.8377 19.455 44.8377 19.29V18.045C44.8377 17.895 44.7027 17.76 44.5527 17.76H40.8477V15.3H45.2877C45.4527 15.3 45.5727 15.165 45.5727 15.015V13.785C45.5727 13.635 45.4527 13.5 45.2877 13.5H39.1827C39.0177 13.5 38.8977 13.635 38.8977 13.785V23.715ZM47.7161 23.715C47.7161 23.865 47.8511 24 48.0011 24H49.3661C49.5311 24 49.6511 23.865 49.6511 23.715V17.265H49.6661L55.9361 24.15H56.2961C56.4461 24.15 56.5811 24.03 56.5811 23.88V13.785C56.5811 13.635 56.4461 13.5 56.2961 13.5H54.9161C54.7511 13.5 54.6311 13.635 54.6311 13.785V19.98H54.6161L48.3761 13.35H48.0011C47.8511 13.35 47.7161 13.47 47.7161 13.62V23.715ZM60.7276 23.715C60.7276 23.865 60.8626 24 61.0126 24H62.4076C62.5576 24 62.6926 23.865 62.6926 23.715V15.3H64.9876C65.1526 15.3 65.2726 15.165 65.2726 15.015V13.785C65.2726 13.635 65.1526 13.5 64.9876 13.5H58.4326C58.2676 13.5 58.1476 13.635 58.1476 13.785V15.015C58.1476 15.165 58.2676 15.3 58.4326 15.3H60.7276V23.715Z" fill="#00326E"/>
<path d="M29.7324 17.2918C29.5552 17.0985 29.3378 17 29.0836 17H22.0569V13.6658C22.0569 12.9289 22.2943 12.3014 22.7726 11.7798C23.2508 11.2581 23.8261 10.9991 24.5017 10.9991C25.1773 10.9991 25.7525 11.2581 26.2308 11.7798C26.709 12.3014 26.9465 12.9289 26.9465 13.6658C26.9465 13.8445 27.0067 14.0014 27.1271 14.1327C27.2475 14.264 27.3913 14.3297 27.5552 14.3297H28.1672C28.3311 14.3297 28.4749 14.264 28.5953 14.1327C28.7157 14.0014 28.7759 13.8445 28.7759 13.6658C28.7759 12.3817 28.3579 11.2836 27.5217 10.368C26.6856 9.456 25.6756 9 24.4983 9C23.3211 9 22.3144 9.456 21.4749 10.368C20.6388 11.28 20.2207 12.378 20.2207 13.6658V17H19.9164C19.6622 17 19.4448 17.0985 19.2676 17.2918C19.0903 17.4852 19 17.7223 19 17.9995V24.0005C19 24.2777 19.0903 24.5148 19.2676 24.7082C19.4448 24.9015 19.6622 25 19.9164 25H29.0836C29.3378 25 29.5552 24.9015 29.7324 24.7082C29.9097 24.5148 30 24.2777 30 24.0005V17.9995C30 17.7223 29.9097 17.4852 29.7324 17.2918Z" fill="#00326E"/>
</svg>
