<svg width="35" height="35" viewBox="0 0 35 35" fill="none" xmlns="http://www.w3.org/2000/svg">
<path d="M34.5 17.5C34.5 26.8888 26.8888 34.5 17.5 34.5C8.11116 34.5 0.5 26.8888 0.5 17.5C0.5 8.11116 8.11116 0.5 17.5 0.5C26.8888 0.5 34.5 8.11116 34.5 17.5Z" stroke="#00326E"/>
<path d="M9.63648 22.715C9.63648 22.865 9.75648 23 9.92148 23H11.3015C11.4515 23 11.5865 22.865 11.5865 22.715V18.92H15.2915C15.4415 18.92 15.5765 18.785 15.5765 18.635V17.405C15.5765 17.255 15.4415 17.12 15.2915 17.12H11.5865V14.3H16.0265C16.1915 14.3 16.3115 14.165 16.3115 14.015V12.785C16.3115 12.635 16.1915 12.5 16.0265 12.5H9.92148C9.75648 12.5 9.63648 12.635 9.63648 12.785V22.715ZM18.1033 22.715C18.1033 22.865 18.2233 23 18.3883 23H19.7683C19.9183 23 20.0533 22.865 20.0533 22.715V18.89H21.7183L23.7133 22.865C23.7433 22.925 23.8183 23 23.9533 23H25.5283C25.7833 23 25.8883 22.76 25.7833 22.565L23.7283 18.755C25.0333 18.23 25.9483 17.105 25.9483 15.725C25.9483 13.94 24.4783 12.5 22.6783 12.5H18.3883C18.2233 12.5 18.1033 12.635 18.1033 12.785V22.715ZM20.0683 17.285V14.3H22.5133C23.3083 14.3 23.9983 14.96 23.9983 15.755C23.9983 16.595 23.3083 17.285 22.5133 17.285H20.0683Z" fill="#00326E"/>
</svg>
