<svg width="11" height="16" viewBox="0 0 11 16" fill="none" xmlns="http://www.w3.org/2000/svg">
<path d="M10.7324 8.29184C10.5552 8.0985 10.3378 8 10.0836 8H3.05686V4.66576C3.05686 3.92886 3.29431 3.30141 3.77258 2.77975C4.25084 2.25809 4.82609 1.99909 5.50167 1.99909C6.17726 1.99909 6.75251 2.25809 7.23077 2.77975C7.70903 3.30141 7.94649 3.92886 7.94649 4.66576C7.94649 4.84451 8.00669 5.00137 8.12709 5.1327C8.24749 5.26402 8.3913 5.32969 8.55518 5.32969H9.16722C9.3311 5.32969 9.47492 5.26402 9.59532 5.1327C9.71572 5.00137 9.77592 4.84451 9.77592 4.66576C9.77592 3.38167 9.35786 2.28363 8.52174 1.36799C7.68562 0.455996 6.67559 0 5.49833 0C4.32107 0 3.31438 0.455996 2.47492 1.36799C1.6388 2.27998 1.22074 3.37802 1.22074 4.66576V8H0.916388C0.662207 8 0.444816 8.0985 0.267559 8.29184C0.090301 8.48518 0 8.7223 0 8.99954V15.0005C0 15.2777 0.090301 15.5148 0.267559 15.7082C0.444816 15.9015 0.662207 16 0.916388 16H10.0836C10.3378 16 10.5552 15.9015 10.7324 15.7082C10.9097 15.5148 11 15.2777 11 15.0005V8.99954C11 8.7223 10.9097 8.48518 10.7324 8.29184Z" fill="#00326E"/>
</svg>
