<svg width="71" height="60" viewBox="0 0 71 60" fill="none" xmlns="http://www.w3.org/2000/svg">
<path d="M35.4101 3.17285C36.2856 3.17285 36.9964 2.46203 36.9964 1.58651C36.9964 0.710981 36.2856 0.000158906 35.4101 0.000158906C34.5346 0.000158906 33.8237 0.710981 33.8237 1.58651C33.8237 2.46203 34.5346 3.17285 35.4101 3.17285Z" fill="#BE8719"/>
<path d="M35.4093 45.2568L0 60.0002H70.8187L35.4093 45.2568Z" fill="#BE8719"/>
<path d="M43.3664 31.6424V25.4283L41.1637 23.287V15.6889L42.2459 14.6144C42.0975 14.4507 38.4749 10.4342 37.2495 4.95685H33.5272C32.3504 10.2065 28.9709 14.1181 28.5641 14.576L28.5539 14.5939L29.6539 15.6889V23.287L27.4513 25.4283V31.6424C18.1672 34.7303 11.2803 43.0652 10.3184 53.1321L34.4968 43.0652L35.4075 42.684L36.3209 43.0652L60.4993 53.1321C59.5374 43.0652 52.6504 34.7303 43.3664 31.6424ZM37.7689 18.1807C37.7689 17.7713 37.9121 17.2008 38.6412 17.2008C39.3703 17.2008 39.5136 17.7816 39.5136 18.1807V24.4357C38.938 24.3436 38.3573 24.2694 37.7689 24.2157V18.1807ZM34.2333 17.7765C34.2333 17.206 34.4328 16.4103 35.451 16.4103C36.4692 16.4103 36.6688 17.2188 36.6688 17.7765V24.1415C36.2646 24.1236 35.8604 24.1108 35.451 24.1108C35.0417 24.1108 34.6375 24.121 34.2333 24.1415V17.7765ZM31.3271 18.1807C31.3271 17.7713 31.4703 17.2008 32.1994 17.2008C32.9286 17.2008 33.0718 17.7816 33.0718 18.1807V24.2234C32.4834 24.2771 31.9027 24.3513 31.3271 24.4459V18.1807Z" fill="#BE8719"/>
</svg>
