<?xml version="1.0" encoding="utf-8"?>
<!-- Generator: Adobe Illustrator 24.2.1, SVG Export Plug-In . SVG Version: 6.00 Build 0)  -->
<svg version="1.1" xmlns="http://www.w3.org/2000/svg" xmlns:xlink="http://www.w3.org/1999/xlink" x="0px" y="0px"
	 viewBox="0 0 143 143" style="enable-background:new 0 0 143 143;" xml:space="preserve">
<style type="text/css">
	.st0{fill:#14235C;}
	.st1{fill:#FFFFFF;}
</style>
<!--<g id="Calque_3">
	<path class="st0" d="M129.5,141.5H14c-6.6,0-12-5.4-12-12V14C2,7.4,7.4,2,14,2h115.5c6.6,0,12,5.4,12,12v115.5
		C141.5,136.1,136.1,141.5,129.5,141.5z"/>
</g>-->
<g id="Calque_0_xA0_Image_1_">
	<g>
		<path class="st1" d="M94.035,107.308c16.623-15.444,32.991-29.237,38.497-51.942c1.408,7.329-0.303,13.274-3.606,18.822
			c-9.503,15.964-22.843,28.028-38.566,37.629c-0.205,0.125-0.592-0.047-0.018,0.017c1.141-5.304,3.11-10.637,3.239-16.014
			c0.165-6.862-4.251-11.212-12.027-12.372c-18.599-2.776-34.56-11.36-49.774-21.732c-2.601-1.773-4.973-3.883-7.028-6.586
			c0.944,0.557,1.907,1.084,2.829,1.676c16.6,10.648,33.806,20.005,53.712,22.648c15.639,2.077,16.563,13.951,13.819,24.272
			C94.907,104.499,94.653,105.261,94.035,107.308z"/>
		<path class="st1" d="M12.646,86.853c17.845,12.103,37.853,19.562,57.479,27.808c-22.228-4.963-42.564-14.051-60.902-27.346
			c0.228-0.769,0.253-1.266,0.406-1.309c7.854-2.2,10.381-7.954,10.894-15.464c0.204-2.983,1.619-5.883,3.495-8.58
			c-0.554,5.088-0.916,10.207-1.734,15.252c-0.482,2.972-0.139,5.031,2.728,6.598c12.212,6.675,24.343,13.498,36.523,20.23
			c1.561,0.863,3.239,1.512,4.711,2.603c-11.88-3.122-22.95-8.148-33.472-14.42c-3.422-2.04-7.001-4.006-9.921-6.654
			C18.903,81.988,15.938,82.79,12.646,86.853z"/>
		<path class="st1" d="M76.353,28.519C63.45,41.336,46.914,45.48,29.616,47.765c7.238-2.759,14.773-4.935,21.634-8.433
			c7.482-3.814,14.303-8.91,21.501-13.303c1.324-0.808,3.419-1.736,4.566-1.24c14.703,6.359,29.299,12.968,42.301,18.788
			C114.383,44.168,91.953,37.466,76.353,28.519z"/>
		<path class="st1" d="M124.819,50.184c-9.613,11.785-19.654,23.084-33.717,29.812c-0.307-0.345-0.614-0.69-0.92-1.035
			c11.27-9.909,22.54-19.819,33.809-29.728C124.267,49.55,124.543,49.867,124.819,50.184z"/>
	</g>
</g>
</svg>
