<svg width="136" height="121" viewBox="0 0 136 121" fill="none" xmlns="http://www.w3.org/2000/svg">
<g clip-path="url(#clip0)">
<path d="M68.8562 14.7394C83.8027 14.7394 95.9192 11.5677 95.9192 7.65533C95.9192 3.74292 83.8027 0.571289 68.8562 0.571289C53.9097 0.571289 41.7932 3.74292 41.7932 7.65533C41.7932 11.5677 53.9097 14.7394 68.8562 14.7394Z" stroke="#7098C7" stroke-width="3.5" stroke-miterlimit="10" stroke-linecap="round" stroke-linejoin="round"/>
<path d="M95.8052 18.0527C95.8052 21.9375 83.701 25.1368 68.7422 25.1368C53.7833 25.1368 41.6792 21.9375 41.6792 18.0527" stroke="#7098C7" stroke-width="3.5" stroke-miterlimit="10" stroke-linecap="round" stroke-linejoin="round"/>
<path d="M95.805 28.5647C95.805 32.4495 83.7009 35.6487 68.742 35.6487C53.7831 35.6487 41.7932 32.4495 41.7932 28.5647" stroke="#7098C7" stroke-width="3.5" stroke-miterlimit="10" stroke-linecap="round" stroke-linejoin="round"/>
<path d="M81.303 45.2464C77.5348 45.8177 73.3098 46.0462 68.7422 46.0462C53.7833 46.0462 41.6792 42.847 41.6792 38.9622" stroke="#7098C7" stroke-width="3.5" stroke-miterlimit="10" stroke-linecap="round" stroke-linejoin="round"/>
<path d="M81.303 55.5298C77.5348 56.1011 73.424 56.3296 68.7422 56.3296C53.7833 56.3296 41.6792 53.1304 41.6792 49.2456" stroke="#7098C7" stroke-width="3.5" stroke-miterlimit="10" stroke-linecap="round" stroke-linejoin="round"/>
<path d="M81.303 65.9273C77.5348 66.4986 73.3098 66.7271 68.7422 66.7271C53.7833 66.7271 41.6792 63.5279 41.6792 59.6431" stroke="#7098C7" stroke-width="3.5" stroke-miterlimit="10" stroke-linecap="round" stroke-linejoin="round"/>
<path d="M81.303 76.439C77.5348 77.0103 73.3098 77.2388 68.7422 77.2388C53.7833 77.2388 41.6792 74.0396 41.6792 70.1548" stroke="#7098C7" stroke-width="3.5" stroke-miterlimit="10" stroke-linecap="round" stroke-linejoin="round"/>
<path d="M81.3029 86.8367C77.5347 87.408 73.3096 87.6365 68.742 87.6365C63.4893 87.6365 58.6933 87.2937 54.5825 86.6082" stroke="#7098C7" stroke-width="3.5" stroke-miterlimit="10" stroke-linecap="round" stroke-linejoin="round"/>
<path d="M81.3029 97.3484C77.5347 97.9197 73.1954 98.1482 68.6279 98.1482C63.3751 98.1482 58.6933 97.8054 54.5825 97.1199" stroke="#7098C7" stroke-width="3.5" stroke-miterlimit="10" stroke-linecap="round" stroke-linejoin="round"/>
<path d="M41.7932 7.65527V75.8677" stroke="#7098C7" stroke-width="3.5" stroke-miterlimit="10" stroke-linecap="round" stroke-linejoin="round"/>
<path d="M95.8054 7.65527V39.5335" stroke="#7098C7" stroke-width="3.5" stroke-miterlimit="10" stroke-linecap="round" stroke-linejoin="round"/>
<path d="M108.366 53.016C123.313 53.016 135.429 49.8444 135.429 45.9319C135.429 42.0195 123.313 38.8479 108.366 38.8479C93.4197 38.8479 81.3032 42.0195 81.3032 45.9319C81.3032 49.8444 93.4197 53.016 108.366 53.016Z" stroke="#7098C7" stroke-width="3.5" stroke-miterlimit="10" stroke-linecap="round" stroke-linejoin="round"/>
<path d="M135.429 56.4438C135.429 60.3286 123.325 63.5279 108.366 63.5279C93.4073 63.5279 81.3032 60.3286 81.3032 56.4438" stroke="#7098C7" stroke-width="3.5" stroke-miterlimit="10" stroke-linecap="round" stroke-linejoin="round"/>
<path d="M135.429 66.8413C135.429 70.7261 123.325 73.9253 108.366 73.9253C93.4073 73.9253 81.3032 70.7261 81.3032 66.8413" stroke="#7098C7" stroke-width="3.5" stroke-miterlimit="10" stroke-linecap="round" stroke-linejoin="round"/>
<path d="M135.429 77.239C135.429 81.1238 123.325 84.3231 108.366 84.3231C93.4073 84.3231 81.3032 81.1238 81.3032 77.239" stroke="#7098C7" stroke-width="3.5" stroke-miterlimit="10" stroke-linecap="round" stroke-linejoin="round"/>
<path d="M135.429 87.6365C135.429 91.5213 123.325 94.7205 108.366 94.7205C93.4073 94.7205 81.3032 91.5213 81.3032 87.6365" stroke="#7098C7" stroke-width="3.5" stroke-miterlimit="10" stroke-linecap="round" stroke-linejoin="round"/>
<path d="M135.429 98.0339C135.429 101.919 123.325 105.118 108.366 105.118C93.4073 105.118 81.3032 101.919 81.3032 98.0339" stroke="#7098C7" stroke-width="3.5" stroke-miterlimit="10" stroke-linecap="round" stroke-linejoin="round"/>
<path d="M135.429 108.546C135.429 112.431 123.325 115.63 108.366 115.63C93.4073 115.63 81.3032 112.431 81.3032 108.546" stroke="#7098C7" stroke-width="3.5" stroke-miterlimit="10" stroke-linecap="round" stroke-linejoin="round"/>
<path d="M81.3032 45.9321V108.546" stroke="#7098C7" stroke-width="3.5" stroke-miterlimit="10" stroke-linecap="round" stroke-linejoin="round"/>
<path d="M135.429 45.9321V108.546" stroke="#7098C7" stroke-width="3.5" stroke-miterlimit="10" stroke-linecap="round" stroke-linejoin="round"/>
<path d="M27.634 89.1219C42.5805 89.1219 54.697 85.9503 54.697 82.0379C54.697 78.1255 42.5805 74.9539 27.634 74.9539C12.6876 74.9539 0.571045 78.1255 0.571045 82.0379C0.571045 85.9503 12.6876 89.1219 27.634 89.1219Z" stroke="#7098C7" stroke-width="3.5" stroke-miterlimit="10" stroke-linecap="round" stroke-linejoin="round"/>
<path d="M54.5828 92.5496C54.5828 96.4344 42.4787 99.6336 27.5198 99.6336C12.561 99.6336 0.571045 96.4344 0.571045 92.5496" stroke="#7098C7" stroke-width="3.5" stroke-miterlimit="10" stroke-linecap="round" stroke-linejoin="round"/>
<path d="M54.5828 102.947C54.5828 106.832 42.4787 110.031 27.5198 110.031C12.561 110.031 0.571045 106.832 0.571045 102.947" stroke="#7098C7" stroke-width="3.5" stroke-miterlimit="10" stroke-linecap="round" stroke-linejoin="round"/>
<path d="M54.5827 113.345C54.5827 117.23 42.4786 120.429 27.5198 120.429C12.5609 120.429 0.456787 117.23 0.456787 113.345" stroke="#7098C7" stroke-width="3.5" stroke-miterlimit="10" stroke-linecap="round" stroke-linejoin="round"/>
<path d="M0.571045 82.0376V113.23" stroke="#7098C7" stroke-width="3.5" stroke-miterlimit="10" stroke-linecap="round" stroke-linejoin="round"/>
<path d="M54.5825 82.0376V113.23" stroke="#7098C7" stroke-width="3.5" stroke-miterlimit="10" stroke-linecap="round" stroke-linejoin="round"/>
</g>
<defs>
<clipPath id="clip0">
<rect width="136" height="121" fill="white"/>
</clipPath>
</defs>
</svg>
