<svg width="112" height="112" viewBox="0 0 112 112" fill="none" xmlns="http://www.w3.org/2000/svg">
<path d="M25.8997 13.9499H2C2 13.9499 2 2 13.9499 2C25.8997 2 25.8997 13.9499 25.8997 13.9499ZM25.8997 13.9499V97.599C25.8997 97.599 25.8997 109.549 37.8496 109.549C49.7995 109.549 49.7995 97.599 49.7995 97.599H109.549C109.549 97.599 109.549 109.549 97.599 109.549C85.6491 109.549 37.8496 109.549 37.8496 109.549" stroke="#7098C7" stroke-width="4" stroke-miterlimit="10" stroke-linecap="round" stroke-linejoin="round"/>
<path d="M85.6487 72.9999C85.6487 84.7519 85.6487 97.5991 85.6487 97.5991" stroke="#7098C7" stroke-width="4" stroke-miterlimit="10" stroke-linecap="round" stroke-linejoin="round"/>
<path d="M13.9495 2H73.6988C73.6988 2 85.6487 2 85.6487 13.9499C85.6487 16.1048 85.6487 20.2023 85.6487 25.4722" stroke="#7098C7" stroke-width="4" stroke-miterlimit="10" stroke-linecap="round" stroke-linejoin="round"/>
<path d="M69.6301 42.5804C69.6301 42.5804 69.6301 26.5636 85.6483 26.5636C101.666 26.5636 101.666 42.5804 101.666 42.5804C101.666 42.5804 101.666 58.5985 85.6483 58.5985C69.6301 58.5985 69.6301 42.5804 69.6301 42.5804Z" stroke="#7098C7" stroke-width="4" stroke-miterlimit="10" stroke-linecap="round" stroke-linejoin="round"/>
<path d="M75.5635 57.4129V82.3297L86.2427 71.6505L96.9205 82.3297V57.4129" stroke="#7098C7" stroke-width="4" stroke-miterlimit="10" stroke-linecap="round" stroke-linejoin="round"/>
<path d="M85.6483 47.9192C88.5969 47.9192 90.9872 45.5289 90.9872 42.5802C90.9872 39.6316 88.5969 37.2413 85.6483 37.2413C82.6997 37.2413 80.3093 39.6316 80.3093 42.5802C80.3093 45.5289 82.6997 47.9192 85.6483 47.9192Z" stroke="#7098C7" stroke-width="4" stroke-miterlimit="10" stroke-linecap="round" stroke-linejoin="round"/>
<path d="M38.7354 28.1082H59.5361" stroke="#7098C7" stroke-width="4" stroke-miterlimit="10" stroke-linecap="round" stroke-linejoin="round"/>
<path d="M38.7354 41.7521H59.5361" stroke="#7098C7" stroke-width="4" stroke-miterlimit="10" stroke-linecap="round" stroke-linejoin="round"/>
<path d="M38.7354 55.3971H59.5361" stroke="#7098C7" stroke-width="4" stroke-miterlimit="10" stroke-linecap="round" stroke-linejoin="round"/>
<path d="M38.7354 69.0415H59.5361" stroke="#7098C7" stroke-width="4" stroke-miterlimit="10" stroke-linecap="round" stroke-linejoin="round"/>
</svg>
