<svg width="83" height="112" viewBox="0 0 83 112" fill="none" xmlns="http://www.w3.org/2000/svg">
<path d="M76.5814 95.8504L39.6563 109.363L4.39355 96.104" stroke="#7098C7" stroke-width="4" stroke-miterlimit="10" stroke-linecap="round" stroke-linejoin="round"/>
<path d="M33.0065 72.8945C10.0721 76.3918 5.35585 90.4634 4.38525 96.1038" stroke="#7098C7" stroke-width="4" stroke-miterlimit="10" stroke-linecap="round" stroke-linejoin="round"/>
<path d="M48.0081 72.8945C70.6026 76.34 75.5153 90.0505 76.5828 95.8475" stroke="#7098C7" stroke-width="4" stroke-miterlimit="10" stroke-linecap="round" stroke-linejoin="round"/>
<path d="M60.1363 46.7233C60.1363 58.9002 51.3651 68.7695 40.5438 68.7695C29.7225 68.7695 20.9526 58.8989 20.9526 46.7233" stroke="#7098C7" stroke-width="4" stroke-miterlimit="10" stroke-linecap="round" stroke-linejoin="round"/>
<path d="M80.9289 16.5855L40.9313 31.2227L2 16.5855" stroke="#7098C7" stroke-width="4" stroke-miterlimit="10" stroke-linecap="round" stroke-linejoin="round"/>
<path d="M2 16.6386L41.9989 2L80.9289 16.6386" stroke="#7098C7" stroke-width="4" stroke-miterlimit="10" stroke-linecap="round" stroke-linejoin="round"/>
<path d="M20.9517 46.7231V25.3833" stroke="#7098C7" stroke-width="4" stroke-miterlimit="10" stroke-linecap="round" stroke-linejoin="round"/>
<path d="M60.1362 46.7231V25.3833" stroke="#7098C7" stroke-width="4" stroke-miterlimit="10" stroke-linecap="round" stroke-linejoin="round"/>
<path d="M33.2102 76.0863V68.5951" stroke="#7098C7" stroke-width="4" stroke-miterlimit="10" stroke-linecap="round" stroke-linejoin="round"/>
<path d="M48.0081 76.0863V68.5951" stroke="#7098C7" stroke-width="4" stroke-miterlimit="10" stroke-linecap="round" stroke-linejoin="round"/>
<path d="M20.9517 39.1254H60.0649" stroke="#7098C7" stroke-width="4" stroke-miterlimit="10" stroke-linecap="round" stroke-linejoin="round"/>
<path d="M40.6079 16.6387H78.1624" stroke="#7098C7" stroke-width="4" stroke-miterlimit="10" stroke-linecap="round" stroke-linejoin="round"/>
<path d="M80.9294 16.5193V39.1258" stroke="#7098C7" stroke-width="4" stroke-miterlimit="10" stroke-linecap="round" stroke-linejoin="round"/>
<path d="M48.0068 75.6974C48.0068 79.7829 44.694 81.8038 40.6085 81.8038C36.5217 81.8038 33.2102 79.7842 33.2102 75.6974" stroke="#7098C7" stroke-width="4" stroke-miterlimit="10" stroke-linecap="round" stroke-linejoin="round"/>
</svg>
