<?xml version="1.0" encoding="utf-8"?>
<!-- Generator: Adobe Illustrator 24.2.0, SVG Export Plug-In . SVG Version: 6.00 Build 0)  -->
<svg version="1.1" id="Calque_1" xmlns="http://www.w3.org/2000/svg" xmlns:xlink="http://www.w3.org/1999/xlink" x="0px" y="0px"
	 viewBox="0 0 254.62 141.15" style="enable-background:new 0 0 254.62 141.15;" xml:space="preserve"  width="40px" height="40px" >
<style type="text/css">
	.st0{fill:#FFFFFF;}
	.st1{fill:#00326E;}
</style>
<circle class="st0" cx="127.31" cy="69.72" r="37.28"/>
<g>
	<path class="st1" d="M129.51,104.15c14.32-4.88,24.1-18.21,24.18-32.34c0.01-1.97,0.1-3.95,0.26-5.92c0.2-2.48-0.78-3.18-3.08-2.29
		c-9.15,3.54-16.32,9.26-20.03,18.59C128.01,89.32,129.02,96.66,129.51,104.15z M125.33,96.42c0-3.86-0.08-7.13,0.01-10.39
		c0.38-13.41-8.51-25.85-21.3-29.78c-1.67-0.51-2.79-0.69-3.09,1.6C98.8,74.39,108.02,89.62,125.33,96.42z"/>
	<path class="st1" d="M129.51,104.15c-0.49-7.49-1.5-14.83,1.33-21.95c3.71-9.34,10.88-15.05,20.03-18.59
		c2.3-0.89,3.28-0.19,3.08,2.29c-0.16,1.97-0.24,3.94-0.26,5.92C153.61,85.94,143.83,99.27,129.51,104.15z"/>
	<path class="st1" d="M125.33,96.42c-17.31-6.8-26.53-22.02-24.38-38.57c0.3-2.29,1.42-2.11,3.09-1.6
		c12.79,3.93,21.69,16.37,21.3,29.78C125.25,89.29,125.33,92.55,125.33,96.42z"/>
</g>
<g>
	<path class="st1" d="M113.08,41.51c0-0.22,0.17-0.41,0.41-0.41h8.83c0.24,0,0.41,0.2,0.41,0.41v1.78c0,0.22-0.17,0.41-0.41,0.41
		h-6.42v3.56h5.36c0.22,0,0.41,0.2,0.41,0.41v1.8c0,0.24-0.2,0.41-0.41,0.41h-5.36v3.8h6.42c0.24,0,0.41,0.2,0.41,0.41v1.78
		c0,0.22-0.17,0.41-0.41,0.41h-8.83c-0.24,0-0.41-0.2-0.41-0.41V41.51z"/>
	<path class="st1" d="M125.84,41.51c0-0.22,0.17-0.41,0.41-0.41h5.1c2.67,0,4.86,2.17,4.86,4.79c0,2.69-2.19,4.88-4.84,4.88h-2.71
		v5.1c0,0.22-0.2,0.41-0.41,0.41h-2c-0.24,0-0.41-0.2-0.41-0.41V41.51z M131.18,48.12c1.21,0,2.23-0.98,2.23-2.26
		c0-1.19-1.02-2.1-2.23-2.1h-2.52v4.36H131.18z"/>
	<path class="st1" d="M138.69,41.51c0-0.22,0.19-0.41,0.41-0.41h2.02c0.22,0,0.41,0.2,0.41,0.41v14.36c0,0.22-0.19,0.41-0.41,0.41
		h-2.02c-0.22,0-0.41-0.2-0.41-0.41V41.51z"/>
</g>
</svg>
