<svg width="173" height="136" viewBox="0 0 173 136" fill="none" xmlns="http://www.w3.org/2000/svg">
<g clip-path="url(#clip0)">
<path d="M164.896 135.167H8.10449V64.1668H41.1829L86.5003 21.1667L131.818 64.1668H164.896V135.167Z" stroke="#7098C7" stroke-width="3.5" stroke-miterlimit="10" stroke-linecap="round" stroke-linejoin="round"/>
<path d="M104.197 84.5002H68.803V135H104.197V84.5002Z" stroke="#7098C7" stroke-width="3.5" stroke-miterlimit="10" stroke-linecap="round" stroke-linejoin="round"/>
<path d="M68.803 95.4998H104.197" stroke="#7098C7" stroke-width="3.5" stroke-miterlimit="10" stroke-linecap="round" stroke-linejoin="round"/>
<path d="M86.5 134.5V95.4998" stroke="#7098C7" stroke-width="3.5" stroke-miterlimit="10" stroke-linecap="round" stroke-linejoin="round"/>
<path d="M86.5 21.1666V0.833252" stroke="#7098C7" stroke-width="3.5" stroke-miterlimit="10" stroke-linecap="round" stroke-linejoin="round"/>
<path d="M68.8032 38H19.5164L0.827148 64.1667H41.1828L68.8032 38Z" stroke="#7098C7" stroke-width="3.5" stroke-miterlimit="10" stroke-linecap="round" stroke-linejoin="round"/>
<path d="M104.197 38H153.484L172.173 64.1667H131.817L104.197 38Z" stroke="#7098C7" stroke-width="3.5" stroke-miterlimit="10" stroke-linecap="round" stroke-linejoin="round"/>
<path d="M86.3346 69.3335C90.1711 69.3335 93.2811 66.1995 93.2811 62.3335C93.2811 58.4675 90.1711 55.3335 86.3346 55.3335C82.4982 55.3335 79.3882 58.4675 79.3882 62.3335C79.3882 66.1995 82.4982 69.3335 86.3346 69.3335Z" stroke="#7098C7" stroke-width="3.5" stroke-miterlimit="10" stroke-linecap="round" stroke-linejoin="round"/>
<path d="M86.5 5.66675H100.889L97.7466 9.66675L100.889 13.6667H86.5V5.66675Z" stroke="#7098C7" stroke-width="3.5" stroke-miterlimit="10" stroke-linecap="round" stroke-linejoin="round"/>
<path d="M34.2359 84.5002H24.147V96.6669H34.2359V84.5002Z" stroke="#7098C7" stroke-width="3.5" stroke-miterlimit="10" stroke-linecap="round" stroke-linejoin="round"/>
<path d="M51.6021 84.5002H41.5132V96.6669H51.6021V84.5002Z" stroke="#7098C7" stroke-width="3.5" stroke-miterlimit="10" stroke-linecap="round" stroke-linejoin="round"/>
<path d="M34.2359 103.167H24.147V115.333H34.2359V103.167Z" stroke="#7098C7" stroke-width="3.5" stroke-miterlimit="10" stroke-linecap="round" stroke-linejoin="round"/>
<path d="M51.6021 103.167H41.5132V115.333H51.6021V103.167Z" stroke="#7098C7" stroke-width="3.5" stroke-miterlimit="10" stroke-linecap="round" stroke-linejoin="round"/>
<path d="M129.833 84.5002H119.744V96.6669H129.833V84.5002Z" stroke="#7098C7" stroke-width="3.5" stroke-miterlimit="10" stroke-linecap="round" stroke-linejoin="round"/>
<path d="M147.199 84.5002H137.11V96.6669H147.199V84.5002Z" stroke="#7098C7" stroke-width="3.5" stroke-miterlimit="10" stroke-linecap="round" stroke-linejoin="round"/>
<path d="M129.833 103.167H119.744V115.333H129.833V103.167Z" stroke="#7098C7" stroke-width="3.5" stroke-miterlimit="10" stroke-linecap="round" stroke-linejoin="round"/>
<path d="M147.199 103.167H137.11V115.333H147.199V103.167Z" stroke="#7098C7" stroke-width="3.5" stroke-miterlimit="10" stroke-linecap="round" stroke-linejoin="round"/>
</g>
<defs>
<clipPath id="clip0">
<rect width="173" height="136" fill="white"/>
</clipPath>
</defs>
</svg>
