<svg width="149" height="146" viewBox="0 0 149 146" fill="none" xmlns="http://www.w3.org/2000/svg">
<path d="M70.7249 73.8354V126.517L87.171 110.071L103.614 126.517V73.8354" stroke="#7098C7" stroke-width="4" stroke-miterlimit="10" stroke-linecap="round" stroke-linejoin="round"/>
<path d="M70.726 106.339H2" stroke="#7098C7" stroke-width="4" stroke-miterlimit="10" stroke-linecap="round" stroke-linejoin="round"/>
<path d="M2 143.145H127.811C127.811 143.145 146.214 143.145 146.214 124.744C146.214 106.341 127.811 106.341 127.811 106.341H103.615" stroke="#7098C7" stroke-width="4" stroke-miterlimit="10" stroke-linecap="round" stroke-linejoin="round"/>
<path d="M11.793 106.617C15.4937 110.371 17.9585 117.145 17.9585 124.88C17.9585 132.617 15.4937 139.391 11.793 143.146" stroke="#7098C7" stroke-width="4" stroke-miterlimit="10" stroke-linecap="round" stroke-linejoin="round"/>
<path d="M103.619 90.9755H146.217" stroke="#7098C7" stroke-width="4" stroke-miterlimit="10" stroke-linecap="round" stroke-linejoin="round"/>
<path d="M146.216 54.1705H20.4049C20.4049 54.1705 2.00183 54.1705 2.00183 72.5719C2.00183 90.975 20.4049 90.975 20.4049 90.975H70.7261" stroke="#7098C7" stroke-width="4" stroke-miterlimit="10" stroke-linecap="round" stroke-linejoin="round"/>
<path d="M136.425 90.6994C132.725 86.9449 130.256 80.1709 130.256 72.4349C130.256 64.699 132.725 57.9233 136.425 54.1705" stroke="#7098C7" stroke-width="4" stroke-miterlimit="10" stroke-linecap="round" stroke-linejoin="round"/>
<path d="M2 38.8045H127.811C127.811 38.8045 146.214 38.8045 146.214 20.4031C146.214 2 127.811 2 127.811 2H2" stroke="#7098C7" stroke-width="4" stroke-miterlimit="10" stroke-linecap="round" stroke-linejoin="round"/>
<path d="M11.793 2.27563C15.4937 6.02836 17.9585 12.8023 17.9585 20.5383C17.9585 28.2743 15.4937 35.05 11.793 38.8027" stroke="#7098C7" stroke-width="4" stroke-miterlimit="10" stroke-linecap="round" stroke-linejoin="round"/>
<path d="M64.594 73.8354H109.59" stroke="#7098C7" stroke-width="4" stroke-miterlimit="10" stroke-linecap="round" stroke-linejoin="round"/>
</svg>
