<?xml version="1.0" encoding="utf-8"?>
<!-- Generator: Adobe Illustrator 25.4.0, SVG Export Plug-In . SVG Version: 6.00 Build 0)  -->
<svg version="1.1" xmlns="http://www.w3.org/2000/svg" xmlns:xlink="http://www.w3.org/1999/xlink" x="0px" y="0px"
	 viewBox="0 0 250.2 153.8" style="enable-background:new 0 0 250.2 153.8;" xml:space="preserve">
<style type="text/css">
	.st0{fill:#29235C;}
	.st1{fill:#E94E1B;}
	.st2{fill:#3C3C3B;}
	.st3{fill:#C6C6C6;}
	.st4{display:none;}
	.st5{display:inline;}
	.st6{display:none;fill:#29235C;}
	.st7{fill:#F6F6F6;}
	.st8{fill:#DADADA;}
</style>
<g id="Calque_1">
	<path class="st0" d="M73,12.4c2.7,0,5.1,0.9,7.3,2.8c2.2,1.9,3.3,4.2,3.3,7v73.6c0,1.3-0.3,2.5-0.8,3.7c-0.6,1.2-1.4,2.2-2.4,3.1
		c-1,0.9-2.2,1.7-3.4,2.2c-1.3,0.5-2.6,0.8-3.9,0.8c-2.5,0-4.7-1-6.8-2.9c-2-1.9-3.1-4.2-3.1-6.9v-24H29.7v24c0,2.7-1,5-3,6.9
		c-2,1.9-4.4,2.9-7.3,2.9c-3.2,0-5.8-0.9-7.8-2.8c-2-1.8-3-4.2-3.1-7V22.2c0-3,1.1-5.4,3.3-7.2c2.2-1.8,4.7-2.6,7.6-2.6
		c2.9,0,5.3,1,7.3,2.9c2,1.9,3,4.2,3,6.9V52h33.4V22.2c0-2.6,1-4.9,3.1-6.9C68.3,13.4,70.5,12.4,73,12.4z"/>
	<path class="st0" d="M168.9,92.4c1,2.5,0.9,5-0.1,7.5c-1.1,2.5-2.9,4.3-5.4,5.3c-2.5,1-7.4,0.9-9.9-0.2c-2.5-1.1-4.2-3-5.2-5.6
		l-1.3-3.2h-36.4l-1.2,3.2c-1,2.6-2.7,4.5-5.2,5.6c-2.5,1.1-7.4,1.2-9.9,0.2c-2.5-1.1-4.4-2.8-5.5-5.3c-1.1-2.5-1.2-5-0.2-7.5
		l28.6-73.5c0.8-1.8,2-3.3,3.8-4.5c1.8-1.3,5.9-1.9,7.8-1.9c2,0,6.2,0.6,7.9,1.8c1.7,1.2,2.9,2.7,3.7,4.7L168.9,92.4z M116.7,80.4
		h24.1l-12-31L116.7,80.4z"/>
	<path class="st0" d="M232,85.8c2.8,0,5.1,1,7.1,2.9c2,1.9,3,4.2,3,6.9c0,2.8-1,5.2-3,7.1c-2,1.9-4.4,2.8-7.1,2.8h-47.3
		c-3,0-5.4-1-7.4-2.8c-1.9-1.9-3-4.3-3.2-7.1V22.1c0-2.7,1-5,3.1-6.9c2-1.9,4.6-2.9,7.5-2.9c2.7,0,5,1,7.1,2.9
		c2.1,1.9,3.2,4.2,3.2,6.9v63.7H232z"/>
	<polygon class="st1" points="140.8,80.3 158.6,64 128.8,49.2 	"/>
	<g>
		<path class="st2" d="M17.9,132.6c0,1.7,0.7,2.9,2.3,4l-1.6,1.4c-0.5-0.3-1.4-1.2-1.9-2c-0.7,1.2-2.5,2.1-4.1,2.1
			c-2.5,0-4.4-1.5-4.4-3.9c0-2.6,2.1-3.9,5.3-3.9h2.3c0-1.7-1-2.9-2.9-2.9c-0.7,0-1.2,0.2-1.8,0.6l-1.3-1.4c0.9-0.7,1.8-1,3-1
			c3.2,0,5,2.1,5,4.6V132.6z M15.8,132.6v-0.8h-2.3c-2.3,0-3.2,0.9-3.2,2.3c0,1.2,1.1,2.2,2.2,2.2c2.2,0,3.3-2.2,3.3-2.2
			S15.8,133.2,15.8,132.6z"/>
		<path class="st2" d="M30,125.4v2.2c-2.8,0-3.8,2.9-3.8,2.9v7.2h-2.1v-6.9c0-1.7-0.7-2.9-2.3-4l1.6-1.4c1.1,0.8,1.6,1.5,2.2,2.4
			C25.5,127.9,27.5,125.4,30,125.4z"/>
		<path class="st2" d="M37.8,125.4c2.1,0,3.6,0.7,4.8,2.1l-1.6,1.2c-0.7-1-1.8-1.5-3.2-1.5c-2.5,0-3.6,2.3-3.6,4.5
			c0,2.1,1.2,4.5,3.6,4.5c1.4,0,2.5-0.5,3.2-1.5l1.6,1.2c-1.2,1.4-2.7,2.1-4.8,2.1c-3.6,0-5.8-2.9-5.8-6.3
			C32,128.4,34.2,125.4,37.8,125.4z"/>
		<path class="st2" d="M45.5,119.7h2.1v7.7c0,0,1.5-2,4.6-2c2.4,0,3.6,1.4,3.6,3.6v8.8h-2.1v-8.4c0-1.1-0.7-2.1-2.1-2.1
			c-2.6,0-3.9,2.6-3.9,2.6v7.9h-2.1V119.7z"/>
		<path class="st2" d="M63,122.2c0,0.7-0.6,1.2-1.4,1.2c-0.8,0-1.4-0.6-1.4-1.2c0-0.7,0.6-1.2,1.4-1.2C62.4,121,63,121.6,63,122.2z
			 M62.7,137.8h-2.2v-12.1h2.2V137.8z"/>
		<path class="st2" d="M76.3,125.6l2.1,0.7l-5.6,11.5h-1.5l-5.6-11.5l2.1-0.7l4.2,9.1L76.3,125.6z"/>
		<path class="st2" d="M82.6,133c0,0,0.5,3.3,3.3,3.3c2,0,3.2-1.5,3.2-1.5l1.6,1.2c0,0-1.5,2.1-4.8,2.1c-3.8,0-5.6-3-5.6-6.3
			c0-3.3,2.1-6.3,5.6-6.3c3,0,4.5,1.5,5.1,3.6c-1.3,2.4-3.8,3.9-7.2,3.9C83,133,82.6,133,82.6,133z M83.9,131.4
			c1.9,0,3.5-0.6,4.9-2.3c-0.5-1.1-1.4-1.8-2.8-1.8c-3.2,0-3.5,4.1-3.5,4.1S83.2,131.4,83.9,131.4z"/>
		<path class="st2" d="M96.3,132.2c-2-0.7-3-1.7-3-3.4c0-1.8,2-3.4,4.2-3.4c1.9,0,3.2,0.7,3.8,1.3l-1.4,1.4c-0.9-0.8-1.5-1-2.4-1
			c-1,0-2.1,0.6-2.1,1.6c0,1,1.1,1.4,2.1,1.8l1.2,0.4c1.4,0.5,2.9,1.3,2.9,3.3c0,2-2.2,3.7-4.5,3.7c-1.8,0-3.2-0.7-4.2-1.7l1.4-1.5
			c0.8,1,1.8,1.4,2.8,1.4c1.3,0,2.4-0.7,2.4-1.8c0-1-0.8-1.4-1.9-1.8L96.3,132.2z"/>
		<path class="st2" d="M113.3,130.2h-8.2v-2.1h8.2V130.2z"/>
		<path class="st2" d="M122.9,125.4c3.7,0,5.9,2.9,5.9,6.3c0,3.4-2.3,6.3-5.9,6.3c-3.7,0-5.9-2.9-5.9-6.3
			C117,128.4,119.3,125.4,122.9,125.4z M119.2,131.7c0,2.2,1.3,4.5,3.8,4.5c2.5,0,3.8-2.3,3.8-4.5c0-2.2-1.3-4.5-3.8-4.5
			C120.4,127.3,119.2,129.6,119.2,131.7z"/>
		<path class="st2" d="M136.1,138.1c-2.2,0-3.8-1.5-3.8-3.7v-8.7h2.1v8.4c0,1,0.9,2,2.2,2c2.2,0,3.6-2.6,3.6-2.6v-7.8h2.1v7.1
			c0,1.7,0.7,2.9,2.3,4l-1.6,1.4c-1.1-0.8-1.7-1.5-2.2-2.5C140.8,135.7,139,138.1,136.1,138.1z"/>
		<path class="st2" d="M156.4,125.6l2.1,0.7l-5.6,11.5h-1.5l-5.6-11.5l2.1-0.7l4.2,9.1L156.4,125.6z"/>
		<path class="st2" d="M162.7,133c0,0,0.5,3.3,3.3,3.3c2,0,3.2-1.5,3.2-1.5l1.6,1.2c0,0-1.5,2.1-4.8,2.1c-3.8,0-5.6-3-5.6-6.3
			c0-3.3,2.1-6.3,5.6-6.3c3,0,4.5,1.5,5.1,3.6c-1.3,2.4-3.8,3.9-7.2,3.9C163.1,133,162.7,133,162.7,133z M164,131.4
			c1.9,0,3.5-0.6,4.9-2.3c-0.5-1.1-1.4-1.8-2.9-1.8c-3.2,0-3.5,4.1-3.5,4.1S163.3,131.4,164,131.4z"/>
		<path class="st2" d="M181.2,125.4v2.2c-2.8,0-3.8,2.9-3.8,2.9v7.2h-2.1v-6.9c0-1.7-0.7-2.9-2.3-4l1.6-1.4c1.1,0.8,1.6,1.5,2.2,2.4
			C176.7,127.9,178.7,125.4,181.2,125.4z"/>
		<path class="st2" d="M187.5,132.7c0,1.7,0.7,2.9,2.3,4l-1.6,1.4c-2-1.5-2.8-3.1-2.8-5.4v-5.2h-2.4v-1.8h2.4V122h2.1v3.7h2.6v1.8
			h-2.6V132.7z"/>
		<path class="st2" d="M194.9,133c0,0,0.5,3.3,3.3,3.3c2,0,3.2-1.5,3.2-1.5l1.6,1.2c0,0-1.5,2.1-4.8,2.1c-3.8,0-5.6-3-5.6-6.3
			c0-3.3,2.1-6.3,5.6-6.3c3,0,4.5,1.5,5.1,3.6c-1.3,2.4-3.8,3.9-7.2,3.9C195.3,133,194.9,133,194.9,133z M196.1,131.4
			c1.9,0,3.5-0.6,4.9-2.3c-0.5-1.1-1.4-1.8-2.8-1.8c-3.2,0-3.5,4.1-3.5,4.1S195.4,131.4,196.1,131.4z"/>
		<path class="st2" d="M208.6,132.2c-2-0.7-3-1.7-3-3.4c0-1.8,2-3.4,4.2-3.4c1.9,0,3.2,0.7,3.8,1.3l-1.4,1.4c-0.9-0.8-1.5-1-2.4-1
			c-1,0-2.1,0.6-2.1,1.6c0,1,1.1,1.4,2.1,1.8l1.2,0.4c1.4,0.5,2.9,1.3,2.9,3.3c0,2-2.2,3.7-4.5,3.7c-1.8,0-3.2-0.7-4.2-1.7l1.4-1.5
			c0.8,1,1.8,1.4,2.8,1.4c1.3,0,2.4-0.7,2.4-1.8s-0.8-1.4-1.9-1.8L208.6,132.2z"/>
		<path class="st3" d="M220.5,136.6c0,0.8-0.7,1.4-1.6,1.4c-0.9,0-1.6-0.6-1.6-1.4c0-0.8,0.7-1.4,1.6-1.4
			C219.8,135.2,220.5,135.8,220.5,136.6z"/>
		<path class="st3" d="M229.2,138.2c0,2.3-0.9,3.9-2.8,5.4l-1.6-1.4c1.6-1,2.3-2.3,2.3-4v-10.7h-2.3v-1.8h2.3v-1.4
			c0-2.5,1.9-4.5,4.8-4.9l0.6,1.6c-1.9,0.3-3.3,1.6-3.3,3.3v1.4h2.6v1.8h-2.6V138.2z"/>
		<path class="st3" d="M241.8,125.4v2.2c-2.8,0-3.8,2.9-3.8,2.9v7.2h-2.1v-6.9c0-1.7-0.7-2.9-2.3-4l1.6-1.4c1.1,0.8,1.6,1.5,2.2,2.4
			C237.3,127.9,239.3,125.4,241.8,125.4z"/>
	</g>
</g>
<g id="Calque_2" class="st4">
	<g class="st5">
		<rect x="0.5" y="4.2" class="st6" width="246" height="150.1"/>
		<path class="st7" d="M73,12.4c2.7,0,5.1,0.9,7.3,2.8c2.2,1.8,3.3,4.2,3.3,7v73.6c0,1.3-0.3,2.5-0.8,3.7c-0.6,1.2-1.4,2.2-2.4,3.1
			c-1,0.9-2.2,1.7-3.4,2.2c-1.3,0.5-2.6,0.8-3.9,0.8c-2.5,0-4.7-1-6.8-2.9c-2-1.9-3.1-4.2-3.1-6.9v-24H29.7v24c0,2.7-1,5-3,6.9
			c-2,1.9-4.4,2.9-7.3,2.9c-3.2,0-5.8-0.9-7.8-2.8c-2-1.8-3-4.2-3.1-7V22.2c0-3,1.1-5.4,3.3-7.2c2.2-1.8,4.7-2.6,7.6-2.6
			c2.9,0,5.3,1,7.3,2.9c2,1.9,3,4.2,3,6.9V52h33.4V22.2c0-2.6,1-4.9,3.1-6.9C68.3,13.4,70.5,12.4,73,12.4z"/>
		<path class="st7" d="M168.9,92.4c1,2.5,0.9,5-0.1,7.5c-1.1,2.5-2.9,4.3-5.4,5.3c-2.5,1-7.4,0.9-9.9-0.2c-2.5-1.1-4.2-3-5.2-5.6
			l-1.3-3.2h-36.4l-1.2,3.2c-1,2.6-2.7,4.5-5.2,5.6c-2.5,1.1-7.4,1.2-9.9,0.2c-2.5-1.1-4.4-2.8-5.5-5.3c-1.1-2.5-1.2-5-0.2-7.5
			l28.6-73.5c0.8-1.8,2-3.3,3.8-4.5c1.8-1.3,5.9-1.9,7.8-1.9c2,0,6.2,0.6,7.9,1.8c1.7,1.2,2.9,2.7,3.7,4.7L168.9,92.4z M116.7,80.4
			h24.1l-12-31L116.7,80.4z"/>
		<path class="st7" d="M232,85.8c2.8,0,5.1,1,7.1,2.9c2,1.9,3,4.2,3,6.9c0,2.8-1,5.2-3,7.1c-2,1.9-4.4,2.8-7.1,2.8h-47.3
			c-3,0-5.4-1-7.4-2.8c-1.9-1.9-3-4.3-3.2-7.1V22.1c0-2.7,1-5,3.1-6.9c2-1.9,4.6-2.9,7.5-2.9c2.7,0,5,1,7.1,2.9
			c2.1,1.9,3.2,4.2,3.2,6.9v63.7H232z"/>
		<polygon class="st1" points="140.8,80.3 158.6,64 128.8,49.3 		"/>
		<g>
			<path class="st8" d="M17.9,132.6c0,1.7,0.7,2.9,2.3,4l-1.6,1.4c-0.5-0.3-1.4-1.2-1.9-2c-0.7,1.2-2.5,2.1-4.1,2.1
				c-2.5,0-4.4-1.5-4.4-3.9c0-2.6,2.1-3.9,5.3-3.9h2.3c0-1.7-1-2.9-2.9-2.9c-0.7,0-1.2,0.2-1.8,0.6l-1.3-1.4c0.9-0.7,1.8-1,3-1
				c3.2,0,5,2.1,5,4.6V132.6z M15.8,132.6v-0.8h-2.3c-2.3,0-3.2,0.9-3.2,2.3c0,1.2,1.1,2.2,2.2,2.2c2.2,0,3.3-2.2,3.3-2.2
				S15.8,133.2,15.8,132.6z"/>
			<path class="st8" d="M30,125.4v2.2c-2.8,0-3.8,2.9-3.8,2.9v7.2h-2.1v-6.9c0-1.7-0.7-2.9-2.3-4l1.6-1.4c1.1,0.8,1.6,1.5,2.2,2.4
				C25.5,127.9,27.5,125.4,30,125.4z"/>
			<path class="st8" d="M37.8,125.4c2.1,0,3.6,0.7,4.8,2.1l-1.6,1.2c-0.7-1-1.8-1.5-3.2-1.5c-2.5,0-3.6,2.3-3.6,4.5
				c0,2.1,1.2,4.5,3.6,4.5c1.4,0,2.5-0.5,3.2-1.5l1.6,1.2c-1.2,1.4-2.7,2.1-4.8,2.1c-3.6,0-5.8-2.9-5.8-6.3
				C32,128.4,34.2,125.4,37.8,125.4z"/>
			<path class="st8" d="M45.5,119.7h2.1v7.7c0,0,1.5-2,4.6-2c2.4,0,3.6,1.4,3.6,3.6v8.8h-2.1v-8.4c0-1.1-0.7-2.1-2.1-2.1
				c-2.6,0-3.9,2.6-3.9,2.6v7.9h-2.1V119.7z"/>
			<path class="st8" d="M63,122.2c0,0.7-0.6,1.2-1.4,1.2c-0.8,0-1.4-0.6-1.4-1.2c0-0.7,0.6-1.2,1.4-1.2C62.3,121,63,121.6,63,122.2z
				 M62.7,137.8h-2.2v-12.1h2.2V137.8z"/>
			<path class="st8" d="M76.3,125.6l2.1,0.7l-5.6,11.5h-1.5l-5.6-11.5l2.1-0.7l4.2,9.1L76.3,125.6z"/>
			<path class="st8" d="M82.6,133c0,0,0.5,3.3,3.3,3.3c2,0,3.2-1.5,3.2-1.5l1.6,1.2c0,0-1.5,2.1-4.8,2.1c-3.8,0-5.6-3-5.6-6.3
				c0-3.3,2.1-6.3,5.6-6.3c3,0,4.5,1.5,5.1,3.6c-1.3,2.4-3.8,3.9-7.2,3.9C83,133,82.6,133,82.6,133z M83.9,131.4
				c1.9,0,3.5-0.6,4.9-2.3c-0.5-1.1-1.4-1.8-2.8-1.8c-3.2,0-3.5,4.1-3.5,4.1S83.2,131.4,83.9,131.4z"/>
			<path class="st8" d="M96.3,132.2c-2-0.7-3-1.7-3-3.4c0-1.8,2-3.4,4.2-3.4c1.9,0,3.2,0.7,3.8,1.3l-1.4,1.4c-0.9-0.8-1.5-1-2.4-1
				c-1,0-2.1,0.6-2.1,1.6c0,1,1.1,1.4,2.1,1.8l1.2,0.4c1.4,0.5,2.9,1.3,2.9,3.3c0,2-2.2,3.7-4.5,3.7c-1.8,0-3.2-0.7-4.2-1.7l1.4-1.5
				c0.8,1,1.8,1.4,2.8,1.4c1.3,0,2.4-0.7,2.4-1.8c0-1-0.8-1.4-1.9-1.8L96.3,132.2z"/>
			<path class="st8" d="M113.3,130.2h-8.2v-2.1h8.2V130.2z"/>
			<path class="st8" d="M122.9,125.4c3.7,0,5.9,2.9,5.9,6.3c0,3.4-2.3,6.3-5.9,6.3c-3.7,0-5.9-2.9-5.9-6.3
				C117,128.4,119.3,125.4,122.9,125.4z M119.2,131.7c0,2.2,1.3,4.5,3.8,4.5c2.5,0,3.8-2.3,3.8-4.5c0-2.2-1.3-4.5-3.8-4.5
				C120.4,127.3,119.2,129.6,119.2,131.7z"/>
			<path class="st8" d="M136.1,138.1c-2.2,0-3.8-1.5-3.8-3.7v-8.7h2.1v8.4c0,1,0.9,2,2.2,2c2.2,0,3.6-2.6,3.6-2.6v-7.8h2.1v7.1
				c0,1.7,0.7,2.9,2.3,4l-1.6,1.4c-1.1-0.8-1.7-1.5-2.2-2.5C140.8,135.7,139,138.1,136.1,138.1z"/>
			<path class="st8" d="M156.4,125.6l2.1,0.7l-5.6,11.5h-1.5l-5.6-11.5l2.1-0.7l4.2,9.1L156.4,125.6z"/>
			<path class="st8" d="M162.7,133c0,0,0.5,3.3,3.3,3.3c2,0,3.2-1.5,3.2-1.5l1.6,1.2c0,0-1.5,2.1-4.8,2.1c-3.8,0-5.6-3-5.6-6.3
				c0-3.3,2.1-6.3,5.6-6.3c3,0,4.5,1.5,5.1,3.6c-1.3,2.4-3.8,3.9-7.2,3.9C163.1,133,162.7,133,162.7,133z M164,131.4
				c1.9,0,3.5-0.6,4.9-2.3c-0.5-1.1-1.4-1.8-2.9-1.8c-3.2,0-3.5,4.1-3.5,4.1S163.3,131.4,164,131.4z"/>
			<path class="st8" d="M181.2,125.4v2.2c-2.8,0-3.8,2.9-3.8,2.9v7.2h-2.1v-6.9c0-1.7-0.7-2.9-2.3-4l1.6-1.4
				c1.1,0.8,1.6,1.5,2.2,2.4C176.7,127.9,178.7,125.4,181.2,125.4z"/>
			<path class="st8" d="M187.5,132.7c0,1.7,0.7,2.9,2.3,4l-1.6,1.4c-2-1.5-2.8-3.1-2.8-5.4v-5.2h-2.4v-1.8h2.4V122h2.1v3.7h2.6v1.8
				h-2.6V132.7z"/>
			<path class="st8" d="M194.9,133c0,0,0.5,3.3,3.3,3.3c2,0,3.2-1.5,3.2-1.5l1.6,1.2c0,0-1.5,2.1-4.8,2.1c-3.8,0-5.6-3-5.6-6.3
				c0-3.3,2.1-6.3,5.6-6.3c3,0,4.5,1.5,5.1,3.6c-1.3,2.4-3.8,3.9-7.2,3.9C195.3,133,194.9,133,194.9,133z M196.1,131.4
				c1.9,0,3.5-0.6,4.9-2.3c-0.5-1.1-1.4-1.8-2.8-1.8c-3.2,0-3.5,4.1-3.5,4.1S195.4,131.4,196.1,131.4z"/>
			<path class="st8" d="M208.6,132.2c-2-0.7-3-1.7-3-3.4c0-1.8,2-3.4,4.2-3.4c1.9,0,3.2,0.7,3.8,1.3l-1.4,1.4c-0.9-0.8-1.5-1-2.4-1
				c-1,0-2.1,0.6-2.1,1.6c0,1,1.1,1.4,2.1,1.8l1.2,0.4c1.4,0.5,2.9,1.3,2.9,3.3c0,2-2.2,3.7-4.5,3.7c-1.8,0-3.2-0.7-4.2-1.7l1.4-1.5
				c0.8,1,1.8,1.4,2.8,1.4c1.3,0,2.4-0.7,2.4-1.8s-0.8-1.4-1.9-1.8L208.6,132.2z"/>
			<path class="st8" d="M220.5,136.6c0,0.8-0.7,1.4-1.6,1.4c-0.9,0-1.6-0.6-1.6-1.4c0-0.8,0.7-1.4,1.6-1.4
				C219.8,135.2,220.5,135.8,220.5,136.6z"/>
			<path class="st8" d="M229.2,138.2c0,2.3-0.9,3.9-2.8,5.4l-1.6-1.4c1.6-1,2.3-2.3,2.3-4v-10.7h-2.3v-1.8h2.3v-1.4
				c0-2.5,1.9-4.5,4.8-4.9l0.6,1.6c-1.9,0.3-3.3,1.6-3.3,3.3v1.4h2.6v1.8h-2.6V138.2z"/>
			<path class="st8" d="M241.8,125.4v2.2c-2.8,0-3.8,2.9-3.8,2.9v7.2h-2.1v-6.9c0-1.7-0.7-2.9-2.3-4l1.6-1.4
				c1.1,0.8,1.6,1.5,2.2,2.4C237.3,127.9,239.3,125.4,241.8,125.4z"/>
		</g>
	</g>
</g>
</svg>
