<svg width="165" height="165" viewBox="0 0 165 165" fill="none" xmlns="http://www.w3.org/2000/svg">
<path d="M55.9171 109.834C85.6947 109.834 109.834 85.6947 109.834 55.9171C109.834 26.1395 85.6947 2 55.9171 2C26.1395 2 2 26.1395 2 55.9171C2 85.6947 26.1395 109.834 55.9171 109.834Z" stroke="#7098C7" stroke-width="4" stroke-miterlimit="10" stroke-linecap="round" stroke-linejoin="round"/>
<path d="M55.9165 92.3357C76.0289 92.3357 92.3331 76.0315 92.3331 55.9191C92.3331 35.8068 76.0289 19.5026 55.9165 19.5026C35.8042 19.5026 19.4999 35.8068 19.4999 55.9191C19.4999 76.0315 35.8042 92.3357 55.9165 92.3357Z" stroke="#7098C7" stroke-width="4" stroke-miterlimit="10" stroke-linecap="round" stroke-linejoin="round"/>
<path d="M98.8419 114.107L143.78 159.043C143.78 159.043 151.411 166.672 159.037 159.043C166.668 151.413 159.037 143.78 159.037 143.78L114.107 98.8461L98.8419 114.107Z" stroke="#7098C7" stroke-width="4" stroke-miterlimit="10" stroke-linecap="round" stroke-linejoin="round"/>
<path d="M106.472 106.478L94.0394 94.0397" stroke="#7098C7" stroke-width="4" stroke-miterlimit="10" stroke-linecap="round" stroke-linejoin="round"/>
</svg>
