<?xml version="1.0" encoding="utf-8"?>
<!-- Generator: Adobe Illustrator 23.0.4, SVG Export Plug-In . SVG Version: 6.00 Build 0)  -->
<svg version="1.1" id="Calque_1" xmlns="http://www.w3.org/2000/svg" xmlns:xlink="http://www.w3.org/1999/xlink" x="0px" y="0px"
	 viewBox="0 0 100 85.3" style="enable-background:new 0 0 100 85.3;" xml:space="preserve">
<style type="text/css">
	.st0{fill:#C8910F;}
</style>
<g>
	<circle class="st0" cx="50" cy="4.5" r="1.9"/>
	<polygon class="st0" points="50,62.3 2.7,82 2.7,82 97.3,82 	"/>
	<path class="st0" d="M60.6,44.1v-8.3L57.7,33V22.8l1.4-1.4c-0.2-0.2-5-5.6-6.7-12.9h-5c-1.6,7-6.1,12.2-6.6,12.8l0,0l1.5,1.5V33
		l-2.9,2.9v8.3C27,48.3,17.8,59.4,16.5,72.8l32.3-13.4l1.2-0.5l1.2,0.5l32.3,13.4C82.2,59.4,73,48.3,60.6,44.1z M53.2,26.2
		c0-0.5,0.2-1.3,1.2-1.3s1.2,0.8,1.2,1.3v8.4c-0.8-0.1-1.5-0.2-2.3-0.3C53.2,34.2,53.2,26.2,53.2,26.2z M48.4,25.6
		c0-0.8,0.3-1.8,1.6-1.8c1.4,0,1.6,1.1,1.6,1.8v8.5c-0.5,0-1.1,0-1.6,0s-1.1,0-1.6,0C48.4,34.1,48.4,25.6,48.4,25.6z M44.6,26.2
		c0-0.5,0.2-1.3,1.2-1.3c1,0,1.2,0.8,1.2,1.3v8.1c-0.8,0.1-1.6,0.2-2.3,0.3V26.2z"/>
</g>
</svg>
