<svg width="124" height="128" viewBox="0 0 124 128" fill="none" xmlns="http://www.w3.org/2000/svg">
<path d="M61.76 128C74.2129 128 85.0921 125.171 94.3976 119.513C103.696 113.854 110.822 106.187 115.775 96.5248C120.72 86.8626 123.2 76.0187 123.2 64C123.2 51.9813 120.72 41.1443 115.775 31.4752C110.822 21.813 103.696 14.1458 94.3976 8.48745C85.0921 2.82915 74.2129 0 61.76 0C49.3071 0 38.4211 2.82915 29.1223 8.48745C19.8168 14.1458 12.6979 21.806 7.74539 31.4752C2.79286 41.1374 0.320007 51.9813 0.320007 64C0.320007 76.0187 2.79286 86.8557 7.74539 96.5248C12.6911 106.187 19.8168 113.854 29.1223 119.513C38.4211 125.178 49.3003 128 61.76 128Z" fill="#FFD700"/>
<mask id="mask0_435_14064" style="mask-type:alpha" maskUnits="userSpaceOnUse" x="0" y="0" width="124" height="128">
<path d="M61.76 128C74.2129 128 85.0921 125.171 94.3976 119.513C103.696 113.854 110.822 106.187 115.775 96.5248C120.72 86.8626 123.2 76.0187 123.2 64C123.2 51.9813 120.72 41.1443 115.775 31.4752C110.822 21.813 103.696 14.1458 94.3976 8.48745C85.0921 2.82915 74.2129 0 61.76 0C49.3071 0 38.4211 2.82915 29.1223 8.48745C19.8168 14.1458 12.6979 21.806 7.74539 31.4752C2.79286 41.1374 0.320007 51.9813 0.320007 64C0.320007 76.0187 2.79286 86.8557 7.74539 96.5248C12.6911 106.187 19.8168 113.854 29.1223 119.513C38.4211 125.178 49.3003 128 61.76 128Z" fill="#FFD700"/>
</mask>
<g mask="url(#mask0_435_14064)">
<path d="M63.1019 144.352V61.937L63.4201 56.6866L61.0335 61.1415L34.9408 102.826L32.3952 106.008L35.7363 105.849H41.464C44.54 105.849 47.1121 106.698 49.1804 108.395C51.3018 110.039 53.0254 112.107 54.3513 114.6C55.6771 117.092 56.6848 119.532 57.3742 121.918H11.0755V106.486L57.5333 32.8213H84.2624V105.849H97.1497V121.918H84.2624V144.352H63.1019Z" fill="white"/>
</g>
</svg>
