<svg width="124" height="128" viewBox="0 0 124 128" fill="none" xmlns="http://www.w3.org/2000/svg">
<path d="M61.88 128C74.3329 128 85.2121 125.171 94.5176 119.513C103.816 113.854 110.942 106.187 115.895 96.5248C120.84 86.8626 123.32 76.0187 123.32 64C123.32 51.9813 120.84 41.1443 115.895 31.4752C110.942 21.813 103.816 14.1458 94.5176 8.48745C85.2121 2.82915 74.3329 0 61.88 0C49.4271 0 38.5411 2.82915 29.2423 8.48745C19.9368 14.1458 12.8179 21.806 7.86539 31.4752C2.91286 41.1374 0.440002 51.9813 0.440002 64C0.440002 76.0187 2.91286 86.8557 7.86539 96.5248C12.8111 106.187 19.9368 113.854 29.2423 119.513C38.5411 125.178 49.4203 128 61.88 128Z" fill="#FFD700"/>
<mask id="mask0_435_14054" style="mask-type:alpha" maskUnits="userSpaceOnUse" x="0" y="0" width="124" height="128">
<path d="M61.88 128C74.3329 128 85.2121 125.171 94.5176 119.513C103.816 113.854 110.942 106.187 115.895 96.5248C120.84 86.8626 123.32 76.0187 123.32 64C123.32 51.9813 120.84 41.1443 115.895 31.4752C110.942 21.813 103.816 14.1458 94.5176 8.48745C85.2121 2.82915 74.3329 0 61.88 0C49.4271 0 38.5411 2.82915 29.2423 8.48745C19.9368 14.1458 12.8179 21.806 7.86539 31.4752C2.91286 41.1374 0.440002 51.9813 0.440002 64C0.440002 76.0187 2.91286 86.8557 7.86539 96.5248C12.8111 106.187 19.9368 113.854 29.2423 119.513C38.5411 125.178 49.4203 128 61.88 128Z" fill="#FFD700"/>
</mask>
<g mask="url(#mask0_435_14054)">
<path d="M16.7119 144.352V134.965C18.515 130.775 21.2728 126.267 24.9852 121.441C28.7506 116.562 32.8872 111.55 37.3951 106.406C41.956 101.262 46.3048 96.1173 50.4415 90.973C54.5781 85.8287 57.9988 80.87 60.7036 76.097C63.4083 71.3239 64.7607 66.9221 64.7607 62.8915C64.7607 57.8533 63.0371 53.9818 59.5899 51.2771C56.1426 48.5193 51.8204 47.1404 46.623 47.1404C44.1835 47.1404 41.2401 47.5382 37.7929 48.3337C34.3987 49.0761 30.7128 50.3224 26.7353 52.0726L21.0076 37.4352C26.258 34.9426 31.1901 33.2455 35.8041 32.3439C40.4181 31.3893 44.5547 30.912 48.2141 30.912C56.4343 30.912 63.5409 32.1318 69.5337 34.5713C75.5266 37.0109 80.1405 40.5111 83.3756 45.0721C86.6637 49.58 88.3078 54.9894 88.3078 61.3005C88.3078 65.4371 87.3797 69.7329 85.5235 74.1878C83.6673 78.5896 81.2012 83.0444 78.1252 87.5523C75.0493 92.0072 71.6816 96.4355 68.0223 100.837C64.416 105.186 60.8096 109.376 57.2033 113.406C53.65 117.437 50.4415 121.176 47.5777 124.623L45.032 127.487L48.6914 127.01H90.0579V144.352H16.7119Z" fill="white"/>
</g>
</svg>
