<svg width="124" height="128" viewBox="0 0 124 128" fill="none" xmlns="http://www.w3.org/2000/svg">
<path d="M62.32 128C74.7729 128 85.6521 125.171 94.9576 119.513C104.256 113.854 111.382 106.187 116.335 96.5248C121.28 86.8626 123.76 76.0187 123.76 64C123.76 51.9813 121.28 41.1443 116.335 31.4752C111.382 21.813 104.256 14.1458 94.9576 8.48745C85.6521 2.82915 74.7729 0 62.32 0C49.8671 0 38.9811 2.82915 29.6823 8.48745C20.3768 14.1458 13.2579 21.806 8.30539 31.4752C3.35286 41.1374 0.880005 51.9813 0.880005 64C0.880005 76.0187 3.35286 86.8557 8.30539 96.5248C13.2511 106.187 20.3768 113.854 29.6823 119.513C38.9811 125.178 49.8603 128 62.32 128Z" fill="#FFD700"/>
<mask id="mask0_435_14059" style="mask-type:alpha" maskUnits="userSpaceOnUse" x="0" y="0" width="124" height="128">
<path d="M62.32 128C74.7729 128 85.6521 125.171 94.9576 119.513C104.256 113.854 111.382 106.187 116.335 96.5248C121.28 86.8626 123.76 76.0187 123.76 64C123.76 51.9813 121.28 41.1443 116.335 31.4752C111.382 21.813 104.256 14.1458 94.9576 8.48745C85.6521 2.82915 74.7729 0 62.32 0C49.8671 0 38.9811 2.82915 29.6823 8.48745C20.3768 14.1458 13.2579 21.806 8.30539 31.4752C3.35286 41.1374 0.880005 51.9813 0.880005 64C0.880005 76.0187 3.35286 86.8557 8.30539 96.5248C13.2511 106.187 20.3768 113.854 29.6823 119.513C38.9811 125.178 49.8603 128 62.32 128Z" fill="#FFD700"/>
</mask>
<g mask="url(#mask0_435_14059)">
<path d="M46.352 146.102C40.5713 146.102 35.0028 145.439 29.6463 144.113C24.3429 142.787 19.1456 141.011 14.0543 138.783L19.3047 124.305C24.1838 126.426 28.5326 127.885 32.3511 128.68C36.1695 129.476 39.6698 129.874 42.8518 129.874C46.5642 129.874 50.1175 129.237 53.5116 127.964C56.9588 126.692 59.7696 124.809 61.944 122.316C64.1715 119.824 65.2852 116.774 65.2852 113.168C65.2852 108.395 63.9328 104.682 61.2281 102.031C58.5233 99.379 54.8375 97.5228 50.1705 96.4621C45.5035 95.4014 40.2001 94.8711 34.2603 94.8711L32.8284 81.3474L38.0787 79.12C42.9579 76.9986 47.1476 74.9568 50.6478 72.9946C54.148 70.9793 56.8263 68.8314 58.6824 66.5509C60.5386 64.2705 61.4667 61.6188 61.4667 58.5958C61.4667 54.9365 59.9553 52.1522 56.9323 50.243C53.9094 48.2807 50.2766 47.2996 46.0338 47.2996C43.0109 47.2996 39.7758 47.6443 36.3286 48.3337C32.9344 49.0232 28.7978 50.3756 23.9186 52.3908L18.5092 37.5944C24.6611 35.0487 30.2562 33.3251 35.2944 32.4235C40.3327 31.522 45.0262 31.0712 49.375 31.0712C56.0042 31.0712 61.9971 32.1053 67.3535 34.1737C72.7099 36.242 76.9527 39.2649 80.0817 43.2425C83.2637 47.167 84.8547 51.9135 84.8547 57.4821C84.8547 62.1491 83.4759 66.5774 80.7181 70.7671C77.9603 74.9038 73.8767 78.6427 68.4672 81.9838L64.4897 83.5748L68.149 84.3704C72.0735 85.9083 75.5738 88.0827 78.6498 90.8935C81.7788 93.7043 84.2183 97.019 85.9685 100.837C87.7716 104.656 88.6732 108.872 88.6732 113.486C88.6732 120.115 86.7374 125.869 82.866 130.749C79.0475 135.628 73.9297 139.42 67.5126 142.124C61.0955 144.776 54.042 146.102 46.352 146.102Z" fill="white"/>
</g>
</svg>
