<svg width="123" height="128" viewBox="0 0 123 128" fill="none" xmlns="http://www.w3.org/2000/svg">
<path d="M61.44 128C73.8929 128 84.7721 125.171 94.0776 119.513C103.376 113.854 110.502 106.187 115.455 96.5248C120.4 86.8626 122.88 76.0187 122.88 64C122.88 51.9813 120.4 41.1443 115.455 31.4752C110.502 21.813 103.376 14.1458 94.0776 8.48745C84.7721 2.82915 73.8929 0 61.44 0C48.9871 0 38.1011 2.82915 28.8023 8.48745C19.4968 14.1458 12.3779 21.806 7.42539 31.4752C2.47286 41.1374 0 51.9813 0 64C0 76.0187 2.47286 86.8557 7.42539 96.5248C12.3711 106.187 19.4968 113.854 28.8023 119.513C38.1011 125.178 48.9803 128 61.44 128Z" fill="#FFD700"/>
<mask id="mask0_435_14049" style="mask-type:alpha" maskUnits="userSpaceOnUse" x="0" y="0" width="123" height="128">
<path d="M61.44 128C73.8929 128 84.7721 125.171 94.0776 119.513C103.376 113.854 110.502 106.187 115.455 96.5248C120.4 86.8626 122.88 76.0187 122.88 64C122.88 51.9813 120.4 41.1443 115.455 31.4752C110.502 21.813 103.376 14.1458 94.0776 8.48745C84.7721 2.82915 73.8929 0 61.44 0C48.9871 0 38.1011 2.82915 28.8023 8.48745C19.4968 14.1458 12.3779 21.806 7.42539 31.4752C2.47286 41.1374 0 51.9813 0 64C0 76.0187 2.47286 86.8557 7.42539 96.5248C12.3711 106.187 19.4968 113.854 28.8023 119.513C38.1011 125.178 48.9803 128 61.44 128Z" fill="#FFD700"/>
</mask>
<g mask="url(#mask0_435_14049)">
<path d="M49.5279 144.352V55.8911L32.6631 64.6417L25.8217 51.9135L61.3015 32.8213H69.893V144.352H49.5279Z" fill="white"/>
</g>
</svg>
