<svg width="123" height="128" viewBox="0 0 123 128" fill="none" xmlns="http://www.w3.org/2000/svg">
<path d="M61.44 128C73.8929 128 84.7721 125.171 94.0776 119.513C103.376 113.854 110.502 106.187 115.455 96.5248C120.4 86.8626 122.88 76.0187 122.88 64C122.88 51.9813 120.4 41.1443 115.455 31.4752C110.502 21.813 103.376 14.1458 94.0776 8.48745C84.7721 2.82915 73.8929 0 61.44 0C48.9871 0 38.1011 2.82915 28.8023 8.48745C19.4968 14.1458 12.3779 21.806 7.42539 31.4752C2.47286 41.1374 0 51.9813 0 64C0 76.0187 2.47286 86.8557 7.42539 96.5248C12.3711 106.187 19.4968 113.854 28.8023 119.513C38.1011 125.178 48.9803 128 61.44 128Z" fill="#FFD700"/>
<mask id="mask0_435_14069" style="mask-type:alpha" maskUnits="userSpaceOnUse" x="0" y="0" width="123" height="128">
<path d="M61.44 128C73.8929 128 84.7721 125.171 94.0776 119.513C103.376 113.854 110.502 106.187 115.455 96.5248C120.4 86.8626 122.88 76.0187 122.88 64C122.88 51.9813 120.4 41.1443 115.455 31.4752C110.502 21.813 103.376 14.1458 94.0776 8.48745C84.7721 2.82915 73.8929 0 61.44 0C48.9871 0 38.1011 2.82915 28.8023 8.48745C19.4968 14.1458 12.3779 21.806 7.42539 31.4752C2.47286 41.1374 0 51.9813 0 64C0 76.0187 2.47286 86.8557 7.42539 96.5248C12.3711 106.187 19.4968 113.854 28.8023 119.513C38.1011 125.178 48.9803 128 61.44 128Z" fill="#FFD700"/>
</mask>
<g mask="url(#mask0_435_14069)">
<path d="M44.6138 146.261C41.909 146.261 39.0452 146.049 36.0223 145.625C32.9993 145.2 29.7377 144.458 26.2375 143.397C22.7372 142.284 18.9453 140.692 14.8617 138.624L20.112 124.146C25.6276 126.267 30.3211 127.779 34.1926 128.68C38.1171 129.582 41.5378 130.033 44.4547 130.033C48.9626 130.033 52.834 129.078 56.0691 127.169C59.3572 125.207 61.8763 122.714 63.6265 119.691C65.3766 116.668 66.2516 113.486 66.2516 110.145C66.2516 104.152 64.0242 99.5646 59.5694 96.3826C55.1145 93.1475 49.3868 91.5299 42.3863 91.5299C39.6816 91.5299 36.5526 91.689 32.9993 92.0073C29.446 92.2724 25.2033 92.8558 20.2711 93.7574L24.2487 32.8213H84.8666V50.1634H42.0681L40.318 74.0287L39.8407 76.2561L42.7045 75.6197C43.7652 75.5137 44.7198 75.4606 45.5684 75.4606C46.4169 75.4606 47.1594 75.4606 47.7958 75.4606C56.4934 75.4606 63.9712 77.0251 70.2292 80.1542C76.4872 83.2301 81.2868 87.4198 84.6279 92.7232C87.9691 98.0266 89.6396 103.94 89.6396 110.463C89.6396 117.623 87.6509 123.881 83.6733 129.237C79.7488 134.594 74.3924 138.783 67.604 141.806C60.8157 144.776 53.1522 146.261 44.6138 146.261Z" fill="white"/>
</g>
</svg>
