<svg width="100" height="113" viewBox="0 0 152 163" fill="none" xmlns="http://www.w3.org/2000/svg">
<path d="M35.8739 2.27441H2V160.789H35.8739V2.27441Z" stroke="#F6F0ED" stroke-width="4" stroke-miterlimit="10" stroke-linecap="round" stroke-linejoin="round"/>
<path d="M69.24 2.27654L86.176 42.8439V160.789H52.306V42.8439L69.24 2.27654Z" stroke="#F6F0ED" stroke-width="4" stroke-miterlimit="10" stroke-linecap="round" stroke-linejoin="round"/>
<path d="M119.54 160.789L102.604 120.222V2.43744H136.476V120.222L119.54 160.789Z" stroke="#F6F0ED" stroke-width="4" stroke-miterlimit="10" stroke-linecap="round" stroke-linejoin="round"/>
<path d="M35.8739 146.096H15.8305" stroke="#F6F0ED" stroke-width="4" stroke-miterlimit="10" stroke-linecap="round" stroke-linejoin="round"/>
<path d="M35.8739 133.183H23.9228" stroke="#F6F0ED" stroke-width="4" stroke-miterlimit="10" stroke-linecap="round" stroke-linejoin="round"/>
<path d="M35.8739 120.271H23.9228" stroke="#F6F0ED" stroke-width="4" stroke-miterlimit="10" stroke-linecap="round" stroke-linejoin="round"/>
<path d="M35.8739 107.356H23.9228" stroke="#F6F0ED" stroke-width="4" stroke-miterlimit="10" stroke-linecap="round" stroke-linejoin="round"/>
<path d="M35.8739 94.4441H23.9228" stroke="#F6F0ED" stroke-width="4" stroke-miterlimit="10" stroke-linecap="round" stroke-linejoin="round"/>
<path d="M35.8739 81.5316H15.8305" stroke="#F6F0ED" stroke-width="4" stroke-miterlimit="10" stroke-linecap="round" stroke-linejoin="round"/>
<path d="M35.8739 68.6192H23.9228" stroke="#F6F0ED" stroke-width="4" stroke-miterlimit="10" stroke-linecap="round" stroke-linejoin="round"/>
<path d="M35.8739 55.7068H23.9228" stroke="#F6F0ED" stroke-width="4" stroke-miterlimit="10" stroke-linecap="round" stroke-linejoin="round"/>
<path d="M35.8739 42.7944H23.9228" stroke="#F6F0ED" stroke-width="4" stroke-miterlimit="10" stroke-linecap="round" stroke-linejoin="round"/>
<path d="M35.8739 29.882H23.9228" stroke="#F6F0ED" stroke-width="4" stroke-miterlimit="10" stroke-linecap="round" stroke-linejoin="round"/>
<path d="M35.8739 16.9695H15.8305" stroke="#F6F0ED" stroke-width="4" stroke-miterlimit="10" stroke-linecap="round" stroke-linejoin="round"/>
<path d="M78.6208 26.7067H59.9919" stroke="#F6F0ED" stroke-width="4" stroke-miterlimit="10" stroke-linecap="round" stroke-linejoin="round"/>
<path d="M110.225 136.36H128.854" stroke="#F6F0ED" stroke-width="4" stroke-miterlimit="10" stroke-linecap="round" stroke-linejoin="round"/>
<path d="M102.604 14.6144H149.396" stroke="#F6F0ED" stroke-width="4" stroke-miterlimit="10" stroke-linecap="round" stroke-linejoin="round"/>
<path d="M149.396 14.6144V71.178" stroke="#F6F0ED" stroke-width="4" stroke-miterlimit="10" stroke-linecap="round" stroke-linejoin="round"/>
</svg>
