<svg width="175" height="148" viewBox="0 0 175 148" fill="none" xmlns="http://www.w3.org/2000/svg">
<path d="M114.326 100.872L95.5524 134.716L111.815 127.875L114.621 145.296L131.857 114.226" stroke="#7098C7" stroke-width="4" stroke-miterlimit="10" stroke-linecap="round" stroke-linejoin="round"/>
<path d="M154.765 102.81L172.462 134.716L156.198 127.875L153.394 145.296L136.158 114.226" stroke="#7098C7" stroke-width="4" stroke-miterlimit="10" stroke-linecap="round" stroke-linejoin="round"/>
<path d="M145.626 70.9159V2H2V99.7994H113.862C112.8 97.1931 112.203 94.3456 112.203 91.3595C112.203 78.9814 122.239 68.9468 134.617 68.9468C146.996 68.9468 157.028 78.9814 157.028 91.3595C157.028 94.3456 156.431 97.1931 155.369 99.7994" stroke="#7098C7" stroke-width="4" stroke-miterlimit="10" stroke-linecap="round" stroke-linejoin="round"/>
<path d="M113.866 99.7993C117.199 107.991 125.229 113.77 134.621 113.77C144.011 113.77 152.041 107.991 155.372 99.7993" stroke="#7098C7" stroke-width="4" stroke-miterlimit="10" stroke-linecap="round" stroke-linejoin="round"/>
<path d="M134.618 99.8786C139.162 99.8786 142.845 96.195 142.845 91.6511C142.845 87.1072 139.162 83.4236 134.618 83.4236C130.074 83.4236 126.39 87.1072 126.39 91.6511C126.39 96.195 130.074 99.8786 134.618 99.8786Z" stroke="#7098C7" stroke-width="4" stroke-miterlimit="10" stroke-linecap="round" stroke-linejoin="round"/>
<path d="M35.5309 33.9611H105.388" stroke="#7098C7" stroke-width="4" stroke-miterlimit="10" stroke-linecap="round" stroke-linejoin="round"/>
<path d="M35.5309 50.7275H105.388" stroke="#7098C7" stroke-width="4" stroke-miterlimit="10" stroke-linecap="round" stroke-linejoin="round"/>
<path d="M35.5309 67.4932H105.388" stroke="#7098C7" stroke-width="4" stroke-miterlimit="10" stroke-linecap="round" stroke-linejoin="round"/>
<path d="M112.769 86.3884H16.3665V15.4133H131.263V69.0064" stroke="#7098C7" stroke-width="4" stroke-miterlimit="10" stroke-linecap="round" stroke-linejoin="round"/>
</svg>
