<svg width="175" height="175" viewBox="0 0 175 175" fill="none" xmlns="http://www.w3.org/2000/svg">
<path d="M87.1609 41.1666C92.2486 41.1666 96.3729 37.0423 96.3729 31.9546C96.3729 26.867 92.2486 22.7427 87.1609 22.7427C82.0733 22.7427 77.949 26.867 77.949 31.9546C77.949 37.0423 82.0733 41.1666 87.1609 41.1666Z" stroke="#7098C7" stroke-width="4" stroke-miterlimit="10" stroke-linecap="round" stroke-linejoin="round"/>
<path d="M172.319 56.3769H2L87.1594 2L172.319 56.3769Z" stroke="#7098C7" stroke-width="4" stroke-miterlimit="10" stroke-linecap="round" stroke-linejoin="round"/>
<path d="M170.127 154.964H4.08368V172.462H170.127V154.964Z" stroke="#7098C7" stroke-width="4" stroke-miterlimit="10" stroke-linecap="round" stroke-linejoin="round"/>
<path d="M162.27 139.399H11.9451V154.963H162.27V139.399Z" stroke="#7098C7" stroke-width="4" stroke-miterlimit="10" stroke-linecap="round" stroke-linejoin="round"/>
<path d="M38.4667 139.151L36.4052 69.6411H40.039" stroke="#7098C7" stroke-width="4" stroke-miterlimit="10" stroke-linecap="round" stroke-linejoin="round"/>
<path d="M18.2313 69.6411H21.8629L19.8056 139.151" stroke="#7098C7" stroke-width="4" stroke-miterlimit="10" stroke-linecap="round" stroke-linejoin="round"/>
<path d="M21.8623 69.6495H36.4037" stroke="#7098C7" stroke-width="4" stroke-miterlimit="10" stroke-linecap="round" stroke-linejoin="round"/>
<path d="M77.114 139.151L75.0525 69.6411H78.6863" stroke="#7098C7" stroke-width="4" stroke-miterlimit="10" stroke-linecap="round" stroke-linejoin="round"/>
<path d="M56.8785 69.6411H60.5123L58.4528 139.151" stroke="#7098C7" stroke-width="4" stroke-miterlimit="10" stroke-linecap="round" stroke-linejoin="round"/>
<path d="M60.5117 69.6495H75.053" stroke="#7098C7" stroke-width="4" stroke-miterlimit="10" stroke-linecap="round" stroke-linejoin="round"/>
<path d="M115.759 139.151L113.7 69.6411H117.331" stroke="#7098C7" stroke-width="4" stroke-miterlimit="10" stroke-linecap="round" stroke-linejoin="round"/>
<path d="M95.5258 69.6411H99.1616L97.098 139.151" stroke="#7098C7" stroke-width="4" stroke-miterlimit="10" stroke-linecap="round" stroke-linejoin="round"/>
<path d="M99.1609 69.6495H113.7" stroke="#7098C7" stroke-width="4" stroke-miterlimit="10" stroke-linecap="round" stroke-linejoin="round"/>
<path d="M154.408 139.151L152.349 69.6411H155.983" stroke="#7098C7" stroke-width="4" stroke-miterlimit="10" stroke-linecap="round" stroke-linejoin="round"/>
<path d="M134.173 69.6411H137.807L135.749 139.151" stroke="#7098C7" stroke-width="4" stroke-miterlimit="10" stroke-linecap="round" stroke-linejoin="round"/>
<path d="M137.808 69.6495H152.35" stroke="#7098C7" stroke-width="4" stroke-miterlimit="10" stroke-linecap="round" stroke-linejoin="round"/>
</svg>
