<?xml version="1.0" encoding="UTF-8" standalone="no"?><!DOCTYPE svg PUBLIC "-//W3C//DTD SVG 1.1//EN" "http://www.w3.org/Graphics/SVG/1.1/DTD/svg11.dtd"><svg width="100%" height="100%" viewBox="0 0 1063 188" version="1.1" xmlns="http://www.w3.org/2000/svg" xmlns:xlink="http://www.w3.org/1999/xlink" xml:space="preserve" xmlns:serif="http://www.serif.com/" style="fill-rule:evenodd;clip-rule:evenodd;stroke-linejoin:round;stroke-miterlimit:2;"><g><path d="M570.463,81.448C570.463,72.353 568.779,65.69 565.429,61.478C562.058,57.265 557.483,55.159 551.679,55.159C547.6,55.159 544,55.714 540.9,56.844C537.8,57.974 535.329,59.448 533.492,61.306L534.083,64.082C534.621,65.652 534.867,68.236 534.867,71.798L534.867,140.21L509.154,140.21L509.175,140.21L509.175,72.985C509.175,66.264 508.292,61.286 506.492,58.051C504.712,54.815 501.054,53.206 495.521,53.206L493.55,53.206L493.55,47.271L513.117,47.271C517.6,47.271 521.121,47.826 523.688,48.956C526.254,50.085 528.262,51.943 529.717,54.585C536.438,48.381 546.071,45.299 558.592,45.299C567.688,45.299 575.096,46.869 580.879,49.951C580.267,48.649 579.671,47.347 579.004,46.064C571.592,31.896 560.929,20.656 547.025,12.366C533.108,4.075 516.833,-0.08 498.204,-0.08C479.571,-0.08 463.296,4.075 449.379,12.366C435.458,20.656 424.812,31.896 417.402,46.064C416.004,48.745 414.779,51.502 413.649,54.298C414.875,53.379 416.138,52.517 417.498,51.713C424.679,47.424 433.083,45.279 442.712,45.279C452.346,45.279 460.733,47.424 467.929,51.713C475.112,56.002 480.625,61.803 484.437,69.117C488.267,76.431 490.179,84.646 490.179,93.74C490.179,102.835 488.267,111.049 484.437,118.364C480.604,125.678 475.112,131.479 467.929,135.768C460.75,140.057 452.346,142.201 442.712,142.201C433.083,142.201 424.696,140.057 417.498,135.768C416.157,134.964 414.875,134.083 413.649,133.183C414.779,135.979 416.004,138.755 417.402,141.436C424.792,155.604 435.458,166.844 449.379,175.134C463.279,183.444 479.554,187.58 498.204,187.58C516.85,187.58 533.108,183.425 547.025,175.134C560.946,166.844 571.592,155.604 579.004,141.436C579.213,141.034 579.383,140.631 579.596,140.229L570.463,140.229L570.463,81.448Z" style="fill:#ffd700;fill-rule:nonzero;"/><path d="M442.712,133.26C449.433,133.26 454.587,129.641 458.146,122.384C461.708,115.128 463.488,105.574 463.488,93.702C463.488,81.831 461.708,72.277 458.146,65.02C454.587,57.783 449.454,54.145 442.712,54.145C435.975,54.145 430.842,57.764 427.283,65.02C423.721,72.277 421.942,81.831 421.942,93.702C421.942,105.574 423.721,115.128 427.283,122.384C430.842,129.622 435.975,133.26 442.712,133.26Z" style="fill:#ffd700;fill-rule:nonzero;"/><path d="M442.712,142.163C452.325,142.163 460.733,140.019 467.929,135.73C475.112,131.441 480.625,125.639 484.433,118.325C488.267,111.011 490.179,102.797 490.179,93.702C490.179,84.607 488.267,76.394 484.433,69.079C480.604,61.765 475.092,55.964 467.929,51.675C460.75,47.386 452.346,45.241 442.712,45.241C433.083,45.241 424.696,47.386 417.497,51.675C416.157,52.479 414.875,53.359 413.649,54.259C408.786,66.284 406.297,79.419 406.297,93.702C406.297,107.986 408.767,121.121 413.649,133.145C414.875,134.064 416.138,134.926 417.497,135.73C424.679,140.019 433.083,142.163 442.712,142.163ZM427.283,65.039C430.842,57.802 435.975,54.164 442.712,54.164C449.454,54.164 454.583,57.783 458.146,65.039C461.708,72.296 463.488,81.85 463.488,93.721C463.488,105.593 461.708,115.147 458.146,122.404C454.583,129.66 449.454,133.279 442.712,133.279C435.975,133.279 430.862,129.66 427.283,122.404C423.721,115.166 421.942,105.593 421.942,93.721C421.942,81.85 423.721,72.296 427.283,65.039Z" style="fill:#fff;fill-rule:nonzero;"/><path d="M580.879,49.913C575.096,46.83 567.683,45.26 558.592,45.26C546.067,45.26 536.438,48.362 529.717,54.546C528.262,51.904 526.25,50.028 523.688,48.917C521.121,47.788 517.579,47.232 513.117,47.232L493.55,47.232L493.55,53.168L495.521,53.168C501.054,53.168 504.712,54.796 506.492,58.012C508.271,61.248 509.171,66.207 509.171,72.947L509.171,140.172L534.867,140.172L534.867,71.76C534.867,68.199 534.6,65.633 534.083,64.044L533.488,61.267C535.325,59.429 537.817,57.936 540.9,56.806C544,55.676 547.6,55.121 551.679,55.121C557.479,55.121 562.054,57.227 565.425,61.439C568.796,65.652 570.463,72.315 570.463,81.41L570.463,140.134L579.596,140.134C586.583,126.271 590.125,110.781 590.125,93.664C590.125,77.638 587.025,63.048 580.896,49.875L580.879,49.913Z" style="fill:#fff;fill-rule:nonzero;"/><path d="M1060.17,10.719L1050.06,10.719L1008.22,108.063L976.896,33.925C972.662,23.739 967.246,17.019 960.642,13.706C954.262,10.509 946.854,8.9 938.525,8.785L938.525,8.747L843.938,8.747C832.529,8.747 826.842,14.108 826.842,24.85L826.842,41.967L832.871,41.967C832.871,33.389 834.846,27.205 838.808,23.452C842.771,19.699 848.496,17.823 856,17.823L870.288,17.823L870.288,141.57L896.442,141.57L896.442,17.785L939.158,17.785C939.404,18.014 939.675,18.206 939.904,18.455C942.871,21.499 945.879,26.65 948.921,33.925L995.104,143.561L1003.03,143.561L1060.13,10.719L1060.17,10.719Z" style="fill:#00326e;fill-rule:nonzero;"/><path d="M339.282,133.26C334.265,133.26 329.785,131.154 325.84,126.941C324.136,125.237 322.681,123.054 321.494,120.412L321.494,60.099C322.815,59.18 324.385,58.185 326.242,57.131C330.455,55.159 334.476,54.164 338.305,54.164C351.478,54.164 358.084,67.356 358.084,93.702C358.084,105.822 356.571,115.453 353.546,122.576C350.502,129.699 345.753,133.26 339.301,133.26L339.282,133.26ZM343.245,142.163C356.571,142.163 366.815,137.644 373.995,128.626C381.175,119.589 384.775,107.967 384.775,93.721C384.775,79.476 381.118,67.854 373.804,58.816C366.49,49.779 355.978,45.28 342.269,45.28C337.52,45.28 332.446,46.275 327.047,48.247C325.075,49.166 323.217,50.162 321.513,51.215L321.513,35.4C321.513,28.679 320.977,23.509 319.943,19.872C318.89,16.253 317.11,13.649 314.601,12.06C312.093,10.49 308.474,9.685 303.726,9.685L279.983,9.685L279.983,15.621L281.956,15.621C287.489,15.621 291.185,17.248 293.042,20.465C294.88,23.701 295.818,28.66 295.818,35.4L295.818,140.21L312.629,140.21L319.541,131.307L320.537,131.307C321.858,133.413 323.639,135.251 325.879,136.84C330.34,140.383 336.142,142.163 343.264,142.163L343.245,142.163ZM280.558,49.224C276.862,46.581 272.172,45.261 266.523,45.261C257.026,45.261 248.717,48.362 241.613,54.547C240.158,51.904 238.147,50.028 235.582,48.918C233.016,47.788 229.493,47.233 225.012,47.233L205.445,47.233L205.445,53.168L207.417,53.168C212.95,53.168 216.607,54.796 218.388,58.012C220.168,61.248 221.049,66.207 221.049,72.947L221.049,140.172L246.764,140.172L246.764,73.732C246.764,71.76 246.63,69.577 246.361,67.203L245.959,64.235C250.037,60.157 255.916,58.108 263.555,58.108C267.366,58.108 270.735,59.429 273.646,62.071C275.101,63.393 276.288,64.637 277.207,65.824L287.297,58.108C287.297,57.974 286.762,56.902 285.708,54.853C284.636,52.824 282.932,50.947 280.558,49.224ZM154.59,133.279C147.87,133.279 142.738,129.66 139.157,122.404C135.596,115.166 133.815,105.593 133.815,93.721C133.815,81.85 135.596,72.296 139.157,65.039C142.719,57.802 147.85,54.164 154.59,54.164C161.33,54.164 166.442,57.783 170.022,65.039C173.584,72.296 175.365,81.85 175.365,93.721C175.365,105.593 173.584,115.147 170.022,122.404C166.461,129.641 161.33,133.279 154.59,133.279ZM154.59,142.182C164.202,142.182 172.607,140.038 179.807,135.749C186.987,131.46 192.501,125.659 196.311,118.344C200.141,111.03 202.055,102.816 202.055,93.721C202.055,84.626 200.141,76.413 196.311,69.099C192.482,61.784 186.987,55.983 179.807,51.694C172.627,47.405 164.221,45.261 154.59,45.261C144.959,45.261 136.573,47.405 129.373,51.694C122.193,55.983 116.679,61.784 112.869,69.099C109.04,76.413 107.125,84.626 107.125,93.721C107.125,102.816 109.04,111.03 112.869,118.344C116.698,125.659 122.193,131.46 129.373,135.749C136.554,140.038 144.959,142.182 154.59,142.182ZM47.022,143.561C62.838,143.561 75.072,140.306 83.708,133.777C92.343,127.248 96.651,118.249 96.651,106.78C96.651,99.657 94.641,93.568 90.62,88.494C86.599,83.42 79.974,78.174 70.745,72.775L46.429,58.338C39.172,54.126 33.945,50.334 30.709,46.964C27.473,43.595 25.865,39.344 25.865,34.213C25.865,28.277 27.952,23.605 32.088,20.178C36.243,16.751 41.872,15.027 48.995,15.027C59.276,15.027 67.452,17.995 73.502,23.931C79.572,29.866 83.708,39.555 85.967,52.996L91.501,52.996L91.501,29.847C91.501,25.099 89.337,20.925 84.972,17.287C80.625,13.668 75.015,10.892 68.16,8.977C61.306,7.062 54.183,6.105 46.812,6.105C33.237,6.105 22.457,9.149 14.472,15.2C6.507,21.25 2.525,29.502 2.525,39.919C2.525,47.309 4.401,53.762 8.154,59.295C11.907,64.829 18.206,70.171 27.033,75.321L51.35,89.949C58.338,94.296 63.47,98.317 66.782,102.012C70.075,105.707 71.722,110.188 71.722,115.453C71.722,121.657 69.482,126.405 65.001,129.679C60.521,132.973 54.451,134.619 46.812,134.619C35.477,134.619 26.65,131.651 20.312,125.716C13.994,119.781 9.82,110.092 7.848,96.651L2.333,96.651L2.333,119.8C2.333,124.548 4.497,128.741 8.862,132.36C13.209,135.979 18.819,138.755 25.673,140.67C32.528,142.584 39.651,143.542 47.042,143.542L47.022,143.561Z" style="fill:#00326e;fill-rule:nonzero;"/><path d="M740.583,88.379C740.583,76.259 742.133,67.528 745.233,62.186C748.338,56.844 752.396,54.183 757.392,54.183C762.792,54.183 766.946,56.787 769.858,61.995C772.75,67.203 774.204,76.01 774.204,88.399L740.583,88.399L740.583,88.379ZM759.367,142.163C768.979,142.163 776.675,140.191 782.4,136.228C788.142,132.283 792.913,127.324 796.742,121.389L790.613,116.851C786.65,122.135 782.533,126.176 778.246,129.009C773.954,131.843 768.65,133.26 762.333,133.26C755.479,133.26 750.138,130.388 746.308,124.663C742.479,118.919 740.563,109.805 740.563,97.264L800.092,97.264L800.492,93.319C800.762,90.16 800.896,87.326 800.896,84.818C800.896,77.044 798.979,70.151 795.15,64.159C791.321,58.165 786.112,53.513 779.529,50.219C772.942,46.926 765.55,45.279 757.375,45.279C749.2,45.279 741.617,47.156 735.029,50.909C728.442,54.661 723.254,60.176 719.5,67.414C715.75,74.67 713.871,83.439 713.871,93.721C713.871,102.95 715.75,111.221 719.5,118.536C723.254,125.85 728.558,131.613 735.412,135.845C742.267,140.076 750.233,142.201 759.346,142.201L759.367,142.163ZM612.642,140.191L638.358,140.191L638.358,71.779C638.358,68.218 638.088,65.652 637.554,64.063L636.958,61.286C638.796,59.448 641.287,57.955 644.387,56.825C647.492,55.696 651.071,55.14 655.167,55.14C660.971,55.14 665.546,57.246 668.917,61.478C672.283,65.69 673.95,72.353 673.95,81.448L673.95,140.191L699.667,140.191L699.667,81.659C699.667,69.136 696.546,59.946 690.263,54.068C684.004,48.19 674.6,45.26 662.1,45.26C649.596,45.26 639.946,48.362 633.225,54.546C631.771,51.904 629.758,50.028 627.196,48.917C624.629,47.788 621.104,47.232 616.604,47.232L597.038,47.232L597.038,53.168L599.008,53.168C604.542,53.168 608.2,54.796 609.979,58.012C611.763,61.248 612.642,66.207 612.642,72.947L612.642,140.191Z" style="fill:#00326e;fill-rule:nonzero;"/></g></svg>